<svg height="660" width="600" xmlns="http://www.w3.org/2000/svg" xmlns:xlink="http://www.w3.org/1999/xlink"><radialGradient id="a" cx="221.44487" cy="226.33101" gradientTransform="matrix(1.35322 0 0 1.34893 -80.425956 -85.746928)" gradientUnits="userSpaceOnUse" r="300"><stop offset="0" stop-color="#fff" stop-opacity=".313726"/><stop offset=".19" stop-color="#fff" stop-opacity=".25098"/><stop offset=".60000002" stop-color="#6b6b6b" stop-opacity=".12549"/><stop offset="1" stop-opacity=".12549"/></radialGradient><path d="m300 658.5s298.50001-112.43608 298.50001-398.18182v-258.81818h-597.00001v258.81818c0 285.74574 298.5 398.18182 298.5 398.18182z" fill="#fcef3c" fill-rule="evenodd"/><path id="b" d="m258.5 180.02807a98.500002 98.500045 0 0 1 -196.999996 0 98.500002 98.500045 0 1 1 196.999996 0z" fill="#e20909" opacity=".96" stroke="#000" stroke-width="3"/><use height="100%" transform="translate(280)" width="100%" xlink:href="#b"/><use height="100%" transform="translate(140 265)" width="100%" xlink:href="#b"/><path d="m300.00001 658.49999s298.5-112.43608 298.5-398.18182v-258.81817h-597.00001v258.81817c0 285.74574 298.50001 398.18182 298.50001 398.18182z" fill="url(#a)" fill-rule="evenodd"/><path d="m299.99998 658.39715s-298.4999824-112.41848-298.4999824-398.11949v-258.7776643h596.9999824v258.7776643c0 285.70101-298.5 398.11949-298.5 398.11949z" fill="none" stroke="#000" stroke-width="2.999995"/></svg>