<?xml version="1.0" encoding="UTF-8" standalone="no"?><svg enable-background="new" height="660" width="600" xmlns="http://www.w3.org/2000/svg" xmlns:xlink="http://www.w3.org/1999/xlink"><clipPath id="a"><path d="m300 658.3972s-298.5-112.4185-298.5-398.1195v-258.7777h597v258.7777c0 285.7011-298.5 398.1195-298.5 398.1195z"/></clipPath><radialGradient id="b" cx="221.445" cy="226.331" gradientTransform="matrix(1.353 0 0 1.35 -77.629 -86.175)" gradientUnits="userSpaceOnUse" r="300"><stop offset="0" stop-color="#fff" stop-opacity=".314"/><stop offset=".50400001" stop-color="#fff" stop-opacity=".251"/><stop offset=".72000003" stop-color="#6b6b6b" stop-opacity=".125"/><stop offset="1" stop-opacity=".125"/></radialGradient><path d="m300 658.5003s-298.5-112.3204-298.5-397.772c0-285.4516 0-258.5518 0-258.5518h597v258.5518c0 285.4516-298.5 397.772-298.5 397.772z" fill="#2b5df2" fill-rule="evenodd"/><g transform="translate(.094)"><path d="m37.4102 301.4063c-9.2338.009-18.661.0404-28.1875.0625l149.5625 149.5937v-28.3125zm28.3125 0 93.0625 93.0937v-93.0313c-30.4036-.0174-61.1492-.057-93.0625-.0625zm-58.377 26.496c2.2296 12.6204 5.0497 24.8398 8.4062 36.6582l143.0333 143.0645v-28.3125z" fill="#fcef3c" fill-rule="evenodd" stroke="#000" stroke-width="2"/><path d="m3.3438 301.4997c13.4936 127.305 87.8048 216.4935 158.4375 273.9066v-273.9066zm35.5 29.969c31.9697-.0293 63.0342-.0313 92.9375 0v175.125c-41.8738-44.9146-78.0588-102.6647-92.9375-175.1249z" fill="#e20909"/><path d="m38.8438 331.4688c31.9697-.0293 63.0342-.0313 92.9375 0v175.125c-41.8738-44.9147-78.0588-102.6648-92.9375-175.125z" fill="none" stroke="#000" stroke-width="2.5"/></g><path d="m161.875 301.5v273.9065c70.7347 57.496 138.125 83.0938 138.125 83.0938v-357.0003z" fill="#fff"/><g stroke="#000" stroke-linecap="round" stroke-linejoin="round" stroke-width="1.5" transform="translate(1 -1)"><path d="m271.7475 319.0944c-2.1476 1.9205-4.1117 5.1918-5.3441 8.002-2.2779 5.1945-2.8188 14.7053-2.0457 19.8254.5148 3.4092 1.3706 6.203 2.3394 8.7842-1.6612.5408-4.1475 2.9733-5.2545 6.9924-1.1368 4.127-.765 10.0827 1.7033 13.0313-.7428-4.83 2.5049-10.9109 4.9699-9.7574 1.3697.641 2.6712 1.5557 3.917 2.7183-3.2177 6.2708-6.4877 13.1196-9.8533 25.4592-1.8737 6.8698-4.3854 20.0367-1.1345 40.3259 2.5881 16.1523 6.3032 28.1582 11.4458 39.9499.4149 8.0495-5.2255 16.0506-8.3764 18.178-4.2886 2.6964-10.1108-1.3889-12.1773-10.2913-.7351 6.5054-1.7373 19.9616 2.4025 19.4577 2.5068 1.3737 4.7646 3.2072 7.6061 3.0163 2.4874-.1672 5.1754-4.548 9.4456 3.0652.8884-2.8504.7995-6.526-1.1716-8.7323 2.738-4.0264 4.4989-9.858 6.7622-15.6551 7.0539-16.0902 13.051-32.9929 15.7-48.9885 3.2509-20.2892.7388-33.4562-1.135-40.3259-3.3657-12.3397-6.6356-19.1883-9.8533-25.4592 1.2458-1.1626 2.5479-2.0773 3.9176-2.7182 2.4649-1.1535 5.7126 4.9274 4.9699 9.7574 2.4683-2.9487 2.84-8.9043 1.7033-13.0314-1.107-4.0191-3.5934-6.4516-5.2545-6.9924.9688-2.5812 1.8247-5.3749 2.3394-8.7842.7731-5.1201.2317-14.6309-2.0462-19.8254-1.2324-2.8102-3.196-6.0815-5.3436-8.002 1.0617 3.0496 1.8674 6.3311 2.1077 12.7343.195 5.1944-1.4095 11.0839-1.9715 13.1207-1.7458 5.8231-3.494 10.2308-5.2519 14.0659-1.7579-3.8352-3.5066-8.2425-5.2524-14.0659-.562-2.0368-2.1665-7.9262-1.9715-13.1207.2404-6.4031 1.0461-9.6847 2.1077-12.7343zm5.1162 55.7577c2.9564 4.8656 5.6061 11.367 8.1405 19.197 2.1566 6.6626 3.7473 19.2175 2.6909 24.648-.3614-5.6248-2.1978-8.6992-3.8047-13.4084-1.6068-4.7092-1.7458-6.5543-1.5167-11.2957-2.1591 1.8206-5.2275 13.8592.1696 24.8776 2.1947 4.4805 3.0077 11.8413.9558 20.6813-1.202-12.7713-3.3561-8.411-3.0058-18.9217-2.1879 2.7666-3.2464 9.6673-2.0017 15.9438 2.6035 12.5316 3.7236 14.3839-1.628 28.7518-5.3518-14.3684-4.2325-16.2201-1.629-28.7518 1.2447-6.2765.1867-13.1772-2.0012-15.9438.3503 10.5108-1.8038 6.1505-3.0058 18.9217-2.0519-8.84-1.2394-16.2007.9553-20.6813 5.3971-11.0184 2.3293-23.057.1702-24.8776.2291 4.7414.0897 6.5865-1.5172 11.2957-1.6068 4.7092-3.4428 7.7837-3.8041 13.4084-1.0563-5.4305.5338-17.9854 2.6904-24.648 2.5345-7.8302 5.185-14.3313 8.1415-19.197z" fill="#e20909" fill-rule="evenodd"/><path d="m281.681 368.6614c-1.6228-3.162-3.2322-6.1772-4.8337-9.6743m-4.8147 9.7035c1.6914 1.5899 3.324 3.6797 4.8309 6.1615" fill="none"/><g fill-rule="evenodd"><path d="m178.0773 446.2847c-1.9218.0344-3.692 3.6974-4.1022 5.8798 2.0758-1.6148 3.497-.8633 4.7013 1.6084l3.0789-4.2418s-1.6399-2.8067-3.2916-3.2103c-.1291-.0315-.2583-.0385-.3864-.0361zm-5.7796 17.4252c-1.0455.0118-2.6901.3543-4.0275 2.0938-2.0964 2.7267-2.6819 8.9203-2.4774 10.1625 2.0647-4.202 3.626-5.4467 7.4531-3.8725l.0881-8.2814s-.409-.1091-1.0363-.1024zm.9677 15.1202s-3.3594 2.1024-4.1734 7.3233c-.8683 5.5688.9436 9.9558 1.7788 10.8189.3705-3.8964.8087-9.4796 4.713-11.0177zm4.9115 10.6279c-.5981 2.2704-1.6911 5.6757-1.0214 9.7515.8159 4.9649 3.999 6.1481 4.8968 6.269-1.5499-5.1804-1.0567-8.7942.1938-13.8058zm76.258 87.0917c-.2844-.0118-.5695.0237-.8634.13-2.1399.7739-3.5104 5.7213-3.6598 7.7275 2.0689-2.6025 3.4578-2.7984 5.6677 1.6729.7051-1.6242 1.7559-3.8574 2.8127-6.1152-.2787-.6829-1.9663-3.333-3.9572-3.4151zm-4.6282 11.9521c-.6314-.0602-1.3518.1806-2.0785.949-2.7089 2.8644-2.4181 9.6813-2.2799 10.534 2.4032-5.5678 4.0031-5.5241 6.0548-1.0987l.4111-8.7823c-.2395-.5812-1.0551-1.5014-2.1075-1.6019zm2.8342 13.5579s-2.7178.6459-3.51 7.0113c-.7913 6.3585 1.3637 9.2492 1.9319 9.8445.086-4.8879 1.3259-8.9588 4.2986-10.2456zm6.0702 7.3428c-.6523.9233-1.9977 2.2929-1.9366 7.0539.0658 5.1207 2.3327 7.5857 3.321 7.7938-.9124-4.7937-.0248-8.3458 1.5763-10.5168zm-69.4452-72.6761c-2.014.0158-3.4478 2.9528-3.615 3.5265 3.6999.4744 3.8754 3.3274 4.8696 8.4037 1.4107-2.0083 2.6558-3.7297 3.4711-4.6533.0715-1.1715-.8204-4.6282-2.9157-6.482-.6408-.5669-1.2461-.7993-1.81-.7949zm-4.5104 11.6822c-.4111-.0159-.83.0628-1.2522.2832-3.0896 1.6126-3.0445 6.2221-3.0886 7.7554 3.4208-3.2586 4.6779.0005 6.6591 3.2202l1.6639-8.4281c-.6107-.8352-2.2007-2.7639-3.9823-2.8306zm4.2691 16.8059s-2.7071-2.1816-4.6859.0287c-2.1333 2.3829-1.969 7.99-1.5642 9.9161 1.8132-5.1989 4.1848-4.1991 5.9561-1.7559zm7.5922 10.7854c.557 6.8143-.8229 7.9046-3.2261 8.1966.8156 1.4661 3.5469 3.9074 5.3553 2.0366 1.987-2.0555 2.493-8.156 2.2955-8.3111zm-18.5694-248.6102c-2.8453-.0336-4.4411 4.2356-4.8661 5.7907 5.0727-1.2522 4.5966 1.6362 5.4517 7.5709l4.4309-3.3832c-.3577-3.1147-.9898-8.1732-3.3083-9.4813-.6135-.3461-1.1814-.4909-1.7083-.4971zm10.6561.7632c-.9554-.0839-1.8986.4071-2.5846 1.3376 1.9631 1.4819 3.0341 3.1837 1.962 9.5532l3.6898 5.0729c.9641-2.1722 2.0119-7.1949.1949-12.5137-.7777-2.2766-2.0338-3.3423-3.2621-3.45zm-16.9531 12.4163c-1.6968-.1834-3.7594 1.8575-4.6994 9.9503 4.5043-6.3222 4.4416-.0178 6.6014 4.3026l3.115-9.8212s-1.6673-2.4418-3.9146-3.9987c-.3342-.2316-.7108-.3907-1.1024-.433zm8.7711 32.7112c-1.9259 5.7757-4.4 6.0294-7.5808 2.8499 1.9046 11.8638 6.563 11.9701 10.867 5.5968z" fill="#fcef3c"/><g fill="#e20909"><path d="m218.5881 485.5851c-6.3211-.004-10.2395 8.2635-11.0496 17.4891-.3477 3.9596-.6762 6.6693-1.6211 8.2277-2.3176 3.8228-6.043 4.632-6.3901 4.3772 2.2261 5.1962 4.1952 6.9358 7.1644 5.6742-.6185 6.3967 2.3855 14.3321 3.9371 20.8824.5239 2.2115-2.1083 3.7702-5.2718 4.8341-1.0295.3462-3.0489 2.8303-4.0382 3.3706-1.0247.5596-2.5721.3643-3.1663-.3552-.6143-.7438-2.8303-5.6381-4.5138-6.7215-1.5666-1.0082-3.528-.4303-3.8923 2.0696-.5803 3.9889 2.1266 5.5843 2.4875 6.9946.3491 1.364-.2511 2.4554-.7587 1.8832-.6022-.6789-2.5436-4.9044-3.7433-4.158-.904.5624-1.6484 2.151-1.8759 6.5513-.1929 3.7297 2.922 4.8687 4.1 5.045.959.1435.8341 2.0036.2562 2.357-.6217.3802-3.3382-2.8078-3.4926-.2805-.1544 2.5272-.3566 8.0352 1.3477 9.9686 1.34 1.52 6.3774-1.3665 6.9544-1.6513.687-.3391 1.3578-.7345 1.5814-.3295 1.5194 2.7526-1.5893 3.7354-.5367 6.2912 1.1186 2.7159 2.7353 2.9659 4.2262 3.4471 3.0633.9886 1.5093-10.3841 2.1867-10.4538 1.4619-.3979 2.0343-.8358 3.2127 1.0277 1.1784 1.8634 2.9488 7.625 5.4298 9.1271-.2163-4.405-.0383-8.3671.7216-11.3277.8618 5.0558 3.9683 7.5615 7.123 9.1722-1.5789-3.6151-2.0103-10.1747-1.505-11.1756 2.0738 4.5255 4.0237 6.1731 7.9409 5.9535-1.1661-1.6966-1.7624-6.6474-1.5048-8.0399.3951-2.1363 1.2498 1.5838 2.3001-2.7566.6621-2.7361-.4061-6.0339-.8488-7.7391-2.0303-7.8199-2.3373-25.9264 7.0403-30.2023 5.1002-2.3255 12.8073-8.1311 13.4745-9.7748 5.317-13.1003.4085-24.1694-2.3348-30.5208-6.9402 6.4886-16.9631.9618-24.9406.7434z"/><path d="m188.1268 387.2759c.1481 3.3116 1.241 8.0931.7712 12.0564 1.2179-2.256 2.3361-5.107 2.4743-8.1823 1.8411 6.3472-.5042 15.2028-.3259 22.1126.9415-2.3958 3.2238-5.9242 3.7373-9.1131 1.8516 7.8488-2.3707 9.6251-.1774 25.1419.7631-5.6026 2.7009-10.2359 3.5161-14.0771.6252 10.6644 5.8551 17.7062 8.8021 15.9392 6.7577 17.263 14.8952 10.5416 14.5021-8.236 0 0-6.3877-27.683-8.0396-30.0715-1.7938-2.5936-4.0758-4.935-6.6782-8.1893-2.9373-3.673-5.3479-6.622-7.6258-10.7501s-3.3743-7.8317-4.8662-10.7303c-2.1003-4.0808-3.4952-8.6124-3.5399-10.7167-.0546-2.5749 1.2182-3.265 1.6903-7.3539.5617-4.8653-1.9906-10.0832-4.3644-9.3602-1.3533.4122-1.4986 5.346-2.2292 6.3388-.1722.234-.3785.3151-.6433.1634-1.3879-.7951-.2457-8.6974-2.4881-9.0099s-4.0297 1.0237-5.2418 5.3322c-.9744 3.4634 2.4025 5.826 2.5297 7.8607.0285.4561-.4609 1.1174-.6979 1.106-.1565-.008-2.5703-5.1062-4.4589-3.8726-1.4718.9613-3.068 4.3411-2.5647 9.029.4352 4.0536 3.1745 4.3427 4.4898 4.6181 1.5595.3266 5.0464 9.0476 4.765 12.9766-.0862 3.1671-2.4885 1.9207-2.9939 5.5522-.6481 4.6569 1.2115 9.8758 3.3034 9.2556 1.5652-.464 3.2461-4.456 3.9579-4.5868 1.7256-.0198 2.2319 3.0902 2.3959 6.767z"/><path d="m229.7034 479.3576c4.1187 3.0313 7.6124 10.5048 8.0642 15.876-2.3733 9.2681-.8075 13.4118 2.5843 12.303 2.7681-.9022 2.7727-5.232 2.0436-10.2275-.6505-4.4568-1.6404-7.4675-3.7479-10.6553-2.7518-4.1624-7.7614-7.7039-8.9443-7.2962z"/><path d="m267.4079 599.4819c1.5148-9.7426 6.8608-3.0374 9.6347-10.9746-1.6855-.2143-3.6974-2.6057-4.2616-6.1533 4.3965.2575 6.3819-2.4415 8.6414-6.2012-1.7702.0205-4.3828-.8448-4.7535-5.8527 2.1169-.0824 6.5506-.1182 8.9872-7.5102-4.2988 1.4056-6.3904-1.3914-6.1923-3.81.5855-7.1494 2.7185-6.7648-.175-11.9961-.813-1.4699-4.2661-2.7815-3.9847-6.4214.1492-1.9304 3.0034-5.3878 4.394-6.8927-.8904-.1917-3.1476-2.4906-5.2084-1.3628s-3.8977 1.6298-6.9754-4.6499c-1.4151-2.8997-2.1123-3.6656-3.8084-10.4659-.3409-1.367-2.1091-12.9164-1.5182-12.7053 2.0139-5.4071.137-13.75-1.1454-19.954-1.2486-6.6181-2.3537-13.305-4.7937-20.234-1.8742-5.3224-6.8682-14.4199-7.1364-21.5443-.3507-9.2344-.4398-19.0924-.1484-23.8955.7985-13.1612 1.0798-15.6615-5.2829-19.8984-3.7614-2.5047-16.8268-9.0767-23.0115 4.3277-3.1601 6.8489-6.5615 6.3897-9.3102 15.5359s-2.8108 6.2355-5.1914 10.5995c-2.3805 4.364-4.536 7.7506-5.2177 8.6163-1.3635 1.7314-1.8438 2.0772-4.1383 5.4921-2.2944 3.4148-4.3436 6.6063-4.726 7.4441-.7649 1.6757-4.8595 4.8255-5.772 4.6212-.563-.1261-2.1659-5.5441-3.368-5.9824-1.5068-.5493-5.0554 1.5326-5.0972 5.2839-.0224 2.0094 2.735 3.917 2.2988 6.1701-.2969 1.5336-2.469 3.0513-3.4325 2.6171-.5507-.2482-2.1398-2.0575-3.4446-1.3712-2.4378 1.2824-3.1812 8.1785-1.7364 10.8657.7344 1.3659 3.5932-.3102 4.0226.179.4866.5545.7982.9907.5373 2.0687-.2831 1.1694-3.822.8573-4.2683 2.3805-1.5199 5.1862.6431 12.5813 3.4102 10.2244.9294-.7916 1.8182-2.1204 2.4404-3.0064.5521-.7861 1.0661.2005 1.1219.7938.127 1.3505-2.4254 4.5089-2.0839 6.5575.6567 3.9403 4.9317 4.9682 5.9712 1.6786.8067-2.5528 2.4482-8.6069 2.7569-9.4288.1543-.411.394-1.3317 2.3067-2.3339 4.7722-2.2499 6.3657 1.8206 8.099 9.7265 1.5533-2.5714 4.0043-10.1654 2.7511-14.3233 1.7736 3.6752 4.7576 7.8612 7.3225 8.3875-1.0331-5.5746.2979-10.2681.7079-12.1772 1.6389 3.3289 6.0642 6.8756 9.2325 5.55-2.7253-3.3427-4.2803-9.3801-1.2289-12.1979 3.0513-2.8178 3.8289-4.442 4.5295-9.7363s4.2097-3.6365 5.5412.1027 1.8652 5.121 3.4101 8.5273c1.6623 3.6649 3.8981 7.2702 5.3601 9.4865 1.6521 2.5045 3.1896 5.248 4.5778 9.2079 1.7783 5.0724 2.616 10.8128 2.5232 17.7924-.4056 6.7256 1.1269 12.6727.6131 19.2247-.3081 2.4883-2.0271 6.0898-.3661 12.4679 1.6611 6.3781 2.1273 19.5519-.1003 24.2157 5.8683-.5739 8.316-10.456 7.3783-19.0913 2.2395 3.7273 3.7644 4.7207 5.5814 7.9235.6883 1.2133 3.8071 6.9515 4.5869 8.1519 1.5894 3.0421 1.3743 2.5106 3.8277 6.2674.176.6798.6226 5.3206.6206 6.5167-.0006.346.0966 3.1116-.4043 6.2863-.4433 2.8091-1.2646 5.9537-2.1067 6.972-.8668 1.0482-1.1094-3.109-2.1071-2.774-1.3197.4432-4.0065 4.3193-3.648 6.8135.3487 2.4263 3.4264 1.5109 2.2928 2.7394l-1.4494 1.5709c-.891.9657-1.1832-1.3915-3.0686-.8223-2.3171.6996-2.9385 6.3027-1.6726 9.3374.8328 1.9964 2.6138.7357 2.6138.7357 1.9788-.8947 2.6576.4976.1616 1.7664 0 0-2.4089 1.3213-2.1081 5.0631.2052 2.5523 2.0086 5.2483 2.9904 4.9231 1.303-.4316 2.7623-2.0487 3.1868-3.502.7963-2.7259 1.4548-1.0877.8946 1.0821-.3183 1.2327-.8667 3.8654.0293 5.1994 1.092 1.6259 3.7132.6976 4.5308-.8521 1.2519-2.3729 1.0714-6.1672.7651-7.2523 2.0757-1.2554 3.1778-3.7864 3.7908-6.1201z"/></g></g><path d="m192.749 474.0765s16.7999-10.5241 27.4797-32.6989m52.3693 106.7301s2.727.3749 3.8093 5.7947c1.1286 5.6516-1.7888 8.6617-1.7888 8.6617m-54.0634-13.261s1.704 4.6535.4105 9.5565c-1.3488 5.1127-4.4465 2.1119-4.4465 2.1119" fill="none"/><g fill-rule="evenodd"><path d="m239.6442 381.8488c-2.2397-1.1013-4.4003-2.1557-6.1779-4.3778-1.6558-2.0699-4.1529-2.8527-6.1749-2.0508-3.2527 1.2901-5.3544 2.3916-8.6594.693-2.7831-1.4303-3.6131-5.0073-3.0855-11.0554.5803 3.5227 1.5623 5.2241 2.5007 5.7543 1.2073.6822 3.3628.6887 5.0479-.4836 8.7239-6.0691 14.4313-.9562 16.549 11.5202z" fill="#fcef3c"/><path d="m219.4067 357.6129c-.3581 1.6928-.2985 6.9588 1.4175 8.6319.272-2.9898 1.0137-6.4531 1.5647-8.2198zm2.6055 19.5474c-.218 1.838.0494 4.177.48 5.6099l2.0657-.9296c-1.0526-1.131-1.9887-2.8062-2.5457-4.6803z" fill="#e20909"/><path d="m249.2515 443.4042c.6893-4.3149 2.2931-7.8363 2.8119-12.6246.6042-5.6016-.8379-6.9551-.6124-9.7167 1.1925 4.1596 4.6312 4.4779 5.6658-.7528-1.5299-.424-2.9122-2.4148-3.4053-5.2217-.888-5.0548 1.3026-6.8024 1.6566-11.6986.4181-5.7759-1.3292-8.2926-1.4407-10.738 1.4659.8766 3.2458-.7349 3.4582-3.7547-.7783.5654-1.5763.1721-2.0671-1.5074-.5886-2.0141-.1173-4.6653-.3152-6.8548-.3674-4.0656-1.9531-4.5644-2.1564-7.0963 1.5456 1.5324 3.6043-.6718 3.6417-4.5584-.5729.7287-1.3158.8262-1.9329.0729-1.1099-1.3548-.5179-3.9535-.9319-6.3344-.2998-1.7244-2.0727-3.7132-2.1717-5.5966 1.3359.7127 2.6094-.8235 2.633-4.0411-.6964.6069-2.2724.1662-2.7935-1.0416-2.439-5.653-4.1551-10.3312-7.0302-14.3087-2.3308-3.2246-8.3565-5.4215-13.026-5.9707-3.4414-.4048-6.3644 2.5094-8.4757 4.6296-1.8402 1.8478-.6916 3.7185-.2134 5.4833-1.573-.3795-2.9165-.9082-4.4044.2255-.8583.654-1.9778 2.0807-1.8871 3.0266.0524.5467.6634 2.3241 1.1853 1.6741-.0339 2.1205-.2492 3.3249-.217 5.5248.0424 2.8934.8872 5.5434 2.0894 6.1437 3.188 1.5919 6.1132 1.2647 9.0498-.9315 3.976-2.9735 5.2281 1.4357 5.5453 6.1916.3198 4.7949-.4854 10.7354-2.6871 14.4517-1.143 1.9293-3.24 3.833-5.2792 3.6549-1.1446-.0999-2.2497-1.2162-3.2529-.3543-.5115.4395-.6443 3.7379-.7983 5.5436-.1203 1.4095.4327 2.1833 1.1968 2.5471 1.7712.8433 1.3121 4.4658 2.3688 5.0427.0706-.9471.54-4.753.975-4.7775 1.7484-.0986 5.7668-1.073 5.6427.2217-.3132 3.2565-2.2134 4.8524-6.533 6.3836-3.3511 1.1878-9.8337-2.6346-8.8908-17.6736-4.3817 4.6848-5.7716 18.7863-2.2088 23.1264-1.2818-.3423-2.6997-.1526-4.2523.346-2.307.7408-4.7648-2.9269-6.2524-6.5084-.6861 10.7064.2967 16.7663 3.0568 20.2792 3.28 4.1746 5.5595 3.4382 7.7842 4.2239-1.8712 1.8642-3.217 5.2871-4.93 8.3613-1.9248 3.4541-4.71 6.2167-7.7683 5.4172 1.2795 5.1666 3.7456 8.3399 6.7499 9.3483 4.0537 1.3621 7.4291-.7928 10.2435-4.7525-.4818 5.0892-3.1651 6.8718-3.6954 13.0232-.4738 5.497.7857 10.4479 3.6038 11.7692-.7606-8.8177 3.7581-11.2429 6.4272-13.0648 2.526-1.7241 4.7275-4.164 6.5554-8.2477.26 5.2111-3.2904 8.8072-1.6871 16.4733 1.0781 5.155 3.7656 7.4512 6.6997 7.4992-1.8696-2.5105-2.2928-7.6323-.9744-12.1703 1.8933-6.5166 4.2266-6.8226 6.6993-14.3931.656-2.0084 1.1218-5.3479 1.4968-8.543 1.0052 3.6473.3901 6.9349.0163 9.8301-.7023 5.4389 1.4925 12.7547 5.2659 12.2644-.8674-2.5431-.7341-6.3808-.2286-9.5452z" fill="#e20909"/><path d="m223.2558 335.4636c6.7432-1.9207 13.458-1.6209 20.1434.9865.1093-2.0728.5096-4.8577 1.0487-7.1248.9407-3.9553 2.1384-8.1015 3.3508-11.6315-.8889-.1168-2.0768 1.2519-2.9729 4.0805-.3275-1.3-1.7399-2.3349-2.677-.6706.7515 1.6857 1.8704 3.7659 1.0717 6.0368-.5719 1.6262-1.5997 1.2906-2.2821.4249-.6123-.7767-1.1654-2.5279-1.3362-5.0906-.8841 2.7837-1.8695 4.038-2.7433 4.0384-1.4593.0008-2.1688-.9901-2.1491-2.5607.0346-2.757 1.6426-3.7141 2.7407-4.331-.3262-2.3943-1.7991-3.0268-2.4343-2.283.0308-3.3288-.5881-5.7416-1.3671-6.5885-.7996.7696-1.4792 3.1188-1.5334 6.4464-.6154-.805-2.1026-.3175-2.4895 2.0419 1.081.7236 2.6626 1.8369 2.6268 4.5938-.0203 1.5707-.7543 2.4908-2.2117 2.3472-.8727-.086-1.8249-1.4351-2.6369-4.3019-.236 2.5428-.8331 4.2377-1.4644 4.9535-.7036.7978-1.7387 1.0324-2.2684-.6478-.7397-2.3463.4309-4.3143 1.2244-5.9243-.8934-1.7539-2.3305-.8586-2.6907.4078-.8228-2.9129-1.9744-4.3962-2.8651-4.3665 1.1208 3.6443 2.2112 7.9025 3.0499 11.945.4807 2.3171.8094 5.1377.8657 7.2186z" fill="#fff03c"/><path d="m239.5404 337.2727c-.4223-8.6421 3.6549-9.2845 6.7552-11.6638-.5086 5.5082-.384 12.7317-2.3125 14.3934" fill="#e20909"/></g><path d="m245.8216 331.3133s-3.7703-1.4875-4.3635 6.7762m-23.8047 7.7918s.4783 2.2149 1.261.9371m3.632-5.0454c1.298 3.6306 2.2437 1.3151 3.3914.2337 4.0466-4.4363 4.9103-1.2043 6.944 1.1766m-.8081 46.7744c4.7418.5886 6.708-10.8346 6.708-10.8346s2.1455 5.4917.9053 9.9695c2.6616-3.6643 4.1236-10.9853 1.6262-20.8496 1.5477.4635 3.082 3.6384 3.3358 5.4602 1.0069-7.1126.1254-16.8377-3.322-22.1373" fill="none"/><g fill="#e20909"><path d="m224.0468 344.1079c1.2658 1.6464 2.2216 2.58 3.414 1.9266 1.9379-.9406 2.5628-3.0838 3.4547-2.8802-.1922-4.2096-2.5657-3.8933-3.9126-1.926-.1602.1877.2583 2.1324.6133 3.7679-.3207-.0328-1.2569-.9344-1.3388-2.8208-.5175.7115-1.2684 1.1809-2.2306 1.9325z" fill-rule="evenodd"/><ellipse cx="276.866" cy="472.419" rx="6.107" ry="11.966"/></g></g><g clip-path="url(#a)"><g id="c" transform="translate(-.005 .007)"><use height="100%" transform="translate(101)" width="100%" xlink:href="#d"/><path id="d" d="m81.803 84.3201h36.905v6.0338h-36.905zm46.1028-35.5561c-8.4849.1587-18.5531 9.2313-22.162 35.5542h6.6581c2.275-13.2242 19.5353-19.9686 10.2369-1.77 28.4945-11.1101 18.9553-34.0403 5.2671-33.7843zm-55.8212 0c-13.4058.3213-22.3436 22.8148 5.7902 33.7843-9.2984-18.1986 7.9501-11.4542 10.225 1.77h6.67c-3.6827-26.8605-14.0971-35.7601-22.6853-35.5543zm28.1662-34.9959c-13.2941 14.1008-17.9215 30.0967-7.8471 50.6883 2.9155 5.9592 4.3139 12.5613 3.9235 19.8619h7.8471c-.3903-7.3006 1.008-13.9027 3.9235-19.8619 10.0744-20.5916 5.447-36.5874-7.8471-50.6883zm-8.2823 76.5804c-3.4045 8.0314-7.6135 11.2826-11.6993 15.229 4.5797.0209 9.1444-.8578 13.8751-4.8229.0806 12.2344 1.8453 16.4167 6.0993 20.5271 4.2057-3.982 6.1492-8.2792 6.135-20.5271 4.7307 3.9652 9.2835 4.8438 13.8632 4.8229-4.0855-3.9462-8.283-7.1989-11.6874-15.229z" fill="#fcef3c" stroke="#000" stroke-width="1.75"/><use height="100%" transform="translate(50.5 85)" width="100%" xlink:href="#d"/><use height="100%" transform="translate(151.5 85)" width="100%" xlink:href="#d"/><use height="100%" transform="translate(-50.5 85)" width="100%" xlink:href="#d"/><use height="100%" transform="translate(0 170)" width="100%" xlink:href="#d"/><use height="100%" transform="translate(101 170)" width="100%" xlink:href="#d"/></g><g transform="translate(-.005 .007)"><use height="100%" transform="translate(300.005 342.493)" width="100%" xlink:href="#c"/><use height="100%" transform="translate(350.5 257.5)" width="100%" xlink:href="#d"/><use height="100%" transform="translate(451.5 257.5)" width="100%" xlink:href="#d"/><use height="100%" transform="translate(249.5 257.5)" width="100%" xlink:href="#d"/></g><path d="m1.5028 1.5003.6247 259.2048c.034 14.0789.744 27.5352 2.1243 40.779l295.7485-.0156v-299.9682zm30.615 30.6858h238.5169v239.2996h-238.2357c-.1064-3.5719-.2812-7.1149-.2812-10.7806zm267.8822 269.3139v356.8972s269.3454-102.1034 296.3748-356.8972zm261.2827 29.8347c-32.0373 154.8192-163.5333 243.4858-231.2574 279.6563v-279.6563c76.3508-.177 152.9021-.1671 231.2574 0z" fill="#e20909"/><g stroke="#000" stroke-width="2.5"><path d="m32.1178 32.1861h75.475l.0005-30.6859h-106.0906zm267.8825-30.6858h-106.7159l-.0005 30.6859h77.3507zm-297.8728 107.4317v85.7766h29.9903v-85.7766zm268.5072 0v85.7766h29.3656v-85.7766zm-266.3829 192.5521h103.9665v-29.9984h-75.8193zm266.3829-29.9984h-76.7253v29.9984l106.0909.0156zm59.3906 59.849 70.1998-.0937v-29.741h-100.2251zm266.3495-29.8347h-110.3586v29.7409l75.2666.0937zm-63.5536 112.0847c-15.5036 31.2914-34.9293 58.8983-56.0472 83l22.3001 20.5313c23.1752-26.3311 44.538-56.6424 61.4893-91.2188zm-232.8212 3.7188v102.1874h30.0253v-102.1875zm0 241.0938s56.2262-21.3502 119.8823-68.8125l-16.1699-25.6251c-27.3606 20.6401-53.389 36.1903-73.6871 47.0313z" fill="#fff" stroke-linecap="round" stroke-linejoin="round"/><g fill="none"><path d="m561.2827 331.3347c-32.0373 154.8192-163.5333 243.4858-231.2574 279.6563v-279.6563c76.3507-.177 152.9021-.1671 231.2574 0z" stroke-linecap="round" stroke-linejoin="round"/><path d="m32.1178 32.1861h238.5169v239.2996h-238.2357c-.1064-3.5719-.2812-7.1149-.2812-10.7806z"/></g></g></g><path d="m330.6282 32.1875 89.3218 239.2813v-72.1973l-62.3717-167.084zm53.9021 0 35.4197 94.8848v-94.8848zm-53.9021 72.1973v72.1992l35.4197 94.8848h26.952z" fill="#fcef3c" stroke="#000" stroke-linecap="round" stroke-linejoin="round" stroke-width="2"/><path d="m300 1.4999v299.9689l149.2031.0312v-300.0001zm30.6286 30.6876h89.3214l.0001 239.2813h-89.3219z" fill="#e20909"/><path d="m330.6282 32.1875h89.3218v239.2813h-89.3218z" fill="none" stroke="#000" stroke-width="2.5"/><path d="m598.5 1.4999v259.2078c0 14.0797-.7443 27.5055-2.1252 40.75l-147.1717.0422v-300z"/><g stroke="#313131" stroke-linecap="round" stroke-linejoin="round" stroke-width="1.5" transform="translate(-.724 -1.505)"><g fill-rule="evenodd"><path d="m466.9133 125.9052c-2.095.0307-4.0247 3.3211-4.4719 5.2813 2.2629-1.4505 3.8121-.7754 5.125 1.4447l3.3564-3.81s-1.7877-2.521-3.5882-2.8835c-.1407-.0284-.2816-.0345-.4213-.0324zm-6.3004 15.6515c-1.1397.009-2.9326.3182-4.3905 1.8806-2.2853 2.4492-2.9236 8.0123-2.7007 9.1281 2.2508-3.7743 3.9528-4.8923 8.1248-3.4783l.0961-7.4384s-.4458-.0979-1.1297-.092zm1.0549 13.5811s-3.6621 1.8884-4.5495 6.5779c-.9465 5.0019 1.0286 8.9424 1.9391 9.7177.4039-3.4997.8817-8.5146 5.1377-9.8962zm5.3541 9.5461c-.652 2.0393-1.8435 5.098-1.1134 8.7589.8894 4.4596 4.3594 5.5223 5.3381 5.6309-1.6896-4.653-1.1519-7.8991.2113-12.4005zm83.1303 78.2265c-.3101-.009-.6208.0213-.9412.1167-2.3327.6951-3.8268 5.139-3.9896 6.9409 2.2553-2.3376 3.7695-2.5135 6.1785 1.5026.7686-1.4589 1.9141-3.4647 3.0661-5.4928-.3038-.6134-2.1435-2.9937-4.3138-3.0675zm-5.0452 10.7355c-.6883-.0541-1.4736.1622-2.2658.8524-2.953 2.5728-2.636 8.6958-2.4854 9.4617 2.6198-5.0011 4.3639-4.9618 6.6005-.9869l.4481-7.8884c-.2611-.5221-1.1502-1.3486-2.2974-1.4388zm3.0896 12.1778s-2.9627.5801-3.8263 6.2976c-.8626 5.7113 1.4866 8.3077 2.106 8.8425.0938-4.3903 1.4454-8.0469 4.686-9.2027zm6.6172 6.5954c-.7111.8293-2.1777 2.0595-2.1111 6.3359.0717 4.5995 2.5429 6.8135 3.6203 7.0004-.9947-4.3057-.0271-7.4963 1.7183-9.4462zm-75.7035-65.2784c-2.1955.0147-3.7585 2.6523-3.9407 3.1675 4.0333.4261 4.2246 2.9887 5.3084 7.5483 1.5378-1.8039 2.8951-3.35 3.7839-4.1796.0779-1.0522-.8943-4.1571-3.1784-5.8222-.6985-.5092-1.3584-.7179-1.9731-.714zm-4.9169 10.4931c-.4482-.0131-.9048.0565-1.3651.2543-3.368 1.4484-3.3189 5.5888-3.3669 6.966 3.7291-2.9268 5.0995.0005 7.2593 2.8924l1.8139-7.5702c-.6657-.7502-2.399-2.4825-4.3411-2.5425zm4.6538 15.0952s-2.9511-1.9595-5.1081.0257c-2.3255 2.1404-2.1464 7.1766-1.7052 8.9067 1.9766-4.6697 4.5619-3.7716 6.4928-1.5772zm8.2764 9.6876c.6072 6.1206-.897 7.1-3.5169 7.3622.8891 1.3169 3.8665 3.5097 5.8379 1.8293 2.1661-1.8462 2.7177-7.3258 2.5024-7.4651zm-20.2429-223.3042c-3.1017-.0301-4.8414 3.8045-5.3046 5.2013 5.5299-1.1247 5.0109 1.4696 5.943 6.8002l4.8302-3.0388c-.3899-2.7976-1.079-7.3413-3.6064-8.5162-.6688-.3109-1.2878-.4409-1.8622-.4465zm11.6165.6855c-1.0415-.0753-2.0697.3657-2.8175 1.2014 2.1401 1.331 3.3076 2.8596 2.1388 8.5808l4.0224 4.5566c1.051-1.951 2.1932-6.4625.2125-11.24-.8478-2.0449-2.217-3.0021-3.5561-3.0988zm-18.4809 11.1524c-1.8497-.1647-4.0982 1.6684-5.1229 8.9375 4.9102-5.6787 4.8418-.0147 7.1963 3.8646l3.3957-8.8215s-1.8175-2.1932-4.2674-3.5917c-.3644-.208-.7749-.3509-1.2017-.3889zm9.5616 29.3815c-2.0994 5.1878-4.7966 5.4156-8.2639 2.5598 2.0762 10.6562 7.1544 10.7517 11.8463 5.0271z" fill="#e20909"/><path d="m574.5547 183.7159c.7867-2.5605.7078-5.8627-1.0375-7.8446 2.5683-2.6907 5.3253-9.6389 6.0999-13.8086 1.0092-5.433 1.6478-11.7838 4.318-13.3555 1.4167-.8339 2.743.8096 2.621 3.6209-.2647 6.1023-1.5752 4.7897-2.9639 13.0277-.5214 3.0932.508 7.9459 4.9408 6.875-1.8764-1.3978-1.9756-3.2439-1.773-5.6839.3516-4.2361 4.9182-9.1971 5.3957-16.1559.5618-8.1853-3.5813-11.8684-5.6371-12.1847-2.7527-.4236-6.1069 2.3737-8.1339 7.9251-1.0711-8.0845 2.4326-15.9477 6.2316-19.7084 3.1832-3.1511 6.7985-5.9092 8.57-10.4487 1.9973-5.1182 1.5955-11.5585-.4536-14.7314-.1046 3.0614-1.4328 8.2033-5.4097 11.4951-4.8277 3.9961-9.4949 6.2891-13.3933 17.6772-.818-20.3745 12.717-28.3157 18.3403-34.6234 6.9794-7.8289 4.6998-24.8882 2.5814-27.2171.1227 2.8568.1959 7.3293-1.9128 12.6191-2.4391 6.1187-6.704 8.8924-11.8501 13.4633-5.1179 4.5458-9.3666 11.8077-11.3815 19.428-.5555-5.1431 1.8039-12.5929 4.7756-17.81 3.0781-5.4037 6.7553-10.141 8.8465-13.0027 4.1653-5.7 10.2333-13.5899 10.8631-30.8907.4445-12.1675-3.3063-20.6878-8.5646-24.2441-3.0838-2.0856-7.6047-2.3979-10.7179-1.271-1.5619.5654-3.119 1.4351-4.5811 2.8535-1.0294.9987-2.8056.3841-2.6269-2.5161.2105-3.4176 3.2335-3.6696 3.5555-7.6747.2656-3.304-1.2902-5.9602-2.9367-7.2743.4121 2.0238-.0347 4.372-.8986 6.7142-1.126 3.0529-3.6759 2.7277-4.0079 8.5041-.1645 2.8891 1.0292 6.1461 2.7229 6.9547.2008.1982.5375.635.3944.952-1.8693 4.1409-2.2073 9.6191-2.018 13.4183.3162 6.3444 1.6755 8.5806 1.6931 14.456.006 1.8313.004 7.1121-1.3609 10.5931-1.6824 4.291-3.1225 5.9914-4.7258 7.3431 2.262.2291 4.6802-.618 6.3727-1.6781 3.1285-1.9595 5.7835-8.1985 6.3114-12.3348.3515-2.7542.2723-5.3288.0481-7.8371 1.5314.8362 4.1983.9555 6.0639-1.0395 1.9157-2.0485 2.9765-6.4744 1.5676-10.3343-.4866 3.9118-2.1061 5.3308-4.5372 5.4865-2.3135.1482-4.1627-2.1846-4.3646-6.2404-.2977-5.9779 2.8508-10.3332 7.1787-10.4162 5.7332-.11 8.848 6.686 8.5438 15.5785-.3049 8.9134-3.0396 15.4743-6.906 20.7796-3.3218 4.558-6.8174 8.9857-10.2742 14.5246-2.6961 4.32-8.0073 13.4781-8.1854 25.6209-.1321 8.9982 1.4893 16.2745 4.0261 22.8302 2.5367 6.5557 4.0394 12.0174 5.1216 17.1009 1.3007 6.1103.6912 14.4488-2.9749 16.7873-3.7973 2.4222-8.9523-1.2476-10.7821-9.2448-.6509 5.8439-1.5386 17.9312 2.127 17.4785 2.2196 1.2341 4.219 2.881 6.7351 2.7095 2.2025-.1501 4.5825-4.085 8.3637 2.7541z" fill="#fff03c"/><g fill="#fcef3c"><path d="m511.0749 161.2052c-6.8907-.005-11.1623 7.4224-12.0454 15.7088-.379 3.5566-.7372 5.9904-1.7672 7.3902-2.5265 3.4336-6.5875 4.1605-6.966 3.9316 2.4267 4.6672 4.5733 6.2298 7.81 5.0966-.6743 5.7456 2.6005 12.8732 4.2919 18.7567.571 1.9865-2.2983 3.3865-5.7469 4.342-1.1223.311-3.3236 2.5422-4.4021 3.0275-1.117.5026-2.8039.3272-3.4517-.3191-.6696-.6681-3.0854-5.0642-4.9206-6.0373-1.7078-.9056-3.8459-.3865-4.2431 1.859-.6326 3.5828 2.3183 5.0159 2.7117 6.2826.3805 1.2251-.2737 2.2055-.827 1.6915-.6564-.6098-2.7728-4.4052-4.0806-3.7348-.9855.5052-1.7969 1.9321-2.045 5.8844-.2103 3.35 3.1854 4.3731 4.4695 4.5315 1.0454.129.9092 1.7997.2793 2.1171-.6777.3415-3.639-2.5219-3.8074-.252-.1683 2.27-.3887 7.2173 1.4692 8.9539 1.4607 1.3653 6.9522-1.2274 7.5812-1.4832.7489-.3046 1.4802-.6597 1.7239-.296 1.6564 2.4724-1.7325 3.3552-.585 5.6509 1.2194 2.4395 2.9818 2.664 4.6071 3.0962 3.3394.888 1.6453-9.3271 2.3837-9.3896 1.5936-.3574 2.2176-.7507 3.5022.923 1.2846 1.6738 3.2145 6.8489 5.9191 8.1981-.2358-3.9567-.0416-7.5154.7866-10.1747.9395 4.5412 4.3259 6.7918 7.7649 8.2385-1.7212-3.2472-2.1914-9.139-1.6406-10.038 2.2606 4.0649 4.3863 5.5447 8.6565 5.3475-1.2712-1.5239-1.9212-5.9708-1.6404-7.2216.4307-1.9188 1.3624 1.4226 2.5074-2.476.7218-2.4576-.4427-5.4197-.9253-6.9513-2.2133-7.0239-2.5479-23.2874 7.6748-27.128 5.5598-2.0888 13.9615-7.3034 14.6888-8.7798 5.7962-11.7668.4453-21.7092-2.5452-27.4141-7.5657 5.8281-18.4918.8639-27.1882.6677z"/><path d="m477.8684 72.9029c.1614 2.9745 1.3528 7.2692.8407 10.8291 1.3277-2.0264 2.5466-4.5872 2.6973-7.3494 2.007 5.7011-.5496 13.6553-.3553 19.8618 1.0264-2.1519 3.5143-5.3212 4.0741-8.1854 2.0185 7.0498-2.5844 8.6454-.1934 22.5826.8319-5.0323 2.9443-9.1939 3.8329-12.6442.6815 9.5789 6.3827 15.9039 9.5953 14.3167 7.3667 15.5057 16.2375 9.4685 15.809-7.3977 0 0-6.9633-24.8651-8.7641-27.0105-1.9554-2.3296-4.4431-4.4327-7.28-7.3557-3.202-3.2991-5.8299-5.9479-8.313-9.6558s-3.6784-7.0345-5.3047-9.6381c-2.2896-3.6654-3.8102-7.7357-3.8589-9.6259-.0595-2.3128 1.328-2.9327 1.8426-6.6053.6123-4.3701-2.17-9.0568-4.7578-8.4074-1.4753.3702-1.6337 4.8018-2.4301 5.6936-.1877.2102-.4127.283-.7013.1469-1.513-.7141-.2679-7.8121-2.7123-8.0928-2.4445-.2807-4.3929.9195-5.7142 4.7895-1.0621 3.1109 2.619 5.233 2.7577 7.0606.031.4097-.5025 1.0036-.7608.9934-.1706-.0062-2.8019-4.5864-4.8607-3.4784-1.6044.8634-3.3445 3.8992-2.7958 8.1099.4744 3.641 3.4606 3.9007 4.8944 4.1481 1.7001.2933 5.5011 8.1266 5.1945 11.6557-.094 2.8447-2.7128 1.7252-3.2637 4.987-.7065 4.1828 1.3206 8.8705 3.6011 8.3135 1.7063-.4168 3.5386-4.0024 4.3146-4.1199 1.8811-.0169 2.4331 2.7756 2.6118 6.0782z"/><path d="m523.1919 155.6116c4.4898 2.7227 8.2984 9.4355 8.7909 14.26-2.5872 8.3247-.8803 12.0466 2.8172 11.0507 3.0176-.8104 3.0226-4.6995 2.2278-9.1865-.7091-4.0032-1.7882-6.7074-4.0856-9.5707-2.9998-3.7387-8.4608-6.9197-9.7503-6.5535z"/><path d="m564.2943 263.5083c1.6513-8.7509 7.4791-2.7282 10.5029-9.8575-1.8374-.1925-4.0306-2.3405-4.6456-5.5269 4.7927.2313 6.957-2.193 9.4202-5.57-1.9298.0183-4.7778-.7588-5.1819-5.257 2.3077-.074 7.1409-.1061 9.7971-6.7457-4.6862 1.2625-6.9663-1.2497-6.7503-3.4222.6383-6.4217 2.9635-6.0762-.1907-10.775-.8863-1.3202-4.6505-2.4984-4.3438-5.7677.1627-1.7339 3.2741-4.8393 4.79-6.1911-.9706-.1722-3.4313-2.2371-5.6778-1.2241-2.2466 1.013-4.249 1.4639-7.604-4.1766-1.5427-2.6046-2.3026-3.2925-4.1516-9.4006-.3717-1.2278-2.2992-11.6017-1.655-11.412 2.1954-4.8567.1493-12.3504-1.2486-17.9229-1.3611-5.9444-2.5659-11.9507-5.2257-18.1744-2.0431-4.7806-7.4872-12.9521-7.7796-19.3513-.3823-8.2945-.4794-17.149-.1617-21.4632.8704-11.8215 1.1771-14.0673-5.759-17.8729-4.1004-2.2498-18.3432-8.1528-25.0852 3.8872-3.4448 6.1517-7.1529 5.7393-10.1492 13.9545-2.9964 8.2152-3.0641 5.6008-5.6592 9.5206s-4.9447 6.9617-5.6879 7.7393c-1.4864 1.5552-2.01 1.8658-4.5112 4.933s-4.735 5.9338-5.1519 6.6864c-.8338 1.5051-5.2974 4.3343-6.2922 4.1508-.6138-.1131-2.3611-4.9798-3.6715-5.3734-1.6426-.4934-5.511 1.3766-5.5565 4.7461-.0245 1.8049 2.9814 3.5183 2.506 5.5421-.3236 1.3775-2.6915 2.7408-3.7419 2.3507-.6004-.223-2.3327-1.8481-3.755-1.2316-2.6575 1.1518-3.4679 7.346-1.8928 9.7596.8006 1.2269 3.917-.2786 4.3851.1609.5305.4981.8702.8899.5857 1.8582-.3086 1.0504-4.1664.7701-4.653 2.1382-1.6568 4.6583.7011 11.3006 3.7175 9.1837 1.0132-.7111 1.9821-1.9046 2.6603-2.7004.6018-.7061 1.1622.1801 1.223.713.1385 1.213-2.6439 4.0499-2.2717 5.89.7159 3.5392 5.3761 4.4625 6.5093 1.5077.8794-2.293 2.6688-7.7308 3.0053-8.469.1683-.3691.4295-1.1962 2.5145-2.0964 5.2022-2.0209 6.9394 1.6353 8.8289 8.7364 1.6933-2.3097 4.3652-9.1307 2.999-12.8653 1.9334 3.3011 5.1864 7.061 7.9824 7.5337-1.1262-5.0071.3247-9.2229.7717-10.9376 1.7866 2.9901 6.6107 6.1757 10.0645 4.985-2.9708-3.0024-4.666-8.4253-1.3397-10.9563s4.174-3.9898 4.9377-8.7452 4.5891-3.2663 6.0405.0921c1.4515 3.3585 2.0333 4.5998 3.7175 7.6593 1.8121 3.2919 4.2493 6.5301 5.8432 8.5209 1.801 2.2495 3.477 4.7139 4.9904 8.2706 1.9386 4.5561 2.8517 9.7121 2.7506 15.9813-.4421 6.041 1.2285 11.3827.6684 17.2678-.3359 2.2351-2.2098 5.4699-.3991 11.1988s2.319 17.5617-.1093 21.7508c6.3971-.5155 9.0654-9.3917 8.0432-17.148 2.4413 3.3479 4.1037 4.2402 6.0844 7.117.7503 1.0898 4.1502 6.2439 5.0002 7.3221 1.7326 2.7324 1.4982 2.2551 4.1727 5.6294.1919.6106.6787 4.779.6765 5.8534-.0006.3108.1054 2.7948-.4408 5.6464-.4833 2.5232-1.3785 5.3476-2.2966 6.2623-.945.9415-1.2094-2.7926-2.2969-2.4916-1.4386.3981-4.3675 3.8797-3.9768 6.12.3801 2.1793 3.7352 1.3571 2.4995 2.4606l-1.58 1.411c-.9713.8674-1.2898-1.2498-3.3452-.7385-2.5259.6284-3.2033 5.6611-1.8233 8.3869.9078 1.7932 2.8493.6608 2.8493.6608 2.1571-.8036 2.8971.447.1762 1.5866 0 0-2.626 1.1868-2.2981 4.5477.2237 2.2925 2.1897 4.7141 3.2599 4.4219 1.4204-.3877 3.0112-1.8401 3.474-3.1455.8681-2.4484 1.5859-.977.9753.972-.347 1.1073-.9449 3.4719.0318 4.6702 1.1904 1.4604 4.0478.6266 4.9391-.7654 1.3647-2.1314 1.1679-5.5395.8341-6.5141 2.2627-1.1276 3.4642-3.401 4.1324-5.4971z"/></g></g><path d="m482.9072 150.868s18.3139-9.4528 29.9561-29.3704m57.0888 95.866s2.9727.3368 4.1525 5.2049c1.2303 5.0763-1.95 7.78-1.95 7.78m-58.9355-11.9113s1.8575 4.1798.4475 8.5838c-1.4704 4.5922-4.8472 1.8969-4.8472 1.8969" fill="none"/><g fill-rule="evenodd"><path d="m534.0286 68.0283c-2.4415-.9892-4.7969-1.9363-6.7346-3.9322-1.805-1.8592-4.5272-2.5623-6.7313-1.842-3.5459 1.1588-5.837 2.1481-9.4398.6225-3.0339-1.2847-3.9387-4.4976-3.3635-9.93.6326 3.1641 1.703 4.6923 2.7261 5.1686 1.3162.6127 3.6658.6186 5.5028-.4344 9.5101-5.4514 15.7318-.8589 18.0404 10.3476z" fill="#e00808"/><path d="m511.9673 46.2594c-.3904 1.5204-.3254 6.2504 1.5452 7.7533.2965-2.6855 1.105-5.7963 1.7057-7.3831zm2.8403 17.5576c-.2377 1.6509.0538 3.7518.5233 5.0389l2.2518-.835c-1.1475-1.0159-2.1679-2.5205-2.7751-4.2039z" fill="#fcef3c"/><g fill="#fff03c"><path d="m544.5016 123.3179c.7514-3.8757 2.4998-7.0387 3.0653-11.3395.6586-5.0314-.9134-6.2471-.6676-8.7276 1.3 3.7362 5.0486 4.0221 6.1764-.6762-1.6678-.3808-3.1747-2.169-3.7122-4.6901-.968-4.5403 1.4199-6.11 1.8059-10.5078.4558-5.1879-1.4489-7.4485-1.5705-9.645 1.5979.7873 3.5383-.6602 3.7698-3.3725-.8485.5078-1.7183.1547-2.2534-1.3539-.6417-1.8091-.1279-4.1904-.3436-6.157-.4005-3.6517-2.1291-4.0998-2.3507-6.374 1.6849 1.3764 3.9292-.6034 3.9699-4.0944-.6245.6545-1.4344.7421-2.1071.0654-1.2099-1.2169-.5646-3.5511-1.0159-5.6896-.3268-1.5489-2.2595-3.3352-2.3674-5.0269 1.4563.6402 2.8445-.7396 2.8703-3.6297-.7591.5451-2.4772.1493-3.0452-.9356-2.6588-5.0775-4.5296-9.2796-7.6637-12.8522-2.5408-2.8963-9.1095-4.8696-14.1998-5.363-3.7515-.3636-6.9379 2.254-9.2395 4.1583-2.006 1.6597-.7539 3.34-.2327 4.9252-1.7148-.3409-3.1794-.8157-4.8013.2025-.9357.5874-2.156 1.8688-2.0572 2.7185.0571.491.7232 2.0875 1.2922 1.5037-.0369 1.9046-.2717 2.9864-.2365 4.9624.0462 2.5989.9672 4.9791 2.2777 5.5183 3.4752 1.4298 6.6641 1.136 9.8654-.8367 4.3343-2.6708 5.6993 1.2896 6.0451 5.5613.3486 4.3068-.5292 9.6427-2.9292 12.9806-1.246 1.7329-3.532 3.4428-5.7549 3.2828-1.2477-.0899-2.4524-1.0924-3.546-.3182-.5576.3947-.7024 3.3574-.8703 4.9793-.1311 1.266.4717 1.961 1.3047 2.2878 1.9308.7575 1.4304 4.0112 2.5823 4.5294.077-.8507.5887-4.2692 1.0629-4.2912 1.9059-.0885 6.2865-.9638 6.1512.1991-.3414 2.925-2.4128 4.3585-7.1218 5.7338-3.6531 1.0669-10.7199-2.3664-9.692-15.8746-4.7765 4.2079-6.2917 16.8741-2.4079 20.7724-1.3973-.3075-2.943-.137-4.6355.3107-2.5148.6654-5.1942-2.629-6.8159-5.8459-.7479 9.6166.3234 15.0596 3.3323 18.215 3.5755 3.7497 6.0605 3.0882 8.4857 3.794-2.0398 1.6744-3.5069 4.749-5.3743 7.5102-2.0982 3.1025-5.1345 5.5839-8.4683 4.8658 1.3948 4.6407 4.0832 7.491 7.3582 8.3967 4.419 1.2234 8.0985-.7121 11.1667-4.2687-.5252 4.5712-3.4504 6.1723-4.0284 11.6975-.5165 4.9375.8566 9.3844 3.9285 10.5712-.8291-7.9201 4.0968-10.0985 7.0065-11.7349 2.7536-1.5486 5.1535-3.7401 7.1461-7.4081.2835 4.6806-3.587 7.9107-1.8392 14.7964 1.1753 4.6303 4.1049 6.6928 7.3034 6.7358-2.038-2.255-2.4994-6.8554-1.0622-10.9314 2.0639-5.8533 4.6075-6.1282 7.3031-12.928.7151-1.8039 1.2228-4.8035 1.6317-7.6734 1.0958 3.276.4253 6.229.0177 8.8295-.7656 4.8852 1.6269 11.4563 5.7405 11.016-.9455-2.2842-.8002-5.7313-.2491-8.5735z"/><path d="m533.9154 27.9896c-.4604-7.7624 3.9843-8.3394 7.364-10.4765-.5544 4.9475-.4186 11.4357-2.5209 12.9283"/></g></g><path d="m540.7626 22.6368s-4.11-1.336-4.7567 6.0864m-25.95 6.9987s.5214 1.9894 1.3747.8417m3.9593-4.5319c1.415 3.261 2.4766 1.278 3.697.2099 4.4438-3.8895 5.3528-1.0817 7.5697 1.0568m-.8809 42.0132c5.1691.5287 7.3125-9.7317 7.3125-9.7317s2.3388 4.9327.9868 8.9547c2.9015-3.2913 4.4952-9.8671 1.7728-18.7273 1.6872.4163 3.3597 3.2681 3.6364 4.9044 1.0976-6.3886.1367-15.1238-3.6213-19.8839" fill="none"/><path d="m517.0255 34.129c1.3799 1.4788 2.4153 2.2786 3.7217 1.7305 2.1064-.8838 2.7937-2.7698 3.766-2.587-.8095-4.3001-3.4273-2.8206-5.4262-1.0309-.8933.7998-1.4677 1.446-2.0614 1.8874z" fill="none"/><path d="m520.248 31.5425c-.1747.1686.2816 1.9153.6685 3.3844-.3497-.0296-1.3702-.8393-1.4594-2.5337.245-1.0929.7909-.8507.7909-.8507z" fill-rule="evenodd"/></g><path d="m300 658.5v-657m-296.5625 300h592.6875m-434.3438 0v274.3323m287.4219-274.3323v-299.3125" fill="none" stroke="#000" stroke-width="3"/><g transform="translate(0 -5)"><path d="m300 428.6644s-106.25-39.98-106.25-141.5855v-92.0306h212.5v92.0306c0 101.6055-106.25 141.5855-106.25 141.5855z" fill="#fcef3c" fill-rule="evenodd" stroke="#000" stroke-width="2.5"/><g stroke="#313131" stroke-linecap="round" stroke-linejoin="round" stroke-width="1.544" transform="matrix(.971 0 0 .971 1073.148 -222.106)"><g fill-rule="evenodd"><path d="m-866.587 522.5258c-2.5329.0231-4.8659 2.4894-5.4066 3.9587 2.7359-1.0872 4.6089-.5812 6.1962 1.0829l4.0579-2.8558s-2.1613-1.8896-4.3382-2.1613c-.1701-.0212-.3404-.0259-.5093-.0243zm-7.6173 11.7317c-1.378.007-3.5455.2385-5.3082 1.4096-2.7629 1.8358-3.5347 6.0057-3.2652 6.8421 2.7213-2.829 4.779-3.6671 9.823-2.6072l.1161-5.5755s-.539-.0734-1.3658-.0689zm1.2754 10.1798s-4.4276 1.4155-5.5004 4.9305c-1.1444 3.7493 1.2436 6.7029 2.3444 7.284.4883-2.6233 1.0659-6.3823 6.2116-7.4178zm6.4732 7.1554c-.7883 1.5286-2.2289 3.8213-1.3461 6.5654 1.0753 3.3427 5.2706 4.1393 6.4538 4.2207-2.0427-3.4877-1.3926-5.9208.2554-9.2949zm100.5058 58.6356c-.3749-.008-.7506.016-1.1379.0875-2.8203.521-4.6266 3.852-4.8235 5.2026 2.7267-1.7522 4.5573-1.884 7.4699 1.1263.9293-1.0935 2.3142-2.597 3.707-4.1172-.3673-.4598-2.5915-2.244-5.2155-2.2993zm-6.0998 8.0469c-.8322-.0406-1.7816.1216-2.7394.6389-3.5702 1.9285-3.187 6.5181-3.0049 7.0921 3.1673-3.7486 5.276-3.7192 7.98-.7397l.5417-5.9128c-.3156-.3913-1.3906-1.0109-2.7776-1.0785zm3.7353 9.128s-3.5819.4348-4.626 4.7204c-1.0429 4.2809 1.7973 6.2271 2.5462 6.628.1134-3.2908 1.7475-6.0316 5.6655-6.898zm8.0003 4.9436c-.8597.6216-2.6329 1.5437-2.5523 4.7491.0867 3.4476 3.0744 5.1071 4.377 5.2473-1.2025-3.2274-.0327-5.6189 2.0775-7.0805zm-91.5267-48.9301c-2.6544.0105-4.544 1.988-4.7644 2.3743 4.8763.3194 5.1077 2.2402 6.4179 5.6579 1.8592-1.3521 3.5002-2.5111 4.5748-3.1329.0942-.7887-1.0812-3.116-3.8428-4.3641-.8445-.3817-1.6423-.5381-2.3855-.5352zm-5.9446 7.8652c-.5419-.0102-1.0939.0423-1.6504.1906-4.072 1.0857-4.0126 4.1891-4.0707 5.2215 4.5086-2.1939 6.1654.0004 8.7766 2.168l2.193-5.6743c-.8049-.5623-2.9005-1.8608-5.2485-1.9058zm5.6266 11.3148s-3.5679-1.4688-6.1758.0193c-2.8116 1.6043-2.595 5.3793-2.0616 6.6761 2.3898-3.5002 5.5155-2.8271 7.8499-1.1822zm10.0063 7.2614c.7341 4.5878-1.0845 5.3219-4.2519 5.5184 1.0749.9871 4.6747 2.6307 7.0581 1.3712 2.6188-1.3839 3.2857-5.4912 3.0254-5.5955zm-24.4739-167.38c-3.75-.0226-5.8533 2.8517-6.4134 3.8987 6.6857-.843 6.0582 1.1016 7.1852 5.0972l5.8398-2.2778c-.4714-2.097-1.3045-5.5027-4.3602-6.3834-.8085-.233-1.557-.3305-2.2515-.3347zm14.0445.5138c-1.2592-.0564-2.5023.2741-3.4065.9006 2.5874.9977 3.9989 2.1434 2.5859 6.4318l4.8631 3.4154c1.2706-1.4624 2.6516-4.8441.2569-8.425-1.025-1.5328-2.6804-2.2502-4.2994-2.3227zm-22.3436 8.3594c-2.2364-.1234-4.9548 1.2506-6.1936 6.6992 5.9365-4.2565 5.8538-.0115 8.7004 2.8968l4.1054-6.6123s-2.1974-1.6439-5.1593-2.6922c-.4405-.1559-.9368-.263-1.4529-.2915zm11.5601 22.0232c-2.5382 3.8886-5.7991 4.0594-9.9912 1.9187 2.5102 7.9874 8.6498 8.059 14.3224 3.7681z" fill="#e20909" stroke="#000"/><g stroke="#313131"><path d="m-736.4468 565.8585c.9511-1.9193.8557-4.3944-1.2544-5.88 3.1051-2.0168 6.4384-7.225 7.3749-10.3504 1.2202-4.0724 1.9922-8.8327 5.2206-10.0107 1.7128-.6251 3.3163.6068 3.1689 2.7141-.3201 4.5741-1.9045 3.5902-3.5834 9.7651-.6304 2.3186.6142 5.9559 5.9735 5.1533-2.2686-1.0477-2.3885-2.4315-2.1436-4.2604.4251-3.1753 5.9462-6.8938 6.5236-12.1098.6792-6.1354-4.3298-8.8961-6.8153-9.1332-3.3281-.3175-7.3834 1.7792-9.8341 5.9403-1.2949-6.0598 2.9411-11.9538 7.5341-14.7726 3.8485-2.362 8.2195-4.4293 10.3612-7.832 2.4148-3.8364 1.929-8.6638-.5484-11.0421-.1265 2.2947-1.7323 6.1488-6.5405 8.6163-5.8368 2.9953-11.4795 4.7141-16.1927 13.2501-.989-15.2719 15.375-21.2243 22.1737-25.9524 8.4382-5.8682 5.6822-18.6552 3.1209-20.4009.1483 2.1413.2368 5.4938-2.3126 9.4588-2.9489 4.5863-8.1052 6.6654-14.3269 10.0916-6.1876 3.4073-11.3243 8.8506-13.7605 14.5625-.6717-3.855 2.1809-9.4392 5.7738-13.3497 3.7215-4.0504 8.1672-7.6013 10.6956-9.7463 5.0359-4.2725 12.3722-10.1865 13.1337-23.1544.5374-9.1203-3.9973-15.5068-10.3547-18.1724-3.7284-1.5633-9.1942-1.7974-12.9581-.9527-1.8884.4238-3.771 1.0757-5.5386 2.1389-1.2446.7486-3.392.2879-3.176-1.8859.2545-2.5617 3.9094-2.7506 4.2986-5.7527.3211-2.4765-1.5599-4.4675-3.5505-5.4525.4982 1.517-.042 3.2771-1.0865 5.0327-1.3613 2.2883-4.4442 2.0446-4.8456 6.3743-.1989 2.1656 1.2443 4.6069 3.292 5.2129.2428.1486.6499.476.4769.7136-2.26 3.1039-2.6687 7.2101-2.4398 10.0578.3824 4.7555 2.0257 6.4317 2.0469 10.8356.007 1.3727.005 5.3309-1.6454 7.9401-2.034 3.2164-3.7752 4.4909-5.7136 5.5041 2.7348.1717 5.6584-.4632 7.7047-1.2579 3.7824-1.4688 6.9923-6.1453 7.6306-9.2457.425-2.0644.3292-3.9943.0582-5.8744 1.8515.6268 5.0758.7162 7.3314-.7792 2.3161-1.5355 3.5986-4.8529 1.8952-7.7462-.5883 2.9322-2.5463 3.9958-5.4856 4.1125-2.7971.1111-5.0327-1.6375-5.2769-4.6776-.3599-4.4808 3.4466-7.7454 8.6791-7.8076 6.9315-.0824 10.6974 5.0116 10.3296 11.677-.3687 6.6812-3.6749 11.5989-8.3494 15.5756-4.0161 3.4165-8.2423 6.7353-12.4217 10.8871-3.2597 3.2381-9.681 10.1027-9.8963 19.2045-.1597 6.7447 1.8006 12.1987 4.8675 17.1126 3.067 4.9139 4.8837 9.0078 6.1921 12.8181 1.5726 4.5801.8357 10.8303-3.5967 12.5831-4.591 1.8156-10.8235-.9352-13.0357-6.9296-.7869 4.3804-1.8602 13.4406 2.5716 13.1012 2.6836.925 5.1008 2.1595 8.1428 2.0309 2.6628-.1125 5.5404-3.0619 10.1118 2.0644z"/><path d="m-813.1949 548.9853c-8.331-.003-13.4954 5.5635-14.5631 11.7747-.4582 2.6659-.8913 4.4902-2.1365 5.5394-3.0546 2.5737-7.9644 3.1185-8.4219 2.947 2.9339 3.4984 5.5292 4.6696 9.4424 3.8202-.8152 4.3066 3.144 9.6493 5.1889 14.0593.6904 1.489-2.7786 2.5384-6.9481 3.2546-1.3568.2331-4.0183 1.9056-5.3222 2.2693-1.3505.3767-3.3899.2453-4.1732-.2392-.8096-.5008-3.7303-3.7959-5.9491-4.5254-2.0648-.6788-4.6498-.2897-5.13 1.3934-.7649 2.6856 2.8028 3.7597 3.2785 4.7092.4601.9183-.331 1.6531-.9999 1.2679-.7937-.4571-3.3524-3.302-4.9336-2.7994-1.1915.3787-2.1725 1.4482-2.4724 4.4107-.2542 2.5111 3.8512 3.2779 5.4037 3.3966 1.2639.0966 1.0993 1.349.3377 1.5869-.8194.256-4.3996-1.8904-4.6032-.1889-.2035 1.7015-.47 5.4098 1.7763 6.7115 1.766 1.0234 8.4053-.92 9.1657-1.1117.9055-.2283 1.7896-.4945 2.0842-.2219 2.0025 1.8532-2.0946 2.5149-.7073 4.2357 1.4742 1.8285 3.6051 1.9968 5.57 2.3208 4.0374.6656 1.9892-6.9912 2.882-7.0381 1.9267-.2679 2.6811-.5627 4.2342.6919s3.8864 5.1337 7.1563 6.145c-.2851-2.9658-.0504-5.6333.951-7.6265 1.1359 3.4039 5.23 5.0909 9.3879 6.1753-2.0809-2.434-2.6495-6.8503-1.9836-7.5241 2.7332 3.0469 5.3031 4.1561 10.4659 4.0082-1.5369-1.1422-2.3227-4.4754-1.9833-5.413.5208-1.4383 1.6471 1.0663 3.0315-1.8559.8727-1.8421-.5352-4.0624-1.1187-5.2104-2.6759-5.2648-3.0805-17.4553 9.2789-20.3341 6.7219-1.5657 16.8797-5.4743 17.759-6.581 7.0077-8.8199.5383-16.2724-3.0773-20.5485-9.147 4.3685-22.3569.6476-32.871.5005z"/><path d="m-853.3421 482.7973c.1952 2.2296 1.6356 5.4487 1.0164 8.1171 1.6052-1.5189 3.0789-3.4384 3.2611-5.5088 2.4265 4.2733-.6645 10.2355-.4296 14.8876 1.2409-1.613 4.2489-3.9885 4.9256-6.1355 2.4404 5.2843-3.1245 6.4803-.2338 16.9271 1.0058-3.772 3.5597-6.8914 4.6341-9.4776.824 7.18 7.7168 11.9209 11.6009 10.7313 8.9064 11.6225 19.6314 7.0972 19.1134-5.545 0 0-8.4188-18.6379-10.5959-20.246-2.3641-1.7462-5.3717-3.3226-8.8017-5.5136-3.8712-2.4729-7.0484-4.4583-10.0505-7.2376-3.0022-2.7793-4.4472-5.2728-6.4135-7.2243-2.7681-2.7474-4.6066-5.7984-4.6655-7.2152-.072-1.7336 1.6056-2.1982 2.2278-4.9511.7403-3.2757-2.6235-6.7886-5.7522-6.3019-1.7836.2775-1.9752 3.5993-2.938 4.2677-.227.1576-.4989.2121-.8478.11-1.8292-.5353-.3239-5.8556-3.2793-6.066s-5.311.6892-6.9085 3.59c-1.2842 2.3318 3.1664 3.9224 3.3341 5.2923.0376.3071-.6075.7523-.9198.7446-.2062-.005-3.3875-3.4378-5.8767-2.6073-1.9397.6472-4.0435 2.9227-3.3802 6.0789.5736 2.7291 4.1839 2.9238 5.9174 3.1092 2.0554.2199 6.6509 6.0914 6.2802 8.7366-.1136 2.1323-3.2798 1.2931-3.9459 3.7381-.8541 3.1353 1.5967 6.649 4.3538 6.2315 2.0629-.3124 4.2782-3.0001 5.2164-3.0881 2.2742-.0126 2.9416 2.0805 3.1578 4.556z"/><path d="m-798.5453 544.7925c5.4283 2.0408 10.0329 7.0725 10.6284 10.6887-3.1279 6.2399-1.0643 9.0297 3.4061 8.2831 3.6483-.6074 3.6543-3.5225 2.6934-6.8858-.8573-3.0006-2.162-5.0276-4.9396-7.1738-3.6268-2.8024-10.2293-5.1867-11.7883-4.9122z"/><path d="m-748.8518 625.6678c1.9965-6.5593 9.0424-2.045 12.6982-7.3888-2.2214-.1443-4.8731-1.7543-5.6166-4.1428 5.7945.1734 8.4111-1.6438 11.3892-4.1751-2.3331.0138-5.7764-.5688-6.265-3.9404 2.79-.0555 8.6335-.0796 11.8448-5.0563-5.6657.9463-8.4223-.9368-8.1613-2.5651.7717-4.8134 3.5829-4.5545-.2306-8.0765-1.0715-.9896-5.6226-1.8727-5.2518-4.3233.1967-1.2997 3.9585-3.6274 5.7912-4.6406-1.1735-.1291-4.1484-1.6768-6.8646-.9176-2.7161.7593-5.1371 1.0973-9.1934-3.1306-1.8651-1.9523-2.7839-2.4679-5.0194-7.0463-.4494-.9203-2.7798-8.6962-2.0009-8.554 2.6543-3.6404.1805-9.2574-1.5096-13.4343-1.6456-4.4557-3.1022-8.9577-6.3179-13.6228-2.4701-3.5834-9.0521-9.7084-9.4056-14.505-.4622-6.2172-.5796-12.8542-.1955-16.088 1.0523-8.8609 1.4232-10.5443-6.9628-13.3969-4.9575-1.6863-22.1772-6.111-30.3285 2.9137-4.1648 4.6111-8.6479 4.3019-12.2706 10.4597s-3.7046 4.1981-6.8421 7.1363c-3.1375 2.9381-5.9783 5.2182-6.8768 5.8011-1.7971 1.1657-2.4301 1.3985-5.4541 3.6976s-5.7248 4.4478-6.2288 5.0119c-1.0081 1.1282-6.4046 3.2488-7.6073 3.1113-.7421-.0848-2.8546-3.7327-4.4389-4.0277-1.9859-.3698-6.6629 1.0318-6.718 3.5575-.0295 1.3529 3.6046 2.6372 3.0298 4.1541-.3913 1.0326-3.2541 2.0544-4.524 1.762-.7258-.1671-2.8202-1.3853-4.5398-.9232-3.213.8634-4.1927 5.5063-2.2885 7.3155.9679.9196 4.7357-.2088 5.3017.1206.6414.3733 1.0521.667.7081 1.3928-.3731.7873-5.0372.5772-5.6255 1.6027-2.0031 3.4917.8476 8.4705 4.4945 6.8837 1.2249-.533 2.3964-1.4276 3.2164-2.0241.7276-.5293 1.4051.135 1.4787.5344.1674.9092-3.1965 3.0357-2.7465 4.4149.8656 2.6528 6.4998 3.3449 7.8699 1.1301 1.0632-1.7187 3.2266-5.7947 3.6335-6.348.2034-.2767.5193-.8966 3.0401-1.5714 6.2896-1.5148 8.3898 1.2258 10.6743 6.5485 2.0472-1.7312 5.2776-6.844 3.6259-9.6434 2.3376 2.4744 6.2704 5.2927 9.6508 5.647-1.3616-3.7531.3926-6.9132.933-8.1984 2.16 2.2413 7.9925 4.6291 12.1682 3.7366-3.5918-2.2505-5.6413-6.3153-1.6197-8.2124s5.0464-2.9906 5.9698-6.5551 5.5482-2.4483 7.3031.0691c1.7548 2.5174 2.4582 3.4478 4.4945 5.7411 2.1909 2.4674 5.1375 4.8947 7.0645 6.3869 2.1774 1.6862 4.2038 3.5333 6.0335 6.1993 2.3438 3.4151 3.4478 7.2798 3.3255 11.979-.5346 4.5281 1.4853 8.532.8081 12.9432-.4061 1.6753-2.6717 4.1-.4825 8.3942s2.8037 13.1636-.1322 16.3035c7.7342-.3864 10.9602-7.0396 9.7244-12.8535 2.9515 2.5094 4.9614 3.1783 7.3562 5.3346.9072.8168 5.0177 4.6802 6.0453 5.4884 2.0948 2.0481 1.8113 1.6903 5.0448 4.2196.232.4577.8206 3.5821.8179 4.3875-.0007.2329.1274 2.0949-.5329 4.2323-.5843 1.8913-1.6667 4.0084-2.7766 4.694-1.1425.7057-1.4622-2.0932-2.777-1.8676-1.7393.2984-5.2804 2.908-4.808 4.5873.4596 1.6336 4.5159 1.0172 3.0219 1.8444l-1.9103 1.0576c-1.1743.6501-1.5594-.9368-4.0443-.5536-3.0538.471-3.8728 4.2434-2.2045 6.2865 1.0976 1.3441 3.4449.4953 3.4449.4953 2.6079-.6024 3.5026.335.2131 1.1892 0 0-3.1748.8896-2.7784 3.4088.2704 1.7184 2.6473 3.5335 3.9413 3.3145 1.7173-.2906 3.6406-1.3793 4.2002-2.3578 1.0495-1.8352 1.9174-.7323 1.1791.7285-.4195.83-1.1423 2.6024.0385 3.5006 1.4392 1.0947 4.8939.4697 5.9714-.5737 1.6499-1.5976 1.4121-4.1521 1.0084-4.8827 2.7356-.8452 4.1883-2.5492 4.9961-4.1204z"/></g></g><path d="m-847.2501 541.237s22.1417-7.0855 36.2174-22.0149m69.0212 71.8574s3.594.2524 5.0205 3.9014c1.4875 3.805-2.3575 5.8316-2.3575 5.8316m-71.2539-8.9282s2.2458 3.1331.541 6.4341c-1.7777 3.4422-5.8604 1.4219-5.8604 1.4219" fill="none" stroke="#313131"/><path d="m-785.4436 479.1435c-2.9518-.7415-5.7995-1.4514-8.1423-2.9474-2.1823-1.3936-5.4734-1.9206-8.1383-1.3807-4.287.8686-7.057 1.6102-11.4129.4666-3.6681-.963-4.7619-3.3712-4.0666-7.4432.7648 2.3717 2.059 3.5172 3.2959 3.8742 1.5913.4593 4.432.4637 6.653-.3256 11.4979-4.0861 19.02-.6438 21.8111 7.7561z" fill="#e00808" fill-rule="evenodd" stroke="#000"/><g stroke="#313131"><g fill-rule="evenodd"><path d="m-812.116 462.8264c-.472 1.1397-.3934 4.6851 1.8682 5.8116.3585-2.0129 1.336-4.3446 2.0622-5.5341zm3.4339 13.1605c-.2873 1.2375.065 2.8122.6327 3.777l2.7225-.6259c-1.3873-.7615-2.621-1.8893-3.3552-3.1511z"/><path d="m-772.7815 520.5865c.9084-2.9051 3.0222-5.2759 3.706-8.4997.7963-3.7713-1.1043-4.6826-.8071-6.5419 1.5717 2.8005 6.1038 3.0148 7.4674-.5069-2.0164-.2854-3.8382-1.6258-4.4881-3.5155-1.1703-3.4032 1.7167-4.5798 2.1834-7.8763.551-3.8887-1.7518-5.5831-1.8988-7.2295 1.9319.5902 4.2778-.4948 4.5578-2.5279-1.0258.3807-2.0775.1159-2.7244-1.0149-.7758-1.356-.1547-3.141-.4154-4.6151-.4842-2.7372-2.5741-3.073-2.8421-4.7777 2.0371 1.0317 4.7504-.4523 4.7997-3.069-.755.4906-1.7342.5562-2.5475.0491-1.4628-.9121-.6826-2.6617-1.2282-4.2647-.3952-1.161-2.7317-2.4999-2.8623-3.768 1.7607.4799 3.4391-.5544 3.4702-2.7207-.9178.4086-2.9949.1119-3.6817-.7013-3.2145-3.8059-5.4763-6.9556-9.2655-9.6335-3.0719-2.171-11.0136-3.6501-17.1678-4.0199-4.5356-.2725-8.388 1.6895-11.1707 3.1169-2.4253 1.2441-.9115 2.5035-.2813 3.6917-2.0732-.2555-3.8439-.6114-5.8049.1518-1.1313.4403-2.6066 1.4008-2.4872 2.0377.069.3681.8744 1.5647 1.5622 1.1271-.0446 1.4277-.3284 2.2385-.2859 3.7197.0559 1.948 1.1693 3.7322 2.7538 4.1363 4.2016 1.0717 8.057.8515 11.9274-.6271 5.2402-2.0019 6.8905.9666 7.3086 4.1686.4215 3.2282-.6398 7.2278-3.5415 9.7298-1.5065 1.2989-4.2702 2.5806-6.9578 2.4607-1.5085-.0673-2.965-.8188-4.2872-.2385-.6741.2959-.8492 2.5166-1.0522 3.7323-.1585.9489.5703 1.4699 1.5774 1.7148 2.3344.5678 1.7294 3.0066 3.122 3.3951.0931-.6377.7117-3.2 1.285-3.2165 2.3043-.0663 7.6004-.7224 7.4369.1493-.4127 2.1925-2.9172 3.267-8.6104 4.2978-4.4166.7997-12.9605-1.7737-11.7178-11.899-5.7749 3.1541-7.6068 12.6481-2.9112 15.5701-1.6894-.2305-3.5581-.1028-5.6044.2329-3.0405.4988-6.2798-1.9706-8.2406-4.3818-.9042 7.2082.3911 11.2881 4.0288 13.6532 4.3229 2.8106 7.3273 2.3148 10.2594 2.8438-2.4662 1.2551-4.2399 3.5596-6.4976 5.6293-2.5368 2.3255-6.2076 4.1855-10.2383 3.6472 1.6863 3.4785 4.9366 5.615 8.8962 6.2938 5.3426.917 9.7913-.5338 13.5007-3.1997-.635 3.4264-4.1716 4.6265-4.8704 8.768-.6244 3.7009 1.0356 7.0342 4.7497 7.9238-1.0024-5.9366 4.953-7.5694 8.4709-8.796 3.3292-1.1608 6.2307-2.8034 8.6398-5.5529.3427 3.5084-4.3367 5.9295-2.2236 11.0909 1.421 3.4707 4.9629 5.0166 8.83 5.0489-2.464-1.6903-3.0218-5.1385-1.2842-8.1938 2.4952-4.3874 5.5705-4.5934 8.8295-9.6903.8646-1.3521 1.4784-3.6005 1.9728-5.7517 1.3248 2.4556.5142 4.669.0214 6.6183-.9257 3.6618 1.967 8.5872 6.9404 8.2571-1.1432-1.7122-.9674-4.296-.3012-6.4264z"/><path d="m-785.5804 449.132c-.5566-5.8184 4.817-6.2509 8.9031-7.8528-.6703 3.7084-.506 8.5718-3.0478 9.6905"/></g><path d="m-777.302 445.1199s-4.9691-1.0015-5.751 4.5621m-31.3739 5.2459s.6304 1.4912 1.662.6309m4.7869-3.3969c1.7108 2.4443 2.9942.958 4.4697.1573 5.3726-2.9154 6.4716-.8108 9.1519.7921m-1.065 31.4915c6.2495.3963 8.841-7.2945 8.841-7.2945s2.8277 3.6973 1.1931 6.7121c3.5079-2.467 5.4347-7.396 2.1433-14.0373 2.0399.312 4.0619 2.4496 4.3965 3.6761 1.3271-4.7887.1653-11.3362-4.3782-14.9042" fill="none"/><path d="m-806.0006 453.7339c1.6683 1.1085 2.9202 1.7079 4.4996 1.2971 2.5467-.6624 3.3777-2.0762 4.5531-1.9391-.9787-3.2232-4.1437-2.1142-6.5604-.7727-1.08.5995-1.7745 1.0839-2.4923 1.4147z" fill="none"/><path d="m-802.1045 451.7952c-.2112.1264.3405 1.4357.8083 2.5368-.4227-.0222-1.6566-.6291-1.7645-1.8992.2962-.8192.9562-.6377.9562-.6377z" fill-rule="evenodd"/></g></g></g><path d="m299.9999 658.5s298.5001-112.3203 298.5001-397.7718v-259.2282h-597v259.2282c0 285.4515 298.4999 397.7718 298.4999 397.7718z" fill="url(#b)" fill-rule="evenodd" opacity=".8"/><path d="m300 658.3972s-298.5-112.4185-298.5-398.1195v-258.7777h597v258.7777c0 285.7011-298.5 398.1195-298.5 398.1195z" fill="none" stroke="#000" stroke-width="3"/></svg>