<?xml version="1.0" encoding="UTF-8" standalone="no"?>
<!-- Created with Inkscape (http://www.inkscape.org/) -->

<svg
   xmlns:dc="http://purl.org/dc/elements/1.1/"
   xmlns:cc="http://creativecommons.org/ns#"
   xmlns:rdf="http://www.w3.org/1999/02/22-rdf-syntax-ns#"
   xmlns:svg="http://www.w3.org/2000/svg"
   xmlns="http://www.w3.org/2000/svg"
   xmlns:xlink="http://www.w3.org/1999/xlink"
   xmlns:sodipodi="http://sodipodi.sourceforge.net/DTD/sodipodi-0.dtd"
   xmlns:inkscape="http://www.inkscape.org/namespaces/inkscape"
   width="459.74249"
   height="526.76123"
   id="svg9188"
   version="1.1"
   inkscape:version="0.48.4 r9939"
   sodipodi:docname="Jan van Henegouwen.svg">
  <defs
     id="defs9190">
    <linearGradient
       id="linearGradient4070-6-1">
      <stop
         style="stop-color:#a3a3a3;stop-opacity:1;"
         offset="0"
         id="stop4072-2-3" />
      <stop
         style="stop-color:#b0b0b0;stop-opacity:1;"
         offset="0.14285725"
         id="stop4074-3-2" />
      <stop
         id="stop4076-8-1"
         offset="0.32142863"
         style="stop-color:#d1d1d1;stop-opacity:1;" />
      <stop
         style="stop-color:#bdbdbd;stop-opacity:1;"
         offset="0.5"
         id="stop4078-2-6" />
      <stop
         id="stop4080-6-3"
         offset="0.75"
         style="stop-color:#e5e5e5;stop-opacity:1;" />
      <stop
         style="stop-color:#cccccc;stop-opacity:1;"
         offset="0.875"
         id="stop4082-2-8" />
      <stop
         id="stop4084-7-3"
         offset="1"
         style="stop-color:#cccccc;stop-opacity:1;" />
    </linearGradient>
    <linearGradient
       id="linearGradient23124">
      <stop
         style="stop-color:#cc992d;stop-opacity:1;"
         offset="0"
         id="stop23126" />
      <stop
         style="stop-color:#e1a832;stop-opacity:1;"
         offset="0.14285725"
         id="stop23128" />
      <stop
         id="stop23130"
         offset="0.32142863"
         style="stop-color:#e5cf5c;stop-opacity:1;" />
      <stop
         style="stop-color:#e5c547;stop-opacity:1;"
         offset="0.5"
         id="stop23132" />
      <stop
         id="stop23134"
         offset="0.75"
         style="stop-color:#ffffa3;stop-opacity:1;" />
      <stop
         style="stop-color:#ffd94d;stop-opacity:1;"
         offset="0.875"
         id="stop23136" />
      <stop
         id="stop23138"
         offset="1"
         style="stop-color:#ffdb4e;stop-opacity:1;" />
    </linearGradient>
    <linearGradient
       id="linearGradient4053-4-8-3-8">
      <stop
         style="stop-color:#cc992d;stop-opacity:1;"
         offset="0"
         id="stop4055-9-6-3-1" />
      <stop
         style="stop-color:#e1a832;stop-opacity:1;"
         offset="0.14285725"
         id="stop4057-8-0-4-3" />
      <stop
         id="stop4059-2-1-2-6"
         offset="0.32142863"
         style="stop-color:#e5cf5c;stop-opacity:1;" />
      <stop
         style="stop-color:#e5c547;stop-opacity:1;"
         offset="0.5"
         id="stop4061-4-2-2-7" />
      <stop
         id="stop4063-5-6-0-8"
         offset="0.75"
         style="stop-color:#ffffa3;stop-opacity:1;" />
      <stop
         style="stop-color:#ffd94d;stop-opacity:1;"
         offset="0.875"
         id="stop4065-2-0-1-9" />
      <stop
         id="stop4067-9-5-2-5"
         offset="1"
         style="stop-color:#ffdb4e;stop-opacity:1;" />
    </linearGradient>
    <linearGradient
       inkscape:collect="always"
       xlink:href="#linearGradient4070-6-1"
       id="linearGradient12295"
       x1="135.58722"
       y1="478.0686"
       x2="585.06146"
       y2="478.0686"
       gradientUnits="userSpaceOnUse" />
    <linearGradient
       id="linearGradient4070-8-2-8-8-7">
      <stop
         id="stop4072-1-2-6-4-1"
         offset="0"
         style="stop-color:#a3a3a3;stop-opacity:1;" />
      <stop
         id="stop4074-8-0-7-0-4"
         offset="0.14285725"
         style="stop-color:#b0b0b0;stop-opacity:1;" />
      <stop
         style="stop-color:#d1d1d1;stop-opacity:1;"
         offset="0.32142863"
         id="stop4076-6-1-0-3-7" />
      <stop
         id="stop4078-0-2-8-7-6"
         offset="0.5"
         style="stop-color:#bdbdbd;stop-opacity:1;" />
      <stop
         style="stop-color:#e5e5e5;stop-opacity:1;"
         offset="0.75"
         id="stop4080-2-7-1-8-8" />
      <stop
         id="stop4082-4-7-8-3-2"
         offset="0.875"
         style="stop-color:#cccccc;stop-opacity:1;" />
      <stop
         style="stop-color:#cccccc;stop-opacity:1;"
         offset="1"
         id="stop4084-9-0-3-1-3" />
    </linearGradient>
    <linearGradient
       id="linearGradient7056">
      <stop
         id="stop7058"
         offset="0"
         style="stop-color:#a3a3a3;stop-opacity:1;" />
      <stop
         id="stop7060"
         offset="0.14285725"
         style="stop-color:#b0b0b0;stop-opacity:1;" />
      <stop
         style="stop-color:#d1d1d1;stop-opacity:1;"
         offset="0.32142863"
         id="stop7062" />
      <stop
         id="stop7064"
         offset="0.5"
         style="stop-color:#bdbdbd;stop-opacity:1;" />
      <stop
         style="stop-color:#e5e5e5;stop-opacity:1;"
         offset="0.75"
         id="stop7066" />
      <stop
         id="stop7068"
         offset="0.875"
         style="stop-color:#cccccc;stop-opacity:1;" />
      <stop
         style="stop-color:#cccccc;stop-opacity:1;"
         offset="1"
         id="stop7070" />
    </linearGradient>
    <linearGradient
       inkscape:collect="always"
       xlink:href="#linearGradient4070-8-2-8-8-7"
       id="linearGradient4989"
       x1="61.345173"
       y1="233.30521"
       x2="165.66711"
       y2="233.30521"
       gradientUnits="userSpaceOnUse" />
    <linearGradient
       id="linearGradient7073">
      <stop
         id="stop7075"
         offset="0"
         style="stop-color:#a3a3a3;stop-opacity:1;" />
      <stop
         id="stop7077"
         offset="0.14285725"
         style="stop-color:#b0b0b0;stop-opacity:1;" />
      <stop
         style="stop-color:#d1d1d1;stop-opacity:1;"
         offset="0.32142863"
         id="stop7079" />
      <stop
         id="stop7081"
         offset="0.5"
         style="stop-color:#bdbdbd;stop-opacity:1;" />
      <stop
         style="stop-color:#e5e5e5;stop-opacity:1;"
         offset="0.75"
         id="stop7083" />
      <stop
         id="stop7085"
         offset="0.875"
         style="stop-color:#cccccc;stop-opacity:1;" />
      <stop
         style="stop-color:#cccccc;stop-opacity:1;"
         offset="1"
         id="stop7087" />
    </linearGradient>
    <linearGradient
       inkscape:collect="always"
       xlink:href="#linearGradient7073"
       id="linearGradient7167"
       x1="389.45761"
       y1="301.66479"
       x2="549.72021"
       y2="301.66479"
       gradientUnits="userSpaceOnUse" />
    <linearGradient
       inkscape:collect="always"
       xlink:href="#linearGradient7073"
       id="linearGradient7169"
       x1="266.55731"
       y1="605.59448"
       x2="464.70535"
       y2="605.59448"
       gradientUnits="userSpaceOnUse" />
    <linearGradient
       inkscape:collect="always"
       xlink:href="#linearGradient7073"
       id="linearGradient7171"
       x1="166.12872"
       y1="303.54727"
       x2="326.39124"
       y2="303.54727"
       gradientUnits="userSpaceOnUse" />
    <linearGradient
       inkscape:collect="always"
       xlink:href="#linearGradient4053-4-8-3-8"
       id="linearGradient10357"
       x1="132.81471"
       y1="470.20605"
       x2="591.9444"
       y2="470.20605"
       gradientUnits="userSpaceOnUse" />
    <linearGradient
       id="linearGradient23124-4">
      <stop
         style="stop-color:#cc992d;stop-opacity:1;"
         offset="0"
         id="stop23126-0" />
      <stop
         style="stop-color:#e1a832;stop-opacity:1;"
         offset="0.14285725"
         id="stop23128-7" />
      <stop
         id="stop23130-9"
         offset="0.32142863"
         style="stop-color:#e5cf5c;stop-opacity:1;" />
      <stop
         style="stop-color:#e5c547;stop-opacity:1;"
         offset="0.5"
         id="stop23132-5" />
      <stop
         id="stop23134-3"
         offset="0.75"
         style="stop-color:#ffffa3;stop-opacity:1;" />
      <stop
         style="stop-color:#ffd94d;stop-opacity:1;"
         offset="0.875"
         id="stop23136-8" />
      <stop
         id="stop23138-2"
         offset="1"
         style="stop-color:#ffdb4e;stop-opacity:1;" />
    </linearGradient>
  </defs>
  <sodipodi:namedview
     id="base"
     pagecolor="#ffffff"
     bordercolor="#666666"
     borderopacity="1.0"
     inkscape:pageopacity="0.0"
     inkscape:pageshadow="2"
     inkscape:zoom="0.9899495"
     inkscape:cx="500.67311"
     inkscape:cy="202.46864"
     inkscape:document-units="px"
     inkscape:current-layer="layer1"
     showgrid="false"
     fit-margin-top="0"
     fit-margin-left="0"
     fit-margin-right="0"
     fit-margin-bottom="0"
     inkscape:window-width="1600"
     inkscape:window-height="837"
     inkscape:window-x="-8"
     inkscape:window-y="-8"
     inkscape:window-maximized="1" />
  <metadata
     id="metadata9193">
    <rdf:RDF>
      <cc:Work
         rdf:about="">
        <dc:format>image/svg+xml</dc:format>
        <dc:type
           rdf:resource="http://purl.org/dc/dcmitype/StillImage" />
        <dc:title></dc:title>
      </cc:Work>
    </rdf:RDF>
  </metadata>
  <g
     inkscape:label="Laag 1"
     inkscape:groupmode="layer"
     id="layer1"
     transform="translate(-132.21017,-206.55792)">
    <path
       style="fill:url(#linearGradient10357);fill-opacity:1.0;stroke:none"
       d="m 341.38586,720.72892 c -110.784,-65.766 -174.778,-154.432 -197.519,-273.68 -8.428,-44.186 -12.111,-93.925 -10.79,-145.723 0.906,-35.535 3.522,-82.93 4.964,-89.973 l 0.752,-3.665 223.893,-0.296 223.895,-0.299 -0.362,2.826 c 1.46,7.039 4.353,55.098 5.346,90.63 1.448,51.793 -1.15,101.708 -9.469,145.918 -19.985,106.205 -72.363,187.656 -161.644,251.359 -14.345,10.235 -55.275,35.586 -57.307,35.493 -0.327,-0.01 -10.118,-5.681 -21.759,-12.592 z"
       id="path3927-4-86-8-2-6-4-4-7-5-0"
       inkscape:connector-curvature="0"
       sodipodi:nodetypes="csssccccsssccc" />
    <path
       style="fill:#000000;fill-opacity:0.09433965"
       d="m 382.37486,722.29992 c 99.094,-58.866 161.51,-136.774 189.492,-236.53 18.917,-67.439 24.143,-143.559 17.063,-248.576 -1.028,-15.265 -2.361,-28.314 -2.962,-28.998 -0.599,-0.684 -2.549,0.42 -4.333,2.454 -3.016,3.439 -3.148,4.732 -1.875,18.392 2.59,27.818 3.665,114.532 1.749,141.225 -7.358,102.49 -32.993,176.472 -84.12,242.765 -29.605,38.389 -76.287,78.255 -123.609,105.564 -9.216,5.318 -11.351,7.291 -11.347,10.485 0,2.164 0.534,3.874 1.18,3.8 0.647,-0.07 9.089,-4.835 18.762,-10.581 z"
       id="path3971-2-8-4-0-8-2-8-9-0-23"
       inkscape:connector-curvature="0" />
    <path
       style="fill:#ffffff;fill-opacity:0.254717;stroke:none"
       d="m 130.26643,207.17844 9.40689,7.79964 458.05584,-0.59142 12.56784,-7.82874 z"
       id="path3995-3-6-1-2-4-7-3-5-3-0"
       inkscape:connector-curvature="0" />
    <path
       style="fill:#ffffff;fill-opacity:0.21226418"
       d="m 342.77686,722.03192 c -99.239,-58.604 -161.845,-136.344 -190.071,-236.025 -19.083,-67.389 -24.495,-143.495 -17.673,-248.532 0.992,-15.267 2.292,-28.318 2.891,-29.006 0.598,-0.685 2.55,0.415 4.339,2.445 3.024,3.431 3.159,4.723 1.92,18.387 -2.523,27.822 -3.384,114.54 -1.402,141.228 7.607,102.471 33.424,176.383 84.713,242.54 29.7,38.309 76.479,78.053 123.868,105.235 9.229,5.294 11.369,7.26 11.373,10.456 0,2.163 -0.525,3.875 -1.171,3.802 -0.647,-0.07 -9.1,-4.811 -18.787,-10.53 z"
       id="path3971-9-9-3-8-0-6-0-5-4-6"
       inkscape:connector-curvature="0" />
    <path
       style="fill:#1a1a1a;fill-opacity:1;stroke:none"
       d="m 231.319,246.0842 c -13.47186,13.15552 -5.13031,16.82214 7.61878,18.5722 17.10338,7.94162 2.9303,35.18554 -20.2059,18.5722 -2.57995,2.26782 -6.64739,9.57543 7.61879,10.24667 0.51287,-0.0352 6.40146,0.25057 2.3184,5.44335 l -18.54942,5.44385 c -10.8117,-6.18101 -11.34395,-16.57358 -11.26269,-27.21826 -3.1757,4.59448 -4.0007,9.60208 -2.3184,15.04997 -6.48757,-4.49739 -13.54827,-8.74418 -1.98744,-21.13387 9.48998,-4.25032 15.55562,-8.9062 3.64337,-15.69001 -8.62622,-1.70929 -19.16939,-6.11912 -12.91862,13.12835 l -3.3124,10.8872 -3.97487,-12.16779 c 1.96321,-10.13546 3.31293,-19.79894 -11.59366,-16.9711 -11.49518,3.05428 -16.37524,15.93105 1.65647,23.055 l 8.94374,12.80833 -11.26269,-4.16278 c -7.67314,-6.62782 -15.62074,-15.04644 -19.87438,0.64055 1.2254,10.17974 7.94275,10.94759 18.88093,4.4828 l 11.26215,4.8033 c -20.59552,5.90124 7.12043,25.1633 11.26215,9.28611 l 4.30638,4.48277 c -6.63555,10.25875 2.91524,20.11546 14.57509,16.01054 2.45618,3.51922 8.79681,7.52248 2.31841,9.92665 -6.36917,-0.21485 -12.56235,3.30285 -19.2119,-2.88168 l -3.31295,-3.20221 c -2.45617,-8.19622 -3.67027,-18.93247 -13.91205,-11.20723 -0.90089,2.87414 -7.93469,12.15421 5.63134,10.56669 l 5.29983,10.8872 -6.29382,-1.92113 c -7.91854,-5.47554 -15.37372,-8.8901 -20.20589,-0.64053 1.71567,6.77123 5.95747,15.90034 17.63992,6.02905 l 9.19076,0.0553 -8.28072,3.84225 c -6.48217,2.96722 -15.75205,5.16459 -7.61878,12.16829 -1.56605,-3.04774 9.78435,20.31419 11.92463,-5.12334 l 5.80947,-3.1383 c 1.81738,-8.15496 5.50918,-4.33686 5.45321,-2.94609 -1.45088,15.02833 16.03082,17.86121 16.89349,1.92162 1.24262,-3.79898 3.85272,-0.74318 3.97488,0.32002 4.43663,14.67007 23.48547,9.52661 13.5811,-8.32554 -1.85505,-8.47247 7.57088,-10.14804 10.26816,-6.0839 -2.53206,1.84918 -4.86554,2.68243 -0.20343,9.28309 5.92088,8.38391 -6.01774,23.35389 -15.0336,23.69856 9.12834,2.08264 16.09217,-1.55431 20.53686,-11.84777 -2.71019,7.23616 -6.45419,12.92758 -12.5871,15.04997 6.42298,-0.50167 12.33524,-2.81525 16.89349,-9.92664 l -2.98143,7.685 c -3.47545,3.83269 -7.04563,10.24213 -17.22447,8.96608 -13.49874,-0.48053 -23.34284,2.06704 -10.93117,23.05499 0.51556,5.41618 0.69585,10.58026 -4.30585,11.84777 -4.15407,-5.83381 -7.43311,-17.58748 -13.9126,-7.685 -1.23563,4.18692 -1.85935,8.44782 11.59365,14.40944 -6.57689,0.13988 -19.48367,-6.5594 -16.56198,3.84275 2.82752,7.35842 6.52039,11.74411 14.90552,0 1.5526,3.99874 -8.23445,14.39233 6.62534,10.8872 7.95727,-0.45085 5.75241,-7.99747 5.63079,-14.08942 2.75003,3.41255 3.47654,13.01766 9.60622,6.0839 6.81532,-2.76595 0.90305,-6.97955 -2.3184,-10.8872 8.69996,3.72047 11.21748,1.45266 15.89951,1.28108 -22.40752,-18.54955 -7.83352,-28.75697 6.29382,-39.06603 l 1.98744,4.8033 c -26.97385,11.56147 -9.58147,29.67527 7.28727,47.7116 5.22556,3.20221 4.89137,6.40392 3.3124,9.60612 l -6.95631,-2.56166 c -6.1017,-4.52406 -12.98212,-10.98482 -14.90605,-5.12334 -7.30773,14.43863 2.58965,11.58009 11.92516,9.28611 l 8.94321,3.52222 -9.27471,1.28109 c -14.10096,-1.58047 -20.48035,0.93187 -15.23704,9.60612 2.20594,12.13709 9.13157,5.45543 16.23102,-1.92113 -0.55216,10.36995 28.93921,10.6648 21.54323,0.34267 -0.93748,-1.30876 -2.83021,-2.60545 -5.39294,-4.24026 -2.11013,-5.36536 0.65495,-5.42775 3.42165,-5.48914 16.15029,11.79947 22.09376,-9.43052 3.00241,-9.31125 0.64418,-1.55784 6.08878,-4.16982 8.0956,-3.34764 15.45659,6.33398 12.29111,-27.97 -5.49572,-13.49768 -12.31535,-1.2851 -9.55295,-11.6797 -7.28728,-21.77441 9.16439,7.74437 18.3293,9.54072 27.4937,7.04446 7.28189,-0.16655 7.64676,6.01546 2.31841,12.4883 -4.0513,8.65311 8.84687,17.86878 17.22501,0.64055 -5.27294,9.41643 -13.74687,6.25095 -9.27526,-2.24165 4.08681,-6.75261 3.92375,-13.29641 -4.63736,-12.16778 9.66757,-5.7684 18.48,-12.39221 15.56854,-30.74049 5.9354,-11.0115 15.83869,2.73626 13.58109,8.64606 5.17982,-12.63273 -1.09301,-28.15417 -15.8995,-19.85329 3.47062,-5.83029 11.57428,-23.8158 19.54341,1.92111 12.52684,-24.81156 -18.14741,-25.60458 -21.19988,-21.45388 3.4012,-9.81443 18.73562,-18.51384 24.51227,2.24114 8.67305,-13.96562 -5.48334,-26.55255 -19.5434,-18.89221 6.81907,-12.06113 21.93931,-19.02457 27.16164,1.28057 9.65951,-16.65912 -5.25246,-29.03422 -17.22446,-16.01053 10.00017,-17.19502 23.70126,-33.58495 16.89349,-54.43552 -4.60237,-11.84274 9.39258,-17.13414 10.93118,-5.12334 5.50919,-13.77745 -17.12113,-18.16211 -15.23755,-1.92162 -7.7544,-4.9271 -14.33777,-4.19145 -20.86838,-3.20221 -9.11971,2.92244 -30.19044,-2.62758 -12.5871,-16.01004 -20.57884,4.03346 -12.89709,24.39998 8.94374,19.21225 -13.03217,1.59959 -18.07208,8.34868 -19.21244,17.61164 0.73781,22.34953 -14.05468,23.90737 -16.23102,12.4883 -5.30306,10.72017 5.33751,20.39521 13.91261,9.92665 -3.45609,7.36497 -6.04466,14.72945 -14.57508,22.09444 -6.5699,8.0815 -6.22332,16.14387 1.98743,19.53276 -2.15858,-5.11578 -3.91836,-10.27988 4.30639,-16.65058 7.70058,-8.45787 21.63255,-10.44593 18.54941,-30.09994 -0.28575,-7.69256 0.41278,-12.64934 3.64392,-10.56719 13.51275,10.79713 17.12275,4.18742 21.19988,-1.6011 -10.20897,2.01974 -16.8144,-9.28763 -6.29383,-13.7689 4.06152,-0.87151 10.23264,2.08365 9.27472,12.80833 -3.0627,16.11921 -11.4855,26.58527 -19.21191,37.78495 -14.09127,4.02237 -25.97501,8.92381 -17.88748,21.77441 -14.38943,0.70896 -14.045,7.39063 -15.23703,13.44887 7.63278,-6.814 14.78066,-7.05904 21.53085,-1.92113 -11.49033,1.81446 -16.83483,16.65813 -2.64991,16.65109 -11.82076,5.14999 -15.03414,22.6942 -1.32496,23.69553 -3.73001,-10.0469 12.00589,-15.21452 10.26816,-3.20221 -4.18531,10.15962 -16.77294,19.81103 -26.83068,9.2861 -18.60109,-22.13367 -26.36302,-44.90236 -30.4746,-67.8849 9.60677,2.77552 14.73331,-3.10862 20.5374,-7.68499 -7.74471,2.31108 -14.86462,3.06836 -19.54341,-2.24165 13.13819,1.70174 18.74747,-6.81904 23.5183,-10.56667 -14.19892,8.36427 -21.46305,6.78882 -22.85582,-3.20223 5.62597,0.49413 11.53339,3.25304 15.89951,-6.40441 3.5029,-7.11791 11.53338,-15.98688 -1.65592,-16.65058 3.20152,-0.10712 4.19551,-1.70778 2.98087,-4.80331 11.9763,-1.99508 13.46109,-10.75084 10.93118,-22.09443 -1.98421,10.44643 -14.44916,11.51315 -13.24959,14.72945 13.21999,-10.14401 11.88427,-25.39727 -2.31894,-22.73497 3.0347,3.22134 8.53958,10.50228 -3.3124,10.24667 l -19.54341,0.32052 c -2.04771,-20.22111 -19.27648,-6.49901 -10.93117,0.96056 z"
       id="path14667-1-6"
       inkscape:connector-curvature="0"
       sodipodi:nodetypes="ccccccccccccccccccccccccccccccccccccccccccsccccccccccccccccccccccccccccscccsccccccccccccccccccccccccccccccccccccccccccccccccccccccc" />
    <path
       style="fill:#4e4e4e;fill-opacity:1;stroke:none"
       d="m 218.72704,283.08469 c 26.90549,18.63159 36.79155,-12.4873 20.49489,-18.56666 10.1433,13.08557 -0.043,29.44078 -20.49489,18.56666 z"
       id="path14669-0-8"
       inkscape:connector-curvature="0"
       sodipodi:nodetypes="ccc" />
    <path
       style="fill:#000000;fill-opacity:0.35849053;stroke:none"
       d="m 240.9785,255.00851 c 3.44961,-0.42417 7.64892,0 9.36889,-2.3775 11.53768,-6.82708 12.63661,7.65531 16.7471,14.60416 -4.04483,-5.20183 -6.74534,-14.01292 -13.35076,-12.33988 -7.09569,1.8683 -9.10573,0.45891 -12.76523,0.11317 z"
       id="path14791-7-0"
       inkscape:connector-curvature="0"
       sodipodi:nodetypes="ccccc" />
    <path
       style="fill:#000000;fill-opacity:0.47641512;stroke:none"
       d="m 245.54589,259.31067 c 9.91351,-7.66539 15.84461,-3.5977 19.20652,8.03772 -3.82203,-8.63751 -9.77091,-12.36404 -19.20652,-8.03772 z"
       id="path14793-6-3"
       inkscape:connector-curvature="0"
       sodipodi:nodetypes="ccc" />
    <path
       style="fill:#000000;fill-opacity:0.22641512;stroke:none"
       d="m 251.167,270.5184 c 0.29761,9.34245 -3.98348,15.48773 -9.25156,20.94416 6.80238,-4.05257 10.85798,-10.2683 9.25156,-20.94416 z"
       id="path14797-0-5"
       inkscape:connector-curvature="0"
       sodipodi:nodetypes="ccc" />
    <path
       style="fill:#ffffff;fill-opacity:0.47641512;stroke:none"
       d="m 262.04222,272.34139 c 2.41689,-5.35278 11.88157,-2.08616 11.84174,0.88057 -5.42415,-3.81005 -8.81726,-2.78458 -11.84174,-0.88057 z"
       id="path14799-2-2"
       inkscape:connector-curvature="0"
       sodipodi:nodetypes="ccc" />
    <path
       style="fill:#000000;fill-opacity:0.24056606;stroke:none"
       d="m 267.34204,274.42253 c -4.99146,0.67274 -7.31256,3.09453 -5.46559,8.24553 1.50203,3.17807 -3.01316,3.60072 -5.29982,5.04333 3.61915,-0.83427 8.67573,-0.8086 7.94975,-4.24277 -1.57843,-4.435 -0.90305,-7.59846 2.81566,-9.04609 z"
       id="path14801-8-9"
       inkscape:connector-curvature="0"
       sodipodi:nodetypes="ccccc" />
    <path
       style="fill:#000000;fill-opacity:0.17924529;stroke:none"
       d="m 228.3381,293.23525 c 5.67064,0.22995 9.59601,4.67601 -1.65646,12.80832 3.11112,-5.57518 6.29758,-11.18859 1.65646,-12.80832 z"
       id="path14803-9-1"
       inkscape:connector-curvature="0"
       sodipodi:nodetypes="ccc" />
    <path
       style="fill:#000000;fill-opacity:0.17924529;stroke:none"
       d="m 234.93008,295.47639 c 4.56255,0.14945 7.72048,3.03969 -1.3325,8.32554 2.503,-3.62386 5.06627,-7.27239 1.3325,-8.32554 z"
       id="path14803-5-8-2"
       inkscape:connector-curvature="0"
       sodipodi:nodetypes="ccc" />
    <path
       style="fill:#000000;fill-opacity:0.32075471;stroke:none"
       d="m 229.20885,239.38543 c -0.0215,1.70072 1.64948,4.15722 3.27904,3.39592 3.16386,-1.52412 7.1242,1.79433 2.10798,7.75544 2.32486,-6.83865 -1.59027,-5.52536 -3.51366,-4.58543 -2.19895,-2.4721 -2.27213,-4.32682 -1.87336,-6.56593 z"
       id="path14823-9-6"
       inkscape:connector-curvature="0"
       sodipodi:nodetypes="ccccc" />
    <path
       style="fill:#ffffff;fill-opacity:0.21698112;stroke:none"
       d="m 251.98717,363.46544 c -0.0888,5.77898 1.6613,13.17817 -2.81083,15.84954 -15.44637,7.18081 -19.44924,16.50162 -6.44128,31.81225 -7.31257,-13.72511 -5.66525,-23.36042 9.48621,-26.83082 6.38262,-4.37007 3.00349,-14.25093 -0.2341,-20.83097 z"
       id="path14825-9-1"
       inkscape:connector-curvature="0"
       sodipodi:nodetypes="ccccc" />
    <path
       style="fill:#aa0000;fill-opacity:1;stroke:none"
       d="m 245.74609,259.58741 c 4.42584,11.33603 11.54737,9.42145 18.61937,6.9886 -6.88202,0.95856 -12.11029,0.59022 -18.61937,-6.9886 z"
       id="path12706-7"
       inkscape:connector-curvature="0"
       sodipodi:nodetypes="ccc" />
    <path
       style="fill:#ffffff;stroke:none"
       d="m 245.47431,259.52401 c 5.17768,-2.33925 12.39929,-5.81822 18.55104,6.98861 -9.40872,1.99256 -14.53365,-1.75609 -18.55104,-6.98861 z"
       id="path12724-0"
       inkscape:connector-curvature="0"
       sodipodi:nodetypes="ccc" />
    <path
       sodipodi:type="arc"
       style="fill:#000000;fill-opacity:1;stroke:none"
       id="path14795-6-1"
       sodipodi:cx="8612.9463"
       sodipodi:cy="-8618.3525"
       sodipodi:rx="4.1964288"
       sodipodi:ry="5.5357141"
       d="m 8617.1427,-8618.3525 a 4.1964288,5.5357141 0 1 1 -8.3928,0 4.1964288,5.5357141 0 1 1 8.3928,0 z"
       transform="matrix(0.76108661,0,0,0.59955338,-6301.6724,5428.021)" />
    <path
       style="fill:#aa0000;fill-opacity:1;stroke:none"
       d="m 452.54809,249.669 c -13.47183,13.15553 -5.13029,16.82216 7.61883,18.57221 17.10338,7.94161 2.93035,35.18554 -20.20593,18.5722 -2.57991,2.26781 -6.64732,9.57543 7.61882,10.24666 0.51288,-0.0352 6.40141,0.25058 2.31839,5.44335 l -18.54937,5.44385 c -10.81176,-6.181 -11.34401,-16.57358 -11.26269,-27.21826 -3.17572,4.59449 -4.00073,9.6021 -2.31838,15.04997 -6.48767,-4.49738 -13.54834,-8.74417 -1.98753,-21.13386 9.49003,-4.25032 15.55566,-8.9062 3.64344,-15.69001 -8.62628,-1.7093 -19.16947,-6.11913 -12.91861,13.12834 l -3.31247,10.8872 -3.97484,-12.16778 c 1.96323,-10.13547 3.3129,-19.79895 -11.59366,-16.9711 -11.49518,3.05428 -16.37525,15.93104 1.65646,23.05499 l 8.94376,12.80834 -11.26271,-4.16277 c -7.67313,-6.62783 -15.62073,-15.04646 -19.87438,0.64053 1.22541,10.17975 7.94276,10.9476 18.88094,4.4828 l 11.26217,4.80331 c -20.59554,5.90124 7.12038,25.16329 11.26216,9.2861 l 4.30634,4.4828 c -6.63554,10.25873 2.91527,20.11543 14.57505,16.01053 2.45622,3.51921 8.79685,7.52246 2.3185,9.92664 -6.36921,-0.21486 -12.56238,3.30284 -19.21195,-2.88169 l -3.31289,-3.2022 c -2.45622,-8.19623 -3.67031,-18.93248 -13.91211,-11.20722 -0.90088,2.87413 -7.93469,12.15419 5.63135,10.56668 l 5.29979,10.8872 -6.29377,-1.92112 c -7.91855,-5.47556 -15.37372,-8.8901 -20.2059,-0.64055 1.71566,6.77123 5.95747,15.90035 17.6399,6.02905 l 9.19073,0.0553 -8.28065,3.84225 c -6.48219,2.96721 -15.75208,5.16459 -7.6188,12.16829 -1.56605,-3.04774 9.78439,20.31419 11.92462,-5.12334 l 5.80945,-3.1383 c 1.81739,-8.15496 5.5092,-4.33687 5.45323,-2.9461 -1.45088,15.02833 16.03088,17.86122 16.89345,1.92163 1.24266,-3.79896 3.85275,-0.74319 3.97495,0.32002 4.43657,14.67008 23.48545,9.52662 13.58108,-8.32554 -1.85505,-8.47247 7.57088,-10.14804 10.26818,-6.08389 -2.53208,1.84917 -4.86556,2.68243 -0.20342,9.28307 5.92085,8.38392 -6.01779,23.35389 -15.03358,23.69857 9.12825,2.08264 16.09209,-1.55431 20.53678,-11.84778 -2.71013,7.23617 -6.45416,12.92759 -12.58709,15.04998 6.42303,-0.50167 12.33532,-2.81526 16.89355,-9.92665 l -2.98151,7.685 c -3.47543,3.83269 -7.04558,10.24214 -17.22442,8.96608 -13.49878,-0.48053 -23.3429,2.06705 -10.93117,23.05499 0.51554,5.41619 0.69585,10.58028 -4.30582,11.84778 -4.15407,-5.83382 -7.43317,-17.58749 -13.91269,-7.68501 -1.2356,4.18693 -1.85933,8.44782 11.59366,14.40944 -6.5769,0.13988 -19.48364,-6.55939 -16.56195,3.84276 2.82753,7.35843 6.52041,11.74411 14.9055,0 1.55265,3.99873 -8.23443,14.39232 6.62538,10.8872 7.95727,-0.45084 5.75241,-7.99748 5.63075,-14.08941 2.75006,3.41253 3.47662,13.01765 9.60624,6.08389 6.81531,-2.76595 0.90302,-6.97956 -2.31839,-10.88721 8.6999,3.72048 11.21743,1.45267 15.89947,1.28109 -22.40745,-18.54956 -7.83347,-28.75697 6.29388,-39.06603 l 1.98741,4.80331 c -26.97382,11.56145 -9.58141,29.67527 7.28732,47.71159 5.22552,3.2022 4.89135,6.40391 3.31237,9.60612 l -6.95635,-2.56167 c -6.10169,-4.52404 -12.98206,-10.98481 -14.90602,-5.12332 -7.30776,14.43861 2.58965,11.58007 11.92516,9.28609 l 8.94323,3.52223 -9.27474,1.28109 c -14.10091,-1.58048 -20.48038,0.93188 -15.23699,9.60612 2.20592,12.1371 9.13156,5.45543 16.23097,-1.92112 -0.55215,10.36993 28.93921,10.6648 21.54329,0.34265 -0.93748,-1.30875 -2.83021,-2.60544 -5.393,-4.24026 -2.11015,-5.36535 0.65499,-5.42775 3.42163,-5.48912 16.15029,11.79945 22.09383,-9.43053 3.00247,-9.31127 0.64418,-1.55783 6.08874,-4.16982 8.09554,-3.34763 15.45657,6.33397 12.29112,-27.97 -5.49572,-13.49768 -12.31531,-1.28511 -9.55295,-11.6797 -7.28721,-21.77441 9.16431,7.74437 18.32925,9.54071 27.49367,7.04445 7.28186,-0.16655 7.64674,6.01547 2.31839,12.48832 -4.05125,8.6531 8.84692,17.86877 17.22506,0.64054 -5.27294,9.41643 -13.74695,6.25095 -9.27527,-2.24164 4.08676,-6.75262 3.92369,-13.29642 -4.63743,-12.16779 9.66767,-5.7684 18.48003,-12.39221 15.56862,-30.7405 5.9354,-11.01149 15.83868,2.73626 13.58107,8.64607 5.17984,-12.63273 -1.09306,-28.15418 -15.89957,-19.85329 3.47063,-5.83029 11.57429,-23.8158 19.54345,1.92112 12.52685,-24.81158 -18.14746,-25.60458 -21.19991,-21.45388 3.40119,-9.81445 18.73566,-18.51384 24.51227,2.24114 8.67305,-13.96563 -5.4833,-26.55257 -19.54335,-18.89223 6.81907,-12.06111 21.93932,-19.02456 27.16163,1.28058 9.65953,-16.65912 -5.25249,-29.03423 -17.22441,-16.01053 10.00013,-17.19503 23.70127,-33.58495 16.89344,-54.43552 -4.60232,-11.84275 9.39256,-17.13414 10.93119,-5.12334 5.5092,-13.77745 -17.12116,-18.1621 -15.23753,-1.92163 -7.75439,-4.92709 -14.33783,-4.19145 -20.8684,-3.20221 -9.11968,2.92245 -30.19042,-2.62758 -12.58709,-16.01004 -20.57885,4.03346 -12.8971,24.39999 8.94376,19.21225 -13.03225,1.5996 -18.07212,8.34869 -19.21248,17.61165 0.7378,22.34954 -14.05469,23.90736 -16.23097,12.4883 -5.30311,10.72016 5.33744,20.39522 13.91258,9.92664 -3.45608,7.36499 -6.04465,14.72946 -14.57506,22.09444 -6.56994,8.0815 -6.22335,16.14388 1.98742,19.53276 -2.15863,-5.11578 -3.91845,-10.27988 4.30635,-16.65058 7.70057,-8.45787 21.63252,-10.44591 18.54947,-30.09994 -0.28581,-7.69255 0.41272,-12.64932 3.64387,-10.56719 13.51271,10.79714 17.12276,4.18743 21.1999,-1.6011 -10.209,2.01975 -16.81437,-9.28761 -6.29387,-13.7689 4.06151,-0.87149 10.23265,2.08365 9.27474,12.80834 -3.06273,16.11922 -11.48549,26.58527 -19.21195,37.78494 -14.09129,4.02239 -25.97493,8.92382 -17.88743,21.77442 -14.3894,0.70897 -14.04506,7.39063 -15.23699,13.44887 7.63273,-6.814 14.78061,-7.05905 21.53076,-1.92112 -11.4903,1.81445 -16.83481,16.65812 -2.64989,16.65108 -11.82074,5.14999 -15.03412,22.69421 -1.32495,23.69553 -3.73002,-10.04691 12.00584,-15.21452 10.26818,-3.20222 -4.18533,10.15962 -16.77296,19.81103 -26.83066,9.28611 -18.60115,-22.13368 -26.36304,-44.90236 -30.47464,-67.8849 9.60678,2.77552 14.73332,-3.10861 20.53743,-7.685 -7.74476,2.31108 -14.86461,3.06836 -19.54345,-2.24164 13.13819,1.70173 18.74754,-6.81903 23.51829,-10.56668 -14.19893,8.36427 -21.46303,6.78884 -22.85582,-3.20222 5.62595,0.49412 11.53342,3.25304 15.89958,-6.4044 3.50284,-7.11793 11.53331,-15.9869 -1.65603,-16.65059 3.20162,-0.10712 4.1956,-1.70778 2.98098,-4.8033 11.97621,-1.9951 13.46102,-10.75086 10.93119,-22.09444 -1.98421,10.44642 -14.44923,11.51316 -13.24959,14.72945 13.21994,-10.14402 11.88419,-25.39728 -2.31902,-22.73497 3.03468,3.22133 8.5396,10.50227 -3.31237,10.24666 l -19.54345,0.32052 c -2.04766,-20.22111 -19.27647,-6.49901 -10.93119,0.96057 z"
       id="path14667-1-6-6"
       inkscape:connector-curvature="0"
       sodipodi:nodetypes="ccccccccccccccccccccccccccccccccccccccccccsccccccccccccccccccccccccccccscccsccccccccccccccccccccccccccccccccccccccccccccccccccccccc" />
    <path
       style="fill:#6d0000;fill-opacity:1;stroke:none"
       d="m 439.95617,286.66951 c 26.90546,18.63157 36.79162,-12.48731 20.49495,-18.56668 10.1433,13.08558 -0.0428,29.4408 -20.49495,18.56668 z"
       id="path14669-0-8-2"
       inkscape:connector-curvature="0"
       sodipodi:nodetypes="ccc" />
    <path
       style="fill:#000000;fill-opacity:0.35849053;stroke:none"
       d="m 462.20763,258.59333 c 3.44965,-0.42419 7.64888,0 9.3689,-2.3775 11.53769,-6.8271 12.63664,7.6553 16.74716,14.60414 -4.04492,-5.20181 -6.74543,-14.01292 -13.3508,-12.33985 -7.09567,1.86827 -9.10577,0.45888 -12.76526,0.11315 z"
       id="path14791-7-0-7"
       inkscape:connector-curvature="0"
       sodipodi:nodetypes="ccccc" />
    <path
       style="fill:#000000;fill-opacity:0.47641512;stroke:none"
       d="m 466.77506,262.89547 c 9.91346,-7.66537 15.84458,-3.5977 19.20649,8.03772 -3.82203,-8.6375 -9.77093,-12.36402 -19.20649,-8.03772 z"
       id="path14793-6-3-5"
       inkscape:connector-curvature="0"
       sodipodi:nodetypes="ccc" />
    <path
       style="fill:#000000;fill-opacity:0.22641512;stroke:none"
       d="m 472.39619,274.1032 c 0.29759,9.34246 -3.98351,15.48774 -9.25162,20.94417 6.80236,-4.05257 10.85799,-10.26831 9.25162,-20.94417 z"
       id="path14797-0-5-7"
       inkscape:connector-curvature="0"
       sodipodi:nodetypes="ccc" />
    <path
       style="fill:#ffffff;fill-opacity:0.47641512;stroke:none"
       d="m 483.27141,275.9262 c 2.41684,-5.35277 11.88151,-2.08616 11.8417,0.88056 -5.42413,-3.81004 -8.81729,-2.78456 -11.8417,-0.88056 z"
       id="path14799-2-2-8"
       inkscape:connector-curvature="0"
       sodipodi:nodetypes="ccc" />
    <path
       style="fill:#000000;fill-opacity:0.24056606;stroke:none"
       d="m 488.5712,278.00733 c -4.9915,0.67276 -7.31257,3.09453 -5.46554,8.24554 1.50193,3.17806 -3.01318,3.60072 -5.29989,5.04333 3.61915,-0.83426 8.67571,-0.8086 7.94979,-4.24278 -1.57845,-4.43498 -0.90303,-7.59844 2.81564,-9.04609 z"
       id="path14801-8-9-2"
       inkscape:connector-curvature="0"
       sodipodi:nodetypes="ccccc" />
    <path
       style="fill:#000000;fill-opacity:0.17924529;stroke:none"
       d="m 449.56723,296.82006 c 5.67067,0.22994 9.59596,4.67601 -1.65645,12.80833 3.11109,-5.57519 6.29762,-11.18861 1.65645,-12.80833 z"
       id="path14803-9-1-7"
       inkscape:connector-curvature="0"
       sodipodi:nodetypes="ccc" />
    <path
       style="fill:#000000;fill-opacity:0.17924529;stroke:none"
       d="m 456.15923,299.06121 c 4.5625,0.14944 7.72046,3.03967 -1.33255,8.32553 2.50308,-3.62387 5.06629,-7.27239 1.33255,-8.32553 z"
       id="path14803-5-8-2-8"
       inkscape:connector-curvature="0"
       sodipodi:nodetypes="ccc" />
    <path
       style="fill:#000000;fill-opacity:0.32075471;stroke:none"
       d="m 450.43805,242.97023 c -0.0214,1.70072 1.64938,4.15724 3.27898,3.39593 3.16384,-1.52411 7.12424,1.79432 2.10801,7.75543 2.32481,-6.83865 -1.59032,-5.52536 -3.51364,-4.58542 -2.19898,-2.47211 -2.27216,-4.3268 -1.87335,-6.56594 z"
       id="path14823-9-6-0"
       inkscape:connector-curvature="0"
       sodipodi:nodetypes="ccccc" />
    <path
       style="fill:#ffffff;fill-opacity:0.21698112;stroke:none"
       d="m 473.21629,367.05026 c -0.0888,5.77896 1.66136,13.17815 -2.81084,15.84952 -15.4463,7.18082 -19.44918,16.50163 -6.44122,31.81225 -7.31257,-13.72511 -5.66532,-23.36042 9.48618,-26.83081 6.38258,-4.37008 3.00355,-14.25094 -0.23412,-20.83096 z"
       id="path14825-9-1-2"
       inkscape:connector-curvature="0"
       sodipodi:nodetypes="ccccc" />
    <path
       style="fill:#aa0000;fill-opacity:1;stroke:none"
       d="m 466.97527,263.17221 c 4.42587,11.33605 11.54733,9.42146 18.61934,6.98862 -6.88208,0.95854 -12.11028,0.59022 -18.61934,-6.98862 z"
       id="path12706-7-0"
       inkscape:connector-curvature="0"
       sodipodi:nodetypes="ccc" />
    <path
       style="fill:#ffffff;stroke:none"
       d="m 466.70347,263.10881 c 5.1777,-2.33925 12.39932,-5.8182 18.55097,6.98861 -9.4087,1.99258 -14.53364,-1.75609 -18.55097,-6.98861 z"
       id="path12724-0-8"
       inkscape:connector-curvature="0"
       sodipodi:nodetypes="ccc" />
    <path
       sodipodi:type="arc"
       style="fill:#000000;fill-opacity:1;stroke:none"
       id="path14795-6-1-9"
       sodipodi:cx="8612.9463"
       sodipodi:cy="-8618.3525"
       sodipodi:rx="4.1964288"
       sodipodi:ry="5.5357141"
       d="m 8617.1427,-8618.3525 a 4.1964288,5.5357141 0 1 1 -8.3928,0 4.1964288,5.5357141 0 1 1 8.3928,0 z"
       transform="matrix(0.76108661,0,0,0.59955338,-6080.4429,5431.6055)" />
    <path
       style="fill:#aa0000;fill-opacity:1;stroke:none"
       d="m 256.92891,489.77553 c -9.02517,13.07632 -1.4311,14.61667 9.52112,13.8267 15.6427,3.50393 8.42385,28.19613 -13.73333,18.66687 -1.77109,2.29896 -3.92955,8.96837 8.10739,7.03435 0.42263,-0.11799 5.39256,-0.90912 2.86193,4.03762 l -14.57826,7.66807 c -10.08548,-3.16201 -12.29505,-11.54815 -14.0347,-20.24666 -1.87391,4.30082 -1.71307,8.52973 0.61802,12.68171 -6.18568,-2.54063 -12.80782,-4.77712 -5.24974,-16.89619 7.20949,-5.11841 11.48825,-9.97201 0.38063,-13.43437 -7.49962,0.10605 -17.0599,-1.65767 -8.56741,12.9579 l -0.91958,9.45845 -5.38822,-9.23556 c -0.0803,-8.61046 -0.59326,-16.72913 -12.57125,-11.829 -9.08844,4.49143 -10.98037,15.84574 5.29936,18.52111 l 9.64969,8.8938 -10.11965,-1.437 c -7.53829,-4.07249 -15.61007,-9.55827 -16.50126,3.97978 2.75275,8.09191 8.49718,7.54986 16.54096,0.37286 l 10.22799,1.95968 c -16.21062,8.39713 10.22388,19.29066 10.98922,5.6169 l 4.36028,2.90816 c -3.80365,9.52379 5.85219,15.90392 14.89986,10.5267 2.65035,2.44386 8.62933,4.60692 3.62324,7.69529 -5.35952,0.93264 -9.93812,4.87985 -16.54568,0.99096 l -3.31254,-2.0362 c -3.44456,-6.25959 -6.28236,-14.80748 -13.53011,-6.72329 -0.26485,2.50155 -4.5675,11.29618 6.50073,7.64116 l 6.27808,7.96032 -5.58628,-0.47249 c -7.54774,-3.08975 -14.35822,-4.57864 -16.99585,2.99228 2.58369,5.22581 7.67898,11.93586 15.76635,1.85023 l 7.69057,-1.55363 -6.26816,4.57513 c -4.91362,3.54839 -12.28778,6.95361 -4.30111,11.25272 -1.82637,-2.21405 11.62681,14.87117 9.09602,-6.25415 l 4.32235,-3.57094 c 0.13408,-6.96931 3.86785,-4.49655 4.05725,-3.35216 1.33937,12.51314 16.43076,11.78335 14.44504,-1.37092 0.39342,-3.31552 3.09371,-1.27651 3.37635,-0.43035 6.19903,11.1967 21.24567,3.68683 9.93665,-9.15481 -2.98906,-6.58952 4.60412,-9.59618 7.54851,-6.74967 -1.80216,1.94909 -3.61087,3.03481 1.40634,7.60892 6.37204,5.81 -1.06363,20.09989 -8.54009,21.94942 7.98265,0.11121 13.18509,-4.06736 15.15182,-13.23835 -1.03628,6.375 -3.19888,11.6696 -7.96405,14.46796 5.28282,-1.52657 9.83113,-4.44256 12.43309,-11.03725 l -1.18674,6.78838 c -2.25379,3.73143 -4.14918,9.58158 -12.87282,10.31116 -11.36318,1.95611 -19.15777,5.74694 -5.22078,20.71076 1.35061,4.32907 2.37819,8.51078 -1.58674,10.41493 -4.46241,-4.03686 -9.19875,-13.05561 -12.93245,-3.8496 -0.32169,3.6308 -0.11944,7.21552 12.13626,9.73907 -5.47289,1.2582 -17.39733,-1.96219 -13.18914,6.01609 3.61263,5.51146 7.44369,8.4471 12.45729,-2.59286 1.9766,2.99226 -4.43798,13.17429 7.38587,7.72975 6.57375,-1.75201 3.44955,-7.52533 2.31342,-12.47424 2.87781,2.30573 5.11605,10.0156 9.06151,3.29246 5.2262,-3.44211 -0.43048,-5.85129 -3.78636,-8.47893 7.90275,1.52193 9.62168,-0.76618 13.50554,-1.72062 -21.87697,-11.23566 -11.43005,-22.09851 -1.37373,-32.96657 l 2.47665,3.57303 c -20.58012,14.1245 -2.96856,25.87708 14.19222,37.65751 4.91103,1.70351 5.1754,4.37373 4.39954,7.26089 l -6.24872,-0.87984 c -5.86772,-2.62951 -12.71512,-6.70361 -13.32771,-1.58689 -3.65562,13.05085 4.1307,8.99705 11.54331,5.50159 l 8.07238,1.31789 -7.5338,2.65852 c -12.05324,1.16349 -16.95819,4.32288 -11.10311,10.4876 3.90459,9.51824 8.55808,2.86232 13.23884,-4.39076 1.29943,8.55629 25.99692,3.66674 18.06292,-3.46794 -1.00573,-0.90466 -2.80776,-1.63332 -5.22718,-2.52127 -2.67463,-4.01022 -0.37431,-4.54212 1.92754,-5.07349 15.50126,6.81713 16.86347,-11.53708 0.92812,-8.11879 0.27384,-1.38301 4.38062,-4.46107 6.19743,-4.13939 13.99342,2.4788 5.52274,-24.9572 -6.88508,-10.056 -10.51077,1.09385 -9.96719,-7.86703 -9.78783,-16.49685 8.9742,4.72402 16.93882,4.59529 24.17406,0.96456 6.05756,-1.40258 7.41227,3.5775 4.05824,9.7852 -1.91649,7.76431 10.42806,13.03918 14.50457,-2.47375 -2.80786,8.59956 -10.42746,7.4911 -8.13245,-0.21538 2.2689,-6.21998 1.02143,-11.53032 -5.94186,-9.1203 7.10014,-6.38782 13.34034,-13.32476 7.79136,-27.78761 3.09067,-10.01613 13.70185,-0.52282 12.81859,4.69135 2.18389,-11.20737 -5.69433,-22.77924 -16.65928,-13.43139 1.91053,-5.36032 5.62906,-21.44331 16.65962,-1.8323 6.25607,-22.42142 -19.5146,-17.73251 -21.36087,-13.81521 1.17597,-8.59869 12.51448,-18.3635 20.86671,-2.43556 4.87699,-12.90246 -9.09158,-20.70888 -19.5415,-12.01346 3.65096,-11.02616 15.10525,-19.33745 22.91782,-3.6801 5.24404,-15.27153 -9.32004,-22.77367 -17.11408,-10.06584 5.43775,-15.76797 14.10529,-31.52293 4.87507,-47.3495 -5.85745,-8.86121 4.9403,-15.61261 8.26573,-6.08134 2.26477,-12.19856 -17.39308,-11.83915 -13.0611,1.08288 -7.31741,-2.67083 -12.69452,-0.92547 -17.98449,1.01762 -7.12556,3.97065 -25.67785,3.10801 -13.23834,-10.87213 -16.51384,6.87043 -6.6354,22.15005 10.73716,14.11839 -10.62001,3.57201 -13.68605,9.95492 -13.06618,17.7104 4.4118,18.10536 -7.6865,21.9495 -11.44443,13.01193 -2.61166,9.66843 7.92412,15.71081 13.31309,5.67844 -1.63779,6.60986 -2.55062,13.0684 -8.42929,20.56096 -4.11847,7.73608 -2.45975,14.25343 4.97786,15.58994 -2.67274,-3.79819 -5.02041,-7.70515 0.77164,-14.33336 4.99954,-8.23984 16.30559,-12.28527 10.39141,-27.78355 -1.54509,-6.2262 -1.803,-10.39167 1.25099,-9.25504 13.12674,6.45819 15.0214,0.43774 17.44592,-4.99402 -8.18917,3.42368 -15.62975,-4.65232 -7.59816,-10.13843 3.24642,-1.41751 8.90576,-0.0801 9.92632,8.83623 0.17755,13.6835 -5.08456,23.68734 -9.6401,34.16855 -11.09374,5.73285 -20.19326,11.79885 -11.25197,20.87607 -11.90555,3.08149 -10.48309,8.47276 -10.45059,13.62269 5.22201,-6.8869 11.15425,-8.33022 17.66818,-5.31269 -9.29493,3.47908 -11.24101,16.51888 0.61284,14.04562 -9.00468,6.25784 -8.71109,21.13013 2.91639,19.5623 -4.82342,-7.54784 7.45036,-14.50111 8.03785,-4.39867 -1.77267,9.01669 -10.65389,19.08039 -20.84688,12.24328 -19.30436,-14.82189 -29.65774,-32.04734 -36.99662,-50.08225 8.50015,0.59326 11.78547,-5.09905 15.85914,-9.8423 -6.0802,3.2327 -11.90206,5.08904 -16.71406,1.57079 11.26921,-0.89707 14.51027,-8.82441 17.86109,-12.71182 -10.4464,9.29388 -16.78493,9.27219 -19.64551,1.36335 4.78581,-0.57554 10.19142,0.64769 12.20049,-7.99077 1.71886,-6.41645 6.9243,-15.04906 -4.21139,-13.2962 2.6575,-0.64435 3.21643,-2.12311 1.67565,-4.43727 9.67039,-3.71101 9.4245,-11.11261 5.38389,-19.9271 0.11559,8.8678 -10.12084,11.9064 -8.57214,14.32171 9.32604,-10.57557 5.61957,-22.78748 -5.79868,-18.14476 3.08326,2.10019 8.92034,7.08271 -1.02836,8.93586 l -16.27896,3.66111 c -5.14511,-16.14103 -17.21391,-1.94896 -8.97262,2.68519 z"
       id="path14667-1-6-6-2"
       inkscape:connector-curvature="0"
       sodipodi:nodetypes="ccccccccccccccccccccccccccccccccccccccccccsccccccccccccccccccccccccccccscccsccccccccccccccccccccccccccccccccccccccccccccccccccccccc"
       inkscape:transform-center-x="10.101525"
       inkscape:transform-center-y="-31.314729" />
    <path
       style="fill:#6d0000;fill-opacity:1;stroke:none"
       d="m 252.68823,522.15253 c 25.65004,10.52015 28.62805,-16.58767 13.97579,-18.71263 10.69932,8.91133 4.9634,24.02655 -13.97579,18.71263 z"
       id="path14669-0-8-2-8"
       inkscape:connector-curvature="0"
       sodipodi:nodetypes="ccc"
       inkscape:transform-center-x="24.984737"
       inkscape:transform-center-y="-78.4215" />
    <path
       style="fill:#000000;fill-opacity:0.35849053;stroke:none"
       d="m 266.51727,495.37608 c 2.81098,-0.94614 6.39256,-1.33055 7.42631,-3.56941 8.48333,-7.57685 11.86099,4.04734 16.47631,9.00148 -4.26379,-3.54025 -8.01694,-10.25898 -13.25331,-7.74499 -5.61297,2.75854 -7.53219,1.95835 -10.64932,2.31287 z"
       id="path14791-7-0-7-2"
       inkscape:connector-curvature="0"
       sodipodi:nodetypes="ccccc"
       inkscape:transform-center-x="10.592319"
       inkscape:transform-center-y="-97.366705" />
    <path
       style="fill:#000000;fill-opacity:0.47641512;stroke:none"
       d="m 271.06499,498.09145 c 6.98357,-7.97822 12.63122,-5.69139 17.41674,3.21648 -4.661,-6.382 -10.26555,-8.38742 -17.41674,-3.21648 z"
       id="path14793-6-3-5-0"
       inkscape:connector-curvature="0"
       sodipodi:nodetypes="ccc"
       inkscape:transform-center-x="9.2875344"
       inkscape:transform-center-y="-95.171401" />
    <path
       style="fill:#000000;fill-opacity:0.22641512;stroke:none"
       d="m 277.66603,506.25738 c 1.83517,7.57021 -0.69924,13.3285 -4.17548,18.69648 4.99693,-4.48955 7.33091,-10.26609 4.17548,-18.69648 z"
       id="path14797-0-5-7-5"
       inkscape:connector-curvature="0"
       sodipodi:nodetypes="ccc"
       inkscape:transform-center-x="12.764481"
       inkscape:transform-center-y="-76.820335" />
    <path
       style="fill:#ffffff;fill-opacity:0.47641512;stroke:none"
       d="m 287.06454,505.85289 c 1.11097,-4.78745 9.57579,-3.76882 10.04627,-1.34151 -5.18021,-2.16485 -7.84189,-0.73798 -10.04627,1.34151 z"
       id="path14799-2-2-8-5"
       inkscape:connector-curvature="0"
       sodipodi:nodetypes="ccc"
       inkscape:transform-center-x="-3.0267806"
       inkscape:transform-center-y="-88.261891" />
    <path
       style="fill:#000000;fill-opacity:0.24056606;stroke:none"
       d="m 291.84728,506.62884 c -4.05738,1.41715 -5.586,3.79669 -3.1677,7.67781 1.79498,2.33153 -1.90683,3.46179 -3.57293,5.03649 2.88303,-1.31018 7.11343,-2.16885 5.92354,-4.84431 -2.07228,-3.34369 -2.045,-6.04206 0.81709,-7.86999 z"
       id="path14801-8-9-2-2"
       inkscape:connector-curvature="0"
       sodipodi:nodetypes="ccccc"
       inkscape:transform-center-x="0.58392942"
       inkscape:transform-center-y="-79.439965" />
    <path
       style="fill:#000000;fill-opacity:0.17924529;stroke:none"
       d="m 262.44432,528.76192 c 4.77828,-0.79882 8.81389,2.14564 0.79059,10.73773 1.6534,-5.08966 3.36328,-10.22364 -0.79059,-10.73773 z"
       id="path14803-9-1-7-7"
       inkscape:connector-curvature="0"
       sodipodi:nodetypes="ccc"
       inkscape:transform-center-x="23.937571"
       inkscape:transform-center-y="-58.357984" />
    <path
       style="fill:#000000;fill-opacity:0.17924529;stroke:none"
       d="m 268.33412,529.44365 c 3.83853,-0.67175 6.96857,1.13689 0.30013,7.02412 1.47651,-3.39192 2.99922,-6.81442 -0.30013,-7.02412 z"
       id="path14803-5-8-2-8-6"
       inkscape:connector-curvature="0"
       sodipodi:nodetypes="ccc"
       inkscape:transform-center-x="18.631434"
       inkscape:transform-center-y="-59.536603" />
    <path
       style="fill:#000000;fill-opacity:0.32075471;stroke:none"
       d="m 254.02784,484.67745 c 0.27088,1.39126 2.08449,3.10472 3.31712,2.20015 2.38539,-1.7938 6.25874,0.22461 3.07869,5.96053 0.78174,-5.98369 -2.26733,-4.2312 -3.7152,-3.12979 -2.25755,-1.63433 -2.63366,-3.13473 -2.68061,-5.03089 z"
       id="path14823-9-6-0-7"
       inkscape:connector-curvature="0"
       sodipodi:nodetypes="ccccc"
       inkscape:transform-center-x="31.234456"
       inkscape:transform-center-y="-103.66817" />
    <path
       style="fill:#ffffff;fill-opacity:0.21698112;stroke:none"
       d="m 294.13476,581.94489 c 0.90712,4.73018 3.62622,10.46232 0.34225,13.41968 -11.68993,8.54534 -13.45256,16.84598 0.0187,27.07427 -8.44214,-9.9255 -8.70155,-18.07295 3.37195,-23.53989 4.59219,-4.67556 0.0902,-12.14898 -3.73294,-16.95406 z"
       id="path14825-9-1-2-8"
       inkscape:connector-curvature="0"
       sodipodi:nodetypes="ccccc"
       inkscape:transform-center-x="-3.3634616"
       inkscape:transform-center-y="9.7659096" />
    <path
       style="fill:#aa0000;fill-opacity:1;stroke:none"
       d="m 271.2793,498.2824 c 5.62389,8.47854 11.25058,5.67772 16.74789,2.46271 -5.5889,1.97917 -10.02095,2.58816 -16.74789,-2.46271 z"
       id="path12706-7-0-7"
       inkscape:connector-curvature="0"
       sodipodi:nodetypes="ccc"
       inkscape:transform-center-x="9.4076494"
       inkscape:transform-center-y="-91.334881" />
    <path
       style="fill:#ffffff;stroke:none"
       d="m 271.0414,498.27795 c 3.93002,-2.80914 9.37473,-6.90364 16.69076,2.47459 -7.52497,3.26231 -12.44468,1.09549 -16.69076,-2.47459 z"
       id="path12724-0-8-8"
       inkscape:connector-curvature="0"
       sodipodi:nodetypes="ccc"
       inkscape:transform-center-x="9.6741144"
       inkscape:transform-center-y="-93.785429" />
    <path
       sodipodi:type="arc"
       style="fill:#000000;fill-opacity:1;stroke:none"
       id="path14795-6-1-9-1"
       sodipodi:cx="8612.9463"
       sodipodi:cy="-8618.3525"
       sodipodi:rx="4.1964288"
       sodipodi:ry="5.5357141"
       d="m 8617.1427,-8618.3525 a 4.1964288,5.5357141 0 1 1 -8.3928,0 4.1964288,5.5357141 0 1 1 8.3928,0 z"
       transform="matrix(0.63607804,-0.13239322,0.10180983,0.48914134,-4323.076,5853.8542)"
       inkscape:transform-center-x="11.063927"
       inkscape:transform-center-y="-94.459948" />
    <path
       style="fill:#1a1a1a;fill-opacity:1;stroke:none"
       d="m 447.59446,474.27227 c -13.51376,8.35591 -7.17598,12.81405 3.17285,16.48523 12.92212,9.48635 -3.5982,29.20679 -20.06962,11.58742 -2.54473,1.39508 -7.19796,6.6379 4.60343,9.69643 0.43448,0.0615 5.30415,1.33111 1.00126,4.84669 l -16.43001,1.17389 c -7.96917,-6.94323 -6.62798,-15.51124 -4.73097,-24.1768 -3.44221,3.18744 -4.99181,7.12551 -4.52274,11.86393 -4.64636,-4.80921 -9.81453,-9.51497 1.97134,-17.58279 8.65751,-1.79533 14.52425,-4.52414 5.73945,-12.15261 -6.91196,-2.91222 -14.96111,-8.36393 -13.04698,8.43113 l -4.63772,8.29456 -1.22944,-10.62151 c 3.38151,-7.91908 6.16939,-15.5613 -6.76822,-15.87933 -10.12696,0.46709 -16.41595,10.10805 -2.5779,19.09107 l 5.27001,12.01847 -8.69262,-5.3769 c -5.27067,-6.75513 -10.46282,-15.0188 -16.71147,-2.97606 -0.7256,8.51645 4.75358,10.32499 15.00129,6.97885 l 8.58211,5.89912 c -18.2178,1.18669 1.62394,21.772 7.81181,9.55448 l 2.82688,4.41336 c -7.30554,7.19717 -1.02129,16.9157 9.42368,15.62087 1.447,3.30199 6.05555,7.68243 0.23089,8.50244 -5.28329,-1.2963 -11.06101,0.48195 -15.5528,-5.73149 l -2.21708,-3.19429 c -0.64336,-7.11572 0.18731,-16.08397 -9.6953,-11.58746 -1.24639,2.18504 -8.71637,8.51409 2.8883,9.60754 l 2.55625,9.81051 -4.92718,-2.67438 c -5.67362,-5.8587 -11.31434,-9.95529 -16.76826,-4.07903 0.26958,5.82338 2.24418,14.0141 13.69894,8.02124 l 7.66766,1.6629 -7.57718,1.67545 c -5.92455,1.27853 -14.04544,1.43857 -8.45501,8.58117 -0.78444,-2.76083 4.68246,18.28687 10.84118,-2.07865 l 5.392,-1.53642 c 2.91936,-6.32983 5.34712,-2.56663 5.0614,-1.4424 -3.79429,11.999 10.32164,17.38617 13.78117,4.54057 1.6908,-2.87902 3.34597,0.0722 3.26535,0.96063 1.18517,12.74321 17.98081,11.90219 12.77508,-4.39821 -0.0937,-7.23513 8.06783,-6.94223 9.62258,-3.15348 -2.43284,1.06215 -4.52521,1.33084 -1.76505,7.5338 3.50517,7.8786 -9.03966,17.98392 -16.63001,16.67797 7.26719,3.30504 13.70914,1.5652 19.19061,-6.04592 -3.50723,5.42347 -7.61263,9.40531 -13.10027,10.0564 5.45147,0.72154 10.78756,-0.12432 15.81717,-5.1207 l -3.81101,5.74168 c -3.56168,2.51349 -7.64523,7.11145 -15.92849,4.27921 -11.1932,-2.76794 -19.8539,-2.4234 -13.09256,16.87535 -0.50001,4.5072 -1.23675,8.74984 -5.63253,8.90296 -2.46754,-5.48821 -3.18697,-15.64958 -10.30097,-8.71546 -1.75157,3.19661 -3.00473,6.56123 7.20838,13.79049 -5.51783,-1.04362 -15.14788,-8.77823 -14.49476,0.21817 1.09746,6.49793 3.42859,10.72413 12.45079,2.62371 0.60986,3.53396 -9.35139,10.28634 3.66353,10.04388 6.72432,1.03303 6.17931,-5.50875 7.12446,-10.49764 1.71078,3.26672 0.66716,11.22678 6.97885,6.65184 6.16822,-1.05575 1.95362,-5.53231 -0.0658,-9.28573 6.62787,4.56514 9.12048,3.15907 13.06095,3.84331 -15.52992,-19.06992 -1.60208,-24.82787 11.97014,-30.74734 l 0.83476,4.26656 c -24.5183,4.67939 -13.10274,22.51121 -2.11112,40.18769 3.81474,3.53096 2.98544,6.08287 1.11625,8.41607 l -5.37057,-3.3133 c -4.31948,-4.76304 -8.9566,-11.24239 -11.5709,-6.80148 -8.58529,10.48718 0.17335,9.89846 8.36564,9.67117 l 6.8652,4.44631 -7.96747,-0.58793 c -11.50724,-3.77088 -17.26773,-2.84517 -14.37834,5.15094 -0.24287,10.28511 6.69033,6.05582 13.8881,1.2905 -2.24308,8.35866 22.34086,13.79028 17.93658,4.07155 -0.55829,-1.23223 -1.91651,-2.62273 -3.77625,-4.40689 -0.84071,-4.74645 1.47978,-4.3106 3.80134,-3.87366 11.4631,12.46434 20.07579,-3.80079 4.10799,-7.06407 0.80576,-1.15691 5.80252,-2.3284 7.33755,-1.30472 11.82276,7.88556 15.07308,-20.64376 -2.27134,-11.97365 -10.06637,-3.21569 -5.97281,-11.20541 -2.34561,-19.038 6.32438,7.92805 13.67133,11.00606 21.75545,10.58372 6.11126,1.14597 5.35381,6.25114 -0.20929,10.59131 -4.87094,6.34279 4.31957,16.12781 14.27821,3.55431 -6.0225,6.75019 -12.55705,2.67737 -7.3625,-3.46053 4.57405,-4.78685 5.56226,-10.1515 -1.78291,-10.73815 9.06666,-3.00195 17.56603,-6.85193 18.28687,-22.32596 6.85006,-7.9342 12.76014,5.0192 9.85883,9.44076 6.4975,-9.38917 3.92471,-23.14984 -9.86975,-18.98744 3.90088,-4.14323 13.76047,-17.38252 15.99484,5.00663 14.72728,-18.02683 -10.75919,-24.07286 -14.02217,-21.22561 4.52747,-7.40417 18.83145,-11.7986 20.09038,6.14222 9.64447,-9.86117 -0.0177,-22.61664 -13.07859,-18.84516 7.76853,-8.63455 21.59526,-11.65116 22.46849,5.8253 10.93132,-11.88387 0.60149,-24.59963 -11.63673,-16.08721 11.3079,-12.26089 25.5689,-23.21386 23.46508,-41.41414 -1.80954,-10.46692 10.78992,-12.31819 10.01134,-2.25352 6.96932,-10.26464 -11.18077,-17.82347 -12.39795,-4.24909 -5.63076,-5.38262 -11.25641,-5.94158 -16.88148,-6.28447 -8.12008,0.7777 -24.76705,-7.45682 -7.76319,-15.27053 -17.88291,-0.3334 -14.96583,17.62602 4.16961,17.24035 -11.1609,-0.98965 -16.53049,3.62656 -19.07471,10.97902 -3.22405,18.35412 -15.84815,17.02058 -15.70388,7.32618 -6.27181,7.80795 0.95393,17.57017 9.9157,10.54333 -4.15244,5.39719 -7.58017,10.94667 -15.97137,15.45066 -6.87655,5.43335 -7.9724,12.06857 -1.69612,16.27723 -0.92409,-4.55147 -1.50674,-9.07214 6.45824,-12.81918 7.88574,-5.54123 19.86493,-4.70997 20.66678,-21.27893 1.08307,-6.32297 2.5183,-10.24188 4.85955,-7.97529 9.4321,11.18276 13.58339,6.42852 17.98374,2.42611 -8.8748,-0.15008 -12.44942,-10.53302 -2.89145,-12.33529 3.5424,0.004 8.18947,3.50024 5.54647,12.07674 -5.32812,12.6048 -14.16218,19.65643 -22.54067,27.42882 -12.46184,0.79952 -23.23066,2.70445 -18.68317,14.60667 -12.14153,-1.95476 -13.002,3.55419 -15.03864,8.28437 7.54659,-4.21273 13.55945,-3.15435 18.3151,2.2234 -9.90981,-0.54301 -16.92476,10.62004 -5.07468,13.11118 -10.75896,2.11868 -16.45779,15.85894 -5.17836,19.08856 -1.38937,-8.84902 12.64299,-10.29288 9.12741,-0.8037 -5.2418,7.54764 -17.41487,13.20187 -24.00772,2.84925 -11.7346,-21.32247 -14.30586,-41.25478 -13.79124,-60.71891 7.54777,3.95425 12.84114,0.0586 18.47576,-2.65141 -6.86644,0.52124 -12.94389,-0.11452 -15.93977,-5.268 10.68213,3.70026 16.83176,-2.26038 21.46089,-4.47651 -13.29783,4.32106 -19.09494,1.75776 -18.54159,-6.6343 4.61453,1.39322 9.07507,4.68275 14.38165,-2.42358 4.14905,-5.18751 12.381,-11.00588 1.47778,-13.8687 2.69278,0.47618 3.79809,-0.65404 3.3154,-3.392 10.34674,0.48127 13.09153,-6.39698 12.92751,-16.09208 -3.45247,8.16895 -14.04798,6.84465 -13.59865,9.67843 12.78598,-5.94459 14.29117,-18.61751 1.96954,-18.94673 1.9814,3.16091 5.32865,10.06694 -4.52757,7.77227 l -16.38003,-3.17874 c 1.76416,-16.84913 -14.98522,-8.69255 -9.29605,-1.14089 z"
       id="path14667-1-6-60"
       inkscape:connector-curvature="0"
       sodipodi:nodetypes="ccccccccccccccccccccccccccccccccccccccccccsccccccccccccccccccccccccccccscccsccccccccccccccccccccccccccccccccccccccccccccccccccccccc" />
    <path
       style="fill:#4e4e4e;fill-opacity:1;stroke:none"
       d="m 430.7184,502.22672 c 19.27308,19.92854 32.87825,-3.70622 20.31009,-11.53203 6.22435,12.4557 -5.09465,23.99905 -20.31009,11.53203 z"
       id="path14669-0-8-9"
       inkscape:connector-curvature="0"
       sodipodi:nodetypes="ccc" />
    <path
       style="fill:#000000;fill-opacity:0.35849053;stroke:none"
       d="m 454.12974,483.24964 c 2.95445,0.26134 6.38924,1.34639 8.23453,-0.28952 10.81072,-3.53602 9.24018,8.46664 11.47965,14.85641 -2.48488,-4.95366 -3.22664,-12.61376 -9.03169,-12.41222 -6.24815,0.27443 -7.68505,-1.22864 -10.68248,-2.15472 z"
       id="path14791-7-0-5"
       inkscape:connector-curvature="0"
       sodipodi:nodetypes="ccccc" />
    <path
       style="fill:#000000;fill-opacity:0.47641512;stroke:none"
       d="m 457.20576,487.56168 c 9.59802,-4.5055 13.85343,-0.14462 14.66236,9.9349 -1.70843,-7.71595 -6.03728,-11.80177 -14.66236,-9.9349 z"
       id="path14793-6-3-8"
       inkscape:connector-curvature="0"
       sodipodi:nodetypes="ccc" />
    <path
       style="fill:#000000;fill-opacity:0.22641512;stroke:none"
       d="m 459.97535,497.69013 c -1.35675,7.67039 -5.98877,11.9278 -11.3269,15.44977 6.37849,-2.10717 10.83427,-6.4617 11.3269,-15.44977 z"
       id="path14797-0-5-9"
       inkscape:connector-curvature="0"
       sodipodi:nodetypes="ccc" />
    <path
       style="fill:#ffffff;fill-opacity:0.47641512;stroke:none"
       d="m 468.74634,501.09093 c 2.9386,-3.93934 10.28329,0.39033 9.74026,2.80245 -3.87618,-4.06156 -6.88674,-3.82265 -9.74026,-2.80245 z"
       id="path14799-2-2-0"
       inkscape:connector-curvature="0"
       sodipodi:nodetypes="ccc" />
    <path
       style="fill:#000000;fill-opacity:0.24056606;stroke:none"
       d="m 472.81574,503.72082 c -4.28508,-0.33005 -6.64004,1.23616 -5.98238,5.76148 0.70858,2.85584 -3.13567,2.40571 -5.2936,3.17954 3.16649,-0.0432 7.38591,0.86778 7.36963,-2.06028 -0.55643,-3.89423 0.55134,-6.35489 3.90635,-6.88074 z"
       id="path14801-8-9-0"
       inkscape:connector-curvature="0"
       sodipodi:nodetypes="ccccc" />
    <path
       style="fill:#000000;fill-opacity:0.17924529;stroke:none"
       d="m 437.00249,512.19546 c 4.69729,1.18567 7.21218,5.50202 -3.58453,10.15258 3.55674,-3.99849 7.18305,-8.01488 3.58453,-10.15258 z"
       id="path14803-9-1-0"
       inkscape:connector-curvature="0"
       sodipodi:nodetypes="ccc" />
    <path
       style="fill:#000000;fill-opacity:0.17924529;stroke:none"
       d="m 442.12379,515.18326 c 3.78546,0.92499 5.92672,3.83762 -2.54368,6.55426 2.71354,-2.51438 5.48158,-5.03827 2.54368,-6.55426 z"
       id="path14803-5-8-2-7"
       inkscape:connector-curvature="0"
       sodipodi:nodetypes="ccc" />
    <path
       style="fill:#000000;fill-opacity:0.32075471;stroke:none"
       d="m 446.98296,468.43855 c -0.31005,1.38305 0.66341,3.68021 2.15546,3.34627 2.9047,-0.68588 5.64267,2.71717 0.42823,6.69501 3.11705,-5.16715 -0.379,-4.78543 -2.14708,-4.35754 -1.41206,-2.40287 -1.1545,-3.92812 -0.43661,-5.68374 z"
       id="path14823-9-6-2"
       inkscape:connector-curvature="0"
       sodipodi:nodetypes="ccccc" />
    <path
       style="fill:#ffffff;fill-opacity:0.21698112;stroke:none"
       d="m 444.6892,573.6253 c -1.06717,4.69664 -0.87663,11.03815 -5.07136,12.42923 -14.13643,3.13645 -19.08171,10.03224 -10.84678,24.80653 -3.74992,-12.47892 -0.71829,-20.04578 12.53432,-20.20859 6.08239,-2.43996 4.95757,-11.09182 3.38382,-17.02717 z"
       id="path14825-9-1-5"
       inkscape:connector-curvature="0"
       sodipodi:nodetypes="ccccc" />
    <path
       style="fill:#aa0000;fill-opacity:1;stroke:none"
       d="m 457.32544,487.82257 c 1.74903,10.02267 8.02677,9.71505 14.35218,8.9761 -5.91342,-0.42979 -10.21733,-1.65042 -14.35218,-8.9761 z"
       id="path12706-7-5"
       inkscape:connector-curvature="0"
       sodipodi:nodetypes="ccc" />
    <path
       style="fill:#ffffff;stroke:none"
       d="m 457.1093,487.72305 c 4.72697,-0.99609 11.3571,-2.56173 14.29507,8.96404 -8.20163,-0.0314 -11.83844,-3.9902 -14.29507,-8.96404 z"
       id="path12724-0-2"
       inkscape:connector-curvature="0"
       sodipodi:nodetypes="ccc" />
    <path
       sodipodi:type="arc"
       style="fill:#000000;fill-opacity:1;stroke:none"
       id="path14795-6-1-1"
       sodipodi:cx="8612.9463"
       sodipodi:cy="-8618.3525"
       sodipodi:rx="4.1964288"
       sodipodi:ry="5.5357141"
       d="m 8617.1427,-8618.3525 a 4.1964288,5.5357141 0 1 1 -8.3928,0 4.1964288,5.5357141 0 1 1 8.3928,0 z"
       transform="matrix(0.63574797,0.13396926,-0.1030218,0.48888751,-5899.9355,3549.7632)" />
  </g>
</svg>
