<?xml version="1.0" encoding="UTF-8" standalone="no"?><svg height="660" viewBox="-300 -300 600 660" width="600" xmlns="http://www.w3.org/2000/svg" xmlns:xlink="http://www.w3.org/1999/xlink"><radialGradient id="a" cx="-80" cy="-80" gradientUnits="userSpaceOnUse" r="405"><stop offset="0" stop-color="#fff" stop-opacity=".31"/><stop offset=".19" stop-color="#fff" stop-opacity=".25"/><stop offset=".6" stop-color="#6b6b6b" stop-opacity=".125"/><stop offset="1" stop-opacity=".125"/></radialGradient><path d="m-298.5-298.50003h597v258.543296c0 286.247934-298.5 398.456734-298.5 398.456734s-298.5-112.2088-298.5-398.456734z" fill="#e20909"/><g stroke="#000" stroke-linecap="round" stroke-linejoin="round" stroke-width="1.061032" transform="matrix(.94251876 0 0 .94243877 -229.88421 -285.04228)"><g stroke-width="3.183095"><path d="m46.888115 258.05508c-7.078585.0646-13.598783 6.95176-15.109881 11.05493 7.645878-3.03609 12.880464-1.62303 17.316429 3.02401l11.340704-7.97521s-6.040259-5.27696-12.123905-6.03575c-.475458-.0593-.95144-.0723-1.423348-.0679zm-21.2881 32.76195c-3.850928.0207-9.908703.66602-14.834717 3.93657-7.7215562 5.1266-9.87834751 16.77145-9.1252361 19.10711 7.6051657-7.90033 13.3558621-10.24069 27.4522781-7.28084l.324575-15.57023s-1.506343-.20503-3.816901-.19256zm3.564266 28.42812s-12.373666 3.95288-15.372072 13.76892c-3.198208 10.47015 3.475552 18.71842 6.551806 20.3412 1.364655-7.32571 2.97891-17.82305 17.359459-20.7149zm18.090712 19.982c-2.202972 4.26871-6.228992 10.67123-3.761987 18.33437 3.005181 9.33483 14.729675 11.55934 18.036547 11.78663-5.708727-9.73982-3.891994-16.53446.713853-25.95687zm280.883517 163.74541c-1.04761-.022-2.09758.0446-3.18008.24436-7.88176 1.45498-12.92997 10.75698-13.48017 14.52877 7.62034-4.89308 12.73638-5.26133 20.87601 3.14535 2.59709-3.0538 6.46741-7.25248 10.35997-11.49759-1.02649-1.28396-7.2425-6.26649-14.57573-6.42089zm-17.04707 22.47166c-2.32566-.11339-4.97914.33958-7.65565 1.78422-9.97766 5.38545-8.90659 18.20226-8.39774 19.80545 8.85172-10.46833 14.74473-10.38623 22.30181-2.06576l1.51403-16.51211c-.88203-1.09285-3.88634-2.82289-7.76245-3.0118zm10.43914 25.49082s-10.01042 1.21433-12.92831 13.1823c-2.91472 11.95494 5.02302 17.38979 7.11586 18.5092.31687-9.18995 4.88382-16.8439 15.83328-19.26328zm22.35839 13.80549c-2.40272 1.73589-7.35815 4.31094-7.13297 13.26244.24221 9.6277 8.59192 14.26216 12.23232 14.65347-3.36073-9.01279-.0913-15.69134 5.80593-19.77309zm-255.789633-136.642c-7.418292.0293-12.699231 5.55177-13.315073 6.63037 13.627801.89189 14.274404 6.256 17.936216 15.80011 5.195912-3.7759 9.78201-7.01237 12.78507-8.7488.26331-2.20256-3.0216-8.70164-10.739389-12.1871-2.360109-1.06585-4.589698-1.50278-6.666824-1.49458zm-16.613352 21.96432c-1.514323-.0285-3.057165.1181-4.612318.53242-11.379938 3.03184-11.21406 11.6985-11.376306 14.58137 12.600077-6.12654 17.230346.001 24.527834 6.05437l6.128772-15.84614c-2.24941-1.57029-8.105895-5.19645-14.667982-5.32202zm15.724586 31.59761s-9.97129-4.10173-17.259566.0539c-7.85754 4.48022-7.252313 15.02232-5.761472 18.6437 6.678642-9.77466 15.414038-7.89484 21.938119-3.30139zm27.964459 20.27824c2.05152 12.8118-3.03088 14.86184-11.88286 15.41078 3.00395 2.75658 13.06423 7.34644 19.72536 3.82911 7.31884-3.8646 9.18263-15.33456 8.45517-15.62604zm-68.397233-467.424434c-10.480195-.06305-16.358119 7.963615-17.923402 10.887406 18.684547-2.35428 16.930902 3.076244 20.080524 14.234403l16.320386-6.360864c-1.317517-5.856034-3.645798-15.366915-12.185331-17.826304-2.259584-.650761-4.351399-.922965-6.292177-.934641zm39.250068 1.434913c-3.519069-.157468-6.993249.765481-9.520016 2.514873 7.230892 2.786102 11.175722 5.985715 7.226676 17.961408l13.590927 9.537884c3.550998-4.08398 7.410348-13.527457.717884-23.527708-2.864555-4.28038-7.490958-6.284005-12.015471-6.486457zm-62.443742 23.34446c-6.249948-.344699-13.8471197 3.492322-17.3092782 18.708132 16.5907832-11.886703 16.3597272-.032237 24.3149952 8.089517l11.473472-18.465413s-6.141039-4.590812-14.41873-7.518176c-1.231108-.435375-2.618164-.734514-4.060459-.81406zm32.306946 61.501901c-7.093572 10.85924-16.20678 11.33612-27.922404 5.35822 7.015166 22.30567 24.173656 22.50563 40.026829 10.52282z" fill="#2b5df2" fill-rule="evenodd"/><path d="m382.33141 373.30069c7.44178-.31418 15.48357-8.5507 28.25933 5.76503 2.65795-5.35981 2.39143-12.27186-3.50558-16.42049 8.67772-5.63218 17.99338-20.17639 20.6105-28.9045 3.41002-11.37244 5.56748-24.66605 14.58985-27.95596 4.78675-1.74548 9.26813 1.69463 8.85606 7.57927-.89447 12.77349-5.32241 10.02586-10.01454 27.26987-1.76179 6.47475 1.71644 16.63251 16.69407 14.39093-6.33998-2.92583-6.67509-6.7902-5.99075-11.89758 1.1881-8.86717 16.61773-19.25156 18.23136-33.81778 1.89806-17.13365-12.10051-24.84308-19.04675-25.5053-9.30094-.88671-20.63428 4.96871-27.48325 16.58892-3.61897-16.92251 8.21935-33.38198 21.05557-41.254 10.75545-6.59597 22.97091-12.36926 28.95655-21.87147 6.74863-10.71352 5.39091-24.19448-1.53251-30.83599-.35355 6.40809-4.84112 17.17118-18.27866 24.06171-16.31202 8.36462-32.08182 13.16456-45.2538 37.00218-2.76393-42.64828 42.96851-59.27094 61.96887-72.47447 23.58219-16.38756 15.87991-52.09645 8.72205-56.97138.41431 5.97983.66186 15.34189-6.4631 26.41451-8.24138 12.80773-22.65155 18.61379-40.03945 28.18159-17.29236 9.51526-31.64803 24.71613-38.45632 40.66719-1.87709-10.76557 6.09491-26.35977 16.13609-37.28036 10.40033-11.31115 22.82493-21.22726 29.89086-27.21748 14.07384-11.93133 34.57669-28.44665 36.7047-64.66093 1.50178-25.46925-11.17136-43.30419-28.93824-50.74816-10.41978-4.36556-25.69505-5.01936-36.21395-2.66055-5.27752 1.18344-10.53867 3.00398-15.47873 5.97313-3.47827 2.09055-9.47957.80402-8.8759-5.26669.71134-7.15379 10.92547-7.68136 12.01335-16.06494.89742-6.91594-4.3595-12.47604-9.92251-15.2266 1.39234 4.23625-.11741 9.15148-3.03635 14.05438-3.80445 6.39032-12.42016 5.70973-13.54203 17.80092-.55593 6.04755 3.47731 12.8652 9.20015 14.55762.67842.4149 1.81624 1.32915 1.33266 1.99276-6.3161 8.6678-7.45819 20.13495-6.8184 28.08741 1.06856 13.28013 5.6613 17.96105 5.72057 30.25952.0186 3.83334.0132 14.8871-4.59827 22.17358-5.68453 8.98203-10.55054 12.54123-15.96783 15.37081 7.643.47959 15.81348-1.29359 21.53229-3.51267 10.57067-4.10171 19.54133-17.16129 21.3252-25.81949 1.18781-5.76506.9201-11.1544.16274-16.40466 5.17446 1.75032 14.18531 2.00002 20.48892-2.17585 6.47284-4.28797 10.05703-13.55229 5.2966-21.63188-1.64412 8.1883-7.11614 11.15854-15.33057 11.48449-7.81695.31019-14.06495-4.57279-14.74735-13.06258-1.00585-12.51308 9.6323-21.62964 24.25544-21.80341 19.37149-.23021 29.89592 13.99524 28.86799 32.60918-1.03033 18.65773-10.27015 32.39101-23.33416 43.49622-11.22378 9.54089-23.03466 18.80896-34.71486 30.40316-9.10976 9.04269-27.05546 28.21263-27.65722 53.63025-.44628 18.83526 5.0321 34.06611 13.60335 47.78861 8.57119 13.72258 13.64843 25.15507 17.30492 35.79589 4.39492 12.79026 2.33555 30.24448-10.05154 35.13943-12.83058 5.07025-30.24839-2.61161-36.43087-19.35145-2.19915 12.23261-5.19869 37.53404 7.18678 36.58644 7.49976 2.58311 14.25528 6.03057 22.75669 5.67162z" fill="#fff03c" fill-rule="evenodd"/><path d="m196.10277 331.94571c-23.28256-.009-37.71561 15.53662-40.6994 32.88207-1.28064 7.44469-2.49078 12.53923-5.971 15.46939-8.53659 7.18737-22.25816 8.70876-23.53675 8.22974 8.19927 9.76956 15.45244 13.04041 26.38867 10.66832-2.27819 12.02671 8.78654 26.94649 14.50151 39.26194 1.92952 4.15804-7.76546 7.08864-19.41769 9.08881-3.79197.65094-11.23 5.32146-14.87405 6.33728-3.77416 1.05208-9.47386.68495-11.66268-.66792-2.26255-1.39845-10.42493-10.6004-16.62592-12.63747-5.77037-1.89562-12.99472-.80906-14.33667 3.8912-2.13753 7.49966 7.83299 10.49934 9.16243 13.15089 1.28572 2.56441-.92492 4.61652-2.79441 3.5406-2.218-1.27648-9.36882-9.22104-13.7878-7.81768-3.32975 1.05742-6.07142 4.04424-6.90959 12.31734-.71044 7.01234 10.76284 9.1539 15.10162 9.48539 3.53233.26987 3.07213 3.76712.94363 4.43157-2.29.71489-12.29567-5.27899-12.86444-.52744-.56876 4.75156-1.31345 15.1074 4.96408 18.7424 4.93549 2.85786 23.49026-2.56915 25.61552-3.10462 2.53054-.63759 5.00133-1.38092 5.82466-.61954 5.59649 5.17535-5.85374 7.02313-1.97663 11.82846 4.11998 5.10636 10.07517 5.57637 15.56656 6.48103 11.28327 1.85879 5.55909-19.52362 8.05427-19.65459 5.38451-.74811 7.49285-1.57138 11.83332 1.93213 4.34047 3.50352 10.86126 14.3362 19.99976 17.1604-.79661-8.28214-.14074-15.73145 2.65769-21.2978 3.17439 9.5057 14.61636 14.21669 26.23636 17.24508-5.8156-6.79702-7.40448-19.13005-5.54343-21.01175 7.63832 8.50866 14.82049 11.60632 29.24895 11.19335-4.29519-3.1898-6.49132-12.49805-5.54264-15.1163 1.45534-4.01652 4.60325 2.97771 8.47202-5.18283 2.43883-5.14425-1.49573-11.34471-3.12637-14.55059-7.47826-14.70252-8.60907-48.74557 25.93179-56.78479 18.78561-4.37227 47.17369-15.28759 49.63102-18.37807 19.58438-24.63052 1.50447-45.44216-8.59998-57.38372-25.5632 12.19957-62.48074 1.80842-91.86441 1.39772z" fill="#fcef3c" fill-rule="evenodd"/><path d="m83.903697 147.10958c.545438 6.22628 4.571012 15.21612 2.840498 22.6677 4.485999-4.24165 8.604474-9.60198 9.113838-15.38385 6.781467 11.93371-1.856997 28.58357-1.200466 41.57503 3.467995-4.50448 11.874323-11.13835 13.765633-17.13395 6.82008 14.75683-8.732093 18.09672-.65349 47.27045 2.8109-10.53374 9.94833-19.24496 12.95076-26.46709 2.30269 20.05073 21.56613 33.29032 32.42108 29.9681 24.89082 32.45692 54.86381 19.81968 53.41606-15.48501 0 0-23.52795-52.04821-29.61244-56.53895-6.60696-4.87635-15.01239-9.27852-24.59801-15.39716-10.81886-6.90584-19.69811-12.45034-28.08821-20.21171-8.3901-7.7614-12.42864-14.72472-17.92367-20.17459-7.735994-7.672426-12.87404-16.192639-13.038578-20.149065-.201331-4.841191 4.487119-6.138716 6.225942-13.826432 2.069016-9.147543-7.332009-18.957883-16.075671-17.598496-4.984678.774974-5.519977 10.051293-8.210798 11.917928-.634263.439991-1.394297.592361-2.369436.307223-5.112103-1.494818-.905128-16.352425-9.164554-16.939927-8.259437-.587507-14.84269 1.92477-19.307197 10.025416-3.58883 6.511769 8.849235 10.953728 9.31768 14.779372.104998.857486-1.697729 2.100796-2.570642 2.079473-.576255-.01408-9.467137-9.600393-16.42364-7.281073-5.420977 1.807372-11.300313 8.161928-9.446545 16.975789 1.602953 7.621348 11.692715 8.164978 16.537408 8.682803 5.744296.613979 18.587384 17.010789 17.551168 24.397869-.317411 5.95456-9.166107 3.6112-11.027571 10.43897-2.387053 8.75561 4.462176 18.56802 12.167631 17.40198 5.765157-.87243 11.956328-8.378 14.578222-8.62385 6.355779-.0353 8.22098 5.80997 8.824998 12.72305z" fill="#fcef3c" fill-rule="evenodd"/><path d="m237.0441 320.23703c15.17041 5.69924 28.03896 19.75064 29.70305 29.84924-8.74164 17.42545-2.97443 25.21626 9.51898 23.13147 10.19595-1.69622 10.2128-9.837 7.52724-19.22928-2.39599-8.37952-6.04209-14.04004-13.80464-20.03355-10.13587-7.82599-28.58771-14.48447-32.94463-13.71788z" fill="#fcef3c" fill-rule="evenodd"/><path d="m375.92248 546.08868c5.57959-18.31752 25.27069-5.71075 35.48774-20.63388-6.20825-.40291-13.61889-4.89916-15.69674-11.56905 16.19384.48409 23.5066-4.59036 31.82926-11.65927-6.5203.0385-16.14326-1.58827-17.50881-11.004 7.79732-.15487 24.12809-.22222 33.10275-14.12018-15.8339 2.64276-23.53791-2.61595-22.80832-7.16337 2.1566-13.44199 10.01303-12.71879-.64443-22.55448-2.99449-2.76359-15.7134-5.22967-14.67705-12.07315.54964-3.62949 11.06268-10.12979 16.1846-12.95927-3.27955-.36039-11.59365-4.68273-19.18435-2.56233-7.5907 2.12041-14.35669 3.06423-25.69271-8.74253-5.21236-5.45194-7.78018-6.89191-14.02763-19.67755-1.25584-2.57012-7.76857-24.2848-5.59192-23.88781 7.41792-10.16624.50453-25.85202-4.21887-37.51653-4.59906-12.44295-8.66962-25.01533-17.65673-38.04297-6.90327-10.00692-25.29795-27.11166-26.28584-40.50653-2.22566-34.74293-13.26607-52.98314-38.76949-61.89279-13.85462-4.70927-43.21437-37.51191-65.99464-12.30968-11.63948 12.87695-24.16832 12.01357-34.29254 29.20975-10.12421 17.19618-10.35321 11.72369-19.12153 19.92872s-16.70744 14.57234-19.2186 16.2c-5.02233 3.25532-6.79144 3.90547-15.24264 10.32588-8.4512 6.4204-15.998969 12.42078-17.407569 13.99608-2.817199 3.15058-17.899026 9.07261-21.260151 8.68862-2.073807-.23693-7.977765-10.42379-12.405492-11.24773-5.549882-1.03277-18.6207 2.88153-18.774635 9.93457-.08246 3.77802 10.073771 7.36462 8.467369 11.60076-1.09346 2.88348-9.094149 5.73704-12.643155 4.92053-2.028488-.4667-7.881682-3.86847-12.687447-2.57805-8.979281 2.41108-11.717322 15.37674-6.395568 20.42909 2.705097 2.56815 13.234968-.58314 14.816529.33676 1.792408 1.04255 2.940223 1.86273 1.979019 3.88953-1.042705 2.19871-14.077561 1.61189-15.721727 4.47568-5.59818 9.75086 2.368907 23.65464 12.560733 19.2234 3.423315-1.48841 6.697199-3.98676 8.988738-5.65251 2.033495-1.47798 3.926899.37699 4.132399 1.49242.467818 2.53912-8.933368 8.47738-7.675679 12.32909 2.419005 7.4083 18.165015 9.34093 21.993928 3.15599 2.97136-4.79971 9.017485-16.18217 10.154532-17.72748.568534-.77266 1.451254-2.50388 8.496147-4.38818 17.577449-4.23013 23.447039 3.42305 29.831399 18.28724 5.72142-4.83465 14.74934-19.11248 10.1332-26.92995 6.53276 6.90996 17.52392 14.78029 26.9712 15.76964-3.80518-10.48099 1.09715-19.30565 2.60746-22.89489 6.03646 6.25891 22.33659 12.92707 34.00639 10.4348-10.03795-6.28478-15.7656-17.63603-4.52652-22.93392 11.23909-5.29788 14.10321-8.35164 16.68373-18.30575 2.58051-9.95411 15.50567-6.83703 20.40988.19309 4.9042 7.03013 6.87001 9.6283 12.5607 16.0325 6.12286 6.89057 14.35784 13.66897 19.74311 17.83606 6.08528 4.70874 11.74829 9.86708 16.8617 17.31215 6.55009 9.53687 9.63556 20.32958 9.29369 33.45234-1.49392 12.64507 4.15094 23.82648 2.25836 36.14519-1.13486 4.67846-7.4665 11.44965-1.34832 23.44151s7.83555 36.76053-.36941 45.52915c21.61465-1.07899 30.63038-19.65886 27.17675-35.8946 8.24864 7.00782 13.86557 8.8756 20.55821 14.89739 2.53522 2.28109 14.02293 13.06978 16.8949 15.32677 5.85424 5.71954 5.06211 4.72034 14.09874 11.78368.64835 1.27805 2.29328 10.00348 2.2859 12.25244-.002.65051.35602 5.85018-1.48929 11.81912-1.6328 5.28155-4.65781 11.19381-7.75967 13.10842-3.19284 1.97078-4.08637-5.84543-7.761-5.21555-4.86086.83322-14.75715 8.12097-13.43694 12.81041 1.2843 4.56188 12.62054 2.84065 8.44532 5.15052l-5.33859 2.9535c-3.28181 1.8156-4.35814-2.61619-11.30273-1.54592-8.53447 1.31527-10.82332 11.84997-6.16076 17.55562 3.06736 3.75358 9.62749 1.38319 9.62749 1.38319 7.28841-1.68211 9.7887.93558.5954 3.32108 0 0-8.87263 2.4843-7.76469 9.51939.75573 4.79868 7.39842 9.86757 11.01468 9.25608 4.79923-.81154 10.17432-3.85179 11.73817-6.58428 2.93313-5.12503 5.35865-2.04501 3.29529 2.03451-1.17228 2.31771-3.19247 7.26746.10769 9.77566 4.02219 3.05696 13.67689 1.31167 16.68837-1.60212 4.61104-4.46143 3.94627-11.59525 2.81815-13.63542 7.64528-2.36032 11.70502-7.11896 13.96256-11.5066z" fill="#fcef3c" fill-rule="evenodd"/><path d="m100.92877 310.30778s61.87951-19.78687 101.21665-61.47879m192.89355 200.66862s10.04425.70486 14.03077 10.89496c4.157 10.6259-6.58864 16.28535-6.58864 16.28535m-199.13327-24.93292s6.2763 8.74934 1.51199 17.9677c-4.96807 9.61261-16.37799 3.97068-16.37799 3.97068" fill="none"/></g><g transform="translate(17.381913)"><g stroke-width="3.183095"><path d="m215.35424 136.90589c8.24938-2.0706 16.2079-4.05302 22.75516-8.23092 6.09882-3.89175 15.29659-5.36354 22.74402-3.85575 11.98097 2.42564 19.72216 4.49651 31.89549 1.30299 10.25121-2.68927 13.30803-9.4145 11.36487-20.78577-2.13747 6.62311-5.75427 9.82206-9.21097 10.81899-4.44707 1.28255-12.38617 1.29489-18.593-.90923-32.13317-11.41092-53.15519-1.79786-60.95557 21.65969z" fill="#2b5df2" fill-rule="evenodd"/><path d="m289.89564 91.338856c1.31901 3.182594 1.09938 13.083564-5.22095 16.229334-1.00178-5.62124-3.73377-12.132803-5.76311-15.454524zm-9.59682 36.751994c.80296 3.45569-.18176 7.85327-1.76815 10.5475l-7.60857-1.74786c3.87719-2.12648 7.32502-5.27597 9.37672-8.79964z" fill="#fcef3c" fill-rule="evenodd"/><path d="m243.239 152.15176c-.45703-2.43417 14.34478-.60178 20.78456-.41655 1.60223.0461 3.33096 7.20109 3.5912 8.98185 3.89203-1.08475 2.20015-7.89575 8.72412-9.4813 2.81449-.684 4.85069-2.13937 4.40766-4.78935-.56742-3.39489-1.05661-9.59593-2.94052-10.42219-3.69497-1.62058-7.76374.47725-11.97961.66526-7.51096.33491-15.23584-3.24269-19.4459-6.87006-8.10944-6.9871-11.07484-18.15633-9.89702-27.17145 1.16827-8.941775 5.77925-17.231387 20.424-11.640762 10.81658 4.129234 21.59177 4.744117 33.33405 1.75119 4.42808-1.128646 7.54014-6.11159 7.69629-11.551641.11877-4.136294-.67522-6.400093-.79987-10.386948 1.92229 1.222097 4.17328-2.120129 4.3662-3.148.33384-1.778527-3.78876-4.461229-6.95029-5.690853-5.48035-2.1315-10.42973-1.136284-16.22356-.422774 1.76133-3.318071 5.99255-6.836092-.78539-10.310268-7.29081-3.737074-17.20845-8.787229-28.86423-8.776681l-.00007.000126c-.77705.000704-1.56183.02497-2.35406.07254-17.19931 1.03268-39.39354 5.163601-47.97857 11.226277-10.58966 7.478324-16.91121 16.273634-25.89471 26.90203-1.91947 2.270919-7.7258 3.099543-10.29074 1.958433.087 6.049593 4.77748 8.937501 9.69808 7.597477-.36483 3.541175-6.89447 7.279593-7.99885 10.521644-1.52486 4.47645.6564 9.36302-3.43162 11.91018-2.27299 1.41625-5.01009 1.23327-7.12022-.13678.13777 7.30747 7.72065 11.45051 13.41361 8.56944-.74875 4.76047-6.58984 5.69833-7.9429 13.34221-.72865 4.11661 1.00773 9.10154-1.16045 12.88835-1.80802 3.15779-4.74653 3.89809-7.61341 2.83507.78242 5.67752 7.33888 8.70671 12.73806 7.05865-.41085 4.59776-6.84625 9.32987-5.30701 20.18947 1.3048 9.20546 9.37343 12.49075 6.10275 21.99455-1.81615 5.27729-6.90799 9.01991-12.54328 9.81703 3.81069 9.83455 16.47716 9.23613 20.86954 1.41547-1.75099 14.32235-29.74303 25.22212-39.24201 24.16022 4.71268 9.71397 13.79514 15.67914 24.86066 17.57616 14.93119 2.55972 27.36465-1.48937 37.73135-8.93419-1.77466 9.56849-11.65755 12.92001-13.61048 24.4856-1.74515 10.33517 2.89298 19.64295 13.2727 22.12718-2.80145-16.57851 13.84189-21.13895 23.67327-24.56434 9.30399-3.24164 17.41321-7.82781 24.14574-15.50581.95781 9.79756-12.1202 16.55882-6.21465 30.97225 3.97114 9.69218 13.87105 14.00849 24.6783 14.09864-6.88615-4.72018-8.44528-14.3494-3.58912-22.88155 6.97345-12.25218 15.56838-12.82798 24.67623-27.0616 2.4162-3.776 4.13059-10.05398 5.51217-16.06122 3.7024 6.85747 1.43709 13.03842.06 18.4818-2.5869 10.22586 5.49709 23.98153 19.39616 23.05977-3.19485-4.78146-3.81343-12.46723-.84133-17.94712 19.41775-35.80201-6.2117-68.16682-41.31108-81.57967-9.86037-3.76803-19.78915-8.11269-21.8258-18.90776z" fill="#fff03c" fill-rule="evenodd"/><path d="m215.73665 53.096089c1.55555-16.24839-13.46218-17.45627-24.88158-21.92966 1.87333 10.35614 1.41422 23.93744 8.51761 27.06175" fill="#fff03c" fill-rule="evenodd"/><path d="m192.60084 41.891659s13.88716-2.79663 16.07225 12.7402m87.68064 14.649749s-1.76183 4.164338-4.64484 1.761835m-13.37781-9.486166c-4.78105 6.825992-8.26432 2.472551-12.49155.43929-14.90499-8.340841-18.08618-2.264282-25.57688 2.212118m2.97635 87.942825c-17.46552 1.10666-24.7078-20.37059-24.7078-20.37059s-7.90245 10.32513-3.33442 18.74416c-9.80362-6.8894-15.18842-20.65394-5.98986-39.20038-5.70077.87138-11.35181 6.8408-12.28693 10.26593-3.70875-13.3728-.46185-31.657452 12.23585-41.621469" fill="none"/></g><path d="m272.80481 65.947308c-4.66241 3.095517-8.18291 4.850739-12.57505 3.622242-7.13802-1.76843-9.43959-5.7979-12.7246-5.415123.70806-7.91465 9.45045-7.319973 14.4114-3.621218.59021.352976-.95152 4.00922-2.25888 7.084267 1.18139-.06185 4.62959-1.756757 4.93114-5.303545 1.90616 1.337781 4.67195 2.220351 8.21599 3.633377z" fill="#fcef3c" fill-rule="evenodd" stroke-width="3.183096"/></g></g><path d="m-298.5-298.50003h597v258.543296c0 286.247934-298.5 398.456734-298.5 398.456734s-298.5-112.2088-298.5-398.456734z" fill="url(#a)"/><path d="m-298.5-298.50001h597v258.502973c0 286.203287-298.5 398.394577-298.5 398.394577s-298.5-112.19129-298.5-398.394577z" fill="none" stroke="#000" stroke-width="3"/></svg>