<?xml version="1.0" encoding="UTF-8" standalone="no"?>
<svg
   width="600"
   height="660"
   version="1.0"
   id="svg193"
   sodipodi:docname="Blason Mâcon.svg"
   inkscape:version="1.2 (dc2aeda, 2022-05-15)"
   xmlns:inkscape="http://www.inkscape.org/namespaces/inkscape"
   xmlns:sodipodi="http://sodipodi.sourceforge.net/DTD/sodipodi-0.dtd"
   xmlns:xlink="http://www.w3.org/1999/xlink"
   xmlns="http://www.w3.org/2000/svg"
   xmlns:svg="http://www.w3.org/2000/svg">
  <sodipodi:namedview
     id="namedview195"
     pagecolor="#ffffff"
     bordercolor="#666666"
     borderopacity="1.0"
     inkscape:showpageshadow="2"
     inkscape:pageopacity="0.0"
     inkscape:pagecheckerboard="0"
     inkscape:deskcolor="#d1d1d1"
     showgrid="false"
     inkscape:zoom="0.35757576"
     inkscape:cx="300.63559"
     inkscape:cy="330"
     inkscape:window-width="1440"
     inkscape:window-height="900"
     inkscape:window-x="0"
     inkscape:window-y="0"
     inkscape:window-maximized="0"
     inkscape:current-layer="svg193" />
  <defs
     id="defs171">
    <radialGradient
       xlink:href="#b"
       id="c"
       cx="221.44487"
       cy="226.33101"
       r="300"
       fx="221.44487"
       fy="226.33101"
       gradientTransform="matrix(1.35322 0 0 1.34893 -77.62935 -85.74693)"
       gradientUnits="userSpaceOnUse" />
    <linearGradient
       id="b">
      <stop
         offset="0"
         style="stop-color:white;stop-opacity:0.3137255"
         id="stop141" />
      <stop
         offset=".19"
         style="stop-color:white;stop-opacity:0.25098041"
         id="stop143" />
      <stop
         offset=".60000002"
         style="stop-color:#6b6b6b;stop-opacity:0.1254902"
         id="stop145" />
      <stop
         offset="1"
         style="stop-color:black;stop-opacity:0.1254902"
         id="stop147" />
    </linearGradient>
  </defs>
  <g
     style="display:inline"
     id="g175">
    <path
       d="m 300,658.5 c 0,0 298.50001,-112.32031 298.50001,-397.77183 V 1.5 H 1.5 V 260.72817 C 1.5,546.17969 300,658.5 300,658.5 Z"
       style="fill:#e20909;fill-opacity:1;fill-rule:evenodd;stroke:none;stroke-width:1px;stroke-linecap:butt;stroke-linejoin:miter;stroke-opacity:1"
       id="path173"
       sodipodi:nodetypes="csccsc" />
  </g>
  <g
     id="g183">
    <path
       d="M162.03125 81.53125c-56.15643 0-101.718749 45.56232-101.71875 101.71875 0 56.15643 45.56232 101.71875 101.71875 101.71875s101.74999-45.56232 101.75-101.71875c0-56.15643-45.59357-101.71875-101.75-101.71875zm1 34.34375c35.96487 0 65.125 29.19138 65.125 65.15625 0 35.96488-29.16013 65.15625-65.125 65.15625-35.96488-.00001-65.15625-29.19138-65.15625-65.15625-.000004-35.96487 29.19138-65.15625 65.15625-65.15625z"
       style="fill:white;fill-opacity:1;stroke:black;stroke-width:2.11952567;stroke-miterlimit:4;stroke-dasharray:none;stroke-opacity:1"
       id="path177" />
    <path
       d="M302.125 317.5C245.198 317.5 199 363.69799 199 420.625c0 56.927 46.19799 103.12501 103.125 103.125 56.927 0 103.12501-46.19801 103.125-103.125 0-56.927-46.19801-103.125-103.125-103.125zm1 34.84375c36.45838.00001 66.03125 29.57286 66.03125 66.03125.00001 36.45838-29.57286 66.0625-66.03125 66.0625-36.45839.00001-66.0625-29.60411-66.0625-66.0625-.00001-36.4584 29.60411-66.03125 66.0625-66.03125z"
       style="fill:white;fill-opacity:1;stroke:black;stroke-width:2.09083557;stroke-miterlimit:4;stroke-dasharray:none;stroke-opacity:1"
       id="path179" />
    <path
       d="M442.625 80.125c-56.927 0-103.12499 46.198-103.125 103.125 0 56.927 46.19801 103.125 103.125 103.125 56.927 0 103.12503-46.198 103.125-103.125 0-56.927-46.198-103.125-103.125-103.125zm1 34.84375c36.45839 0 66.03125 29.57286 66.03125 66.03125-.00001 36.45839-29.57286 66.0625-66.03125 66.0625S377.5625 217.45839 377.5625 181c.00001-36.45839 29.60411-66.03125 66.0625-66.03125z"
       style="fill:white;fill-opacity:1;stroke:black;stroke-width:2.09083557;stroke-miterlimit:4;stroke-dasharray:none;stroke-opacity:1"
       id="path181" />
  </g>
  <g
     style="display:inline"
     id="g187">
    <path
       d="m 300.00001,658.5 c 0,0 298.5,-112.32031 298.5,-397.77183 V 1.5 H 1.5 V 260.72817 C 1.5,546.17969 300.00001,658.5 300.00001,658.5 Z"
       style="display:inline;opacity:1;fill:url(#c);fill-opacity:1;fill-rule:evenodd;stroke:none;stroke-width:1px;stroke-linecap:butt;stroke-linejoin:miter;stroke-opacity:1"
       id="path185"
       sodipodi:nodetypes="csccsc" />
  </g>
  <g
     style="display:inline"
     id="g191">
    <path
       d="m 299.99999,658.50028 c 0,0 -298.49999,-112.32036 -298.49999,-397.772 V 1.5 h 596.99999 v 259.22828 c 0,285.45164 -298.5,397.772 -298.5,397.772 z"
       style="opacity:1;fill:none;fill-opacity:1;fill-rule:evenodd;stroke:#000000;stroke-width:3;stroke-linecap:butt;stroke-linejoin:miter;stroke-miterlimit:4;stroke-dasharray:none;stroke-opacity:1"
       id="path189"
       sodipodi:nodetypes="csccsc" />
  </g>
</svg>
