<?xml version="1.0" encoding="UTF-8" standalone="no"?>
<!-- Created with Inkscape (http://www.inkscape.org/) -->

<svg
   xmlns:dc="http://purl.org/dc/elements/1.1/"
   xmlns:cc="http://creativecommons.org/ns#"
   xmlns:rdf="http://www.w3.org/1999/02/22-rdf-syntax-ns#"
   xmlns:svg="http://www.w3.org/2000/svg"
   xmlns="http://www.w3.org/2000/svg"
   xmlns:sodipodi="http://sodipodi.sourceforge.net/DTD/sodipodi-0.dtd"
   xmlns:inkscape="http://www.inkscape.org/namespaces/inkscape"
   width="659.88214"
   height="685.53021"
   id="svg4259"
   version="1.1"
   inkscape:version="0.48.4 r9939"
   sodipodi:docname="die greue van Sympoell II.svg">
  <defs
     id="defs4261" />
  <sodipodi:namedview
     id="base"
     pagecolor="#ffffff"
     bordercolor="#666666"
     borderopacity="1.0"
     inkscape:pageopacity="0.0"
     inkscape:pageshadow="2"
     inkscape:zoom="0.49497475"
     inkscape:cx="604.23275"
     inkscape:cy="111.56758"
     inkscape:document-units="px"
     inkscape:current-layer="layer1"
     showgrid="false"
     fit-margin-top="0"
     fit-margin-left="0"
     fit-margin-right="0"
     fit-margin-bottom="0"
     inkscape:window-width="1600"
     inkscape:window-height="837"
     inkscape:window-x="-8"
     inkscape:window-y="-8"
     inkscape:window-maximized="1" />
  <metadata
     id="metadata4264">
    <rdf:RDF>
      <cc:Work
         rdf:about="">
        <dc:format>image/svg+xml</dc:format>
        <dc:type
           rdf:resource="http://purl.org/dc/dcmitype/StillImage" />
        <dc:title></dc:title>
      </cc:Work>
    </rdf:RDF>
  </metadata>
  <g
     inkscape:label="Laag 1"
     inkscape:groupmode="layer"
     id="layer1"
     transform="translate(4.2267885,-152.45422)">
    <rect
       style="fill:#008044;fill-opacity:1;fill-rule:evenodd;stroke:none"
       id="rect8154"
       width="51.434155"
       height="685.52454"
       x="-4.2267885"
       y="152.45988" />
    <rect
       style="fill:#e6e6e6;fill-opacity:1;fill-rule:evenodd;stroke:none"
       id="rect6128"
       width="608.55377"
       height="684.52557"
       x="47.101589"
       y="152.45422" />
    <path
       style="fill:#aa0000;fill-opacity:1;stroke:none;stroke-width:4.00475311000000020;stroke-linecap:butt;stroke-linejoin:miter;stroke-miterlimit:4;stroke-opacity:1;stroke-dasharray:none"
       d="m 208.59816,382.75152 c -4.39766,-28.63792 -5.02302,-58.8179 0,-91.30678 -9.83834,9.59957 -17.68714,29.63628 -22.14578,67.45799 2.74947,-24.70373 -12.49216,-44.25927 -22.14579,-65.41382 64.12901,-34.05895 9.60624,-67.29317 -20.00264,-27.25577 -21.6618,-55.13934 -64.343906,6.48123 -30.71834,21.12323 -26.036068,-1.80291 -30.370886,46.11228 12.85884,32.70688 18.09522,4.31548 3.43548,8.63107 5.00066,12.94655 -23.55478,22.60761 -3.61756,41.77499 15.71637,27.25574 -16.78628,27.82516 -16.41846,45.46945 27.14643,37.47667 -21.85439,8.45411 -16.161,41.56349 10.71571,29.29996 6.97217,38.21026 -8.64976,53.38334 -40.71967,51.78595 0.1527,-23.18323 7.06615,-53.57365 -14.2876,-53.83017 -23.55477,8.71301 -31.925499,22.25369 -7.1438,46.33487 -12.10963,-0.21273 -27.580305,-6.19611 -33.575857,4.08835 -1.750631,34.69113 11.971247,40.60392 37.147757,25.21162 -17.58782,17.87619 -33.103633,35.23993 -15.00198,44.29055 17.95359,5.40118 34.24535,4.23545 42.8628,-27.25574 6.92785,23.22863 36.07364,29.07073 44.29157,-8.85811 8.82477,25.51831 31.69528,19.29644 36.43339,-4.08835 8.48108,24.8037 36.72942,8.30501 30.00396,-10.90234 16.92382,23.10615 47.19589,46.79115 7.85818,67.45804 -27.39876,-5.93921 -84.94089,-10.727 -56.43603,43.60924 8.20297,18.06442 37.96411,44.46503 -48.57785,25.89293 6.87026,-37.46923 -38.12041,-47.95545 -40.00528,-6.81389 -40.681345,-4.80076 -52.780569,47.46941 17.22564,34.46876 -44.46459,10.55185 -32.12489,65.57713 19.20774,14.59155 -2.17747,10.67406 13.13086,43.10422 50.72099,2.72563 9.90036,24.31519 25.21883,28.47547 48.57785,2.72554 12.72149,24.31032 45.33945,22.99119 50.72098,-10.22093 43.64708,59.50046 21.29037,83.35431 -1.42876,91.98825 7.07031,-68.83278 -57.83014,-16.74739 -35.719,10.22092 -48.2259,15.79945 -12.66528,60.44525 25.71768,15.6721 -34.76622,31.56273 48.38424,53.54703 32.86149,0 19.23793,35.79284 75.20763,20.89383 42.8628,-11.58375 22.76399,3.40361 69.77785,-7.19203 23.57455,-44.29065 -25.27694,-18.26178 -11.36832,-42.18651 7.1438,-66.77663 18.8957,34.20147 48.53551,52.7295 83.58246,63.36969 28.35405,10.55118 37.54473,28.76747 36.43339,51.10454 9.32297,54.27356 100.73576,33.22232 62.15106,-29.29987 4.91085,42.7669 -27.26976,33.08372 -38.57652,9.53952 -10.00266,-22.93606 -25.09132,-29.70158 -40.71966,-34.75113 34.39613,-6.07257 57.44224,-30.39472 58.57917,-89.94402 -0.32257,-37.90404 31.7357,-29.10269 37.14775,-9.53952 6.06399,-20.26852 10.4914,-40.21031 -23.57453,-52.46735 12.49179,-10.64525 26.60227,-15.55581 45.72032,-2.72563 1.60969,-21.97715 -7.11762,-34.09462 -32.14711,-30.66269 6.73171,-13.51034 20.68918,-20.75503 37.86215,-25.21161 -5.36443,-14.63534 -16.07942,-17.3625 -30.00396,-12.94646 7.24004,-25.02979 9.54502,-50.4217 28.21801,-74.61268 -20.49,4.44074 -25.39995,15.25035 -33.21867,24.87086 -2.52536,-23.12579 -5.39702,-46.37389 17.14512,-60.64405 -19.89792,4.59967 -33.44179,12.66266 -40.00529,24.5302 -42.42831,-50.55973 -100.81406,-157.50319 -37.86214,-132.19049 6.61643,-8.40221 -2.4271,-52.58977 -39.2909,-24.5302 12.93489,-45.05028 28.85473,-92.55041 -37.86215,-72.22778 32.3286,1.9135 24.74797,20.57624 10.00132,42.24644 -16.32341,16.52474 -27.47056,34.56862 5.00066,65.41384 -40.29224,-13.64809 -46.61109,3.40303 -51.43536,21.80465 30.0953,-26.28707 140.34574,98.8153 145.73354,166.94158 5.09547,105.65179 -59.67446,81.90602 -69.29488,38.83939 -10.68102,-63.25588 46.02974,-109.20565 80.72496,-160.809 16.64413,-30.67776 17.27194,-62.70125 58.57916,-91.30681 -20.30915,-0.84845 -27.72418,5.33095 -35.00462,11.5837 11.96842,-14.57838 20.24042,-30.03821 2.14314,-51.78596 -12.15032,-19.40068 -14.40605,-37.13588 5.71504,-51.10457 -65.54906,-1.79824 -27.76841,43.08914 -27.86082,70.86501 -5.29107,-5.24825 -26.80326,-22.19672 -40.00529,-9.53952 50.40123,41.29674 24.06049,87.58426 -7.85817,134.23461 l -43.57719,49.06041 c -11.3893,-13.53248 -23.62632,-22.75261 -37.86215,-21.80458 11.11151,27.83765 27.97429,56.18968 10.00132,81.42657 -0.30967,-26.73546 -18.92838,-30.76829 -37.86214,-34.41038 7.38978,13.474 15.80224,26.62279 12.14446,43.60924 -0.74351,12.44859 3.62764,24.57208 17.14513,36.11385 -11.30335,-4.93451 -21.92959,-14.38998 -35.00463,-7.49529 9.62873,3.25593 19.1074,6.9771 25.00331,21.80457 10.77974,24.35897 25.02517,46.89112 71.438,52.46735 -18.45245,-7.47574 -40.6676,18.38227 -16.43074,34.75113 27.64916,-34.32872 53.83832,29.87157 -1.42877,53.14876 -20.77921,3.7166 -37.07339,-3.97464 -46.4347,-29.29996 17.33114,3.00056 33.61017,1.23432 47.14909,-12.94646 -60.59587,0.24039 -105.7277,-114.56924 -157.878,-177.16251 28.7466,6.81151 45.17318,-14.77557 57.86479,-44.97205 -21.34264,21.30489 -50.40501,22.84132 -60.00793,9.53952 29.0437,-2.05157 45.35666,-16.24609 52.86412,-38.83949 -17.06446,4.51324 -34.86948,25.97945 -50.72098,2.72563 l 22.14578,-12.94655 c 13.86914,-4.26655 36.33884,2.13132 25.0033,-33.38832 8.03836,-14.40648 23.31928,-29.4815 -8.57256,-40.2022 22.42105,-6.86394 46.15167,-7.48238 62.15107,-44.97203 -17.59711,10.67894 -32.00053,15.87468 -42.8628,14.99068 23.2962,-13.5393 44.67325,-27.59344 25.71768,-52.46736 -4.8154,14.45617 -14.00092,23.98613 -33.57586,21.80462 l -95.01255,-8.85812 c -2.96322,-12.46445 -53.0913,-23.25311 -34.29025,8.85812 -35.10692,-13.90069 -35.60412,55.73038 -3.5719,49.74177 43.68045,20.16691 42.97345,68.53847 12.14446,66.09521 -19.0306,-20.93409 -60.1383,-30.94553 -43.57719,2.72563 l 19.28827,17.71622 c -23.36744,-2.56756 -34.85851,-0.41516 -42.14843,3.40694 z"
       id="path3044"
       inkscape:connector-curvature="0"
       sodipodi:nodetypes="ccccccccccccccccccccccccccccccccccccccccccccccccccccccccccccccccccccccccccccccccccccccccccccccccccccc" />
    <path
       style="fill:#aa0000;stroke:none"
       d="m 525.99877,390.64548 14.87543,-16.58169 6.78661,-10.05055 17.14512,17.97178 -25.00331,31.25891 z"
       id="path3814"
       inkscape:connector-curvature="0" />
    <path
       style="fill:#e8b614;fill-opacity:1;stroke:none;stroke-width:4.00475311000000020;stroke-miterlimit:4;stroke-opacity:1;stroke-dasharray:none"
       d="m 403.46376,252.27934 c -12.39507,-3.96434 -28.73659,-7.82393 -42.85573,-10.12181 -7.99837,-1.30167 -11.25168,-1.7174 -20.63244,-2.63596 -14.61464,-1.43103 -27.46331,-1.90619 -41.25847,-1.52594 -4.46916,0.12315 -5.11585,0.0725 -5.21142,-0.40582 -7.82898,-39.17546 -13.57634,-68.08401 -13.56336,-68.22201 0.0251,-0.26709 2.81099,-1.9487 4.37058,-2.63817 1.8926,-0.8366 4.48237,-1.51349 6.62628,-1.73183 2.66692,-0.27158 6.36044,0.22644 8.34642,1.12543 4.63078,2.09621 6.84083,6.09308 6.33715,11.46083 -0.30469,3.23885 -1.33934,6.15059 -3.65523,10.27901 -0.6667,1.18853 -1.18138,2.16366 -1.14366,2.1669 0.0378,0 0.65815,-0.0935 1.37883,-0.21406 2.03595,-0.34161 4.29444,0.0429 5.86434,0.99831 2.35088,1.43073 3.97702,4.25977 4.46228,7.76297 0.23825,1.71998 -0.0453,5.28461 -0.54152,6.8075 -1.38597,4.25348 -4.16369,6.99132 -7.24499,7.14099 -0.45051,0.0219 -0.8273,0.12688 -0.83732,0.23344 -0.062,0.65956 2.54903,4.58307 4.12518,6.19868 2.46682,2.52845 4.80777,3.86589 8.39271,4.79504 0.83557,0.21664 0.64284,0.52086 1.84771,-2.91671 2.58775,-7.38311 4.00916,-15.56058 3.82368,-21.99784 -0.0972,-3.37356 -0.0876,-3.33559 -0.97426,-3.84901 -1.08353,-0.62732 -2.40748,-2.30646 -2.89824,-3.67548 -0.36675,-1.0233 -0.39362,-1.43293 -0.21699,-3.3104 0.17663,-1.87748 0.2795,-2.27604 0.83141,-3.22054 0.7659,-1.31083 2.27071,-2.61135 3.67772,-3.17838 0.78774,-0.31738 1.44841,-0.40495 2.67941,-0.35535 1.41815,0.0572 1.78749,0.15302 2.79921,0.70926 4.38757,2.42247 5.03531,8.66837 1.26256,12.17491 l -0.81038,0.75315 0.21607,1.60073 c 0.84989,6.29627 2.49803,12.03925 4.94403,17.22751 0.85889,1.82176 2.26574,4.33333 2.54454,4.54262 0.0922,0.0687 1.33467,-0.73425 2.76128,-1.78522 3.25875,-2.40072 6.69448,-5.58043 9.58788,-8.87366 2.17469,-2.47494 5.72487,-7.23821 5.41467,-7.26482 -0.0518,0 -0.41292,0.1429 -0.80264,0.32749 -3.95831,1.87442 -8.64247,0.68904 -11.98565,-3.03328 -3.06011,-3.40714 -4.60203,-7.73932 -4.20381,-11.81117 0.36382,-3.71879 2.33035,-6.06179 5.90202,-7.03145 1.81256,-0.4921 6.08534,-0.1258 9.01091,0.77209 1.13507,0.34855 2.09185,0.60892 2.12616,0.57857 0.0342,-0.03 -0.14588,-0.90613 -0.40041,-1.94613 -0.42175,-1.72344 -0.44188,-2.11735 -0.22695,-4.44639 0.22797,-2.46592 0.26297,-2.59992 1.0092,-3.82417 1.4561,-2.3888 3.84855,-3.85496 6.90916,-4.23398 2.89492,-0.35853 5.68021,0.26715 8.31965,1.86897 2.85593,1.73323 4.78153,4.61848 5.20684,7.80184 0.23002,1.72157 -0.32068,5.07407 -1.15306,7.01956 -0.37358,0.87315 -0.68688,1.65625 -0.69622,1.74039 -0.01,0.0839 0.56239,0.20233 1.27051,0.26291 1.59553,0.1366 4.02904,0.97398 5.35079,1.84122 2.18882,1.43608 3.9073,4.2779 4.20523,6.95402 0.20083,1.80421 -0.30733,4.75793 -1.09855,6.38576 -3.51282,7.22675 -11.58701,8.3093 -18.99742,2.54705 -0.68195,-0.5303 -1.35764,-1.05097 -1.50151,-1.15715 -0.21728,-0.16007 -0.26907,0.13346 -0.30574,1.73305 -0.069,3.01019 0.0937,6.2707 0.42909,8.5993 1.12371,7.80094 4.75674,13.63293 10.25054,16.45462 l 1.14048,0.58573 1.15388,-1.58213 c 3.54136,-4.856 6.49941,-10.94688 8.55407,-17.61377 l 0.77957,-2.5295 -0.50645,-1.21333 c -1.34848,-3.23075 -0.50127,-6.93647 2.07445,-9.07361 4.43512,-3.67996 10.76282,-0.7643 11.12647,5.12721 0.13019,2.10928 -0.77672,4.66892 -2.12845,6.00713 -0.81215,0.8038 -2.51512,1.72608 -3.58438,1.941 l -1.10117,0.22132 -0.50829,1.8542 c -0.91959,3.35438 -1.43234,6.55412 -1.66575,10.39464 -0.24367,4.00955 -0.19555,7.28571 0.10738,7.31166 0.49897,0.0429 5.34868,-1.54292 7.32428,-2.39461 2.83129,-1.22087 8.16196,-4.15847 8.22009,-4.53003 0.0106,-0.0696 -0.48066,-0.43625 -1.09262,-0.81287 -1.48941,-0.91674 -3.88203,-3.79491 -4.7631,-5.72972 -1.34248,-2.9479 -1.71219,-4.92716 -1.44484,-7.73473 0.25981,-2.72964 0.86852,-4.0045 2.59435,-5.43429 2.36462,-1.95913 6.04158,-2.20143 10.31708,-0.67988 0.59904,0.21321 1.11766,0.36374 1.15253,0.33446 0.0348,-0.0296 0.0494,-1.40632 0.0323,-3.06018 -0.0547,-5.29606 0.65042,-9.76647 2.07783,-13.17246 2.03603,-4.858 4.96289,-7.55215 9.38379,-8.63777 1.27792,-0.31378 1.83287,-0.32682 4.30845,-0.10132 2.30982,0.21034 3.13746,0.37161 4.4226,0.86129 1.75704,0.66959 5.37621,2.6926 5.34826,2.98966 -0.0143,0.15234 -27.86377,69.13928 -28.85747,71.484 -0.17,0.40114 -0.40136,0.62827 -0.61161,0.60061 -0.18589,-0.0258 -1.50076,-0.41631 -2.92167,-0.87077 z"
       id="path3920"
       inkscape:connector-curvature="0" />
    <path
       style="fill:#ffffff;stroke:none;stroke-width:1px;stroke-linecap:butt;stroke-linejoin:miter;stroke-opacity:1"
       d="m 325.7742,118.5821 c 5.06331,33.20945 30.72821,20.40238 40.91117,13.88959 9.01125,-16.6512 -33.01312,-27.6263 -40.91117,-13.88959 z"
       id="path5520"
       inkscape:connector-curvature="0"
       transform="translate(-4.2267885,152.45422)"
       sodipodi:nodetypes="ccc" />
    <path
       style="fill:#3a0000;fill-opacity:1"
       d="m 279.96639,829.78173 c -0.38,-1.65 -0.8593,-3.5498 -1.0652,-4.2218 -0.5845,-1.9083 1.6,-7.5356 3.9299,-10.1234 1.1613,-1.2898 4.0105,-3.4622 6.3317,-4.8275 4.2009,-2.4711 4.2174,-2.5039 3.6091,-7.1549 -0.3361,-2.5698 -0.7302,-4.8174 -0.8758,-4.9946 -0.1455,-0.1772 -2.1585,0.8734 -4.4733,2.3347 -9.2112,5.8147 -19.7272,7.1877 -26.9256,3.5154 -4.0711,-2.0769 -8.0547,-6.3612 -8.0547,-8.6628 0,-1.8869 -2.6683,-1.7114 -10.4306,0.6862 -4.9222,1.5203 -7.8431,3.2028 -11.2842,6.5 -2.5536,2.4468 -4.7875,4.4487 -4.9641,4.4487 -0.1766,0 -0.3211,-1.9585 -0.3211,-4.3521 0,-8.5281 6.4193,-13.9442 20.5,-17.2962 6.1395,-1.4616 7.508,-2.2343 11.1325,-6.2861 2.3117,-2.5842 6.7178,-5.9001 10,-7.5257 3.2272,-1.5983 6.0557,-3.0494 6.2857,-3.2245 0.23,-0.1751 -0.22,-1.5109 -1,-2.9683 -3.2937,-6.1543 -1.2403,-19.3812 4.2671,-27.4866 l 1.7935,-2.6394 -6.4906,-4.2288 c -8.1575,-5.3148 -12.562,-6.8929 -19.3932,-6.9484 l -5.4049,-0.044 1.9026,-2.1024 c 2.954,-3.2641 6.8932,-4.8976 11.8106,-4.8976 5.2426,0 7.5251,0.8882 17.3269,6.7425 l 7.2302,4.3184 3.928,-2.004 c 15.1438,-7.7257 25.2306,1.0258 25.322,21.9699 l 0.035,7.9646 4.9758,-2.7082 c 6.5352,-3.5569 12.8245,-10.6843 15.1463,-17.1649 2.9581,-8.2565 1.9625,-21.0098 -2.5671,-32.8852 -3.2336,-8.4777 -15.3272,-30.2331 -16.8062,-30.2331 -0.3443,0 -1.6447,2.4581 -2.89,5.4624 -1.2452,3.0043 -4.0312,7.2295 -6.191,9.3894 -5.7971,5.797 -10.1777,7.6041 -18.413,7.5958 -8.6085,-0.01 -13.9045,-2.4682 -20.6874,-9.6078 l -4.6875,-4.9339 -5.3125,4.811 c -6.9099,6.2576 -11.2139,8.856 -17.1343,10.3444 -8.9025,2.2382 -16.9423,-2.2437 -22.8717,-12.7501 l -2.9956,-5.3079 -6.0222,5.4497 c -3.3122,2.9974 -8.9034,6.9341 -12.425,8.7484 -5.7151,2.9443 -6.5119,3.7282 -7.4185,7.2986 -3.9413,15.5229 -10.2065,22.1426 -19.6454,20.7573 l -3.138,-0.4606 3.3807,-2.9683 c 4.5387,-3.985 6.9896,-8.1892 8.7652,-15.0359 l 1.4801,-5.7074 -3.3136,-1.0936 c -4.4756,-1.4771 -11.0945,-8.8674 -12.4499,-13.9009 -0.6058,-2.2498 -1.2288,-4.0906 -1.3845,-4.0906 -0.1556,0 -3.4008,2.5228 -7.2114,5.6061 -9.9918,8.0849 -18.35445,11.8939 -26.11281,11.8939 -5.38626,0 -6.5553,-0.3554 -9.05899,-2.7541 l -2.87465,-2.7541 -2.57685,2.7541 c -3.71722,3.9729 -5.80088,8.5993 -5.83448,12.9544 l -0.0293,3.7997 -2.97068,-3.2658 c -2.43606,-2.678 -2.97069,-4.1376 -2.97069,-8.1104 0,-6.6731 3.21049,-11.1402 22.45316,-31.2409 l 4.41997,-4.617 -9.18656,-0.4884 c -6.51165,-0.3461 -10.72792,-1.1541 -14.48007,-2.7748 -6.030032,-2.6046 -12.206502,-9.0867 -12.206502,-12.8105 0,-2.3164 -0.22818,-2.4125 -4.25,-1.7894 -5.84142,0.9049 -14.152708,5.0986 -17.139538,8.6483 -1.36473,1.6219 -2.73539,2.9489 -3.0459,2.9489 -0.31051,0 -0.56456,-1.8594 -0.56456,-4.132 0,-8.6505 6.23283,-13.6207 21.749998,-17.3439 3.9875,-0.9567 7.25,-2.0863 7.25,-2.51 0,-1.4886 10.547002,-7.8987 14.821572,-9.0081 2.37686,-0.6169 6.48405,-1.1384 9.1271,-1.1589 l 4.80554,-0.037 0.61618,-4.4955 c 1.09052,-7.9562 4.90854,-14.5946 10.74524,-18.6828 l 2.19552,-1.5378 -4.19893,-5.5614 c -4.60766,-6.1028 -10.29812,-10.374 -15.34781,-11.5199 l -3.26441,-0.7408 3.96984,-1.7411 c 8.6856,-3.8095 16.01305,-0.3935 24.70241,11.5158 3.2568,4.4636 5.8519,6.9925 7.6313,7.4365 2.7451,0.6849 8.636,4.6871 11.0049,7.4764 3.0334,3.5718 5.4965,10.848 6.0775,17.9539 l 0.6141,7.5102 3.5,0.7574 c 9.0565,1.9599 31.1696,4.8031 37,4.7573 3.575,-0.028 8.075,-0.5881 10,-1.2445 5.8814,-2.0057 5.3817,-5.1894 -3.4553,-22.0116 -8.8208,-16.7916 -10.851,-22.7138 -10.912,-31.8318 -0.038,-5.6827 0.3902,-7.3529 2.9447,-11.4847 7.3874,-11.9488 27.1342,-15.2539 58.9395,-9.865 3.6817,0.6238 4.5345,0.2996 10.2158,-3.8827 7.3378,-5.4018 10.2673,-10.3769 10.2673,-17.4372 0,-7.1125 -4.6284,-15.294 -18.3727,-32.477 l -3.0366,-3.7963 -1.2859,4.4103 c -1.6181,5.5493 -8.5832,12.2688 -13.7151,13.2315 -5.6823,1.066 -10.5824,-0.3417 -14.3686,-4.128 -3.7777,-3.7776 -4.2097,-3.9985 -4.2459,-2.1711 -0.014,0.6875 -1.5851,3.3765 -3.492,5.9756 -8.2293,11.216 -20.9101,11.6642 -29.0931,1.0283 l -3.1099,-4.042 -2.2106,5.3332 c -2.8592,6.8986 -8.9806,13.802 -14.0299,15.8223 -2.9525,1.1814 -4.1527,2.3187 -4.6061,4.3651 -3.1182,14.0719 -7.8799,20.6543 -15.8805,21.9526 -6.3041,1.023 -6.7496,-0.1223 -1.9826,-5.0974 3.0191,-3.1509 4.8527,-6.2359 5.9502,-10.0111 2.6371,-9.0712 2.4912,-9.8647 -2.5207,-13.7118 -2.475,-1.8997 -5.4,-4.8792 -6.5,-6.6209 -1.1,-1.7418 -2.2663,-3.1842 -2.5918,-3.2054 -0.3254,-0.021 -1.1159,1.649 -1.7566,3.7115 -1.8604,5.989 -8.3765,14.4673 -13.62233,17.7247 -6.07123,3.7699 -15.08375,4.5293 -24.60334,2.0731 l -6.42598,-1.658 -2.78361,3.3051 c -4.49409,5.336 -7.713532,12.7164 -7.743452,17.7514 l -0.0271,4.5537 -3.47295,-3.7353 c -5.68174,-6.111 -4.5843,-13.6375 3.56168,-24.4268 3.061402,-4.0548 3.965382,-6.1506 3.965382,-9.1935 0,-4.9186 4.45574,-13.6212 10.74071,-20.9778 3.89752,-4.5621 4.24445,-5.2804 2.19437,-4.5427 -1.33929,0.4818 -5.66212,0.8761 -9.60629,0.8761 -6.258722,0 -7.516632,-0.3181 -9.885832,-2.5 -3.58891,-3.3052 -6.11284,-9.1869 -6.97309,-16.25 l -0.70032,-5.75 -6.63477,0.01 c -8.643888,0.01 -13.734528,1.4493 -18.544038,5.2529 l -3.90926,3.0917 0.63316,-3.9016 c 1.35137,-8.328 7.83917,-12.7599 20.401698,-13.9371 6.941899,-0.6505 8.186959,-1.0953 11.535609,-4.1206 2.711681,-2.4498 4.79409,-3.4384 7.500931,-3.561 5.056492,-0.229 12.023942,0.098 16.090972,0.7552 l 3.34385,0.5403 -3.54032,-4.6366 c -5.3099,-6.9541 -7.75576,-12.6963 -7.79924,-18.3101 -0.0431,-5.5627 1.08816,-8.2993 5.25259,-12.7068 l 2.86075,-3.0278 -4.99433,-6.0983 c -5.6848,-6.9415 -11.606182,-11.2511 -16.564612,-12.0557 -4.29799,-0.6975 -4.29835,-1.6375 -0.001,-3.6766 7.664562,-3.637 14.168952,-1.0997 23.556922,9.1895 l 6.90087,7.5633 3.98164,-1.3141 c 7.1036,-2.3444 13.95593,1.116 17.53553,8.8552 1.9628,4.2439 2.1104,6.1006 1.9464,24.4812 l -0.1776,19.8889 6.6776,-0.5881 c 14.6554,-1.2906 23.6668,-6.6749 28.2882,-16.9021 2.0807,-4.6048 2.3892,-6.7946 2.3883,-16.9554 -6e-4,-6.4172 -0.2378,-11.9044 -0.5271,-12.1938 -0.2894,-0.2893 -2.4704,-0.089 -4.8467,0.4447 -5.9806,1.3438 -10.6515,0.2293 -14.5843,-3.4799 -6.2243,-5.8703 -6.6633,-16.739 -0.9504,-23.5285 l 2.3068,-2.7415 -8.6986,0 c -19.8287,-0.01 -25.72608,-8.783 -18.46566,-27.4707 l 2.96886,-7.6417 -5.66468,0.5137 c -4.04676,0.3669 -6.54071,0.061 -8.73183,-1.0725 -3.05521,-1.5799 -3.09064,-1.5672 -9.116,3.2685 -10.53176,8.4523 -18.310292,9.972 -25.357402,4.954 l -3.14902,-2.2423 6.07043,-1.2383 c 6.852212,-1.3977 9.363722,-2.7857 17.383162,-9.6068 4.95011,-4.2104 5.72287,-5.3699 6.34525,-9.5202 0.84055,-5.6052 3.40941,-10.9403 7.52434,-15.627 1.64661,-1.8756 2.99385,-3.7312 2.99385,-4.1236 0,-0.3925 0.93622,-2.0285 2.08048,-3.6354 l 2.08049,-2.9218 -3.62888,-1.5163 c -2.81402,-1.1757 -4.46008,-1.2853 -7.33049,-0.4881 -10.08886,2.802 -23.153453,0.095 -26.862933,-5.5667 -1.87501,-2.86162 -3.62822,-2.59965 -13.83867,2.0679 -6.576928,3.0065 -14.499997,9.8913 -14.499997,12.5999 0,2.3518 -1.81688,-0.2723 -2.42207,-3.4982 -1.47781,-7.8774 4.5237,-14.39411 18.352407,-19.92788 8.2008,-3.28167 8.5695,-3.56594 9.32185,-7.18703 1.17178,-5.6398 4.40335,-10.16262 9.319923,-13.04393 l 4.39806,-2.57743 -2.32526,-3.16372 c -3.88679,-5.28831 -4.956403,-9.19447 -4.403573,-16.08158 0.600563,-7.48162 4.510743,-15.50117 9.498553,-19.48094 3.79598,-3.02881 4.07914,-5.44684 1.63332,-13.94729 -2.29233,-7.96697 -4.9104,-12.75186 -8.38132,-15.31803 -4.254463,-3.14546 -3.727273,-4.161 1.88035,-3.62218 9.00114,0.8649 13.4488,6.30047 16.91535,20.67261 1.02131,4.23432 2.23297,7.10243 3.00225,7.10663 4.87467,0.0267 14.27307,8.28972 18.21316,16.013 l 2.0897,4.09607 5.1586,-4.63799 c 6.2685,-5.63595 13.0433,-9.18852 20.3031,-10.6465 l 5.4456,-1.09363 0,-8.73982 c 0,-9.21873 -1.152,-13.3659 -5.1103,-18.39756 l -2.2921,-2.91349 3.9278,0.63738 c 9.1461,1.48422 12.7934,7.28248 13.3242,21.18217 l 0.3822,10.00743 3.9131,2.76113 c 4.7956,3.38388 6.1572,6.6566 5.6108,13.48638 -0.7549,9.4358 -6.0213,15.37774 -26.2557,29.62349 -1.9444,1.36894 -1.7563,1.90438 6.7698,19.26854 4.8235,9.82327 9.3547,19.88547 10.0694,22.36047 l 1.2996,4.5 1.7451,-8 c 4.0506,-18.56924 9.85,-32.08019 17.353,-40.42725 l 4.8784,-5.42723 -1.7996,14.92723 c -3.3146,27.49475 -1.843,79.58995 2.2189,78.55325 7.5863,-1.9363 11.0053,-2.3338 21.2184,-2.4668 l 11.7531,-0.153 -7.9281,-7.5031 c -6.7751,-6.412 -8.1571,-8.293 -9.503,-12.9346 -1.8873,-6.5086 -1.966,-9.1162 -0.3803,-12.5964 4.658,-10.2232 26.8093,-5.4623 44.9441,9.6598 5.3481,4.4595 7.7298,4.7377 13.8556,1.6181 6.6164,-3.3695 9.2529,-8.9743 8.8302,-18.7717 -0.2645,-6.1299 -0.9576,-8.813 -3.7453,-14.5 -6.2819,-12.81508 -22.5664,-26.44789 -31.6174,-26.46893 -2.221,-0.005 -6.046,-1.02188 -8.5,-2.25938 -14.3241,-7.22322 -17.6561,-34.44744 -5.7915,-47.31907 4.0755,-4.42132 6.7777,-5.51403 14.1532,-5.7231 3.2334,-0.0916 3.4149,-0.26545 2.5774,-2.46831 -1.5486,-4.073 -1.0398,-9.79335 1.1146,-12.53227 3.6515,-4.64202 10.4081,-5.5725 22.6647,-3.12119 l 3.0747,0.61494 -5.3661,-26.74857 c -6.0892,-30.35266 -6.3349,-27.97655 3.2126,-31.07074 6.9878,-2.26464 13.3595,-1.26686 17.3421,2.71573 3.8537,3.85373 4.6609,8.35371 2.6989,15.04654 -1.5592,5.3192 -1.1373,6.79752 1.9525,6.84073 1.8353,0.0257 4.1413,3.29055 5.45,7.71644 1.6784,5.67601 -0.1672,12.4669 -4.2583,15.66872 l -2.9325,2.29498 3.6077,3.16758 c 1.9842,1.74218 4.1848,3.16759 4.8901,3.16759 1.6125,0 4.6783,-12.72296 4.6608,-19.34227 -0.01,-3.31323 -0.6443,-5.64514 -2.0128,-7.38486 -2.3609,-3.00146 -2.4959,-5.15012 -0.6076,-9.66967 2.8508,-6.82292 12.7212,-6.57156 15.6079,0.39748 1.1004,2.65659 1.1133,3.81491 0.071,6.373 -0.7006,1.71948 -1.4829,4.02632 -1.7383,5.12632 -0.585,2.51889 4.3998,18.5 5.7705,18.5 1.2575,0 11.8966,-9.967 11.8966,-11.14506 0,-0.47022 -0.7875,-0.85791 -1.75,-0.86153 -2.5107,-0.01 -7.1596,-3.30672 -9.3326,-6.61935 -2.7721,-4.22579 -3.4323,-10.47771 -1.5008,-14.2127 2.0953,-4.05195 4.356,-5.16136 10.5177,-5.16136 l 5.0657,0 0,-3.44424 c 0,-5.32628 3.5034,-8.71494 9.5588,-9.24572 9.304,-0.81553 16.1189,5.65375 15.0373,14.27467 -0.4874,3.88421 -0.3383,4.1678 3.0369,5.7773 2.4411,1.16412 4.0084,2.86132 5.0197,5.43584 1.385,3.52588 1.6906,3.72227 5.2611,3.38176 3.3088,-0.31555 4.159,0.0787 6.6884,3.1015 2.7256,3.25723 3.165,3.42604 7.394,2.84095 l 4.4962,-0.62206 0.7258,-5.81411 c 1.4706,-11.77922 8.375,-18.57382 17.4856,-17.2076 3.8219,0.57313 11.2962,3.95556 11.2962,5.11198 0,0.41124 -18.6608,47.12472 -21.4532,53.70358 l -1.6103,3.79385 2.4999,-1.63796 c 3.1783,-2.08251 7.7512,-8.95799 9.5174,-14.30983 0.7515,-2.27695 1.7096,-4.13991 2.1292,-4.13991 0.4196,0 2.3479,2.53405 4.2852,5.63123 10.2299,16.3547 5.2216,29.65734 -16.8682,44.80389 -2.2,1.50849 -3.1,2.49907 -2,2.20129 1.1,-0.29779 3.35,-0.8612 5,-1.25202 4.227,-1.00122 13.809,-5.39141 22.4316,-10.27752 4.0403,-2.28947 7.515,-3.99364 7.7216,-3.78705 0.6117,0.61172 -4.7055,11.75563 -8.3613,17.5237 -8.9934,14.18978 -20.291,22.28261 -38.7919,27.78783 -11.7195,3.48733 -11.3236,3.19406 -7.4438,5.51361 12.3956,7.41091 13.5755,15.45385 4.51,30.74345 l -4.2791,7.217 1.3408,5.6973 c 2.6561,11.2856 1.0829,19.2049 -4.6485,23.4002 -1.3864,1.0148 -7.4614,2.8842 -13.5,4.1543 -9.3341,1.9632 -12.2249,3.0741 -19.2912,7.4133 -4.5715,2.8072 -8.8465,5.2915 -9.5,5.5207 -1.7587,0.6166 2.0543,4.535 6.7404,6.9266 5.6705,2.8941 10.3986,1.8963 26.4161,-5.5745 18.8338,-8.7843 17.4881,-8.5744 15.0656,-2.3497 -8.1178,20.8593 -21.7641,33.0612 -41.2274,36.8636 -8.0265,1.5682 -8.7783,2.3583 -4.1027,4.3119 12.2784,5.1302 28.4414,1.4896 43.2929,-9.7515 5.8874,-4.4562 9.1269,-5.4085 9.1269,-2.683 0,0.6035 -2.0369,5.1599 -4.5266,10.1253 -12.1465,24.2258 -24.8448,35.2661 -42.0596,36.5681 l -7.0967,0.5367 6.5231,8.6176 c 6.703,8.8553 21.8518,31.6733 49.3309,74.3051 19.0714,29.588 31.3149,46.1247 43.7481,59.0885 19.1086,19.9241 32.3068,27.6973 50.0514,29.4785 l 7.4281,0.7456 -6.3614,5.3124 c -3.4988,2.9218 -8.0789,6.1885 -10.1781,7.2594 -6.1168,3.1206 -16.599,5.1426 -24.6092,4.7472 -3.9875,-0.1968 -7.25,-0.1674 -7.25,0.065 0,2.049 7.91,13.7489 11.2603,16.6555 6.9882,6.0628 11.9293,7.8131 22.2397,7.8781 8.8013,0.055 9.155,-0.035 16.0192,-4.0899 8.6809,-5.1285 16.7313,-13.4926 20.2849,-21.0755 2.3071,-4.923 2.6959,-7.0612 2.6959,-14.8257 0,-8.1484 -0.271,-9.4824 -2.659,-13.0909 -5.2117,-7.8755 -13.1951,-7.982 -20.8983,-0.2787 -2.1685,2.1684 -4.3384,3.9427 -4.8221,3.9427 -1.7034,0 -9.3077,-8.2036 -10.7056,-11.5494 -3.3318,-7.974 -0.3416,-18.318 6.7883,-23.483 l 3.9379,-2.8525 -4.3206,-1.151 c -7.4594,-1.9872 -14.0488,-5.1051 -22.3206,-10.5612 -11.9157,-7.8596 -19.841,-17.8681 -28.4897,-35.9781 -2.6773,-5.6061 -6.2364,-11.7517 -7.9092,-13.6569 -2.9753,-3.3887 -12.8818,-8.9513 -18.3511,-10.3044 -3.8934,-0.9632 -3.4381,-1.8218 2,-3.7709 6.2352,-2.2349 13.0202,-2.1482 19.0885,0.2437 l 4.9125,1.9363 -3.3884,-6.6863 c -4.2263,-8.3396 -5.5592,-15.3901 -4.7481,-25.1168 0.8778,-10.5268 -0.6914,-16.7896 -7.6625,-30.5818 -3.282,-6.4932 -5.8416,-11.9315 -5.6881,-12.0849 0.774,-0.7741 21.3404,4.8739 25.4715,6.9951 8.7306,4.4828 12.1294,8.9305 16.5079,21.6021 0.7048,2.0397 2.6252,-2.8554 4.0244,-10.2582 2.0183,-10.6784 -2.079,-26.9032 -13.6691,-54.1275 l -4.6343,-10.8856 7.0268,0.5027 c 9.3393,0.6683 17.642,4.8026 26.9487,13.4192 4.011,3.7135 7.5297,6.2446 7.9856,5.7441 11.1753,-12.2705 27.0687,-30.9437 27.0505,-31.7818 -0.033,-1.5197 -12.5284,-16.9154 -22.2157,-27.3717 -24.1289,-26.0446 -47.9685,-43.1758 -62.4739,-44.89375 -5.1437,-0.6092 -7.4878,0.0926 -13.4791,4.03545 l -2.6928,1.7721 2.539,-8.32751 c 3.8493,-12.6253 7.7585,-18.43755 14.8466,-22.07469 5.1804,-2.65823 15.1581,-3.3159 23.5499,-1.55228 l 6.5498,1.37652 -4.8204,-6.36863 c -10.7091,-14.14878 -13.0285,-25.04745 -8.0031,-37.60705 0.8744,-2.1854 4.6941,-7.82724 8.4882,-12.53743 8.9285,-11.08408 14.2773,-20.13888 16.1375,-27.31838 2.585,-9.97676 -0.8761,-14.46874 -12.8356,-16.65891 -3.2635,-0.59766 -6.076,-1.08665 -6.25,-1.08665 -0.1739,0 -0.3163,-0.8407 -0.3163,-1.86823 0,-4.52195 28.455,-8.13925 37.3385,-4.7466 15.4439,5.89807 17.4935,22.43291 7.3588,59.36483 -1.8489,6.7375 -3.1942,12.25 -2.9896,12.25 0.2046,0 2.1392,-0.90156 4.2991,-2.00347 16.5329,-8.43447 30.1444,-1.40954 34.067,17.58215 1.2892,6.2413 0.7738,11.87985 -1.3514,14.7862 -1.1503,1.57313 -1.6001,1.58957 -5.5323,0.2022 -11.7472,-4.14467 -19.2355,-2.68391 -21.1138,4.11875 -2.1143,7.65754 2.2022,24.2176 11.5075,44.14778 5.9292,12.6992 16.5287,31.2149 17.519,30.6028 1.2821,-0.7923 13.2656,-21.1246 17.8191,-30.2335 2.2813,-4.5634 5.5702,-12.4384 7.3087,-17.50001 2.8687,-8.35189 3.166,-10.3588 3.2152,-21.7029 0.085,-19.67927 -4.2061,-29.60233 -19.5889,-45.29561 l -8.6431,-8.81752 3.9177,-2.59259 c 7.6719,-5.07702 19.4576,-3.8003 29.9214,3.24132 2.8933,1.94705 5.6581,3.78577 6.1439,4.08604 1.0848,0.67042 0.6674,-1.09259 -4.8821,-20.62164 -5.4564,-19.20126 -5.9927,-27.23152 -2.2692,-33.97634 4.7007,-8.51507 12.9931,-11.8618 31.4545,-12.69467 l 12,-0.54137 -4,3.30901 c -13.884,11.48557 -17.1659,20.62084 -12.438,34.62105 1.9216,5.69002 3.6341,8.86844 11.7365,21.78232 6.217,9.90888 7.1303,22.83869 2.2842,32.33789 l -1.9405,3.80369 5.3605,-1.8097 c 2.9483,-0.99533 9.2163,-2.10608 13.9289,-2.46832 7.9834,-0.61365 8.5669,-0.52907 8.547,1.23891 -0.012,1.07747 -1.8488,3.19088 -4.25,4.89022 -7.4309,5.25897 -18.6897,16.6468 -24.167,24.44396 -6.7209,9.56747 -10.8881,17.89044 -19.0782,38.10416 -3.5925,8.8666 -7.6567,18.3411 -9.0317,21.0544 -2.5385,5.0096 -12.3788,19.0359 -20.1673,28.7465 -2.3564,2.9379 -4.2844,5.6857 -4.2844,6.1062 0,0.7881 4.737,7.3215 10.7537,14.8315 l 3.4285,4.2795 6.4015,-5.9883 c 6.8314,-6.3905 16.1949,-11.4099 27.2447,-14.6049 5.3058,-1.5342 6.4661,-1.6072 7.1802,-0.4517 0.6032,0.9759 -0.6987,2.8679 -4.4603,6.4822 -10.562,10.1484 -14.5304,24.764 -11.9115,43.8705 l 0.6368,4.6458 6.6132,-6.8446 c 7.0433,-7.2898 13.1855,-10.8284 23.4269,-13.4966 l 5.8137,-1.5147 -1.7697,2.6717 c -7.6614,11.5662 -12.3799,19.943 -15.0744,26.7618 -2.689,6.8047 -12.2833,41.145 -12.2833,43.9647 0,0.5198 3.2953,0.9452 7.323,0.9452 6.3001,0 7.8988,0.381 11.4447,2.7276 3.9938,2.643 9.3298,10.1431 9.5998,13.4931 0.097,1.2033 -1.7768,2.2314 -6.9899,3.835 -3.9173,1.205 -9.8569,3.6484 -13.199,5.4298 -5.7883,3.0851 -15.1786,11.1978 -15.1786,13.1134 0,0.4956 2.3103,0.9011 5.134,0.9011 15.724,0 23.5169,8.4617 24.6061,26.7181 l 0.5579,9.3524 -8.2433,-4.2852 c -7.6354,-3.9693 -8.8079,-4.2834 -15.899,-4.2601 -6.3481,0.021 -8.5404,0.4873 -12.8349,2.731 -2.8486,1.4882 -5.4528,3.1483 -5.7871,3.6892 -0.3342,0.5409 1.7342,2.1701 4.5966,3.6206 7.3371,3.718 15.4006,11.6492 17.5769,17.2886 2.463,6.3821 2.2337,17.4522 -0.5818,28.079 -1.2289,4.6385 -2.4994,8.8624 -2.8233,9.3865 -0.3239,0.5241 -1.3907,-1.1594 -2.3707,-3.7411 -2.5519,-6.7228 -6.1993,-11.0462 -11.4729,-13.5991 -6.5451,-3.1684 -11.8992,-2.3403 -16.1002,2.4902 -3.8771,4.4581 -5.0139,8.9424 -5.8385,23.0299 -1.3656,23.3299 -4.165,37.2409 -10.1304,50.3403 -8.2104,18.0293 -20.1548,29.1178 -37.8478,35.1358 l -4.9584,1.6865 5.4584,2.5239 c 12.2109,5.6463 21.6123,15.219 28.6272,29.1488 6.2464,12.4037 16.1389,20.6647 24.7457,20.6647 7.3338,0 11.9884,-8.7092 11.4598,-21.4425 -0.2226,-5.3628 -0.026,-6.0909 1.718,-6.3483 1.4822,-0.2189 2.5495,0.8945 4.3135,4.5 6.3522,12.9827 8.0892,22.8583 5.6767,32.2751 -3.4033,13.2844 -13.8235,22.3521 -28.8725,25.125 -12.8584,2.3693 -25.2314,-1.5678 -34.7974,-11.0725 -7.2145,-7.1683 -9.8103,-13.794 -10.9759,-28.0157 -0.7377,-9.0018 -1.3589,-11.4907 -4.4069,-17.658 -6.1397,-12.4228 -15.7935,-19.5222 -36.5298,-26.8638 -24.0598,-8.5183 -41.8758,-19.2744 -57.0573,-34.4474 -5.2565,-5.2535 -11.8567,-13.0743 -14.6672,-17.3795 l -5.1099,-7.8275 -5.1768,7.6717 c -8.5046,12.6033 -12.4008,21.7707 -12.8333,30.1958 -0.5267,10.2594 1.4278,13.7393 14.5517,25.9089 15.123,14.0232 19.5899,21.8481 17.3085,30.3203 -1.3607,5.0532 -7.3407,10.2582 -14.2974,12.4445 -6.2321,1.9586 -15.7774,3.6001 -20.9808,3.6081 l -3.7626,0.01 2.7027,4.25 c 3.4686,5.4546 4.3941,14.4655 1.8798,18.3027 -1.6453,2.5111 -1.6055,2.6517 1.8265,6.4505 3.7828,4.1871 6.0308,10.4964 5.0839,14.2689 -0.324,1.2909 -1.6706,3.6703 -2.9925,5.2875 l -2.4034,2.9404 -0.036,-2.7821 c -0.053,-4.1287 -2.386,-8.9927 -6.4925,-13.5382 l -3.6509,-4.0411 -8.6963,0.1427 c -10.7299,0.176 -16.89,-1.7456 -25.1947,-7.8591 l -6.0015,-4.4183 0,2.8198 c 0,8.8168 -6.5886,17.9611 -14.5468,20.1892 -5.6048,1.5693 -15.7182,0.8233 -20.5779,-1.5178 l -3.6246,-1.7462 -6.2795,3.347 c -5.6727,3.0234 -8.4838,5.8189 -12.6138,12.5435 -1.043,1.6982 -1.2029,1.5988 -1.8335,-1.1396 z m 48.7298,-17.7443 c 6.2061,-4.7337 8.0941,-13.6449 5.1626,-24.3678 -0.888,-3.2483 2.6558,-4.1783 4.5837,-1.2029 3.1878,4.9197 9.1258,10.5644 13.7116,13.0343 5.6424,3.0389 15.3634,5.2297 19.0735,4.2985 l 2.6214,-0.6579 -3.2032,-2.0282 c -2.5865,-1.6376 -3.2033,-2.6878 -3.2033,-5.4547 0,-2.7834 0.4956,-3.6149 2.6406,-4.4304 2.818,-1.0714 2.8381,-1.0623 9.827,4.4831 4.2976,3.4099 5.4918,2.5921 5.5171,-3.7786 0.019,-4.8522 -2.1179,-9.3849 -7.0869,-15.0299 -2.1438,-2.4355 -3.8978,-4.5841 -3.8978,-4.7747 0,-0.1906 5.2875,-0.363 11.75,-0.3831 8.2789,-0.026 13.5225,-0.5638 17.75,-1.8213 20.7771,-6.1804 20.1473,-18.8394 -1.867,-37.5292 -12.9292,-10.9767 -16.1961,-17.1187 -15.401,-28.9542 0.7002,-10.4213 5.6336,-21.0138 17.721,-38.0486 3.6678,-5.1691 4.6375,-6.0052 5.5,-4.7424 0.5759,0.8432 3.2747,5.043 5.9975,9.3327 6.2919,9.9131 23.5668,27.3523 33.9921,34.3155 8.522,5.692 24.6107,13.6048 33.5574,16.5045 27.2077,8.8181 40.6059,20.3511 45.5083,39.1729 0.8205,3.1498 1.4917,8.2507 1.4917,11.3353 0,16.5258 10.0386,29.4886 25.9847,33.554 15.5731,3.9703 32.7636,-3.2232 39.1818,-16.3962 2.9492,-6.0529 3.1024,-17.1701 0.3473,-25.1864 l -1.8904,-5.5 -0.8829,3.5 c -2.2304,8.842 -3.2368,11.0887 -6.295,14.0528 -4.7126,4.5676 -10.3777,5.0399 -18.096,1.5087 -7.6312,-3.4914 -13.5808,-9.9599 -19.8221,-21.5509 -8.6169,-16.0029 -16.4104,-22.7772 -33.4819,-29.1034 -4.975,-1.8436 -9.0455,-3.5955 -9.0455,-3.893 0,-0.2976 3.9735,-1.4903 8.8299,-2.6504 18.9206,-4.5198 32.5807,-14.842 40.8443,-30.8638 7.4345,-14.4144 9.8294,-24.8185 11.7994,-51.2591 1.1622,-15.6004 1.5617,-17.811 4.1561,-23 2.2965,-4.5932 3.7623,-6.1907 7.3322,-7.9909 2.454,-1.2375 5.829,-2.2401 7.5,-2.228 4.492,0.033 11.4843,3.5431 16.1594,8.1131 l 4.1213,4.0287 1.2511,-6.6304 c 3.1995,-16.9568 -2.6087,-26.8654 -20.6283,-35.1909 l -7.7495,-3.5805 3.4421,-2.885 c 1.8931,-1.5867 6.3587,-4.3457 9.9236,-6.131 5.6507,-2.8299 7.4454,-3.2378 14,-3.1821 5.6798,0.048 9.0469,0.6923 13.7684,2.6337 l 6.25,2.5699 0,-3.2022 c 0,-5.2522 -2.8064,-13.0972 -5.7475,-16.0665 -4.3627,-4.4045 -8.708,-5.7297 -18.4853,-5.6377 -4.822,0.045 -8.7672,-0.2029 -8.7672,-0.5517 0,-0.3489 1.3817,-2.7875 3.0704,-5.4191 5.7291,-8.928 14.5705,-15.2899 27.679,-19.9168 l 7.3151,-2.582 -2.2822,-3.3538 c -4.8835,-7.1764 -11.8278,-9.4258 -21.7503,-7.0454 -2.827,0.6782 -5.3061,1.0669 -5.5092,0.8638 -0.4538,-0.4538 8.7158,-35.895 11.6055,-44.8561 2.3535,-7.2983 10.1584,-23.5055 12.7052,-26.3829 1.5899,-1.7964 1.5516,-1.849 -0.8335,-1.1462 -7.2259,2.1295 -16.2762,9.9967 -24.0358,20.894 l -3.4642,4.865 -0.8049,-4.865 c -0.4427,-2.6757 -0.8927,-11.3899 -1,-19.3649 -0.2237,-16.6285 1.0425,-22.4371 6.735,-30.8962 1.8891,-2.8071 2.9026,-5.0994 2.2523,-5.094 -2.3141,0.019 -12.263,5.1896 -17.2958,8.9888 -2.8124,2.123 -6.4124,5.916 -8,8.4289 -1.5876,2.5129 -3.137,4.5697 -3.4431,4.5707 -0.306,0.001 -4.356,-4.9428 -9,-10.9861 -4.6439,-6.0434 -8.7248,-10.9934 -9.0685,-11 -0.3438,-0.01 -3.4375,3.6234 -6.8748,8.0668 l -6.2498,8.0788 2.6567,4.6712 c 9.4129,16.5504 16.8263,33.1671 21.268,47.6711 2.6193,8.5532 2.7578,10.0178 2.789,29.5 0.036,22.6278 -0.9302,29.8735 -5.6016,42 -6.9181,17.9586 -18.5248,26.0427 -32.9851,22.974 -16.0531,-3.4067 -30.7362,-20.3611 -33.9089,-39.1542 -1.6092,-9.532 -0.6733,-29.0312 1.8392,-38.3198 6.3237,-23.3779 19.2456,-44.9725 49.5898,-82.8721 15.3429,-19.163 28.2245,-36.9633 31.6511,-43.7364 1.5605,-3.0847 5.7496,-12.8113 9.309,-21.6147 3.5593,-8.8034 7.6851,-18.42956 9.1682,-21.39149 5.4623,-10.90839 14.0236,-22.55778 23.2089,-31.5802 l 9.3609,-9.19489 -3.7978,0.53524 c -6.6883,0.94262 -12.9307,3.34385 -17.9264,6.89563 -2.6757,1.9024 -5.2181,3.4589 -5.6496,3.4589 -2.2086,0 -1.4757,-3.33795 1.7051,-7.76532 5.4995,-7.655 7.821,-13.74935 7.8722,-20.6662 0.052,-7.02594 -1.8967,-12.07159 -8.2654,-21.40177 -2.3416,-3.43041 -5.6597,-9.48378 -7.3735,-13.45192 -2.6247,-6.07711 -3.1169,-8.47628 -3.1208,-15.21479 0,-8.91685 1.9964,-14.13069 7.8184,-20.36442 l 3.1422,-3.36442 -6.9955,0.7203 c -14.346,1.47717 -22.5829,6.86966 -23.8965,15.64455 -0.8195,5.47408 0.3489,11.71396 5.4717,29.22233 2.2302,7.62209 4.3212,17.03561 4.6468,20.91894 l 0.5919,7.06061 -6.0707,-5.05211 c -10.9341,-9.09948 -23.0607,-13.26272 -30.1174,-10.33975 l -2.8929,1.19827 6.9481,7.1155 c 7.6089,7.7922 13.5443,16.97433 16.9679,26.24982 1.8723,5.07231 2.2136,8.05935 2.227,19.49038 0.015,12.92924 -0.1379,13.9507 -3.6244,24.16013 -3.9693,11.62348 -7.9249,19.96428 -15.8997,33.52618 -11.7484,19.9793 -12.9994,21.5929 -43.2737,55.8137 -8.7583,9.9 -16.2921,18.4223 -16.7419,18.9385 -0.4747,0.5448 -4.2838,-2.4397 -9.0792,-7.1138 -8.6776,-8.4579 -15.8127,-12.8295 -22.7504,-13.9389 l -4.1543,-0.6643 1.6525,3.8892 c 15.7663,37.1062 18.2257,50.3316 12.3035,66.1601 -2.1205,5.6676 -6.8472,14.1417 -7.9192,14.1976 -0.3335,0.017 -0.8918,-3.0391 -1.2406,-6.7922 -1.475,-15.8706 -7.3624,-22.7516 -23.5845,-27.5647 -8,-2.3736 -8.6034,-2.2131 -6.2142,1.6527 1.1096,1.7954 3.4884,6.8579 5.2863,11.25 3.157,7.7125 3.2713,8.4821 3.3389,22.4858 0.068,14.1211 0.1526,14.6757 3.2303,21.2233 1.7381,3.6979 5.2145,8.9195 7.7252,11.6037 7.9974,8.5498 5.9024,9.7308 -6.5289,3.6804 -6.98,-3.3973 -10.3871,-4.4959 -13.8335,-4.4609 l -4.5726,0.047 4.5,2.3682 c 7.1464,3.761 11.4215,9.113 18.4193,23.0588 7.3242,14.5963 13.3044,22.6481 22.105,29.7618 9.04,7.3073 23.8798,13.7243 35.1862,15.2152 9.3611,1.2343 10.2895,1.564 10.2895,3.6542 0,1.8255 -0.4493,1.9364 -5.3605,1.3228 -16.5627,-2.0694 -26.2639,17.213 -14.2882,28.3997 l 2.5414,2.3739 4.2506,-3.6384 c 8.3581,-7.1542 16.8086,-6.9883 23.1799,0.4551 4.4662,5.2177 6.0581,11.0927 5.4736,20.2001 -0.9498,14.8003 -11.0718,28.8566 -26.8023,37.22 -7.1317,3.7917 -7.9301,3.9851 -16.4945,3.995 -8.0131,0.01 -9.7231,-0.3317 -15.5955,-3.1097 -8.5245,-4.0328 -14.8513,-10.6724 -19.9223,-20.9072 -2.1902,-4.4206 -3.9822,-8.3538 -3.9822,-8.7405 0,-0.3868 4.6125,-0.4242 10.25,-0.083 11.8143,0.7146 19.9893,-0.8863 28.192,-5.5205 5.6302,-3.1809 6.8819,-5.1185 3.3065,-5.1185 -3.754,0 -14.1782,-3.7172 -19.9907,-7.1285 -23.9416,-14.0513 -42.4576,-36.0532 -80.2612,-95.3715 -19.4802,-30.5668 -37.1946,-56.806 -45.4767,-67.3617 -4.4715,-5.6989 -7.9926,-10.4966 -7.8249,-10.6616 0.1678,-0.1649 2.78,0.157 5.805,0.7153 19.1709,3.5386 33.2758,-5.3038 46.8651,-29.3796 l 3.2102,-5.6875 -9.3,4.7349 c -18.5955,9.4676 -35.7745,8.9583 -45.7723,-1.3568 l -3.2606,-3.3641 3.8788,-0.5885 c 19.6724,-2.9851 29.0012,-6.9241 37.8788,-15.9941 5.2362,-5.3496 12.1923,-16.1974 11.092,-17.2977 -0.2113,-0.2113 -4.8184,1.88 -10.2381,4.6473 -17.072,8.717 -24.2668,8.9026 -33.0018,0.8509 l -4.4667,-4.1172 -5.4194,2.6579 c -5.094,2.4983 -5.4771,2.5502 -6.3797,0.8637 -0.8235,-1.5388 -0.01,-2.2632 5.7234,-5.09 l 6.6837,-3.2958 -4.3619,-2.0529 c -5.2474,-2.4697 -8.1281,-6.8098 -8.1124,-12.2225 0.014,-4.7074 1.0788,-6.7834 3.0854,-6.0135 1.0222,0.3923 1.3332,1.7215 1.0637,4.5472 -0.4729,4.9593 1.7337,8.6095 6.3775,10.5498 5.4995,2.2978 8.7845,1.7148 16.6982,-2.9639 5.6567,-3.3444 9.1648,-4.6572 14.8326,-5.5508 10.7148,-1.6892 15.6903,-3.7171 17.4448,-7.11 1.8937,-3.662 1.8812,-9.9935 -0.034,-17.3474 l -1.513,-5.8087 4.9524,-8.6514 c 5.9492,-10.3927 7.0519,-15.0093 4.5114,-18.8866 -2.7644,-4.21897 -5.2994,-5.95989 -13.8257,-9.49464 l -7.8879,-3.2701 6.3879,-1.81217 c 27.2351,-7.72623 35.3051,-11.46162 44.7625,-20.71929 3.8866,-3.80452 12.4658,-15.96149 11.7613,-16.66602 -0.1494,-0.14941 -3.3911,1.2655 -7.2038,3.14425 -10.4136,5.13149 -18.9915,7.59292 -28.4321,8.1586 -10.0225,0.60056 -10.2757,1.001 6,-9.4911 20.5813,-13.26766 25.7684,-22.14338 20.6673,-35.36424 -1.008,-2.6125 -2.1356,-4.75 -2.5059,-4.75 -0.3702,0 -1.3058,1.42931 -2.0791,3.17625 -1.9684,4.44688 -7.7802,10.629 -12.0311,12.79763 -2.8168,1.43706 -3.9844,2.93916 -5.4478,7.0087 -1.0244,2.84881 -2.4461,5.40359 -3.1594,5.67729 -0.7132,0.2737 -6.1674,-0.87971 -12.1204,-2.56312 -26.014,-7.35639 -50.5386,-10.95108 -81.3236,-11.92004 l -21.5,-0.67671 -1.4162,-6.21014 c -1.5919,-6.98018 -2.6952,-7.7566 -12.6916,-8.93148 -12.6866,-1.49105 -16.6484,4.28225 -10.8249,15.7743 1.4119,2.7864 2.3885,5.24491 2.17,5.46336 -0.2184,0.21844 -2.7591,-0.30427 -5.646,-1.16158 -12.3193,-3.65845 -20.8927,3.79047 -21.8688,19.00063 -1.0295,16.04148 6.3348,27.56491 17.616,27.56491 6.0797,0 20.928,4.71333 27.5819,8.75537 21.779,13.23005 29.4156,39.17794 15.7707,53.58624 -3.5898,3.7906 -8.4434,6.1694 -15.6031,7.6472 -8.2939,1.7119 -11.8378,0.8648 -17.4983,-4.1825 -13.4069,-11.9546 -32.5164,-18.3795 -38.0897,-12.8063 -2.2506,2.2507 -2.4673,4.6827 -0.9355,10.5 0.8418,3.1971 3.5004,6.3757 13.2444,15.835 6.7051,6.5092 11.2911,11.6084 10.1911,11.3314 -1.1,-0.2769 -6.95,-0.7877 -13,-1.1351 -13.6309,-0.7826 -24.1007,0.635 -32,4.3327 -7.1034,3.3252 -16.8301,11.9026 -19.5556,17.2451 -2.5147,4.9291 -3.9699,15.3707 -2.9236,20.9774 0.453,2.4274 1.1423,8.7602 1.5318,14.0728 2.0644,28.1588 -9.3975,41.6747 -36.9308,43.549 l -8.8783,0.6044 0.7324,-16.6048 c 1.1217,-25.4287 -0.5158,-33.0274 -7.8808,-36.5688 -3.8536,-1.853 -8.97378,-0.4138 -9.41491,2.6465 -0.38891,2.698 -3.57051,4.5641 -6.74638,3.957 -1.61072,-0.3079 -3.11724,0.365 -4.82432,2.1548 -5.2484,5.5029 -5.5315,10.919 -0.98408,18.8273 3.49711,6.0817 14.25973,18.2622 16.21346,18.3495 0.91364,0.041 3.46116,0.9511 5.66116,2.023 2.2,1.0718 3.1,1.6765 2,1.3437 -7.89267,-2.3882 -20.68794,-4.5404 -30,-5.0462 -9.116442,-0.4952 -11.342472,-0.3288 -13.000002,0.9721 -1.99187,1.5632 -1.99148,1.5697 0.095,1.6014 1.15226,0.017 2.93733,0.9625 3.96683,2.1001 1.70827,1.8876 1.7409,2.3027 0.37345,4.75 -0.96687,1.7304 -2.50472,2.798 -4.33534,3.0096 -2.80894,0.3246 -2.83034,0.3789 -2.16702,5.5 0.875,6.7552 3.92638,12.9913 7.21915,14.7535 4.228242,2.2629 10.755712,1.4219 18.868902,-2.4311 6.22669,-2.957 7.54309,-3.278 8.53601,-2.0816 0.94551,1.1392 0.11545,2.5578 -4.26537,7.2897 -10.39238,11.225 -14.35527,16.8024 -16.20602,22.8087 -0.56383,1.8298 -0.34497,2.0827 1.4062,1.6248 3.93028,-1.0278 8.31762,6.1628 5.0082,8.2081 -1.98912,1.2293 -0.9154,2.2839 3.44282,3.3813 6.24782,1.5732 13.97125,1.3903 18.3393,-0.4344 7.58166,-3.167 12.50916,-9.952 17.05716,-23.4872 l 2.7721,-8.2499 2.1772,5.6894 c 2.6,6.7941 5.9911,11.4623 10.072,13.8651 2.955,1.7399 3.001,1.7332 3.318,-0.4798 0.399,-2.786 5.1014,-4.7251 7.6242,-3.144 0.9335,0.5851 1.841,2.0303 2.0168,3.2116 0.4036,2.7129 0.9191,2.6895 5.2272,-0.2379 4.2978,-2.9205 8.6294,-10.6486 11.4539,-20.4355 l 2.1234,-7.3573 2.7903,6.5654 c 1.7766,4.1801 4.2536,7.8874 6.8179,10.2041 3.7293,3.3691 4.3923,3.6035 8.9542,3.1652 3.8717,-0.372 5.6663,-1.1903 8.3809,-3.8214 3.9025,-3.7824 6.9794,-9.6379 7.9793,-15.1847 0.3717,-2.0625 1.0147,-3.75 1.4288,-3.75 0.414,0 1.5182,2.004 2.4536,4.4534 2.3281,6.096 7.5453,10.5477 12.3557,10.5429 7.2666,-0.01 14.2039,-6.8426 14.2115,-14.0024 0,-1.9284 0.6807,-9.2931 1.508,-16.3661 1.1935,-10.2027 2.1269,-14.1644 4.5173,-19.173 7.4745,-15.6615 21.6293,-13.3525 24.8821,4.0589 0.8819,4.7205 -0.072,5.9096 -1.9396,2.4192 -1.307,-2.4422 -9.6301,-7.9329 -12.025,-7.9329 -5.146,0 -10.9305,9.3728 -13.028,21.1098 -1.4054,7.8642 -0.3253,10.5945 5.3483,13.5189 20.6308,10.6342 41.7377,32.5576 55.7161,57.8713 3.9284,7.114 3.0634,6.3191 -8.161,-7.5 -9.9381,-12.2356 -28.7405,-32.0745 -39.0063,-41.1567 -7.9094,-6.9975 -7.883,-6.6658 0.3344,4.1974 10.5463,13.942 13.7772,23.6122 10.8513,32.4779 -1.6067,4.8682 -7.126,10.9297 -13.9204,15.2879 l -5.4266,3.4808 -6.0734,-1.2059 c -9.7305,-1.932 -31.4164,-2.5547 -37.6722,-1.0817 -22.6876,5.3421 -24.4617,19.1377 -6.6073,51.3792 4.2411,7.6586 6.1578,12.2672 6.475,15.5687 0.4107,4.2737 0.1756,4.9212 -2.6488,7.2979 -5.7039,4.7994 -18.3357,4.8416 -44.1202,0.1473 -7.425,-1.3518 -14.175,-2.6628 -15,-2.9134 -1.1845,-0.3597 -1.5,-2.2982 -1.5,-9.2174 0,-7.7608 -0.3147,-9.2973 -2.7538,-13.4467 -1.5147,-2.5765 -4.1217,-5.6586 -5.7935,-6.849 l -3.0397,-2.1645 -2.4993,2.6968 c -1.9904,2.1477 -3.0504,2.56 -5.2064,2.0251 -1.489,-0.3694 -2.8271,-0.9758 -2.9735,-1.3477 -1.2583,-3.1948 -2.0784,-3.5078 -4.69618,-1.7926 -4.5013,2.9494 -7.83032,9.8386 -8.72005,18.0458 -0.30921,2.8523 -0.0813,3.0118 8.68245,6.0759 8.44978,2.9545 19.49998,8.0215 19.49998,8.9417 0,0.2272 -2.6857,-0.6782 -5.9683,-2.0121 -18.33711,-7.451 -32.22148,-9.2064 -42.47516,-5.37 -6.01365,2.25 -7.38165,3.5102 -5.66939,5.2224 1.50007,1.5001 1.41301,6.2316 -0.13713,7.4526 -0.6875,0.5415 -2.4875,1.2801 -4,1.6415 -6.552652,1.5653 -1.264602,9.7658 8.75,13.5691 5.59153,2.1235 7.03819,2.2402 21.25,1.7139 13.05938,-0.4837 15.24998,-0.352 15.24998,0.9168 0,0.815 -0.7875,1.7485 -1.75,2.0745 -5.23838,1.7745 -12.14843,5.3618 -15.0423,7.8091 -3.00736,2.5434 -3.15882,2.9319 -1.75,4.4886 2.73527,3.0225 1.89119,6.4317 -2.45768,9.9266 -4.56957,3.6722 -4.76221,4.358 -2,7.1202 2.98664,2.9866 9.20534,2.6109 16.88028,-1.0199 7.13,-3.3731 11.8032,-6.755 20.6197,-14.9221 l 6,-5.558 0.5675,6.5952 c 0.6567,7.6307 3.059,12.3995 7.8845,15.6514 1.8391,1.2394 3.646,2.2534 4.0154,2.2534 0.3694,0 1.3154,-1.4625 2.1022,-3.25 1.2214,-2.7752 1.9418,-3.25 4.9304,-3.25 2.6705,0 3.734,0.5332 4.4872,2.25 0.5429,1.2375 1.4489,2.25 2.0133,2.25 1.7884,0 11.0664,-6.7045 17.4263,-12.5927 3.374,-3.1237 6.2873,-5.5057 6.4742,-5.2934 0.1868,0.2124 1.2416,2.4111 2.344,4.8861 8.81,19.7794 21.0405,20.762 39.5253,3.1752 l 5.965,-5.6752 1.6324,2.491 c 9.8995,15.1069 25.0782,19.2816 36.3372,9.9939 4.6742,-3.8557 10.2392,-14.7806 9.5244,-18.6977 -0.2797,-1.533 -2.2901,-6.8372 -4.4675,-11.7872 -5.2639,-11.9668 -7.3757,-20.9985 -7.3473,-31.4223 0.049,-17.9549 4.6224,-26.6988 24.0996,-46.0777 15.2026,-15.1259 18.497,-19.8872 19.5758,-28.2921 0.3904,-3.0415 9e-4,-5.241 -1.4053,-7.9347 -1.5866,-3.0395 -1.7031,-3.9279 -0.6319,-4.817 2.8031,-2.3263 6.9209,7.9099 5.8507,14.5438 -1.2963,8.0344 -5.1528,13.5627 -18.835,27 -20.0336,19.675 -24.9288,28.7323 -24.8674,46.0106 0.054,15.206 5.0652,28.8697 17.6721,48.1846 7.4879,11.4721 13.5566,23.1845 16.7385,32.3048 1.8028,5.1673 2.2802,8.7554 2.3281,17.5 0.054,9.913 -0.2046,11.5653 -2.6208,16.7203 -3.408,7.2713 -9.7708,13.4557 -18.6374,18.115 -3.8357,2.0156 -7.2068,3.6647 -7.4913,3.6647 -0.2846,0 -0.4937,-5.0625 -0.4647,-11.25 0.059,-12.5295 -1.5141,-18.2587 -5.9764,-21.7687 -3.0239,-2.3786 -5.919,-2.4973 -11.0302,-0.4522 -2.8618,1.145 -4.0599,2.3381 -4.7703,4.75 -0.6856,2.3279 -1.8075,3.4985 -4.0466,4.2223 -4.6233,1.4945 -6.1192,3.1269 -8.3642,9.1272 -2.7549,7.3632 -2.6165,12.985 0.4622,18.7754 2.8471,5.3545 2.9072,5.596 1.393,5.596 -2.0242,0 -13.3496,5.9529 -16.2545,8.5438 -2.6589,2.3714 -2.7474,2.6783 -1.25,4.3329 2.5523,2.8203 1.9981,5.9964 -1.3822,7.9198 -3.6751,2.0913 -3.7416,3.1954 -0.3942,6.5428 7.3239,7.3239 22.4382,3.7638 35.7306,-8.4162 6.1568,-5.6417 8.6573,-6.6581 8.6573,-3.5191 0,0.7073 -0.946,2.1422 -2.1024,3.1886 -1.1563,1.0465 -2.7313,3.1189 -3.5,4.6054 -1.4156,2.7375 -1.9186,9.9477 -0.7738,11.0925 0.3431,0.3431 2.4023,-0.2835 4.576,-1.3925 6.7337,-3.4352 11.8686,-1.2911 10.4495,4.3632 -0.3975,1.5839 -1.7017,2.9431 -3.3972,3.5407 l -2.7521,0.9699 2.5,1.102 c 1.375,0.6061 5.6918,0.9898 9.5929,0.8526 5.9564,-0.2095 7.6646,-0.6855 10.6608,-2.9707 z m -45.2537,-436.8452 c 1.375,-0.613 5.1666,-2.3061 8.4258,-3.7625 15.973,-7.1378 23.2789,-21.7271 23.6103,-47.148 l 0.098,-7.5 1.3495,4.3242 c 2.3261,7.4534 2.8506,19.867 1.1753,27.8148 -3.6987,17.5473 -13.2678,26.2701 -29.6586,27.0357 -6.1484,0.2871 -7.0495,0.1494 -5,-0.7642 z m 69.185,-1.1255 c -0.7793,-0.7793 -0.1589,-2.1658 2.2047,-4.9272 5.6041,-6.547 6.7112,-12.953 4.037,-23.3578 -0.8482,-3.3 -1.7907,-6.9975 -2.0946,-8.2167 -0.9882,-3.9648 4.1016,-7.8064 12.2005,-9.2086 4.4609,-0.7723 8.6578,-2.2875 11.6662,-4.2119 6.1245,-3.9175 10.1512,-3.6833 10.64,0.6191 0.458,4.0308 -1.5896,10.5181 -3.3199,10.5181 -2.1892,0 -2.5251,-1.3696 -1.3084,-5.3342 0.6185,-2.0152 0.8174,-3.9713 0.4419,-4.3468 -0.3755,-0.3755 -2.6428,0.699 -5.0384,2.3876 -2.8692,2.0223 -6.1917,3.3168 -9.7349,3.7927 -2.9585,0.3974 -6.8943,1.3467 -8.7462,2.1096 -2.8377,1.1688 -3.2562,1.7411 -2.6616,3.639 2.0538,6.5552 3.5893,16.7729 3.097,20.6084 -1.0622,8.2756 -8.5536,18.7583 -11.3833,15.9287 z m -21.685,-78.68087 c -6.7974,-3.1471 -12.5679,-11.16933 -12.4599,-17.32202 0.037,-2.0938 0.1731,-2.03456 1.6526,0.71788 4.4193,8.22161 10.9673,13.5 16.7473,13.5 3.1086,0 10.0974,-2.66475 13.9064,-5.30241 l 2.8464,-1.97104 -1.5014,2.88672 c -4.3768,8.41553 -12.7791,11.38562 -21.1914,7.49087 z m 35.75,-2.21919 c -2.3222,-1.4872 -3.2516,-2.83834 -3.2555,-4.73315 -0.011,-5.16956 -2.2083,-10.45802 -6.0366,-14.52838 l -3.8782,-4.12342 0.5883,3.73348 c 1.4431,9.15749 -6.7714,16.23343 -15.9146,13.70886 -4.8419,-1.33691 -8.7534,-6.08015 -8.7534,-10.61477 0,-3.44279 2.6597,-9.32757 4.2156,-9.32757 0.4315,0 0.7844,-0.3588 0.7844,-0.79734 0,-0.99227 -13.2398,0.21521 -18.5621,1.69287 -6.0595,1.68235 -6.3129,1.3462 -1.4379,-1.90729 21.4842,-14.33807 52.7342,-7.09791 55.4783,12.85345 1.1934,8.67757 5.4089,10.87351 14.6288,7.62054 l 4.3585,-1.53777 -3.4828,3.62309 c -6.5175,6.78005 -12.6878,8.20873 -18.7328,4.3374 z m -111.5751,-11.85955 c -3.5705,-4.24322 -5.0075,-9.42359 -4.4164,-15.92119 0.5987,-6.5824 3.7883,-12.5599 7.8122,-14.64076 4.621,-2.38959 5.605,-1.67344 2.0997,1.52814 -7.3328,6.69749 -9.3904,18.27662 -4.8149,27.09573 1.4018,2.70198 2.3853,4.91268 2.1855,4.91268 -0.1997,0 -1.4895,-1.33857 -2.8661,-2.9746 z m 290.4259,271.83651 c 10.2372,-3.4276 17.4663,-13.9367 21.5733,-31.3619 0.7956,-3.3756 1.6704,-14.3106 1.9999,-25 0.5386,-17.4674 0.4055,-19.726 -1.6496,-28 -1.2295,-4.95 -3.768,-12.9957 -5.6411,-17.8794 -3.7286,-9.7213 -17.2054,-36.6206 -18.3472,-36.6206 -0.9037,0 -17.4999,23.4687 -22.4141,31.6957 -5.7565,9.6372 -11.2365,21.9604 -14.1455,31.8098 -3.1783,10.761 -4.4855,31.3788 -2.5716,40.5595 1.7418,8.3554 6.4229,17.344 12.2303,23.4844 9.7873,10.3486 19.9684,14.3249 28.9656,11.3125 z m -366.8508,-126.9145 3.75,-1.0414 0,-8.4155 c 0,-16.4945 4.6565,-23.5525 23.7265,-35.9627 0.1246,-0.081 -0.4448,-5.5205 -1.2653,-12.0876 -1.778,-14.2303 -1.9931,-49.0028 -0.3782,-61.1377 0.617,-4.63703 0.8866,-8.66628 0.599,-8.9539 -0.2876,-0.28761 -2.1342,2.82699 -4.1035,6.92135 -4.2265,8.78713 -8.7987,25.77795 -11.1624,41.48005 -1.4598,9.6972 -1.9504,11.25 -3.5548,11.25 -1.6193,0 -1.8613,-0.8242 -1.8613,-6.34 0,-10.4672 -3.2748,-20.6669 -13.0036,-40.50053 -4.948,-10.08728 -8.9964,-18.6985 -8.9964,-19.13603 0,-0.43754 3.0375,-2.60157 6.75,-4.80896 14.1906,-8.43752 22.25,-17.93608 22.25,-26.22318 0,-3.80416 -0.5178,-5.11324 -2.9409,-7.43472 -2.7188,-2.60475 -3.0641,-2.69442 -4.5714,-1.18709 -2.3473,2.34732 -5.2311,2.01039 -7.9557,-0.92951 -2.2366,-2.41332 -2.6197,-2.49346 -6.6855,-1.39865 -6.9894,1.88204 -13.0174,5.45674 -18.2642,10.83089 l -4.9178,5.03711 1.1274,8.29533 c 1.8947,13.94161 2.2095,19.14456 1.3789,22.79533 -0.6501,2.85754 -0.9165,1.6644 -1.4513,-6.5 -1.337,-20.4114 -8.62316,-37.40721 -18.53278,-43.22985 l -4.3133,-2.53439 -1.4934,2.13212 c -1.5951,2.27732 -4.39515,2.72956 -7.29411,1.17808 -1.39921,-0.74883 -2.44836,-0.26488 -4.87768,2.25 -9.15095,9.47321 -9.67301,25.1206 -1.03781,31.10507 1.28129,0.88797 6.82961,4.61335 12.32961,8.27863 10.95005,7.29727 20.49997,15.00497 20.49997,16.54541 0,0.54016 -1.4774,-0.31506 -3.28308,-1.90049 -4.83729,-4.2472 -16.85245,-12.05466 -22.17378,-14.40854 -2.94336,-1.30198 -5.64473,-1.83299 -7.38283,-1.45124 -8.98808,1.97411 -16.420452,12.58461 -11.611072,16.57604 1.03606,0.85986 1.4501,2.59542 1.25,5.23984 -0.25333,3.34778 0.13335,4.28113 2.521652,6.08673 2.84757,2.1528 8.79045,2.5539 23.67914,1.5984 5.27393,-0.3385 10.53921,2.007 11.53276,5.1374 0.44897,1.4146 -0.0289,3.0765 -1.42913,4.9705 -1.157,1.5649 -2.10363,3.1416 -2.10363,3.5038 0,0.3621 -1.34724,2.1929 -2.99386,4.0683 -2.9958,3.412 -6.16979,8.9766 -7.40838,12.9881 -0.52968,1.7156 -0.15577,2.2602 1.90706,2.7779 3.14633,0.7897 5.12695,5.122 3.33098,7.286 -2.93451,3.5359 7.26401,4.5652 13.53827,1.3664 3.4595,-1.7637 6.6259,-1.8537 6.6259,-0.1883 0,0.364 -1.7824,4.2099 -3.9609,8.5463 -4.9894,9.9317 -6.70238,17.4305 -4.855,21.2536 2.9295,6.0624 11.9089,7.9803 28.0659,5.9946 6.2691,-0.7705 6.75,-0.6934 6.75,1.0825 0,1.1038 -1.5664,2.9339 -3.7058,4.3296 -4.7521,3.1 -7.5829,8.0171 -7.7009,13.3761 -0.1177,5.3455 1.8122,8.9958 5.7946,10.9605 3.7097,1.8301 4.9376,1.8959 9.8621,0.5283 z m 360.0733,-58.0556 1.8232,-2.813 -7.5864,-13.4401 c -21.1849,-37.53145 -28.0893,-64.41566 -18.698,-72.80674 4.1766,-3.73183 8.9,-4.42483 16.8266,-2.46875 3.5967,0.88758 6.9951,1.33223 7.5519,0.98811 1.8676,-1.15428 0.082,-12.33718 -2.9149,-18.2522 -2.2323,-4.40626 -3.7941,-6.09219 -7.3311,-7.91345 -7.0421,-3.62611 -14.1108,-1.97015 -25.8148,6.04756 -2.3762,1.62775 -4.5287,2.75117 -4.7834,2.49649 -0.2546,-0.25468 1.3663,-6.93555 3.6021,-14.84639 5.5596,-19.67103 8.0015,-32.28182 8.0015,-41.32254 0,-18.3843 -8.2544,-24.10726 -30.5,-21.14622 l -6,0.79865 4.2575,2.00788 c 6.6446,3.1337 9.2425,6.88208 9.2425,13.33538 0,2.97167 -0.755,7.32464 -1.6778,9.67327 -2.5892,6.59013 -10.1599,18.69874 -15.365,24.57495 -15.9994,18.06232 -14.2387,32.68263 6.6374,55.1157 5.5222,5.93399 6.4046,7.28663 4.4054,6.75256 -17.736,-4.73801 -22.2619,-5.66982 -27.4472,-5.65101 -6.7061,0.0243 -12.9435,2.3343 -16.4415,6.08896 -1.8969,2.0361 -7.1113,11.79425 -7.1113,13.30802 0,0.29854 1.9567,0.27461 4.3482,-0.0532 12.6267,-1.73069 34.2383,10.70657 57.4497,33.06197 9.6075,9.2531 27.5913,29.4555 33.1199,37.2056 l 2.4178,3.3894 5.0822,-5.659 c 2.7952,-3.1125 5.9027,-6.9249 6.9055,-8.472 z M 418.77219,216.34191 c 7.5187,-18.6669 13.6703,-34.39956 13.6703,-34.96146 0,-0.5619 -1.8376,-1.51647 -4.0836,-2.12126 -9.707,-2.61382 -14.4147,2.00095 -16.1618,15.84293 -1.1205,8.87639 -1.1632,8.97475 -3.5095,8.08267 -4.4024,-1.6738 -8.0847,-1.07752 -9.8341,1.59252 -2.4607,3.75548 -1.1045,8.81089 3.6352,13.55062 l 3.9347,3.93466 -6.1545,3.10676 c -3.3849,1.70872 -8.1056,3.69398 -10.4904,4.4117 l -4.336,1.30493 0,-6.23535 c 0,-3.42944 0.5051,-8.75045 1.1225,-11.82445 0.9278,-4.62002 1.5406,-5.69406 3.534,-6.19437 5.3595,-1.34515 5.3769,-10.55009 0.02,-10.55009 -3.6555,0 -5.9263,3.15138 -5.1711,7.17652 0.7765,4.13956 -2.2743,12.83812 -7.364,20.9963 -3.4367,5.50851 -3.6131,5.63419 -6.0902,4.33927 -3.755,-1.96286 -7.724,-6.48305 -9.5675,-10.89611 -1.9505,-4.66918 -3.112,-16.6707 -1.8344,-18.95362 0.8167,-1.45946 1.2927,-1.36482 4.4563,0.88608 5.271,3.7504 9.9109,4.20692 13.2533,1.30402 5.9299,-5.15011 3.6429,-14.0111 -3.9856,-15.44222 -3.0279,-0.56804 -3.4481,-0.9713 -2.9046,-2.78718 2.098,-7.00802 1.8513,-9.45699 -1.2665,-12.57479 -3.7623,-3.76225 -9.7987,-4.25655 -12.709,-1.04069 -1.8063,1.99594 -2.3276,9.83325 -0.8166,12.27799 0.4239,0.68601 -0.017,0.7915 -1.2625,0.30201 -1.0527,-0.41377 -4.2833,-1.00389 -7.179,-1.31139 -8.3832,-0.89021 -11.1865,3.11758 -7.8186,11.17815 2.65,6.34215 9.0271,8.43613 15.4993,5.08926 1.6963,-0.87723 3.0843,-1.33184 3.0843,-1.01024 0,0.32159 -2.6481,4.06335 -5.8846,8.31502 -5.1299,6.7389 -16.5098,17.15904 -17.5206,16.04285 -1.5201,-1.67874 -5.7381,-11.65546 -7.0212,-16.60697 -1.9682,-7.5958 -1.9868,-10.69644 -0.074,-12.28426 0.825,-0.68469 1.5,-2.08979 1.5,-3.12244 0,-1.98587 -3.3106,-5.87756 -5,-5.87756 -1.6774,0 -5,3.88543 -5,5.84699 0,1.01585 0.9,2.8847 2,4.15301 2.6825,3.09294 2.654,11.46502 -0.076,22.35048 -2.9003,11.56411 -2.8188,11.47762 -8.5758,9.09168 -6.7894,-2.81382 -14.6201,-13.44216 -9.9037,-13.44216 0.7943,0 2.7068,-1.08604 4.25,-2.41342 2.3759,-2.04365 2.8057,-3.17665 2.8057,-7.39501 0,-6.66864 -2.243,-9.19157 -8.1718,-9.19157 l -4.3619,0 2.5369,-5.00618 c 1.3952,-2.7534 2.8026,-6.94542 3.1275,-9.3156 0.4934,-3.60005 0.202,-4.75685 -1.77,-7.02758 -1.4041,-1.61674 -3.7935,-2.94604 -5.8968,-3.28054 -4.3803,-0.69663 -11.8688,1.21866 -12.642,3.23338 -0.3163,0.82426 2.2718,15.80697 5.7513,33.29491 l 6.3264,31.79625 20.5502,0.65914 c 28.9891,0.92981 57.3237,5.17407 80.5502,12.06566 4.4,1.30553 8.2609,2.42024 8.5797,2.47713 0.3188,0.0569 6.7313,-15.16949 14.25,-33.83638 z m -21.7373,6.28734 c 2.3778,-1.55797 2.3789,-1.56854 0.4528,-4.01729 -1.0622,-1.35036 -2.4571,-4.04835 -3.0997,-5.99553 -1.0047,-3.04408 -1.3658,-3.34297 -2.5764,-2.13237 -0.7743,0.77437 -1.6955,4.48731 -2.0469,8.25098 l -0.639,6.84303 2.7626,-0.69337 c 1.5194,-0.38135 3.8354,-1.3963 5.1466,-2.25545 z m -21.3056,-2.59753 c 2.9512,-5.06418 6.3799,-14.41666 5.5789,-15.21767 -0.3125,-0.31246 -1.8726,0.11217 -3.4669,0.94362 -3.512,1.83151 -5.7339,1.85196 -10.6488,0.098 -3.724,-1.32899 -3.75,-1.31999 -3.75,1.3005 0,6.13761 5.4019,17.12556 8.4192,17.12556 0.7649,0 2.5053,-1.9125 3.8676,-4.25 z"
       id="path4992"
       inkscape:connector-curvature="0" />
  </g>
</svg>
