<?xml version="1.0" encoding="utf-8"?>
<!-- Generator: Adobe Illustrator 16.0.0, SVG Export Plug-In . SVG Version: 6.00 Build 0)  -->
<!DOCTYPE svg PUBLIC "-//W3C//DTD SVG 1.1//EN" "http://www.w3.org/Graphics/SVG/1.1/DTD/svg11.dtd">
<svg version="1.1" id="Layer_1" xmlns="http://www.w3.org/2000/svg" xmlns:xlink="http://www.w3.org/1999/xlink" x="0px" y="0px"
	 width="560px" height="615px" viewBox="0 0 560 615" enable-background="new 0 0 560 615" xml:space="preserve">
<g>
	<path fill="#2B2A28" d="M281.012,4H3.703c0,0,1.585,313.246,19.022,378.237c77.673,221.923,258.287,231.255,258.287,231.255
		s180.403-9.281,258.076-231.206C556.525,317.297,557.9,4,557.9,4H281.012z"/>
	<path fill="#E74501" stroke="#2B2A28" stroke-width="2" stroke-miterlimit="10" d="M110.092,153.03c0,0-3.262-2.804-4.095-6.203
		s10.193-1.47,16.025-3.93c5.832-2.459,12.511-4.611,12.117,2.179C133.745,151.864,118.067,159.312,110.092,153.03z"/>
	<path fill="#FBB100" d="M241.551,150.167c0,0-7.552-12.167-19.885-12.833s-14-29.191-13.667-39.263
		c0.333-10.07-0.666-25.071-5.666-15.404s-6.667,43.177,7.667,57.088c0,0,3.667,5.912-12.667,2.245s-15-27.439-23.333-30.387
		c-8.333-2.946-19-10.946-17.667-23.279s-1.667-25.351-12.667-24.342c-11,1.008-17.521-2.325-16.261-9.658
		c1.26-7.333-17.072-18.667-24.405-12.667S96,70,103,73s13.667-9.333,15.667-6s-7,7.667-5.333,14.333S111.667,76.667,99,81.667
		s-21.908,17-14.121,28s25.788,14.228,30.454,1.946c4.666-12.28,11.666-9.015,16.333-4.313s3.667,10.7,12.667,10.7
		s4,11.333-3,12.333s-12.522,4-13.928,15.333c-1.406,11.333,2.594,11.667,9.594,16s3.333,10.054,9.667,10.526
		c6.334,0.474,0.333,8.141,9,9.474S166,201,174.667,201l17.667-12.667L241.551,150.167z"/>
	<path fill="#2B2A28" d="M141.803,167.622c10.237-16.701,1.355-9.793-3.774-5.249C140.314,164.097,141.18,165.973,141.803,167.622z"
		/>
	<path fill="#2B2A28" d="M145.576,172.041c0.327,0.069,0.688,0.122,1.091,0.151c3.894,0.291,3.128,3.301,3.973,5.887
		C163.841,157.877,152.043,166.633,145.576,172.041z"/>
	<path fill="none" stroke="#2B2A28" stroke-width="3" stroke-miterlimit="10" d="M241.551,150.167c0,0-7.552-12.167-19.885-12.833
		s-14-29.191-13.667-39.263c0.333-10.07-0.666-25.071-5.666-15.404s-6.667,43.177,7.667,57.088c0,0,3.667,5.912-12.667,2.245
		s-15-27.439-23.333-30.387c-8.333-2.946-19-10.946-17.667-23.279s-1.667-25.351-12.667-24.342c-11,1.008-17.521-2.325-16.261-9.658
		c1.26-7.333-17.072-18.667-24.405-12.667S96,70,103,73s13.667-9.333,15.667-6s-7,7.667-5.333,14.333S111.667,76.667,99,81.667
		s-21.908,17-14.121,28s25.788,14.228,30.454,1.946c4.666-12.28,11.666-9.015,16.333-4.313s3.667,10.7,12.667,10.7
		s4,11.333-3,12.333s-12.522,4-13.928,15.333c-1.406,11.333,2.594,11.667,9.594,16s3.333,10.054,9.667,10.526
		c6.334,0.474,0.333,8.141,9,9.474S166,201,174.667,201l17.667-12.667L241.551,150.167z"/>
	<path fill="#FFCA5F" d="M156.632,116.06c0,0-3.131,0.107-1.965,3.607s2.204,2.667,0.852,6.5s2.315,4.833,5.148,4.5
		s9.5,12.167,17.333,12.5s1.833-10.667,0-15.667s-7-11.167-11-10.333S160.93,115.286,156.632,116.06z"/>
	<path fill="#FFCA5F" d="M138.029,73.667c0,0-5.196,5-2.863,10.5s11.167,8,13.333,3.333S145.059,69,138.029,73.667z"/>
	<path fill="#E74501" stroke="#2B2A28" stroke-width="2" stroke-miterlimit="10" d="M81.631,127.355c0,0,2.901,3.175,6.324,3.906
		s1.161-10.233,3.443-16.137c2.282-5.903,4.232-12.646-2.543-12.045C82.081,103.678,75.111,119.573,81.631,127.355z"/>
	<path fill="#E74501" stroke="#2B2A28" stroke-width="2" stroke-miterlimit="10" d="M86.092,36.888c0,0-3.262,2.804-4.095,6.204
		c-0.833,3.398,10.193,1.469,16.025,3.929c5.832,2.459,12.511,4.612,12.117-2.178C109.745,38.054,94.067,30.606,86.092,36.888z"/>
	<path fill="#FBB100" stroke="#2B2A28" stroke-width="2" stroke-miterlimit="10" d="M169.667,46.167c0,0-10.057-8.333-20.695-3
		c-10.638,5.333-9.805,16.333-5.805,15.5s14.333,3.667,15.667,11.167s2.667,8.667,7.5,7.5S181,55.5,169.667,46.167z"/>
	<path fill="#E74501" stroke="#2B2A28" stroke-width="2" stroke-miterlimit="10" d="M177.038,32.513c0,0-2.266-3.657-5.495-5.006
		c-3.229-1.351-3.029,9.843-6.362,15.224c-3.332,5.381-6.492,11.646,0.277,12.309C172.226,55.701,182.009,41.364,177.038,32.513z"/>
	<path fill="#E74501" stroke="#2B2A28" stroke-width="2" stroke-miterlimit="10" d="M190.837,486.04c0,0,4.3,0.091,7.19-1.883
		c2.891-1.974-6.605-7.9-9.304-13.627c-2.698-5.726-6.232-11.788-10.473-6.472C174.009,469.374,180.706,485.39,190.837,486.04z"/>
	<path fill="#E74501" stroke="#2B2A28" stroke-width="2" stroke-miterlimit="10" d="M240.882,467.105c0,0,4.005,1.567,7.399,0.712
		c3.394-0.855-3.477-9.694-4.037-15.999c-0.559-6.305-1.787-13.214-7.6-9.686C230.832,445.661,231.597,463.002,240.882,467.105z"/>
	<path fill="#FBB100" d="M346.727,297c0,0-8.731,29.5-36.479,36.5S259.5,312,235,333.5S207.092,371,217.796,376s14.759,13,2.981,16
		c-11.778,3-28.277,0-35.777,13.5s-20.545,6-24.522,0S145.5,406.695,140,414.848c-5.5,8.152-35,12.047-31,27.35
		c4,15.304,13.5,18.304,21,11.304s18.324-21.5,21.662-15s-8.398,27,22.72,32c31.118,5,24.118-19.5,20.118-26
		s17.092-9.236,23.296-14.618C224,424.5,222.5,447.945,236,450.223c13.5,2.277,16-23.723,32-23.723s17.5-16.096,10.5-25.548
		S268.99,378,287.995,371.5s64.562,14.5,87.782,1.5l16.894-47.5L363.5,292L346.727,297z"/>
	<path fill="#2B2A28" d="M158.5,427.5c-3.5,5-20.75,2-23.25,4.25s0.25,3.75,3,4.288c1.626,0.318,3.16,2.864,4.146,4.896
		c4.06-3.687,7.598-5.684,9.267-2.435c0.112,0.219,0.207,0.454,0.287,0.704c2.395-3.464,5.531-6.644,6.551-7.954
		C160.25,429,162,422.5,158.5,427.5z"/>
	<path fill="#2B2A28" d="M181.25,436.95c-10.75,4.3-9.75,17.55-4.25,16.55s2.75-9.855,6-11.304c2.36-1.051,7.088-1.324,11.13,1.467
		c-0.413-1.366,0.311-2.563,1.748-3.66C192.745,437.255,187.611,434.406,181.25,436.95z"/>
	<path fill="#FFCA5F" d="M243.919,356.966c0,0,14.422,5.311,17.856,0s-10.989-3.982-8.928-9.515
		c2.061-5.529,10.302-12.168,6.181-13.273c-4.121-1.106-30.677,9.07-29.532,26.106s19.459,22.333,20.604,18.137
		C251.245,374.224,236.822,364.046,243.919,356.966z"/>
	<path fill="#FFCA5F" d="M156.833,421.578c0,0-8.543,4.589-9.438,1.756s-2.228-8.2,2.772-11.518c5-3.316,9.374-2.517,10.354,0
		C161.501,414.334,167.667,416.49,156.833,421.578z"/>
	<path fill="#FFCA5F" d="M171.333,440.935c0,0-2.5,8.565,0,11.231c2.5,2.668,3.833,4,0,5s-7.861-2.831-8.181-9.166
		C162.832,441.666,173.333,434.867,171.333,440.935z"/>
	<path fill="none" stroke="#2B2A28" stroke-width="3" stroke-miterlimit="10" d="M346.727,297c0,0-8.731,29.5-36.479,36.5
		S259.5,312,235,333.5S207.092,371,217.796,376s14.759,13,2.981,16c-11.778,3-28.277,0-35.777,13.5s-20.545,6-24.522,0
		S145.5,406.695,140,414.848c-5.5,8.152-35,12.047-31,27.35c4,15.304,13.5,18.304,21,11.304s18.324-21.5,21.662-15
		s-8.398,27,22.72,32c31.118,5,24.118-19.5,20.118-26s17.092-9.236,23.296-14.618C224,424.5,222.5,447.945,236,450.223
		c13.5,2.277,16-23.723,32-23.723s17.5-16.096,10.5-25.548S268.99,378,287.995,371.5s64.562,14.5,87.782,1.5l16.894-47.5L363.5,292
		L346.727,297z"/>
	<path fill="#E74501" stroke="#2B2A28" stroke-width="2" stroke-miterlimit="10" d="M117.855,474.108c0,0,4.001,1.576,7.397,0.729
		c3.396-0.85-3.455-9.702-4-16.01c-0.545-6.306-1.757-13.218-7.578-9.701C107.854,452.642,108.579,469.983,117.855,474.108z"/>
	<path fill="#E74501" stroke="#2B2A28" stroke-width="2" stroke-miterlimit="10" d="M341.639,126.333
		c0,0-5.291-20.667-27.882-21.167c-22.59-0.5-43.09-4-46.923-9.833s-6.5-11.167-4-15.667s3.667-7.666,3.5-12.333
		s-4.232-8-8.533-2.167c-4.301,5.833-3.866,21.5,0,30c3.866,8.5,18.886,13.667,31.959,15.167c13.073,1.5,24.907-1.167,31.74,3
		s9.833,7.5,12.5,14.167L341.639,126.333z"/>
	<path fill="#E74501" stroke="#2B2A28" stroke-width="2" stroke-miterlimit="10" d="M95.191,312.666c0,0,4.238,0.735,7.392-0.781
		c3.154-1.519-5.345-8.805-7.154-14.869c-1.809-6.064-4.393-12.59-9.383-7.97C81.056,293.666,85.273,310.503,95.191,312.666z"/>
	<path fill="#E74501" stroke="#2B2A28" stroke-width="2" stroke-miterlimit="10" d="M150.301,306.691c0,0-4.22,0.833-7.408-0.611
		c-3.188-1.443,5.14-8.926,6.808-15.03c1.667-6.105,4.1-12.688,9.196-8.186C163.992,287.368,160.167,304.298,150.301,306.691z"/>
	<path fill="#E74501" stroke="#2B2A28" stroke-width="2" stroke-miterlimit="10" d="M384.365,550.053c0,0,4.066,1.399,7.423,0.402
		c3.354-0.995-3.877-9.539-4.698-15.816c-0.82-6.275-2.335-13.128-7.997-9.359C373.432,529.047,374.917,546.34,384.365,550.053z"/>
	<path fill="#FBB100" d="M383.667,56.333c0,0-28.667-15.667-47.667-10.333s-12.667,13.333-21,13.333s-21.667-3.667-26,8.333
		S276.001,90.333,291.667,95s18.334,4,30,0s20.666,5.667,17.333,14.667s-4.667,22.667-20.667,19.667s-23-19-33-13
		S281,135.667,270,140.667s-58.333,3-72.667,20.333s-18.667,37.333-42.667,37.333c0,0-7.666,16,13.667,17.333s-4.333,3.667-9,4.333
		s-31-5.667-37.667,7.667S99,239,95,232s-13.333-9.333-18.333-1s-14.667,13.301-17,6.483c-2.333-6.816-14-16.149-19.667-7.149
		s-8.667,29,14,28.333s21.667,3.667,20,8s-9,27,8.667,30C100.334,299.666,106,286.333,104.333,277s-13.333-11.333-6-16.333
		s29-2.333,32,4.667s5.333,10,11,10S141,290.666,156,287c15-3.667,14,2,21,0s10,0.667,16.333-1.667s13,1.333,19.667-2
		s18.333,3.333,28.333-2s35,25.999,73.333,20.667C352.999,296.667,357,325.332,358,339c1,13.666,3,21.666,7,24
		c4,2.332-35.667,21.666-43.667,35.332c-8,13.668-4.999,39.334,0.334,42.002C327,443.001,316.333,451,324,456.666
		c7.667,5.668,21.001,21.002,13.334,29.334c-7.667,8.333-17.333,19-19,27s-14.667,18.668-21.667,18.668s-22.333,26-8,27.332
		c14.333,1.334,20-4.332,21-9c1-4.666,11,15.334,23,12.668c12-2.668,15-12.334,12-18.334S329.668,539,338.334,531
		s15.999-13.666,22.666-7c6.667,6.668,11.334,16.666,22.667,9.334C395,526,386.001,514,399.334,507s23-17.001,19-27.666
		c-4-10.666-30.334-3-31.334-15s6.668-4.668,6.334-14c-0.334-9.334,3.333-8,3.333-16s16.824-12.666,22.579-22
		s0.087,38.331,24.421,36.666c24.334-1.666,29.334-12.666,37.667-39.334c8.333-26.666-8.667-37.998,6-50.332
		c14.667-12.335,23.001-17.334,25.334-29.668c0,0-19.666,8.668-31,10c-11.334,1.334-22,19.334-17.667,33
		c4.333,13.668,7.667,52.002-8.333,58.334c-16,6.333-18.667-16.334-17.667-31.334s-8.334-65.666-22.667-86
		c-14.333-20.332-50.666-72.999-64.666-77.999s-31.666-23-16-52c7.333-13.667,6.666,18.333,18.333,20c0,0,2.001-1.333,2.667-12.333
		S366.334,158,376.001,151s4.333,18,11,18s15-33.333,12-59c5-10.333,6.333-16.667,5-24.667s-17.333-9-15.333-14.333
		s26.999-9,27.666-22.667C416.334,42,396.666,59,383.667,56.333z"/>
	<path fill="#FFCA5F" d="M166.333,246.333c0,0-12.334,6.333-20.667,5s-25-5.667-15.333-13s8-12.667,18.333-8.333
		s24.667,2.219,27.333-1.558c2.666-3.775,3.667,2.225,1.667,4.225s-11.333,7.404-18.333,6.703c-7-0.702-19.333,2.63-12.666,4.297
		S165.333,241.333,166.333,246.333z"/>
	<path fill="#FFCA5F" d="M90.333,245.333c0,0-16.333,3.333-15-2.667s4-3.667,5-7s4-6.334,8.667-3.667S97.959,244.429,90.333,245.333
		z"/>
	<path fill="#FFCA5F" d="M50,241c0,0-3.333,9.703,3,10.518c6.333,0.815,5.667-2.338,6-5.261S50.865,236.328,50,241z"/>
	<path fill="#FFCA5F" d="M313.333,170.333c0,0,9.399-11.191,10.635-20.525c1.236-9.334,0.671-12.632-5.317-10.145
		c-5.986,2.486-6.983,5.2-5.316,14.936S302.333,177,313.333,170.333z"/>
	<path fill="#FFCA5F" d="M357.333,138.864c0,0-10.667-4.529-11-9.529S349,112,349,107s-2.001-12.333,1.333-14.333s9,6.333,7,12.333
		s-6.5,23,0.417,22.333S365,118,365,114s4.333,0.667,4,5.333S365.883,144.204,357.333,138.864z"/>
	<path fill="#2B2A28" d="M300.949,97.452c1.352,0.281,2.581,0.486,3.729,0.618c-1.17-1.874-3.897-7.027-5.757-16.817
		c0,0,6.84,2.523,10.672,0c3.832-2.524,10.244-7.854,6.659-8.011c-3.585-0.158-15.577,5.175-17.331,0.841
		c-1.373-3.393-1.688-10.269-1.433-14.49c-3.658,1.042-6.777,3.333-8.489,8.073c-0.604,1.672-1.292,3.315-1.985,4.923
		c2.332,2.298,6.26,5.964,8.819,7.244C295.834,79.833,297.053,91.176,300.949,97.452z"/>
	<path fill="#2B2A28" d="M335.625,55.75c0,0-7.375,2.875-7.625,10.813c-0.25,7.938,8.125,13.125,15.25,11.938
		c7.125-1.188,9.563-5.372,10.438-6.75c0,0,2.75,7.602,11.75,5.457c3.375-0.957-0.125-1.832-1.188-2.082s-6.813,0.563-8.563-5.938
		s-1.875-8.25-5.75-8.625s-9.625,0.577-10.813-3.743c-1.188-4.319-1.394-8.257-2.353-7.382
		C335.811,50.313,335.813,53.938,335.625,55.75z"/>
	<path fill="#FBB100" d="M332.625,61.938c0,0-3.833,4.104,0.375,10.125c4.208,6.021,16.813,4.813,19.25-4.563
		c0,0-0.375-3.954-1.875-3.915s-5.5-0.523-6.5-0.71c0,0,0.525,2.776-0.425,4.139s-2.738,3.816-7.513,2.361
		C331.162,67.92,332.063,63.375,332.625,61.938z"/>
	<path fill="#2B2A28" d="M391.084,91.917c0,0,0.666,3.667-1,5s-8.499,0.728-7.666-4.554c0.833-5.28,8.083-8.196,11.583-6.279
		S389.667,88.75,391.084,91.917z"/>
	<path fill="#2B2A28" d="M335.75,155.528c0,0,1.875-2.902,2-1.152s-3.125,14.317-5.875,17.817s-6.25,11.464-19.625,20.448
		s-23.5,24.109-18.5,36.109c2.625,4.75,1.02,4.774,0.318,3.512c-0.702-1.263-5.068-4.012-4.193-14.887S303.75,195.25,307,192
		s14.625-9.75,20.125-18.375S334.045,158.415,335.75,155.528z"/>
	<path fill="#2B2A28" d="M250.385,282.492c0.408-0.965,0.651-2.067,0.365-3.117c-0.75-2.75-7.429-8.752-4.75-13.75
		s26.619-14.375,28.31-21.125s-8.958-11.957-9.31-19.5s-1.375-6.125-2-3.625s-1.125,7.5,3.375,13.5s6.75,8.21,2.875,10.667
		s-23.375,12.833-26.625,18.708s1.75,9.25,3.5,11.375c1.174,1.425,1.947,3.858,1.429,5.763
		C248.445,281.676,249.388,282.045,250.385,282.492z"/>
	<path fill="#2B2A28" d="M245,206c0,0-12.625,10-8.875,32.5c0,0-3-0.684-4.5-11.279S237.625,206.625,245,206z"/>
	<path fill="#2B2A28" d="M209.25,240.125c0,0,2,5.738,1-0.755c-1-6.494-3.439-12.67-2.25-22.245s8-19.375,22.625-28.5
		c11.25-5.25,22.875-10,25.25-10.375s6.668-2.875,2.146-2.375S229.375,181,216.375,194.5S202,223.5,209.25,240.125z"/>
	<path fill="#2B2A28" d="M262.375,165.375C271,164,280.75,156,282.125,153.814c1.375-2.186-0.25-2.438-3.125,0
		c-2.875,2.439-7.478,6.849-16.125,8.437s-22.125-1.125-34.25,4.625C207.25,175,202,189.25,200.125,194.25
		s-2.595,12.743-13.25,18.625c-3.872,2.138-8.262,3.064-12.285,3.384c4.639,0.735,0.855,1.612-4.193,2.351
		c24.042,1.309,27.626-9.137,29.478-12.609c2-3.75,2.5-10,6.625-17.125c10.352-15.489,24.75-18.125,31.716-20.75
		C245.182,165.5,253.75,166.75,262.375,165.375z"/>
	<path fill="#2B2A28" d="M257,150.167c0,0,17.083-0.167,25-4.167s7.916-13.667,5.25-17.25s1.168,12.084-9.416,14.917
		S253.083,148.5,257,150.167z"/>
	<path fill="#2B2A28" d="M389.953,111.359c2.51,0,6.005,0.552,9.189,0.031c-0.047-0.464-0.088-0.931-0.143-1.39
		c1.236-2.556,2.247-4.864,3.05-7.017c-2.332,2.658-6.67,5.734-14.27,5.734C374.406,108.719,385.203,111.359,389.953,111.359z"/>
	<path fill="#2B2A28" d="M165.142,285.74c-3.618-3.349-3.666-8.182-4.476-12.906c-1-5.833-4.5-1.667-4.833,4.333
		c-0.226,4.062,1.418,7.506,2.505,9.312C161.208,285.899,163.396,285.709,165.142,285.74z"/>
	<path fill="#2B2A28" d="M174.667,273.833c-1-5.833-4.5-1.667-4.833,4.333c-0.213,3.845,1.248,7.135,2.326,9.007
		c1.324,0.332,2.712,0.434,4.84-0.174c0.69-0.197,1.332-0.338,1.952-0.454C175.532,283.205,175.461,278.469,174.667,273.833z"/>
	<path fill="#2B2A28" d="M192.13,285.729c-3.606-3.349-3.655-8.176-4.464-12.895c-1-5.833-4.5-1.667-4.833,4.333
		c-0.218,3.921,1.305,7.263,2.389,9.115C187.391,286.395,189.476,286.498,192.13,285.729z"/>
	<path fill="#2B2A28" d="M205.957,284.812c-1.501-2.962-1.693-6.498-2.29-9.979c-1-5.833-4.5-1.667-4.833,4.333
		c-0.109,1.967,0.223,3.785,0.715,5.348C201.665,284.574,203.805,284.815,205.957,284.812z"/>
	<path fill="#2B2A28" d="M219.667,275.833c-1-5.833-4.5-1.667-4.833,4.333c-0.048,0.863-0.004,1.694,0.094,2.494
		c1.741-0.396,3.719-0.361,5.85-0.169C220.269,280.362,220.053,278.086,219.667,275.833z"/>
	<path fill="#2B2A28" d="M370,317c0,0-0.834,6.5,0,12s2.666,20.166,0,29c-2.666,8.832-6.946,15.832-10.391,17.5
		c-3.443,1.666-0.109,4.332,2.891,1.5c3-2.834,7.682-6.666,10.341-19.834C375.5,343.999,373.166,325,370,317z"/>
	<path fill="#2B2A28" d="M348,408.875c0,0-0.527,2.51,2.236,2.941c1.764-0.191-1.111-2.941,1.139-7.441S362.25,390.5,364.5,388.25
		s2.5-4.375,0-2.25s-10.125,7.125-13.25,12.5S348.125,406.375,348,408.875z"/>
	<path fill="#2B2A28" d="M423.834,393.166c-1.597,6.922-4.553,16.014-6.48,21.682c0.713-0.801,1.353-1.637,1.894-2.514
		c1.26-2.045,1.973-1.354,2.572,0.951c2.618-8.451,5.187-18.981,5.516-21.286C427.834,388.5,426.333,382.334,423.834,393.166z"/>
	<path fill="#2B2A28" d="M333.167,430.665c0,0-3.334-2.665-1.667,1.835s9.834,10.166,18.334,9.666s2.332-2.834-0.834-2.834
		S337.5,438.498,333.167,430.665z"/>
	<path fill="#2B2A28" d="M309.971,544.375c-0.686,2.189-1.432,5.85-1.895,9.047c0.833-1.125,1.351-2.302,1.591-3.422
		c0.246-1.147,1.039-0.799,2.271,0.334c-0.056-2.068-0.013-4.352,0.313-5.96C313,540.668,311.066,540.875,309.971,544.375z"/>
	<path fill="none" stroke="#2B2A28" stroke-width="3" stroke-miterlimit="10" d="M383.667,56.333c0,0-28.667-15.667-47.667-10.333
		s-12.667,13.333-21,13.333s-21.667-3.667-26,8.333S276.001,90.333,291.667,95s18.334,4,30,0s20.666,5.667,17.333,14.667
		s-4.667,22.667-20.667,19.667s-23-19-33-13S281,135.667,270,140.667s-58.333,3-72.667,20.333s-18.667,37.333-42.667,37.333
		c0,0-7.666,16,13.667,17.333s-4.333,3.667-9,4.333s-31-5.667-37.667,7.667S99,239,95,232s-13.333-9.333-18.333-1
		s-14.667,13.301-17,6.483c-2.333-6.816-14-16.149-19.667-7.149s-8.667,29,14,28.333s21.667,3.667,20,8s-9,27,8.667,30
		C100.334,299.666,106,286.333,104.333,277s-13.333-11.333-6-16.333s29-2.333,32,4.667s5.333,10,11,10S141,290.666,156,287
		c15-3.667,14,2,21,0s10,0.667,16.333-1.667s13,1.333,19.667-2s18.333,3.333,28.333-2s35,25.999,73.333,20.667
		C352.999,296.667,357,325.332,358,339c1,13.666,3,21.666,7,24c4,2.332-35.667,21.666-43.667,35.332
		c-8,13.668-4.999,39.334,0.334,42.002C327,443.001,316.333,451,324,456.666c7.667,5.668,21.001,21.002,13.334,29.334
		c-7.667,8.333-17.333,19-19,27s-14.667,18.668-21.667,18.668s-22.333,26-8,27.332c14.333,1.334,20-4.332,21-9
		c1-4.666,11,15.334,23,12.668c12-2.668,15-12.334,12-18.334S329.668,539,338.334,531s15.999-13.666,22.666-7
		c6.667,6.668,11.334,16.666,22.667,9.334C395,526,386.001,514,399.334,507s23-17.001,19-27.666c-4-10.666-30.334-3-31.334-15
		s6.668-4.668,6.334-14c-0.334-9.334,3.333-8,3.333-16s16.824-12.666,22.579-22s0.087,38.331,24.421,36.666
		c24.334-1.666,29.334-12.666,37.667-39.334c8.333-26.666-8.667-37.998,6-50.332c14.667-12.335,23.001-17.334,25.334-29.668
		c0,0-19.666,8.668-31,10c-11.334,1.334-22,19.334-17.667,33c4.333,13.668,7.667,52.002-8.333,58.334
		c-16,6.333-18.667-16.334-17.667-31.334s-8.334-65.666-22.667-86c-14.333-20.332-50.666-72.999-64.666-77.999s-31.666-23-16-52
		c7.333-13.667,6.666,18.333,18.333,20c0,0,2.001-1.333,2.667-12.333S366.334,158,376.001,151s4.333,18,11,18s15-33.333,12-59
		c5-10.333,6.333-16.667,5-24.667s-17.333-9-15.333-14.333s26.999-9,27.666-22.667C416.334,42,396.666,59,383.667,56.333z"/>
	<path fill="#E74501" stroke="#2B2A28" stroke-width="2" stroke-miterlimit="10" d="M289,574c0,0,3.5,2.5,7,2.5s-1-10.25,0-16.5
		s1.5-13.25-5-11.25S281,567.75,289,574z"/>
	<path fill="#E74501" stroke="#2B2A28" stroke-width="2" stroke-miterlimit="10" d="M36,271c0,0,3.5,2.5,7,2.5s-1-10.25,0-16.5
		s1.5-13.25-5-11.25S28,264.75,36,271z"/>
	<path fill="#E74501" stroke="#2B2A28" stroke-width="2" stroke-miterlimit="10" d="M346.514,571.695c0,0,4.297-0.188,7.055-2.346
		c2.756-2.156-7.104-7.455-10.17-12.994c-3.063-5.538-6.983-11.358-10.871-5.777C328.643,556.158,336.361,571.703,346.514,571.695z"
		/>
	<path fill="#FBB100" stroke="#2B2A28" stroke-width="2" stroke-miterlimit="10" d="M282.333,512.832c0,0-4.166,10.334,0.667,13.334
		s9.334,3.332,12.167,1.5c2.833-1.834,3.5,1,10.5-4.834c7-5.832,6.166-8.666,1.333-12
		C302.167,507.5,286.499,504.665,282.333,512.832z"/>
	<path fill="#E74501" stroke="#2B2A28" stroke-width="2" stroke-miterlimit="10" d="M262.248,514.066c0,0-2.353,3.601-2.208,7.098
		s10.2-1.424,16.486-0.684c6.287,0.74,13.301,0.949,11.033-5.462C285.291,508.607,268.162,505.814,262.248,514.066z"/>
	<path fill="#FFCA5F" d="M358.148,428.5c0,0,0.352,5.75-6.148,5.75s-15.25-4-16.5-14.25s3.75-11.5,5.75-11s1.203,6.75,5.477,9.75
		C351.001,421.75,356.297,424.75,358.148,428.5z"/>
	<path fill="#FFCA5F" d="M369.25,451c0,0-11.719,3-15.109,0c-3.39-3-5.891,3.5-3.391,5.5s18.25,9.5,18.5,18s-4,12,3.25,12
		s12.199-6,11.725-10c-0.474-4-6.975-5.25-6.975-12.25S374.868,449.956,369.25,451z"/>
	<path fill="#FBB100" stroke="#2B2A28" stroke-width="2" stroke-miterlimit="10" d="M66,204.167c0,0-9,5.5-7.833,14.167
		s6.5,6.108,5.667,9.888s5.833,4.055,8.667,0s7.167-6.721,10.5-6.888s4.425-3,2.879-7.833S73.833,200.833,66,204.167z"/>
	<path fill="#E74501" stroke="#2B2A28" stroke-width="2" stroke-miterlimit="10" d="M51.473,194.3c0,0-4.055,1.434-6.063,4.301
		c-2.008,2.867,8.97,5.06,13.517,9.462c4.546,4.403,9.994,8.828,12.083,2.355C73.101,203.947,61.181,191.331,51.473,194.3z"/>
	<path fill="#FBB100" stroke="#2B2A28" stroke-width="2" stroke-miterlimit="10" d="M454,335c0,0,1,10.25,7.75,0s13.75-15.5,19.5-18
		s38.154-24.491,42.077-44.496c0,0-3.827-3.754-12.077,3.746s-29,17-37.75,26.75S451,325,454,335z"/>
	<path fill="#FBB100" stroke="#2B2A28" stroke-width="2" stroke-miterlimit="10" d="M445.5,306.5c0,0,4.75-16.25,11.5-21.25
		s65.51-39.237,68.327-57.75c0,0-5.077-2.25-9.577,3S498.25,242,492.5,242s-38.75,11.75-47,32.75s-5,24.5-4.75,27.5
		S443.409,312.505,445.5,306.5z"/>
	<path fill="#FBB100" stroke="#2B2A28" stroke-width="2" stroke-miterlimit="10" d="M419.5,264.25c0,0,3,12.13,7.25,8.314
		c4.25-3.814,3-23.814,17.25-31.564s56-14.25,66.25-26.5s25.5-22.5,23.25-32.25c-2-4.25-11,8.75-16.75,12.25S489.5,205,480,206.25
		s-40.5,7.75-50.5,18S415.25,250.75,419.5,264.25z"/>
	<path fill="#FBB100" stroke="#2B2A28" stroke-width="2" stroke-miterlimit="10" d="M404.051,230.75c0,0,2.949,16.25,6.949,9.5
		s19.25-28.5,31.75-34.5s76.75-18.25,81-60.75s-25-58.75-33.25-61s-35,6.75-39.25,1.75s-15-1.5-15.25-9.75s-5-22.5-7.75-16.75
		s0.5,23.734,4.75,29.243c4.25,5.508,15.5,2.314,11.75,9.285c-3.75,6.972-22.5,21.449-18,44.085c4.5,22.637,7,20.443,9.25,16.665
		c2.25-3.777,8.25-2.718,8.25-8.623c0-5.904-4.25-17.904,2-25.154s11.75,16.5,19.5,17s-1.5-12,0.5-16.5s23-17,24.25-23
		s11.25,1.75,14,9.75s16.25,32.5-11,51.5S396.852,194.5,404.051,230.75z"/>
	<path fill="#FBB100" stroke="#2B2A28" stroke-width="2" stroke-miterlimit="10" d="M465.75,84c0,0-7.5,1.25-11,0
		s-8.25-8.25-8.25-12.5s8-13.25,11.5-11.5S458.5,74.75,465.75,84z"/>
	<path fill="#FBB100" stroke="#2B2A28" stroke-width="2" stroke-miterlimit="10" d="M476.833,337.666c0,0-9.499,6.168-12.666,10.5
		c-3.167,4.334-4.135-3.165-2.317-6.332c1.818-3.168,9.651-15.666,13.317-12.5S478.138,336.791,476.833,337.666z"/>
	<path fill="#FBB100" stroke="#2B2A28" stroke-width="2" stroke-miterlimit="10" d="M448.333,317.834c0,0-0.167,7.5,3,5.5
		S461,309.473,464.5,306.903c3.5-2.569,0.199-18.236-2.65-17.902c-2.849,0.334-7.517,1.166-9.85,6S447.666,307.501,448.333,317.834z
		"/>
	<path fill="#FBB100" stroke="#2B2A28" stroke-width="2" stroke-miterlimit="10" d="M445.333,268.916c0,0-6.833,13.084-6.833,18.084
		s-8.666-6-7.333-13s7.832-28.166,12.166-27.333S448.499,259.498,445.333,268.916z"/>
	<path fill="#FFCA5F" d="M483.5,93.75c0,0-2.416,5.22-7.708,9.234C470.5,107,464.949,113.5,463.85,117.75c-1.099,4.25-7.1,1.5-5.1-4
		s4.5-13,1.5-12.5s-5.5-4.192,0.5-6.472C466.75,92.5,487.148,88.354,483.5,93.75z"/>
	<path fill="#FBB100" stroke="#2B2A28" stroke-width="2" stroke-miterlimit="10" d="M119.349,396.343c0,0-1.061,12.693,6.772,18
		s10.061,1.167,12.728-3.833s8.833-5.668,7.5-7.834S132.183,386.676,119.349,396.343z"/>
	<path fill="#E74501" stroke="#2B2A28" stroke-width="2" stroke-miterlimit="10" d="M108.132,390.137c0,0-3.555,2.422-4.763,5.707
		c-1.208,3.284,9.965,2.601,15.485,5.696c5.521,3.097,11.918,5.982,12.284-0.809C131.505,393.942,116.76,384.787,108.132,390.137z"
		/>
</g>
</svg>
