<?xml version="1.0" encoding="UTF-8" standalone="no"?>
<!-- Created with Inkscape (http://www.inkscape.org/) -->

<svg
   xmlns:dc="http://purl.org/dc/elements/1.1/"
   xmlns:cc="http://creativecommons.org/ns#"
   xmlns:rdf="http://www.w3.org/1999/02/22-rdf-syntax-ns#"
   xmlns:svg="http://www.w3.org/2000/svg"
   xmlns="http://www.w3.org/2000/svg"
   xmlns:sodipodi="http://sodipodi.sourceforge.net/DTD/sodipodi-0.dtd"
   xmlns:inkscape="http://www.inkscape.org/namespaces/inkscape"
   version="1.0"
   width="824.95941"
   height="963.35559"
   id="svg2"
   inkscape:version="0.48.1 "
   sodipodi:docname="Arms of Limburg.svg">
  <sodipodi:namedview
     pagecolor="#ffffff"
     bordercolor="#666666"
     borderopacity="1"
     objecttolerance="10"
     gridtolerance="10"
     guidetolerance="10"
     inkscape:pageopacity="0"
     inkscape:pageshadow="2"
     inkscape:window-width="754"
     inkscape:window-height="480"
     id="namedview60"
     showgrid="false"
     inkscape:zoom="0.25120527"
     inkscape:cx="412.47971"
     inkscape:cy="481.6778"
     inkscape:window-x="0"
     inkscape:window-y="0"
     inkscape:window-maximized="0"
     inkscape:current-layer="svg2" />
  <defs
     id="defs3282" />
  <metadata
     id="metadata3285">
    <rdf:RDF>
      <cc:Work
         rdf:about="">
        <dc:format>image/svg+xml</dc:format>
        <dc:type
           rdf:resource="http://purl.org/dc/dcmitype/StillImage" />
        <dc:title></dc:title>
      </cc:Work>
    </rdf:RDF>
  </metadata>
  <g
     transform="matrix(2.0103444,0,0,2.0103444,8.0620223,-564.8014)"
     id="g4366">
    <path
       d="m 0.64290719,485.72689 c 0.89688301,64.5239 4.22952501,114.8728 33.15182281,154.23172 34.839651,47.41178 92.86252,81.61264 167.49585,115.20696 74.60536,-33.65609 132.59991,-67.90496 167.40041,-115.34555 28.88947,-39.38285 32.08722,-89.73572 33.02384,-154.25911 0.97224,-66.96966 1.00724,-133.9502 -0.0831,-200.92106 L 0.55987519,284.80584 c -1.17829903,66.97031 -0.84773703,133.95184 0.08308,200.92105 z"
       id="path7014-6-7-28-3-2-4-5-1-6-6-5-1"
       style="fill:#ffffff;stroke:none;display:inline" />
    <path
       d="m 173.759,446.708 c 0,0 -9.605,-0.493 -13.419,-3.099 -4.17,-2.825 -8.561,-12.371 -8.561,-12.371 0,0 -10.593,1.399 -15.45,0.056 -5.077,-1.397 -12.32,-8.009 -12.32,-8.009 4.884,-0.576 8.506,-1.206 13.253,-5.13 0,0 -9.358,-0.932 -14.681,-3.4 -4.636,-2.113 -12.157,-8.859 -12.157,-8.859 4.336,-0.986 9.03,-0.631 12.487,-5.074 0,0 -9.192,-0.301 -13.335,-2.111 -4.145,-1.838 -10.676,-8.421 -10.676,-8.421 5.051,-0.273 9.881,-1.069 13.145,-5.347 0,0 -9.302,-0.057 -13.227,-1.895 -5.405,-2.551 -13.665,-10.586 -13.665,-10.586 5.241,-0.221 10.455,-0.494 14.433,-3.539 l -2.88,-6.583 c -3.485,-7.954 -10.95,-5.513 -15.889,-7.872 -4.829,-2.331 -7.491,-8.201 -7.739,-11.438 -0.411,-5.705 2.361,-14.29 14.216,-11.986 -5.819,-9.984 0.41,-16.731 6.694,-19.254 6.066,-2.441 11.389,-1.481 15.396,9.353 0,0 5.571,-4.608 8.563,-5.184 4.169,-0.823 8.835,0.877 10.263,5.129 0.602,1.783 0.794,5.403 -0.249,7.516 -1.646,3.347 -5.214,5.54 -6.42,10.505 -1.372,5.596 3.375,15.689 3.375,15.689 0,0 22.666,20.516 33.066,31.679 5.543,5.952 15.587,18.706 15.587,18.706 l 0.548,-0.33 22.64,0.961 1.646,41.416 -24.644,-0.522 0,0 z"
       id="path247"
       style="fill:#cd0707;stroke:#800000;stroke-width:2.90739989;stroke-miterlimit:282" />
    <path
       d="m 154.55,425.342 c 0,0 5.296,12.37 8.891,14.372 3.401,1.921 6.258,-1.261 6.258,-1.261 l -2.086,-5.13 -7.244,-2.469 c 1.536,-7.24 15.339,-3.784 12.183,-18.268 0,0 -22.913,-25.068 -27.962,-30.17 -6.669,-6.746 -24.451,-21.914 -24.451,-21.914 0,0 -4.007,-10.944 -4.472,-18.35 -0.219,-3.265 0.44,-6.72 1.867,-9.572 1.454,-2.935 5.68,-3.84 6.502,-7.076 0.247,-1.016 -0.081,-2.277 -0.686,-3.127 -0.768,-0.988 -2.03,-1.701 -3.211,-1.674 -4.417,0.083 -11.498,6.857 -11.498,6.857 0,0 -4.307,-8.693 -8.095,-10.779 -1.619,-0.877 -3.704,-0.877 -5.378,-0.219 -1.536,0.63 -3.101,1.975 -3.595,3.703 -1.592,5.486 3.073,17.143 3.073,17.143 0,0 -10.29,-3.265 -14.295,-0.604 -1.51,1.015 -2.307,3.346 -2.198,5.322 0.165,2.139 1.565,4.224 3.185,5.54 4.336,3.593 15.669,4.909 15.669,4.909 l 13.035,19.887 -13.968,3.646 c 5.27,3.346 9.412,4.581 23.874,5.268 -2.991,6.555 -7.354,8.666 -11.167,11.492 l 24.229,4.909 c -2.167,6.474 -8.508,6.802 -11.498,9.545 6.092,4.69 15.778,6.61 25.629,8.421 -1.372,5.348 -7.684,6.418 -12.568,8.749 3.512,1.729 9.768,0.877 19.977,0.85"
       id="path249"
       style="fill:#e94545" />
    <path
       d="m 156.389,407.35 c -10.455,-24.438 -28.84,-38.207 -48.516,-51.866 15.23,23.945 32.462,38.974 48.516,51.866"
       id="path251"
       style="fill:#ee6c6c" />
    <path
       d="m 125.681,317.577 c 0.742,4.142 -0.878,7.021 -4.308,7.982 -1.701,0.494 -3.648,-0.138 -5.68,-2.551 1.044,-6.72 0.577,-9.408 -3.704,-15.387 10.81,2.935 11.168,8.146 13.692,9.956 l 0,0 z"
       id="path253"
       style="fill:#fee46e;stroke:#806600;stroke-width:1.12020004" />
    <path
       d="m 95.552,313.162 c 2.25,3.456 1.92,6.83 -0.797,9.27 -1.344,1.207 -3.349,1.509 -6.091,0.219 -1.62,-6.692 -3.074,-8.969 -9.22,-12.562 10.84,-2.111 13.143,2.524 16.108,3.073 l 0,0 z"
       id="path255"
       style="fill:#fee46e;stroke:#806600;stroke-width:1.12020004" />
    <path
       d="m 78.237,335.543 c 3.347,2.167 4.335,5.431 2.853,8.914 -0.74,1.728 -2.443,2.88 -5.379,2.935 -4.061,-5.431 -6.229,-6.857 -13.117,-7.405 8.891,-6.831 12.761,-3.621 15.643,-4.444 l 0,0 z"
       id="path257"
       style="fill:#fee46e;stroke:#806600;stroke-width:1.12020004" />
    <path
       d="m 82.956,594.244 7.903,18.597 c 0,0 12.678,-1.537 18.906,-3.429 8.535,-2.606 21.817,-10.532 21.817,-10.532 5.98,-3.265 -7.382,-12.864 -12.048,-17.993 -3.622,-3.95 -6.064,-9.081 -6.064,-9.081 -3.567,-5.811 8.974,-14.754 18.029,-20.761 11.608,-7.706 25.026,-15.003 37.183,-17.226 20.719,-3.783 69.838,-9.708 69.838,-9.708 l 4.994,18.294 -11.361,26.797 -16.986,11.851 c 3.238,3.756 -24.614,1.562 -46.019,0.877 -6.859,-0.248 1.291,20.268 1.291,20.268 0,0 5.323,4.034 7.354,7.215 2.031,3.209 3.183,6.855 1.51,10.177 -1.675,3.343 -6.56,4.908 -10.621,5.731 -4.033,0.823 -9.659,-1.701 -9.659,-1.701 1.784,3.018 3.348,6.09 2.964,9.327 -0.659,5.731 -12.405,12.698 -12.405,12.698 0,0 2.279,-5.651 1.482,-8.394 -0.933,-3.237 -4.446,-7.132 -4.446,-7.132 0,0 -0.439,4.691 -1.345,6.968 -2.552,6.335 -16.161,12.589 -16.161,12.589 0,0 2.991,-6.5 2.936,-9.956 -0.029,-3.401 -3.678,-6.582 -3.678,-6.582 0,0 -1.207,5.401 -3.816,8.693 -3.155,3.978 -12.703,8.338 -12.703,8.338 0,0 2.031,-5.32 2.195,-8.146 0.164,-2.688 -1.181,-7.981 -1.181,-7.981 0,0 -5.46,8.831 -8.78,11.849 -4.033,3.62 -12.679,6.255 -12.679,6.255 0,0 5.159,-9.107 3.458,-13.412 -1.619,-4.143 -12.87,-6.584 -12.87,-6.584 0,0 -12.02,5.731 -19.703,6.968 -3.815,0.603 -8.864,1.123 -11.471,-1.701 -3.566,-3.921 -4.034,-7.323 -2.14,-12.26 0.933,-2.47 7.244,-6.172 7.244,-6.172 0,0 -4.774,-2.743 -6.092,-4.526 -2.415,-3.264 -2.333,-7.158 -0.577,-10.807 1.839,-3.813 5.516,-5.155 9.769,-5.155 3.129,-0.027 8.397,3.867 8.397,3.867 0,0 1.373,-10.177 5.352,-12.015 3.845,-1.755 10.183,3.895 10.183,3.895 l 0,0 z"
       id="path259"
       style="fill:#cd0707;stroke:#800000;stroke-width:2.90739989;stroke-miterlimit:282" />
    <path
       d="m 213.054,572.056 -4.665,-11.959 c -1.563,-3.949 6.559,-6.912 6.147,-11.109 -0.468,-4.525 -2.91,-9.079 -6.971,-11.135 -5.27,-2.688 -28.264,2.331 -34.137,3.183 -8.918,1.315 -17.396,5.292 -25.355,9.572 -8.589,4.607 -23.765,17.114 -23.765,17.114 0,0 1.126,5.43 2.552,7.735 4.939,8.063 15.147,11.382 14.902,20.843 -0.166,5.788 -4.008,8.092 -7.74,10.863 -7.985,5.951 -16.025,8.117 -25.768,10.12 -7.271,1.481 -19.839,0.96 -19.839,0.96 0,0 -4.473,-13.768 -9.138,-19.09 -1.017,-1.151 -2.47,-3.182 -3.87,-2.549 -3.732,1.671 -1.729,12.149 -1.729,12.149 0,0 -8.123,-3.978 -12.513,-4.114 -3.02,-0.082 -5.406,-0.687 -6.696,2.057 -0.742,1.509 -1.153,3.677 0,4.882 2.744,2.799 12.676,7.598 12.676,7.598 0,0 -10.426,3.922 -12.456,8.119 -1.071,2.221 -2.333,4.389 -0.496,6.034 1.62,1.481 4.941,1.152 7.108,0.713 7.518,-1.563 21.623,-7.734 21.623,-7.734 l 17.316,5.842 1.124,7.542 12.515,-14.784 5.516,13.551 5.818,-12.782 11.963,9.793 6.065,-13.495 11.167,9.217 -2.14,-14.4 c 0,0 9.275,2.14 13.996,2.166 1.727,0 4.088,0.633 5.131,-0.768 1.18,-1.563 0,-4.06 -0.851,-5.815 -1.4,-2.935 -6.64,-7.075 -6.64,-7.075 0,0 -6.147,-12.453 -5.242,-18.844 0.576,-3.866 1.429,-8.804 5.27,-9.518 9.827,-1.866 50.467,3.756 49.122,-4.882"
       id="path261"
       style="fill:#e94545" />
    <path
       d="m 177.847,544.792 c 0,0 -14.818,2.853 -21.486,6.034 -10.236,4.854 -26.7,19.803 -26.7,19.803 l 13.583,18.569 -5.599,-18.296 c 0,0 12.349,-6.856 17.946,-10.587 8.371,-5.568 22.256,-15.523 22.256,-15.523"
       id="path263"
       style="fill:#ee6c6c" />
    <path
       d="m 49.779,600.497 c 3.869,0.906 5.901,3.649 5.681,7.435 -0.109,1.863 -1.318,3.537 -4.088,4.552 -5.625,-3.729 -8.151,-4.36 -14.82,-2.55 6.065,-9.437 10.785,-7.709 13.227,-9.437 l 0,0 z"
       id="path265"
       style="fill:#fee46e;stroke:#806600;stroke-width:1.12020004" />
    <path
       d="m 49.148,629.052 c 3.87,-0.989 6.943,0.492 8.48,3.949 0.767,1.726 0.493,3.757 -1.482,5.951 -6.751,-0.742 -8.281,-1.333 -13.357,3.33 1.015,-11.163 5.016,-10.571 6.359,-13.23 l 0,0 z"
       id="path267"
       style="fill:#fee46e;stroke:#806600;stroke-width:1.12020004" />
    <path
       d="m 76.672,588.018 c 2.332,3.237 2.058,6.667 -0.604,9.326 -1.317,1.344 -3.321,1.81 -6.092,0.768 -1.757,-6.528 -3.266,-8.64 -9.466,-11.686 10.784,-3.098 13.198,1.317 16.162,1.592 l 0,0 z"
       id="path269"
       style="fill:#fee46e;stroke:#806600;stroke-width:1.12020004" />
    <path
       d="m 341.732,558.077 c -3.671,-4.026 -14.503,-13.264 -15.555,-33.252 -1.291,-24.536 10.642,-29.146 18.403,-33.254 10.978,-5.812 16.225,-21.927 16.225,-21.927 2.614,-3.438 7.352,-5.535 11.683,-5.696 2.7,-0.084 5.558,1.198 7.521,3.064 3.218,3.087 5.516,12.137 5.516,12.137 0,0 3.65,-10.122 2.253,-14.984 -1.417,-4.961 -5.389,-9.542 -10.043,-11.791 -7.098,-3.453 -15.473,-3.55 -15.473,-3.55 0,0 9.482,-8.383 14.394,-17.094 3.896,-6.883 5.765,-20.423 5.765,-20.423 0.996,-9.822 -2.604,-21.381 -8.475,-29.861 -7.438,-10.707 -21.526,-18.915 -21.526,-18.915 0,0 4.465,9.274 7.08,18.308 1.821,6.248 1.856,14.054 1.856,14.054 0,0 -4.456,-5.552 -8.434,-9.567 -5.534,-5.549 -10.544,-7.048 -10.544,-7.048 0,0 2.664,9.117 5.089,18.956 1.1,4.385 0.53,9.18 -0.524,13.595 -1.612,6.949 -6.457,16.905 -8.798,23.671 -3.274,9.455 -7.439,11.269 -12.936,19.62 -25.923,39.387 -13.798,53.021 -13.798,53.021 0,0 -11.635,-5.912 -18.476,3.886 -4.188,6.004 -4.877,17.475 -4.877,17.475 0,0 5.778,-7.524 9.814,-9.043 2.98,-1.132 9.425,1.851 9.425,1.851 0,0 -11.162,6.313 -13.808,11.743 -2.605,5.314 -1.092,15.297 -1.092,15.297 0,0 3.473,-6.728 7.247,-9.207 3.191,-2.072 11.321,-1.465 11.321,-1.465 0,0 -9.996,8.069 -12.017,13.834 -1.863,5.274 0.618,16.763 0.618,16.763 0,0 3.905,-8.745 7.627,-11.413 2.686,-1.922 6.347,-2.922 9.619,-2.655 2.896,0.256 6.31,11.863 19.312,22.643 l 5.608,-18.773 z"
       id="path271"
       style="fill:#cd0707" />
    <path
       d="m 385.475,474.983 c 0,0 -1.677,-10.724 -5.213,-14.412 -3.438,-3.564 -5.837,-3.563 -10.788,-3.774 -4.162,-0.184 -8.827,0.937 -11.971,3.713 l -2.109,-6.229 6.868,-5.457 -9.614,1.95 -5.559,-10.12 -7.689,-8.454 7.161,-18.683 1.015,-10.015 -3.137,-12.861 -2.512,-12.272 8.92,4.845 10.616,11.193 -2.551,-14.842 -5.626,-16.342 15.436,11.271 12.794,21.532 1.324,18.742 -8.194,21.005 -10.051,11.524 17.109,7.552 6.75,10.124 -2.979,10.01 0,0 z"
       id="path273"
       style="fill:#e94545" />
    <path
       d="m 343.555,379.22 c 0,0 8.35,7.16 10.532,12.014 3.221,7.136 3.914,15.561 2.902,23.342 -0.642,4.704 -3.355,8.896 -5.39,13.182 -2.52,5.259 -2.632,7.477 -4.594,12.957 l -7.605,-8.515 1.527,-3.099 7.162,-18.683 0.383,-11.678 -4.977,-19.8 0.06,0.28 0,0 z"
       id="path275"
       style="fill:#ee6c6c" />
    <path
       d="m 341.732,558.077 c -3.671,-4.026 -14.503,-13.264 -15.555,-33.252 -1.291,-24.536 10.642,-29.146 18.403,-33.254 10.978,-5.812 16.225,-21.927 16.225,-21.927 2.614,-3.438 7.352,-5.535 11.683,-5.696 2.7,-0.084 5.558,1.198 7.521,3.064 3.218,3.087 5.516,12.137 5.516,12.137 0,0 3.65,-10.122 2.253,-14.984 -1.417,-4.961 -5.389,-9.542 -10.043,-11.791 -7.098,-3.453 -15.473,-3.55 -15.473,-3.55 0,0 9.482,-8.383 14.394,-17.094 3.896,-6.883 5.765,-20.423 5.765,-20.423 0.996,-9.822 -2.604,-21.381 -8.475,-29.861 -7.438,-10.707 -21.526,-18.915 -21.526,-18.915 0,0 4.465,9.274 7.08,18.308 1.821,6.248 1.856,14.054 1.856,14.054 0,0 -4.456,-5.552 -8.434,-9.567 -5.534,-5.549 -10.544,-7.048 -10.544,-7.048 0,0 2.664,9.117 5.089,18.956 1.1,4.385 0.53,9.18 -0.524,13.595 -1.612,6.949 -6.457,16.905 -8.798,23.671 -3.274,9.455 -7.439,11.269 -12.936,19.62 -25.923,39.387 -13.798,53.021 -13.798,53.021 0,0 -11.635,-5.912 -18.476,3.886 -4.188,6.004 -4.877,17.475 -4.877,17.475 0,0 5.778,-7.524 9.814,-9.043 2.98,-1.132 9.425,1.851 9.425,1.851 0,0 -11.162,6.313 -13.808,11.743 -2.605,5.314 -1.092,15.297 -1.092,15.297 0,0 3.473,-6.728 7.247,-9.207 3.191,-2.072 11.321,-1.465 11.321,-1.465 0,0 -9.996,8.069 -12.017,13.834 -1.863,5.274 0.618,16.763 0.618,16.763 0,0 3.905,-8.745 7.627,-11.413 2.686,-1.922 6.347,-2.922 9.619,-2.655 2.896,0.256 6.31,11.863 19.312,22.643 l 5.608,-18.773 z"
       id="path277"
       style="fill:none;stroke:#800000;stroke-width:2.90739989;stroke-miterlimit:282" />
    <path
       d="m 247.741,561.88 c 0,0 -11.308,6.609 -18.552,3.482 -3.129,-1.343 -6.064,-4.225 -6.86,-7.517 -0.768,-3.18 0.659,-6.828 2.553,-9.518 1.179,-1.728 10.153,-7.184 10.153,-7.184 0,0 -2.415,-8.12 -5.324,-12.837 -4.254,-6.912 -24.999,-14.07 -24.999,-14.07 8.452,-2.635 18.304,-2.964 28.236,-0.604 l 16.85,20.545 -2.057,27.703 0,0 z"
       id="path279"
       style="fill:#cd0707;stroke:#800000;stroke-width:2.90739989;stroke-miterlimit:282" />
    <path
       d="m 336.896,577.814 c 3.44,-15.815 17.385,-23.354 20.279,-23.61 3.274,-0.267 6.935,0.733 9.62,2.655 3.721,2.668 7.625,11.413 7.625,11.413 0,0 2.483,-11.488 0.619,-16.763 -2.021,-5.765 -12.016,-13.834 -12.016,-13.834 0,0 8.13,-0.607 11.321,1.465 3.773,2.479 7.246,9.207 7.246,9.207 0,0 1.514,-9.982 -1.092,-15.297 -2.646,-5.43 -13.808,-11.743 -13.808,-11.743 0,0 6.444,-2.982 9.425,-1.851 4.036,1.519 9.814,9.043 9.814,9.043 0,0 -0.687,-11.471 -4.877,-17.475 -6.841,-9.798 -18.476,-3.886 -18.476,-3.886 0,0 12.126,-13.634 -13.797,-53.021 -5.497,-8.352 -9.536,-10.374 -12.818,-19.827 -2.347,-6.763 -7.198,-16.716 -8.817,-23.664 -1.06,-4.414 -1.633,-9.207 -0.536,-13.592 2.416,-9.843 11.852,-25.747 11.852,-25.747 0,0 -11.787,8.288 -17.317,13.842 -3.974,4.019 -8.426,9.573 -8.426,9.573 0,0 0.028,-7.805 1.846,-14.055 2.606,-9.035 7.064,-18.313 7.064,-18.313 0,0 -14.082,8.221 -21.511,18.934 -5.862,8.484 -9.454,20.046 -8.448,29.867 0,0 1.88,13.538 5.781,20.419 4.918,8.706 14.278,17.268 14.278,17.268 0,0 -8.376,0.097 -15.474,3.55 -4.653,2.249 -8.626,6.83 -10.043,11.791 -1.396,4.862 2.253,14.984 2.253,14.984 0,0 2.298,-9.05 5.516,-12.137 1.965,-1.866 4.82,-3.148 7.522,-3.064 4.332,0.161 9.068,2.259 11.684,5.696 0,0 5.245,16.115 16.225,21.927 7.762,4.108 19.692,8.718 18.401,33.254 -1.367,26.001 -19.347,29.801 -23.073,47.749 -0.948,4.566 -3.321,8.094 -7.629,9.876 -5.378,2.249 -12.267,2.633 -17.48,0 -6.476,-3.264 -7.052,-6.254 -9.878,-12.918 -5.434,-12.755 -4.83,-30.418 -9.88,-43.31 -4.225,-10.752 -14.187,-17.854 -17.508,-28.882 -3.4,-11.41 0.138,-23.945 -1.508,-35.738 -1.043,-7.297 -5.076,-18.541 -6.092,-25.838 -0.798,-5.787 0,-12.918 0,-12.918 l -51.205,-2.688 -27.606,24.41 c 0,0 -10.537,2.881 -15.914,3.183 -13.118,0.77 -28.266,-3.154 -41.382,-3.703 -14.134,-0.575 -40.366,-1.563 -40.366,-1.563 L 73.241,431.21 c -1.922,-4.306 -2.032,-9.489 -6.259,-11.52 -3.319,-1.563 -8.231,-2.385 -11.003,0 -2.662,2.304 -1.563,10.451 -1.563,10.451 0,0 -8.426,-1.783 -12.02,0 -3.896,1.946 -6.229,4.552 -6.285,8.886 -0.055,5.129 2.771,10.725 7.326,13.084 2.004,1.042 6.807,1.042 6.807,1.042 0,0 -4.171,2.058 -5.242,5.237 -1.372,4.062 -0.027,9.602 3.129,12.535 3.76,3.485 7.684,3.183 12.568,1.564 4.089,-1.372 8.89,-7.323 8.89,-7.323 0,0 7.52,-0.851 10.457,1.042 2.358,1.536 3.458,4.607 4.171,7.323 0.548,2.029 0.823,4.334 0,6.281 -2.168,5.237 -10.95,13.248 -10.95,13.248 0,0 8.508,0.577 12.432,-0.769 8.205,-2.798 19.265,-13.221 19.265,-13.221 0,0 -0.66,4.938 -2.799,7.734 -2.69,3.539 -9.523,9.271 -9.523,9.271 0,0 12.979,-1.372 19.099,-4.307 5.488,-2.631 13.227,-12.205 13.227,-12.205 0,0 -0.165,4.636 -1.316,7.021 -1.373,2.853 -4.336,9.326 -4.336,9.326 0,0 11.717,-2.578 16.931,-5.623 3.952,-2.304 8.809,-9.737 8.809,-9.737 0,0 0.191,5.075 -0.605,7.734 -0.739,2.414 -4.17,7.488 -4.17,7.488 0,0 11.197,-2.083 15.998,-4.717 4.885,-2.661 11.828,-11.823 11.828,-11.823 0,0 6.585,-1.644 10.838,0.77 8.37,4.744 12.128,15.989 21.926,21.175 15.915,8.419 37.102,13.248 43.877,31.76 2.334,6.363 2.499,10.644 -0.768,16.623 -3.979,7.323 -20.69,16.155 -24.945,24.191 0,0 -6.693,9.16 -8.341,18.157 -1.043,5.73 -0.191,12.069 2.278,17.361 3.155,6.803 9.384,11.821 15.12,16.649 6.86,5.76 22.693,14.371 22.693,14.371 l 2.688,5.404 c 0,0 -10.015,6.884 -13.775,11.738 -4.609,5.925 -12.072,19.035 -12.072,19.035 0,0 -4.666,-4.854 -9.797,-6.746 -3.98,-1.454 -9.633,-2.936 -12.705,0 -2.938,2.797 -3.129,6.143 -1.646,9.928 1.315,3.401 6.063,6.063 6.063,6.063 0,0 -3.951,3.675 -4.967,6.061 -1.235,2.909 -1.208,6.776 0.55,9.38 2.359,3.485 6.31,3.018 10.48,3.321 2.965,0.219 8.838,-1.099 8.838,-1.099 0,0 -1.346,3.456 -1.098,5.513 0.355,3.183 1.125,7.132 3.868,8.832 3.732,2.331 9.605,1.976 13.228,-0.547 6.146,-4.307 8.561,-20.271 8.561,-20.271 l 0,0 c 0,0 3.651,-0.879 5.104,0 3.732,2.248 9.741,7.899 9.741,7.899 0,0 1.482,-6.938 -0.164,-12.454 -0.987,-3.262 -6.532,-7.814 -6.532,-7.814 0,0 7.164,-1.893 10.428,0.466 3.212,2.331 7.246,10.396 7.246,10.396 0,0 1.536,-8.859 0.466,-14.4 -0.796,-4.225 -7.876,-10.23 -7.876,-10.23 0,0 5.818,-1.18 8.343,0 4.392,2.057 9.303,11.163 9.303,11.163 0,0 3.676,-11.959 0.933,-18.569 -1.29,-3.071 -7.903,-6.061 -7.903,-6.061 0,0 9.139,-2.387 12.542,0 4.17,2.963 6.036,10.231 6.036,10.231 0,0 4.309,-8.888 2.799,-15.333 -0.934,-3.976 -7.437,-9.736 -7.437,-9.736 0,0 4.994,-4.171 6.503,-6.969 1.264,-2.385 2.937,-5.431 1.865,-7.898 -1.123,-2.552 -4.526,-3.73 -7.271,-4.142 -3.348,-0.523 -9.852,2.194 -9.852,2.194 l -4.062,-3.538 c -7.135,-6.253 -11.031,-16.349 -12.102,-26.469 -1.153,-10.479 7.327,-30.142 7.327,-30.142 0,0 3.952,12.834 10.043,19.938 4.253,4.964 10.401,8.805 16.795,10.176 8.176,1.755 12.349,2.194 19.839,-1.535 6.781,-3.34 14.177,-8.887 15.781,-16.26 z"
       id="path281"
       style="fill:#cd0707" />
    <path
       d="m 192.72,483.217 c 0,0 2.716,-8.176 1.481,-12.015 -1.564,-4.992 -8.205,-6.966 -10.537,-11.658 -0.906,-1.837 -1.125,-6.033 -1.125,-6.033 0,0 -4.994,3.511 -7.902,3.759 -4.391,0.409 -8.37,-3.183 -12.789,-3.375 -3.814,-0.192 -11.277,1.893 -11.277,1.893 0,0 -24.478,-4.497 -34.247,-5.65 -14.957,-1.756 -42.122,0 -42.122,0 l -7.164,-19.556 c 0,0 -0.026,-3.21 -1.865,-4.525 -1.344,-0.934 -3.759,-1.152 -4.883,0 -2.443,2.55 0,10.916 0,10.916 0,0 -9.331,-3.4 -13.94,-1.124 -1.839,0.904 -3.705,2.824 -3.76,4.881 -0.027,2.169 2.003,4.004 3.76,5.267 4.692,3.348 16.575,5.267 16.575,5.267 0,0 -10.127,3.594 -12.047,7.898 -0.825,1.839 -1.4,4.553 0,6.008 1.894,2.002 5.625,1.207 8.261,0.383 3.923,-1.233 9.794,-7.514 9.794,-7.514 0,0 12.157,0.19 16.547,3.757 3.019,2.442 4.062,6.748 4.884,10.533 0.577,2.578 0.138,5.267 0,7.898 -0.055,1.372 -0.355,4.142 -0.355,4.142 l 21.431,-17.307 c 2.716,6.774 0.22,13.521 -3.019,20.297 l 20.718,-18.048 c 4.636,6.006 2.167,12.04 0,18.048 l 18.796,-16.54 c 4.475,5.896 3.321,10.862 1.895,15.8 0,0 5.158,-2.497 7.518,-4.143 4.5,-3.154 12.405,-10.916 12.405,-10.916 0,0 7.737,2.001 11.304,3.757 4.199,2.083 11.663,7.9 11.663,7.9"
       id="path283"
       style="fill:#e94545" />
    <path
       d="m 155.838,460.231 c -24.229,-7.652 -47.089,-9.82 -70.823,-8.01 27.385,7.351 50.271,9.353 70.823,8.01"
       id="path285"
       style="fill:#ee6c6c" />
    <path
       d="m 263.079,647.426 c 0,0 -3.21,-9.271 -6.228,-12.999 -9.11,-11.274 -27.497,-15.8 -33.891,-28.8 -2.334,-4.746 -2.058,-8.502 -0.577,-13.55 2.36,-7.981 8.617,-14.236 13.557,-20.901 5.734,-7.734 15.751,-12.862 18.66,-22.024 2.551,-8.116 1.097,-17.607 -2.277,-25.424 -2.58,-6.008 -7.739,-10.779 -12.98,-14.674 -9.494,-7.023 -23.462,-6.776 -32.216,-14.701 -1.947,-1.757 -3.951,-6.776 -3.951,-6.776 0,0 24.697,-6.061 33.342,-14.098 2.414,-2.248 3.951,-6.802 3.951,-6.802 l 13.006,5.102 c 0,0 -1.014,18.074 1.675,26.55 1.921,6.006 4.583,10.999 7.93,16.375 3.431,5.542 9.303,10.012 10.73,16.376 1.509,6.664 1.207,13.713 -0.576,20.322 -2.58,9.627 -12.212,20.16 -14.104,29.925 -1.509,7.598 -1.73,15.633 0,23.177 2.194,9.765 15.806,24.849 15.806,24.849 l 6.776,3.374 c 0,0 8.069,-3.374 9.605,-0.548 2.113,3.893 -7.903,10.725 -7.903,10.725 l 6.778,7.35 -24.286,5.624 10.154,9.05 -19.758,0.548 10.729,14.703 h -20.36 l 10.182,10.724 -9.604,0.575 c 0,0 -3.047,13.631 -7.904,18.075 -1.756,1.592 -4.857,3.65 -6.777,2.251 -1.839,-1.317 0,-4.526 0,-6.776 v -9.052 c 0,0 -8.232,2.031 -12.432,2.278 -2.825,0.164 -7.024,1.837 -8.479,-0.578 -1.922,-3.181 4.528,-10.175 4.528,-10.175 0,0 -6.065,-5.376 -7.354,-9.024 -0.385,-1.069 -0.796,-2.577 0,-3.374 1.729,-1.752 4.993,-0.711 7.354,0 5.599,1.646 14.681,9.602 14.681,9.602 l 11.854,-20.9 20.359,-16.379 0,0 z"
       id="path287"
       style="fill:#e94545" />
    <path
       d="m 288.516,474.983 c 0,0 1.678,-10.724 5.211,-14.412 3.438,-3.564 5.839,-3.563 10.789,-3.774 4.162,-0.184 8.827,0.937 11.972,3.713 4.673,4.199 6.739,10.435 10.566,15.393 4.774,6.198 18.283,14.705 18.283,14.705 l 2.877,-14.112 -0.477,1.378 -0.731,-20.995 -5.307,-13.032 -6.992,-11.852 -7.178,-18.676 -1.023,-10.013 3.126,-12.865 9.282,-19.062 -15.696,11.64 -10.606,11.201 2.538,-14.844 5.612,-16.346 -15.426,11.283 -12.775,21.544 -1.311,18.743 8.214,20.997 10.061,11.516 -17.238,7.736 -6.751,10.124 2.98,10.01 0,0 z"
       id="path289"
       style="fill:#e94545" />
    <path
       d="m 330.506,379.019 c 0,0 -8.343,7.166 -10.523,12.021 -3.215,7.139 -3.899,15.563 -2.881,23.344 0.646,4.704 3.364,8.892 5.4,13.178 2.525,5.256 6.496,9.842 8.463,15.32 2.247,6.332 4.686,6.625 6.55,13.093 1.165,4.026 1.197,12.543 1.197,12.543 3.117,-3.403 5.755,-7.911 4.879,-21.119 l -5.06,-6.079 -5.355,-12.422 -7.176,-18.678 -0.395,-11.678 6.389,-12.782 5.353,-13.808 -6.841,7.067 0,0 z"
       id="path291"
       style="fill:#ee6c6c" />
    <path
       d="m 336.896,577.814 c 3.44,-15.815 17.385,-23.354 20.279,-23.61 3.274,-0.267 6.935,0.733 9.62,2.655 3.721,2.668 7.625,11.413 7.625,11.413 0,0 2.483,-11.488 0.619,-16.763 -2.021,-5.765 -12.016,-13.834 -12.016,-13.834 0,0 8.13,-0.607 11.321,1.465 3.773,2.479 7.246,9.207 7.246,9.207 0,0 1.514,-9.982 -1.092,-15.297 -2.646,-5.43 -13.808,-11.743 -13.808,-11.743 0,0 6.444,-2.982 9.425,-1.851 4.036,1.519 9.814,9.043 9.814,9.043 0,0 -0.687,-11.471 -4.877,-17.475 -6.841,-9.798 -18.476,-3.886 -18.476,-3.886 0,0 12.126,-13.634 -13.797,-53.021 -5.497,-8.352 -9.536,-10.374 -12.818,-19.827 -2.347,-6.763 -7.198,-16.716 -8.817,-23.664 -1.06,-4.414 -1.633,-9.207 -0.536,-13.592 2.416,-9.843 11.852,-25.747 11.852,-25.747 0,0 -11.787,8.288 -17.317,13.842 -3.974,4.019 -8.426,9.573 -8.426,9.573 0,0 0.028,-7.805 1.846,-14.055 2.606,-9.035 7.064,-18.313 7.064,-18.313 0,0 -14.082,8.221 -21.511,18.934 -5.862,8.484 -9.454,20.046 -8.448,29.867 0,0 1.88,13.538 5.781,20.419 4.918,8.706 14.278,17.268 14.278,17.268 0,0 -8.376,0.097 -15.474,3.55 -4.653,2.249 -8.626,6.83 -10.043,11.791 -1.396,4.862 2.253,14.984 2.253,14.984 0,0 2.298,-9.05 5.516,-12.137 1.965,-1.866 4.82,-3.148 7.522,-3.064 4.332,0.161 9.068,2.259 11.684,5.696 0,0 5.245,16.115 16.225,21.927 7.762,4.108 19.692,8.718 18.401,33.254 -1.367,26.001 -19.347,29.801 -23.073,47.749 -0.948,4.566 -3.321,8.094 -7.629,9.876 -5.378,2.249 -12.267,2.633 -17.48,0 -6.476,-3.264 -7.052,-6.254 -9.878,-12.918 -5.434,-12.755 -4.83,-30.418 -9.88,-43.31 -4.225,-10.752 -14.187,-17.854 -17.508,-28.882 -3.4,-11.41 0.138,-23.945 -1.508,-35.738 -1.043,-7.297 -5.076,-18.541 -6.092,-25.838 -0.798,-5.787 0,-12.918 0,-12.918 l -51.205,-2.688 -27.606,24.41 c 0,0 -10.537,2.881 -15.914,3.183 -13.118,0.77 -28.266,-3.154 -41.382,-3.703 -14.134,-0.575 -40.366,-1.563 -40.366,-1.563 L 73.241,431.21 c -1.922,-4.306 -2.032,-9.489 -6.259,-11.52 -3.319,-1.563 -8.231,-2.385 -11.003,0 -2.662,2.304 -1.563,10.451 -1.563,10.451 0,0 -8.426,-1.783 -12.02,0 -3.896,1.946 -6.229,4.552 -6.285,8.886 -0.055,5.129 2.771,10.725 7.326,13.084 2.004,1.042 6.807,1.042 6.807,1.042 0,0 -4.171,2.058 -5.242,5.237 -1.372,4.062 -0.027,9.602 3.129,12.535 3.76,3.485 7.684,3.183 12.568,1.564 4.089,-1.372 8.89,-7.323 8.89,-7.323 0,0 7.52,-0.851 10.457,1.042 2.358,1.536 3.458,4.607 4.171,7.323 0.548,2.029 0.823,4.334 0,6.281 -2.168,5.237 -10.95,13.248 -10.95,13.248 0,0 8.508,0.577 12.432,-0.769 8.205,-2.798 19.265,-13.221 19.265,-13.221 0,0 -0.66,4.938 -2.799,7.734 -2.69,3.539 -9.523,9.271 -9.523,9.271 0,0 12.979,-1.372 19.099,-4.307 5.488,-2.631 13.227,-12.205 13.227,-12.205 0,0 -0.165,4.636 -1.316,7.021 -1.373,2.853 -4.336,9.326 -4.336,9.326 0,0 11.717,-2.578 16.931,-5.623 3.952,-2.304 8.809,-9.737 8.809,-9.737 0,0 0.191,5.075 -0.605,7.734 -0.739,2.414 -4.17,7.488 -4.17,7.488 0,0 11.197,-2.083 15.998,-4.717 4.885,-2.661 11.828,-11.823 11.828,-11.823 0,0 6.585,-1.644 10.838,0.77 8.37,4.744 12.128,15.989 21.926,21.175 15.915,8.419 37.102,13.248 43.877,31.76 2.334,6.363 2.499,10.644 -0.768,16.623 -3.979,7.323 -20.69,16.155 -24.945,24.191 0,0 -6.693,9.16 -8.341,18.157 -1.043,5.73 -0.191,12.069 2.278,17.361 3.155,6.803 9.384,11.821 15.12,16.649 6.86,5.76 22.693,14.371 22.693,14.371 l 2.688,5.404 c 0,0 -10.015,6.884 -13.775,11.738 -4.609,5.925 -12.072,19.035 -12.072,19.035 0,0 -4.666,-4.854 -9.797,-6.746 -3.98,-1.454 -9.633,-2.936 -12.705,0 -2.938,2.797 -3.129,6.143 -1.646,9.928 1.315,3.401 6.063,6.063 6.063,6.063 0,0 -3.951,3.675 -4.967,6.061 -1.235,2.909 -1.208,6.776 0.55,9.38 2.359,3.485 6.31,3.018 10.48,3.321 2.965,0.219 8.838,-1.099 8.838,-1.099 0,0 -1.346,3.456 -1.098,5.513 0.355,3.183 1.125,7.132 3.868,8.832 3.732,2.331 9.605,1.976 13.228,-0.547 6.146,-4.307 8.561,-20.271 8.561,-20.271 l 0,0 c 0,0 3.651,-0.879 5.104,0 3.732,2.248 9.741,7.899 9.741,7.899 0,0 1.482,-6.938 -0.164,-12.454 -0.987,-3.262 -6.532,-7.814 -6.532,-7.814 0,0 7.164,-1.893 10.428,0.466 3.212,2.331 7.246,10.396 7.246,10.396 0,0 1.536,-8.859 0.466,-14.4 -0.796,-4.225 -7.876,-10.23 -7.876,-10.23 0,0 5.818,-1.18 8.343,0 4.392,2.057 9.303,11.163 9.303,11.163 0,0 3.676,-11.959 0.933,-18.569 -1.29,-3.071 -7.903,-6.061 -7.903,-6.061 0,0 9.139,-2.387 12.542,0 4.17,2.963 6.036,10.231 6.036,10.231 0,0 4.309,-8.888 2.799,-15.333 -0.934,-3.976 -7.437,-9.736 -7.437,-9.736 0,0 4.994,-4.171 6.503,-6.969 1.264,-2.385 2.937,-5.431 1.865,-7.898 -1.123,-2.552 -4.526,-3.73 -7.271,-4.142 -3.348,-0.523 -9.852,2.194 -9.852,2.194 l -4.062,-3.538 c -7.135,-6.253 -11.031,-16.349 -12.102,-26.469 -1.153,-10.479 7.327,-30.142 7.327,-30.142 0,0 3.952,12.834 10.043,19.938 4.253,4.964 10.401,8.805 16.795,10.176 8.176,1.755 12.349,2.194 19.839,-1.535 6.781,-3.34 14.177,-8.887 15.781,-16.26 z"
       id="path293"
       style="fill:none;stroke:#800000;stroke-width:2.90739989;stroke-miterlimit:282" />
    <path
       d="m 62.924,416.84 c 2.58,3.071 2.552,6.5 0.109,9.381 -1.208,1.425 -3.182,2.028 -6.009,1.206 -2.251,-6.363 -3.925,-8.394 -10.318,-10.943 10.51,-3.897 13.226,0.301 16.218,0.356 l 0,0 z"
       id="path295"
       style="fill:#fee46e;stroke:#806600;stroke-width:1.12020004" />
    <path
       d="m 38.227,431.074 c 3.704,1.481 5.296,4.499 4.528,8.202 -0.384,1.809 -1.812,3.291 -4.693,3.922 -5.021,-4.526 -7.436,-5.513 -14.296,-4.719 7.382,-8.446 11.799,-6.034 14.461,-7.405 l 0,0 z"
       id="path297"
       style="fill:#fee46e;stroke:#806600;stroke-width:1.12020004" />
    <path
       d="m 46.322,462.781 c 3.924,-0.629 6.86,1.152 8.067,4.718 0.632,1.782 0.138,3.786 -2.029,5.786 -6.613,-1.314 -9.194,-0.932 -14.682,3.238 2.031,-11.027 7.052,-11.191 8.644,-13.742 l 0,0 z"
       id="path299"
       style="fill:#fee46e;stroke:#806600;stroke-width:1.12020004" />
    <path
       d="m 210.749,490.209 c 0,0 3.65,3.457 5.817,4.662 6.834,3.758 15.917,2.88 22.146,7.573 l 13.996,10.476 -19.236,-31.459 c 0,0 -5.188,3.976 -8.151,5.237 -4.612,1.975 -14.572,3.511 -14.572,3.511"
       id="path301"
       style="fill:#ee6c6c" />
    <path
       d="m 249.797,565.967 c 0,0 -15.531,10.915 -19.813,21.557 -2.413,5.953 -2.47,12.124 0,18.049 6.202,14.894 29.72,22.737 29.72,22.737 0,0 -16.821,-10.012 -20.993,-23.314 -1.564,-5.019 -0.906,-10.585 0,-15.742 1.703,-9.383 11.086,-23.287 11.086,-23.287"
       id="path303"
       style="fill:#ee6c6c" />
    <path
       d="m 205.864,668.655 c 3.239,2.334 4.063,5.651 2.415,9.053 -0.795,1.673 -2.552,2.769 -5.487,2.688 -3.787,-5.623 -5.9,-7.158 -12.761,-8.01 9.193,-6.417 12.898,-3.018 15.833,-3.731 l 0,0 z"
       id="path305"
       style="fill:#fee46e;stroke:#806600;stroke-width:1.12020004" />
    <path
       d="m 203.889,693.506 c 3.924,-0.63 6.859,1.152 8.066,4.718 0.604,1.784 0.14,3.786 -2.029,5.787 -6.642,-1.344 -9.193,-0.959 -14.709,3.236 2.058,-11.024 7.079,-11.219 8.672,-13.741 l 0,0 z"
       id="path307"
       style="fill:#fee46e;stroke:#806600;stroke-width:1.12020004" />
    <path
       d="m 227.681,708.208 c 3.896,-0.878 6.913,0.713 8.369,4.195 0.714,1.756 0.355,3.758 -1.675,5.896 -6.694,-0.903 -9.247,-0.354 -14.461,4.144 1.344,-11.107 6.34,-11.602 7.767,-14.235 l 0,0 z"
       id="path309"
       style="fill:#fee46e;stroke:#806600;stroke-width:1.12020004" />
    <path
       d="m 243.047,367.141 c 0,0 -18.522,-3.978 -26.041,-5.706 -8.782,-2.029 -21.487,2.03 -30.076,-0.686 -5.05,-1.617 -6.285,-2.771 -8.754,-7.461 -1.536,-2.879 -2.277,-7.816 -2.277,-7.816 0,0 -4.171,5.239 -3.513,9.818 0.577,3.979 3.403,7.928 6.971,9.82 9.878,5.266 27.11,1.783 38.006,4.306 7.628,1.756 16.848,12.507 16.848,12.507 l 8.836,-14.782 0,0 z"
       id="path311"
       style="fill:#fee46e;stroke:#806600;stroke-width:1.12020004" />
    <path
       d="m 193.461,376.904 c 1.399,-8.667 3.265,-9.518 5.077,-12.37 l 0.082,12.179 -5.159,0.191 0,0 z"
       id="path313"
       style="fill:#ffffff" />
    <path
       d="m 193.461,351.177 c 1.399,8.667 3.265,9.518 5.077,12.37 l 0.082,-12.179 -5.159,-0.191 0,0 z"
       id="path315"
       style="fill:#ffffff" />
    <path
       d="m 163.44,447.313 8.919,-3.895 c 2.522,-1.098 1.618,-5.404 2.607,-7.845 1.097,-2.771 6.035,-6.611 6.035,-6.611 l -11.717,-0.383 c 0,0 8.508,-4.06 9.083,-9.819 0.138,-1.481 -0.383,-6.089 -0.383,-7.57 0.027,-5.046 4.5,-9.298 8.698,-12.097 2.662,-1.783 9.852,-2.496 11.362,-5.293 l 2.66,-4.938 c 0,0 -3.649,2.551 -7.135,2.99 -3.402,0.438 -8.698,-1.123 -8.698,-1.123 l 7.545,-7.188 c 1.209,-1.125 -0.795,-5.98 -0.355,-7.57 0.795,-2.88 6.806,-4.168 6.806,-4.168 0,0 12.621,2.357 18.194,-0.906 5.294,-3.127 7.901,-9.188 6.173,-14.564 l -1.18,-3.621 c -1.483,-4.553 -18.084,1.537 -22.804,2.168 -4.172,0.549 -8.204,-1.344 -10.374,-4.91 -4.06,-6.637 -0.684,-13.302 0,-19.94 l 25.22,-1.152 c 9.357,-12.288 30.568,-11.355 49.888,-5.458 2.112,-1.234 7.738,-0.631 9.988,-1.454 2.523,-0.933 1.812,-3.264 6.779,-4.635 0,0 2.826,2.523 1.975,7.213 -0.357,1.974 -5.297,6.171 -5.077,7.763 0.109,1.042 3.129,-1.865 6.422,-1.563 4.144,0.356 8.727,3.867 8.589,4.827 -0.466,2.989 -3.072,8.284 -5.818,11.026 -2.112,2.057 -4.225,1.7 -6.009,3.182 -2.085,1.755 -8.892,2.222 -8.892,2.222 0,0 8.48,5.185 10.813,9.325 4.335,7.68 -0.741,16.32 3.457,24.055 1.482,2.743 4.886,4.416 4.886,4.416 0,0 -3.842,3.318 -7.354,2.468 -3.211,-0.796 -6.889,-1.975 -6.889,-1.975 0,0 6.477,7.653 6.889,14.235 0.466,7.625 -8.149,13.521 -8.836,21.118 -0.495,5.35 3.431,15.718 3.431,15.718 0,0 -4.939,-1.563 -7.354,-3.456 -2.031,-1.563 -5.9,-6.364 -5.9,-6.364 l 1.947,10.808 c 0.96,5.185 -9.41,8.528 -10.316,14.729 -0.549,3.978 2.964,8.339 2.964,8.339 0,0 -9.468,-2.14 -13.255,-4.909 -3.018,-2.224 -6.889,-8.833 -6.889,-8.833 0,0 -3.456,9.053 -6.393,12.261 -3.266,3.593 -10.235,5.348 -15.86,7.982 -9.55,4.47 -18.029,8.721 -18.029,8.721 0,0 1.7,-6.309 0.987,-9.819 -1.125,-5.457 -8.698,-11.3 -11.307,-16.209 -2.633,-4.965 0,-11.795 0,-11.795 0,0 -6.228,5.98 -10.783,6.885 -5.023,1.011 -14.71,-2.388 -14.71,-2.388 l 0,0 0,0 z"
       id="path317"
       style="fill:#e94545" />
    <path
       d="m 219.256,333.732 c 0.083,3.676 4.39,7.543 9.823,7.405 5.46,-0.164 8.837,-3.236 8.726,-6.911 -0.109,-3.703 -3.595,-5.596 -9.054,-5.458 -5.461,0.165 -9.604,1.289 -9.495,4.964"
       id="path319"
       style="fill:#ffffff" />
    <path
       d="m 224.443,334.336 c 0.082,2.03 1.784,3.648 3.814,3.594 2.057,-0.056 3.677,-1.756 3.622,-3.786 -0.055,-2.057 -1.757,-3.675 -3.814,-3.62 -2.06,0.055 -3.677,1.755 -3.622,3.812"
       id="path321"
       style="fill:#2b2200" />
    <path
       d="m 228.751,329.619 c -2.691,0.082 -4.94,0.493 -6.478,1.152 -1.51,0.686 -2.141,1.427 -2.112,2.935 0.082,3.017 3.842,6.72 8.89,6.583 2.554,-0.082 4.558,-0.824 5.873,-1.92 1.345,-1.125 2.031,-2.579 1.977,-4.142 -0.027,-1.563 -0.714,-2.661 -2.059,-3.456 -1.371,-0.796 -3.457,-1.234 -6.091,-1.152 m -0.054,-1.756 c 2.853,-0.082 5.295,0.411 7.078,1.454 1.784,1.042 2.827,2.743 2.882,4.854 0.083,2.14 -0.906,4.088 -2.579,5.486 -1.702,1.398 -4.089,2.304 -6.998,2.386 -5.872,0.165 -10.564,-3.948 -10.675,-8.283 -0.055,-2.194 1.263,-3.757 3.184,-4.607 1.892,-0.851 4.334,-1.208 7.108,-1.29"
       id="path323"
       style="fill:#800000" />
    <path
       d="m 271.942,352 c 0,0 8.48,5.185 10.813,9.325 4.335,7.68 -0.741,16.32 3.457,24.055 1.482,2.743 4.886,4.416 4.886,4.416 0,0 -3.842,3.318 -7.354,2.468 -3.211,-0.796 -6.889,-1.975 -6.889,-1.975 0,0 6.477,7.653 6.889,14.235 0.466,7.625 -8.149,13.521 -8.836,21.118 -0.495,5.35 3.431,15.718 3.431,15.718 0,0 -4.939,-1.563 -7.354,-3.456 -2.031,-1.563 -5.9,-6.364 -5.9,-6.364 l 1.947,10.78 c 0.96,5.184 -9.41,8.556 -10.316,14.756 -0.549,3.978 2.964,8.339 2.964,8.339 0,0 -9.468,-2.14 -13.255,-4.909 -3.018,-2.224 -6.889,-8.833 -6.889,-8.833 0,0 -3.456,9.053 -6.393,12.261 -3.266,3.593 -10.235,5.348 -15.86,7.982 -9.55,4.47 -18.029,8.721 -18.029,8.721 0,0 1.7,-6.309 0.987,-9.819 -1.125,-5.457 -8.698,-11.3 -11.307,-16.209 -2.607,-4.965 0,-11.795 0,-11.795 0,0 -6.228,5.951 -10.783,6.885 -5.021,1.014 -14.708,-2.386 -14.708,-2.386 l 8.919,-3.895 c 2.522,-1.098 1.618,-5.404 2.607,-7.845 1.097,-2.771 6.035,-6.611 6.035,-6.611 l -11.717,-0.383 c 0,0 8.508,-4.06 9.083,-9.819 0.138,-1.481 -0.383,-6.089 -0.383,-7.57 0.027,-5.046 4.5,-9.326 8.698,-12.097 2.662,-1.783 9.852,-2.496 11.362,-5.293 l 2.66,-4.938 c 0,0 1.591,3.265 1.454,6.09 -0.137,2.798 -0.632,6.063 -2.661,7.953 -2.552,2.415 -13.722,4.389 -13.722,7.982 0,4.662 0.03,6.227 -1.315,10.587 l 10.618,-3.538 c 0,0 -8.479,11.658 -11.057,17.252 -0.743,1.618 -0.879,5.294 -0.879,5.294 0,0 5.9,-5.952 9.521,-8.009 2.636,-1.509 20.116,-19.392 20.116,-19.392 0,0 -16.632,28.937 -15.066,34.943 1.427,5.376 7.134,8.859 8.862,14.127 0.604,1.837 0.44,5.759 0.44,5.759 0,0 14.214,-5.595 19.016,-10.615 6.45,-6.748 10.182,-39.799 10.182,-39.799 0,0 6.174,27.264 10.181,32.284 1.153,1.48 3.979,3.977 3.979,3.977 0,0 5.24,-7.981 6.612,-12.81 2.635,-9.271 -7.519,-49.535 -7.519,-49.535 l 18.576,32.283 c 0,0 -0.246,-8.256 1.346,-11.932 1.428,-3.373 3.019,-4.771 3.539,-8.392 1.126,-8.175 -12.841,-33.601 -12.841,-33.601 l 19.921,14.565 c 0,0 -1.069,-12.507 -2.661,-18.543 C 276.085,361.022 271.942,352 271.942,352 l 0,0 0,0 z"
       id="path325"
       style="fill:#cd0707" />
    <path
       d="m 192.583,377.946 c 0,0 4.172,3.539 6.751,3.922 3.842,0.577 7.492,-2.193 11.36,-2.633 5.845,-0.658 11.938,1.372 17.645,0 5.159,-1.234 10.866,-3.043 14.188,-7.186 4.528,-5.623 5.46,-20.928 5.46,-20.928 l 2.169,2.387 0.878,10.697 -2.389,11.547 -8.506,7.625 -10.043,3.291 -12.65,-1.098 h -8.067 l -7.19,3.703 -8.534,3.264 -7.846,-2.386 6.776,-6.556 v -5.649 l -0.002,0 z"
       id="path327"
       style="fill:#cd0707" />
    <path
       d="m 245.298,347.995 c 0,0 0.959,1.893 1.975,4.279 1.015,2.414 2.003,5.348 2.195,7.049 0.576,4.855 0.521,10.093 -1.537,14.07 -2.633,5.102 -7.354,7.707 -13.2,9.793 -3.676,1.315 -7.818,1.123 -12.209,0.766 -4.392,-0.355 -9.028,-0.932 -13.639,0 -2.114,0.412 -4.418,1.592 -6.395,2.634 -1.947,1.042 -3.512,1.975 -3.512,1.975 l 1.865,2.989 c 0,0 1.454,-0.904 3.293,-1.891 1.839,-0.988 4.144,-2.059 5.406,-2.305 3.896,-0.769 8.288,-0.246 12.76,0.109 4.474,0.357 9.111,0.631 13.639,-0.987 6.147,-2.193 11.882,-5.21 15.065,-11.438 2.578,-4.991 2.605,-10.888 1.976,-16.046 -0.302,-2.522 -2.195,-7.926 -4.583,-9.27 l -3.099,-1.727 0,0 z"
       id="path329"
       style="fill:#800000" />
    <path
       d="m 188.467,329.865 -1.18,9.051 c 0,0 7.492,-0.63 10.4,-1.837 4.418,-1.81 6.805,-8.201 6.805,-8.201 l -16.025,0.987 0,0 z"
       id="path331"
       style="fill:#cd0707" />
    <path
       d="m 220.106,324.133 8.014,-2.661 7.628,-1.701 16.107,1.673 16.686,2.497 13.336,-5.541 c -5.68,-0.192 -1.454,-0.329 -1.399,2.112 0.055,2.002 -3.704,7.542 -9.413,8.886 -6.338,1.509 -21.679,-2.715 -35.509,-2.852 -9.055,-0.111 -17.452,2.824 -22.337,3.017 l 6.887,-5.43 0,0 z"
       id="path333"
       style="fill:#ee6c6c" />
    <path
       d="m 271.942,352 c 0,0 8.48,5.185 10.813,9.325 4.335,7.68 -0.741,16.32 3.457,24.055 1.482,2.743 4.886,4.416 4.886,4.416 0,0 -3.842,3.318 -7.354,2.468 -3.211,-0.796 -6.889,-1.975 -6.889,-1.975 0,0 6.477,7.653 6.889,14.235 0.466,7.625 -8.149,13.521 -8.836,21.118 -0.495,5.35 3.431,15.718 3.431,15.718 0,0 -4.939,-1.563 -7.354,-3.456 -2.031,-1.563 -5.9,-6.364 -5.9,-6.364 l 1.947,10.78 c 0.96,5.184 -9.41,8.556 -10.316,14.756 -0.549,3.978 2.964,8.339 2.964,8.339 0,0 -9.468,-2.14 -13.255,-4.909 -3.018,-2.224 -6.889,-8.833 -6.889,-8.833 0,0 -3.456,9.053 -6.393,12.261 -3.266,3.593 -10.235,5.348 -15.86,7.982 -9.55,4.47 -18.029,8.721 -18.029,8.721 0,0 1.7,-6.309 0.987,-9.819 -1.125,-5.457 -8.698,-11.3 -11.307,-16.209 -2.607,-4.965 0,-11.795 0,-11.795 0,0 -6.228,5.951 -10.783,6.885 -5.021,1.014 -14.708,-2.386 -14.708,-2.386 l 8.919,-3.895 c 2.522,-1.098 1.618,-5.404 2.607,-7.845 1.097,-2.771 6.035,-6.611 6.035,-6.611 l -11.717,-0.383 c 0,0 8.508,-4.06 9.083,-9.819 0.138,-1.481 -0.383,-6.089 -0.383,-7.57 0.027,-5.046 4.5,-9.326 8.698,-12.097 2.662,-1.783 9.852,-2.496 11.362,-5.293 l 3.071,-4.525 c 0,0 -3.869,2.551 -7.354,2.989 -3.402,0.438 -8.698,-1.124 -8.698,-1.124 l 7.573,-7.188 c 1.18,-1.124 -0.823,-5.979 -0.384,-7.568 0.796,-2.854 6.806,-4.17 6.806,-4.17 0,0 13.392,1.947 18.935,-1.316 5.296,-3.127 7.299,-8.256 5.543,-13.604 l -1.153,-3.648 c -1.48,-4.525 -17.563,-0.467 -22.309,0.164 -4.171,0.549 -9.002,-1.316 -11.197,-4.909 -4.06,-6.638 -0.684,-12.014 0,-18.679 16.135,-2.304 14.353,-0.576 25.521,-1.125 21.925,-21.285 45.306,-0.165 58.421,-7.351 l 8.151,-4.032 c 2.414,6.007 -0.275,9.517 -3.074,14.483 12.13,-1.235 12.597,1.59 14.764,3.072 0,0 -1.756,7.13 -5.021,11.135 -3.817,4.691 -15.7,5.596 -15.7,5.596 l 0,0 0,0 z"
       id="path335"
       style="fill:none;stroke:#800000;stroke-width:2.90739989;stroke-miterlimit:282" />
    <path
       d="m 266.126,345.691 c 5.459,-9.792 11.908,-10.752 22.116,-9.244 -3.456,7.269 -8.287,15.415 -22.116,9.244"
       id="path337"
       style="fill:#800000" />
    <path
       d="m 231.084,400.794 c 0,0 -20.171,21.642 -20.253,33.956 0,4.005 4.143,7.104 4.582,11.053 0.522,4.498 -2.277,13.357 -2.277,13.357 0,0 8.864,-8.995 9.165,-14.097 0.248,-4.472 -3.347,-8.53 -3.458,-12.975 -0.246,-11.189 12.241,-31.294 12.241,-31.294"
       id="path339"
       style="fill:#ee6c6c" />
    <path
       d="m 199.772,418.731 c 0,0 7.794,-3.839 9.166,-6.473 1.346,-2.605 1.015,-7.488 2.661,-9.928 3.43,-5.102 11.443,-8.395 11.443,-8.395 0,0 -10.756,0.549 -14.873,6.117 -1.593,2.139 -1.316,6.527 -1.894,9.134 -0.739,3.155 -6.503,9.545 -6.503,9.545"
       id="path341"
       style="fill:#ee6c6c" />
    <path
       d="m 250.567,440.537 c 0,0 -5.544,-6.665 -5.765,-9.627 -0.164,-2.935 2.086,-7.269 1.593,-10.148 -1.069,-6.034 -7.08,-12.288 -7.08,-12.288 0,0 9.632,4.827 11.142,11.574 0.576,2.606 -1.455,6.529 -1.949,9.161 -0.632,3.182 2.059,11.328 2.059,11.328"
       id="path343"
       style="fill:#ee6c6c" />
    <path
       d="m 267.853,411.628 c 0,0 -6.502,-5.705 -7.161,-8.611 -0.631,-2.882 0.934,-7.488 -0.028,-10.287 -1.976,-5.787 -8.891,-11.053 -8.891,-11.053 0,0 10.29,3.291 12.816,9.736 0.986,2.497 -0.413,6.666 -0.522,9.354 -0.137,3.236 3.786,10.861 3.786,10.861"
       id="path345"
       style="fill:#ee6c6c" />
  </g>
  <g
     transform="matrix(0.9927706,-4.1085877e-4,4.1085877e-4,0.9927707,-10.250556,-23.885534)"
     id="g22612"
     style="display:inline">
    <path
       d="m 19.653724,440.0475 c 1.7621,130.66057 8.46845,232.61903 67.00264,312.34443 70.509986,96.03722 187.976696,165.342 339.079786,233.4325 151.10283,-68.0905 268.56953,-137.39528 339.07973,-233.4325 58.5337,-79.7254 65.0513,-181.68642 67.002,-312.34443 2.0249,-135.61161 2.1519,-271.24607 0,-406.861855 l -812.164016,0 c -2.44216,135.612785 -1.82891,271.249535 -1.4e-4,406.861855 z"
       id="path7014-6-7-28-3-2-4-5-1-6-6-5"
       style="fill:none;stroke:#554400;stroke-width:3.82767125;stroke-miterlimit:4;stroke-dasharray:none;display:inline" />
    <path
       d="m 451.061,49.525373 12.63112,12.941603 c 0,0 7.09732,-1.177345 9.99208,0.464626 3.2162,1.823677 5.77236,5.557937 6.15842,9.271582 0.36887,3.523027 -1.27342,7.53806 -3.89642,9.927946 l -4.69219,4.274924 c 0,0 13.35656,5.308192 20.65575,4.817792 9.16283,-0.616037 16.29549,-8.718349 16.29549,-8.718349 0,0 -7.11909,-3.237182 -9.67753,-6.065228 -2.0037,-2.214602 -4.03175,-5.034259 -4.00109,-8.048048 0.0526,-4.516899 2.34591,-9.797246 6.24258,-12.065466 1.93495,-1.126339 6.66118,0.308788 6.66118,0.308788 l 11.87782,-12.926887 10.36927,13.95986 c 0,0 4.86242,-0.990859 6.66117,0.308788 3.62261,2.617374 5.31931,8.08318 4.8596,12.580964 -0.30689,3.000946 -2.63954,5.618291 -4.88064,7.635758 -2.8619,2.576419 -10.30628,5.137429 -10.30628,5.137429 0,0 5.74418,8.700366 14.79061,10.161561 7.20643,1.16432 21.53226,-2.859167 21.53226,-2.859167 l -4.18929,-4.687205 c -2.34241,-2.620347 -3.52361,-6.766442 -2.76528,-10.237219 0.79799,-3.658555 3.7607,-7.13678 7.1642,-8.653056 3.06344,-1.364666 9.99197,0.464635 9.99197,0.464635 l 14.01397,-11.704636 -17.7639,58.704902 c -35.5381,-9.03941 -71.0792,-10.85733 -106.62349,-4.95022 L 451.061,49.525373 z"
       id="path99721-1-9-1-8-6-3"
       style="fill:#f1d762;fill-opacity:1;stroke:#ac8800;stroke-width:5.03640938;stroke-linecap:butt;stroke-linejoin:miter;stroke-miterlimit:4;stroke-opacity:1;stroke-dasharray:none;display:inline" />
  </g>
</svg>
