<?xml version="1.0" encoding="UTF-8" standalone="no"?>
<svg
   xmlns:dc="http://purl.org/dc/elements/1.1/"
   xmlns:cc="http://creativecommons.org/ns#"
   xmlns:rdf="http://www.w3.org/1999/02/22-rdf-syntax-ns#"
   xmlns:svg="http://www.w3.org/2000/svg"
   xmlns="http://www.w3.org/2000/svg"
   version="1.1"
   width="409.62933"
   height="478.40625"
   id="svg3240">
  <defs
     id="defs3242" />
  <metadata
     id="metadata3245">
    <rdf:RDF>
      <cc:Work
         rdf:about="">
        <dc:format>image/svg+xml</dc:format>
        <dc:type
           rdf:resource="http://purl.org/dc/dcmitype/StillImage" />
        <dc:title></dc:title>
      </cc:Work>
    </rdf:RDF>
  </metadata>
  <path
     style="display:inline;fill:#1353b4;fill-opacity:1;stroke:none"
     id="path7014-6-7-28-3-7-9"
     d="m 1.768748,1.004685 c -1.0759,67.807892 -1.0124,135.625105 0,203.430855 0.9754,65.3291 4.2342,116.3096 33.501204,156.1723 35.255,48.0186 93.988388,82.671 169.539888,116.7162 75.5514,-34.0452 134.28481,-68.6976 169.5398,-116.7162 29.267,-39.8627 32.52581,-90.8432 33.50121,-156.1723 1.01239,-67.80575 1.0759,-135.622963 0,-203.430855 z" />
  <path
     id="path5129"
     d="M 9.484375 1.0039062 L 374.30273 360.66797 C 374.31782 360.64744 374.33453 360.62796 374.34961 360.60742 C 389.04479 340.59206 397.17919 317.77238 401.76367 291.74219 L 106.85742 1.0039062 L 9.484375 1.0039062 z M 204.23047 1.0039062 L 407.88672 201.7832 C 408.86145 134.86126 408.91343 67.927674 407.85156 1.0039062 L 204.23047 1.0039062 z M 1.0097656 88.646484 C 0.94833532 120.8118 1.119657 152.97737 1.5136719 185.14062 L 266.92383 446.80078 C 288.81164 434.85988 308.57974 422.42412 325.9668 409.01172 L 1.0097656 88.646484 z "
     style="opacity:1;vector-effect:none;fill:#fee46e;fill-opacity:1;stroke:none;stroke-width:0.99999994;stroke-linecap:butt;stroke-linejoin:miter;stroke-miterlimit:4;stroke-dasharray:none;stroke-dashoffset:0;stroke-opacity:1;marker:none;marker-start:none;marker-mid:none;marker-end:none;paint-order:normal" />
  <path
     id="path7014-6-7-7-5"
     d="m 1.783202,1.08679 c -1.0759,67.80789 -1.0124,135.62587 0,203.43164 0.9754,65.3291 4.23495,116.30918 33.50195,156.17188 35.255,48.0186 93.987568,82.67163 169.539068,116.71679 75.5514,-34.04516 134.28406,-68.69819 169.53906,-116.71679 29.267,-39.8627 32.52655,-90.84278 33.50195,-156.17188 1.0124,-67.80577 1.0759,-135.62375 0,-203.43164 z m 46.91211,53.027344 H 360.95312 c 0.82732,52.140986 0.77849,104.288386 0,156.427736 -0.75003,50.23491 -3.25681,89.4354 -25.76171,120.08789 -27.10939,36.92398 -72.27182,63.57092 -130.36719,89.75 -58.09545,-26.17908 -103.2578,-52.82602 -130.367188,-89.75 -22.50491,-30.65249 -25.01168,-69.85298 -25.76172,-120.08789 -0.77849,-52.13935 -0.82731,-104.28675 0,-156.427736 z"
     style="display:inline;opacity:1;vector-effect:none;fill:#ce0f25;fill-opacity:1;stroke:#800000;stroke-width:1;stroke-linecap:butt;stroke-linejoin:miter;stroke-miterlimit:4;stroke-dasharray:none;stroke-dashoffset:0;stroke-opacity:1;marker:none" />
  <path
     style="display:inline;fill:none;stroke:#554400;stroke-width:2;stroke-miterlimit:4;stroke-dasharray:none"
     id="path12506"
     d="m 1.768748,1.004685 c -1.0759,67.807892 -1.0124,135.625105 0,203.430855 0.9754,65.3291 4.2342,116.3096 33.501204,156.1723 35.255,48.0186 93.988388,82.671 169.539888,116.7162 75.5514,-34.0452 134.28481,-68.6976 169.5398,-116.7162 29.267,-39.8627 32.52581,-90.8432 33.50121,-156.1723 1.01239,-67.80575 1.0759,-135.622963 0,-203.430855 z" />
</svg>
