<?xml version="1.0" encoding="UTF-8" standalone="no"?>
<!-- Generator: Adobe Illustrator 13.0.0, SVG Export Plug-In . SVG Version: 6.00 Build 14948)  -->
<svg xmlns:dc="http://purl.org/dc/elements/1.1/" xmlns:cc="http://creativecommons.org/ns#" xmlns:rdf="http://www.w3.org/1999/02/22-rdf-syntax-ns#" xmlns:svg="http://www.w3.org/2000/svg" xmlns="http://www.w3.org/2000/svg" xmlns:sodipodi="http://sodipodi.sourceforge.net/DTD/sodipodi-0.dtd" xmlns:inkscape="http://www.inkscape.org/namespaces/inkscape" version="1.1" width="358.802px" height="419.424px" id="svg2" inkscape:version="0.48.0 r9654" sodipodi:docname="Arms of Luxembourg.svg">
  <metadata id="metadata388">
    <rdf:RDF>
      <cc:Work rdf:about="">
        <dc:format>image/svg+xml</dc:format>
        <dc:type rdf:resource="http://purl.org/dc/dcmitype/StillImage" />
      </cc:Work>
    </rdf:RDF>
  </metadata>
  <defs id="defs386" />
  <sodipodi:namedview pagecolor="#ffffff" bordercolor="#666666" borderopacity="1" objecttolerance="10" gridtolerance="10" guidetolerance="10" inkscape:pageopacity="0" inkscape:pageshadow="2" inkscape:window-width="640" inkscape:window-height="480" id="namedview384" showgrid="false" inkscape:zoom="0.62228197" inkscape:cx="179.401" inkscape:cy="338.27109" inkscape:window-x="0" inkscape:window-y="0" inkscape:window-maximized="0" inkscape:current-layer="svg2" />
  <style type="text/css" id="style4">
		.st0{fill:#1353B4;}
		.st1{fill:#FEE46E;stroke:#806600;}
		.st2{fill:#E94545;}
		.st3{fill:#800000;}
		.st4{adobe-knockout:true;}
		.st5{fill:none;stroke:#554400;stroke-width:1.7313;stroke-miterlimit:282;}
		.st6{fill:#EE6C6C;}
		.st7{fill:#BE9500;}
		.st8{fill:#F6C058;}
		.st9{fill:#FFFFFF;adobe-knockout:false;}
		.st10{fill:#2B2200;}
		.st11{fill:#FFE455;}
		.st12{fill:#FFFFFF;}
		.st13{fill:none;}
		.st14{fill:#CD0707;}
		.st15{fill:none;stroke:#806600;}
		.st16{fill:#CD0707;stroke:#800000;stroke-width:2.5953;stroke-miterlimit:282;}
		.st17{fill:none;stroke:#800000;stroke-width:2.5953;stroke-miterlimit:282;}
	</style>
  <path class="st0" d="M1.538,0.866c-0.926,59.451-0.865,118.901,0,178.353c0.865,57.256,3.737,101.96,29.373,136.925   c30.856,42.107,82.314,72.467,148.506,102.331c66.159-29.864,117.618-60.224,148.505-102.331   c25.638-34.965,28.479-79.669,29.344-136.925c0.864-59.451,0.926-118.902,0-178.353H1.538L1.538,0.866z" id="path238" />
  <path class="st12" d="M2.587,0.217v41.086h355.943l-1.234-40.685L2.587,0.217z M2.587,83.132v41.859h356.007V83.132H2.587z    M2.587,167.038v41.859h353.474l1.235-41.859H2.587z M5.182,250.478L16.827,292.4h323.635c9.206-17.097,8.958-29,11.892-41.922   H5.182z M46.077,334.198c11.799,8.316-5.528,0,52.508,41.891h162.282l27.489-19.29l25.018-22.601H46.077z" id="path240" />
  <path class="st5" d="M1.538,0.866c-0.926,59.451-0.865,118.901,0,178.353c0.865,57.256,3.737,101.96,29.373,136.925   c30.856,42.107,82.314,72.467,148.506,102.331c53.342-24.083,97.141-48.476,128.275-79.114   c7.475-7.355,14.238-15.055,20.229-23.217c25.638-34.965,28.479-79.669,29.344-136.925c0.864-59.451,0.926-118.902,0-178.353   H1.538L1.538,0.866z" id="path242" />
  <g id="g244">
    <path class="st16" d="M155.111,144.553c0,0-8.574-0.44-11.979-2.767c-3.723-2.521-7.642-11.043-7.642-11.043    s-9.456,1.249-13.792,0.05c-4.532-1.248-10.998-7.149-10.998-7.149c4.359-0.515,7.593-1.077,11.831-4.579    c0,0-8.354-0.832-13.105-3.036c-4.139-1.886-10.853-7.908-10.853-7.908c3.871-0.881,8.061-0.563,11.146-4.53    c0,0-8.205-0.269-11.904-1.885c-3.7-1.64-9.53-7.517-9.53-7.517c4.509-0.245,8.82-0.955,11.734-4.774    c0,0-8.304-0.049-11.808-1.69c-4.825-2.277-12.198-9.451-12.198-9.451c4.679-0.196,9.333-0.441,12.884-3.159l-2.571-5.876    c-3.111-7.1-9.774-4.921-14.184-7.027c-4.311-2.081-6.688-7.321-6.908-10.21c-0.367-5.093,2.107-12.756,12.69-10.7    C72.73,32.39,78.291,26.367,83.9,24.115c5.415-2.179,10.166-1.322,13.743,8.349c0,0,4.973-4.113,7.644-4.627    c3.722-0.735,7.887,0.783,9.161,4.578c0.537,1.592,0.709,4.823-0.222,6.709c-1.47,2.988-4.654,4.946-5.731,9.378    c-1.225,4.995,3.013,14.005,3.013,14.005s20.233,18.314,29.518,28.279c4.948,5.313,13.914,16.698,13.914,16.698l0.489-0.294    l20.21,0.857l1.47,36.971L155.111,144.553L155.111,144.553z" id="path246" />
    <path class="st2" d="M137.963,125.48c0,0,4.728,11.042,7.937,12.829c3.036,1.715,5.586-1.125,5.586-1.125l-1.862-4.579    l-6.467-2.204c1.371-6.463,13.693-3.378,10.875-16.307c0,0-20.453-22.378-24.961-26.932    c-5.953-6.023-21.826-19.563-21.826-19.563s-3.577-9.77-3.992-16.38c-0.195-2.914,0.393-5.999,1.666-8.545    c1.298-2.62,5.07-3.428,5.805-6.317c0.221-0.906-0.072-2.033-0.612-2.792c-0.686-0.882-1.813-1.519-2.866-1.494    c-3.943,0.074-10.264,6.121-10.264,6.121s-3.845-7.761-7.227-9.622c-1.445-0.783-3.307-0.783-4.801-0.195    c-1.371,0.563-2.768,1.763-3.209,3.305c-1.421,4.897,2.743,15.303,2.743,15.303s-9.186-2.914-12.761-0.539    c-1.348,0.906-2.06,2.987-1.962,4.75c0.147,1.91,1.397,3.771,2.843,4.945c3.871,3.208,13.987,4.383,13.987,4.383l11.636,17.751    l-12.469,3.256c4.704,2.987,8.401,4.089,21.312,4.701c-2.67,5.852-6.564,7.737-9.969,10.259l21.629,4.383    c-1.935,5.778-7.595,6.072-10.264,8.521c5.438,4.187,14.085,5.9,22.879,7.517c-1.225,4.774-6.859,5.729-11.22,7.811    C123.266,126.264,128.85,125.504,137.963,125.48" id="path248" />
    <path class="st6" d="M139.605,109.418c-9.333-21.815-25.745-34.107-43.31-46.3C109.891,84.493,125.274,97.911,139.605,109.418" id="path250" />
    <g id="g252">
      <path class="st1" d="M112.193,29.281c0.662,3.697-0.784,6.268-3.846,7.125c-1.519,0.441-3.257-0.123-5.07-2.277     c0.932-5.999,0.515-8.398-3.307-13.736C109.621,23.013,109.94,27.665,112.193,29.281L112.193,29.281z" id="path254" />
      <path class="st1" d="M85.297,25.339c2.009,3.085,1.714,6.097-0.711,8.275c-1.2,1.077-2.989,1.347-5.438,0.196     c-1.446-5.974-2.744-8.006-8.23-11.213C80.594,20.711,82.651,24.85,85.297,25.339L85.297,25.339z" id="path256" />
      <path class="st1" d="M69.84,45.318c2.988,1.935,3.87,4.848,2.547,7.958c-0.66,1.542-2.181,2.571-4.802,2.62     c-3.625-4.848-5.561-6.121-11.709-6.611C63.813,43.188,67.268,46.053,69.84,45.318L69.84,45.318z" id="path258" />
    </g>
  </g>
  <g id="g260">
    <path class="st16" d="M74.053,276.255l7.055,16.601c0,0,11.317-1.372,16.877-3.061c7.619-2.327,19.476-9.402,19.476-9.402    c5.339-2.914-6.59-11.483-10.755-16.062c-3.233-3.526-5.413-8.106-5.413-8.106c-3.185-5.188,8.011-13.171,16.094-18.533    c10.362-6.879,22.341-13.393,33.192-15.377c18.495-3.377,62.343-8.666,62.343-8.666l4.458,16.331l-10.142,23.921    l-15.163,10.578c2.891,3.354-21.973,1.395-41.08,0.783c-6.123-0.222,1.152,18.093,1.152,18.093s4.752,3.601,6.564,6.44    c1.813,2.864,2.842,6.119,1.348,9.084c-1.495,2.984-5.855,4.382-9.48,5.116c-3.601,0.735-8.622-1.519-8.622-1.519    c1.593,2.694,2.988,5.437,2.646,8.326c-0.588,5.116-11.073,11.336-11.073,11.336s2.034-5.045,1.323-7.493    c-0.833-2.89-3.969-6.366-3.969-6.366s-0.392,4.188-1.2,6.22c-2.278,5.655-14.427,11.238-14.427,11.238s2.67-5.803,2.621-8.888    c-0.026-3.036-3.283-5.876-3.283-5.876s-1.077,4.822-3.406,7.761c-2.816,3.551-11.34,7.443-11.34,7.443s1.813-4.75,1.959-7.271    c0.146-2.399-1.054-7.125-1.054-7.125s-4.874,7.883-7.838,10.577c-3.601,3.231-11.318,5.583-11.318,5.583    s4.605-8.13,3.087-11.973c-1.445-3.697-11.488-5.877-11.488-5.877s-10.729,5.116-17.588,6.22    c-3.406,0.538-7.913,1.003-10.24-1.519c-3.184-3.5-3.601-6.537-1.91-10.944c0.833-2.204,6.467-5.509,6.467-5.509    s-4.262-2.449-5.438-4.041c-2.155-2.913-2.082-6.39-0.515-9.646c1.642-3.404,4.924-4.603,8.721-4.603    c2.793-0.024,7.496,3.452,7.496,3.452s1.226-9.084,4.777-10.725C68.395,271.211,74.053,276.255,74.053,276.255L74.053,276.255z    " id="path262" />
    <path class="st2" d="M190.189,256.448l-4.164-10.676c-1.396-3.525,5.854-6.17,5.487-9.917    c-0.418-4.039-2.598-8.104-6.223-9.939c-4.704-2.399-25.23,2.081-30.474,2.841c-7.961,1.175-15.529,4.725-22.634,8.545    c-7.667,4.113-21.214,15.277-21.214,15.277s1.005,4.848,2.278,6.905c4.409,7.198,13.521,10.16,13.303,18.606    c-0.147,5.167-3.578,7.223-6.909,9.697c-7.128,5.313-14.305,7.246-23.002,9.034c-6.491,1.322-17.71,0.856-17.71,0.856    s-3.993-12.29-8.157-17.041c-0.907-1.027-2.205-2.84-3.454-2.275c-3.332,1.492-1.543,10.846-1.543,10.846    s-7.251-3.551-11.17-3.673c-2.695-0.073-4.826-0.612-5.978,1.836c-0.662,1.347-1.029,3.282,0,4.358    c2.449,2.498,11.315,6.782,11.315,6.782s-9.308,3.501-11.119,7.247c-0.956,1.982-2.082,3.918-0.442,5.387    c1.446,1.322,4.411,1.029,6.346,0.637c6.711-1.396,19.302-6.904,19.302-6.904l15.458,5.215l1.003,6.732l11.172-13.197    l4.924,12.097l5.193-11.411l10.68,8.742l5.414-12.047l9.969,8.228l-1.91-12.854c0,0,8.279,1.91,12.493,1.934    c1.542,0,3.649,0.564,4.581-0.686c1.053-1.395,0-3.624-0.76-5.191c-1.25-2.619-5.928-6.315-5.928-6.315    s-5.487-11.117-4.68-16.821c0.515-3.451,1.275-7.859,4.704-8.496C155.111,259.141,191.389,264.16,190.189,256.448" id="path264" />
    <path class="st6" d="M158.76,232.11c0,0-13.228,2.547-19.18,5.387c-9.138,4.333-23.835,17.678-23.835,17.678l12.126,16.576    l-4.998-16.332c0,0,11.023-6.121,16.021-9.451C146.366,240.997,158.76,232.11,158.76,232.11" id="path266" />
    <g id="g268">
      <path class="st1" d="M44.437,281.836c3.454,0.81,5.268,3.258,5.071,6.637c-0.098,1.664-1.177,3.158-3.649,4.063     c-5.021-3.329-7.276-3.893-13.229-2.276C38.043,281.836,42.257,283.379,44.437,281.836L44.437,281.836z" id="path270" />
      <path class="st1" d="M43.874,307.327c3.454-0.883,6.198,0.439,7.57,3.525c0.685,1.541,0.44,3.354-1.323,5.313     c-6.026-0.662-7.393-1.189-11.924,2.973C39.103,309.172,42.674,309.701,43.874,307.327L43.874,307.327z" id="path272" />
      <path class="st1" d="M68.444,270.697c2.082,2.89,1.837,5.951-0.539,8.325c-1.176,1.199-2.965,1.615-5.438,0.686     c-1.568-5.828-2.915-7.713-8.45-10.432C63.643,266.51,65.797,270.452,68.444,270.697L68.444,270.697z" id="path274" />
    </g>
  </g>
  <g id="g276">
    <path class="st14" d="M305.056,243.969c-3.276-3.594-12.946-11.84-13.885-29.683c-1.152-21.903,9.499-26.018,16.428-29.686    c9.8-5.188,14.483-19.573,14.483-19.573c2.334-3.068,6.563-4.941,10.429-5.085c2.411-0.075,4.962,1.069,6.715,2.735    c2.872,2.756,4.924,10.834,4.924,10.834s3.258-9.035,2.011-13.376c-1.265-4.429-4.811-8.518-8.965-10.525    c-6.336-3.083-13.813-3.169-13.813-3.169s8.465-7.483,12.849-15.259c3.479-6.145,5.146-18.231,5.146-18.231    c0.889-8.768-2.325-19.086-7.565-26.656c-6.64-9.557-19.216-16.885-19.216-16.885s3.985,8.278,6.32,16.342    c1.626,5.578,1.657,12.546,1.657,12.546s-3.979-4.956-7.528-8.54c-4.94-4.954-9.413-6.292-9.413-6.292    s2.379,8.138,4.543,16.922c0.981,3.914,0.474,8.194-0.468,12.135c-1.439,6.203-5.765,15.091-7.854,21.13    c-2.924,8.44-6.642,10.06-11.548,17.515c-23.141,35.16-12.316,47.33-12.316,47.33s-10.387-5.277-16.493,3.469    c-3.739,5.359-4.354,15.6-4.354,15.6s5.158-6.717,8.761-8.072c2.661-1.011,8.414,1.651,8.414,1.651s-9.965,5.636-12.326,10.483    c-2.326,4.744-0.975,13.655-0.975,13.655s3.1-6.006,6.47-8.22c2.849-1.85,10.105-1.308,10.105-1.308s-8.923,7.204-10.727,12.35    c-1.663,4.708,0.552,14.964,0.552,14.964s3.486-7.807,6.809-10.188c2.397-1.716,5.665-2.608,8.587-2.37    c2.585,0.229,5.632,10.59,17.238,20.213L305.056,243.969z" id="path278" />
    <path class="st2" d="M344.105,169.793c0,0-1.497-9.572-4.653-12.865c-3.068-3.182-5.211-3.181-9.63-3.369    c-3.716-0.164-7.88,0.836-10.687,3.314l-1.883-5.561l6.131-4.871l-8.582,1.741l-4.962-9.034l-6.864-7.547l6.393-16.678    l0.905-8.939l-2.8-11.481l-2.242-10.956l7.963,4.326l9.477,9.991l-2.277-13.249l-5.021-14.587L329.15,80.09l11.421,19.221    l1.183,16.73l-7.315,18.75l-8.972,10.288l15.272,6.741l6.026,9.037L344.105,169.793L344.105,169.793z" id="path280" />
    <path class="st6" d="M306.684,84.309c0,0,7.453,6.391,9.402,10.723c2.875,6.37,3.493,13.891,2.591,20.837    c-0.573,4.199-2.996,7.94-4.812,11.767c-2.249,4.694-2.35,6.675-4.101,11.566l-6.79-7.6l1.363-2.766l6.394-16.678l0.342-10.425    l-4.442-17.674L306.684,84.309L306.684,84.309z" id="path282" />
    <path class="st17" d="M305.056,243.969c-3.276-3.594-12.946-11.84-13.885-29.683c-1.152-21.903,9.499-26.018,16.428-29.686    c9.8-5.188,14.483-19.573,14.483-19.573c2.334-3.068,6.563-4.941,10.429-5.085c2.411-0.075,4.962,1.069,6.715,2.735    c2.872,2.756,4.924,10.834,4.924,10.834s3.258-9.035,2.011-13.376c-1.265-4.429-4.811-8.518-8.965-10.525    c-6.336-3.083-13.813-3.169-13.813-3.169s8.465-7.483,12.849-15.259c3.479-6.145,5.146-18.231,5.146-18.231    c0.889-8.768-2.325-19.086-7.565-26.656c-6.64-9.557-19.216-16.885-19.216-16.885s3.985,8.278,6.32,16.342    c1.626,5.578,1.657,12.546,1.657,12.546s-3.979-4.956-7.528-8.54c-4.94-4.954-9.413-6.292-9.413-6.292    s2.379,8.138,4.543,16.922c0.981,3.914,0.474,8.194-0.468,12.135c-1.439,6.203-5.765,15.091-7.854,21.13    c-2.924,8.44-6.642,10.06-11.548,17.515c-23.141,35.16-12.316,47.33-12.316,47.33s-10.387-5.277-16.493,3.469    c-3.739,5.359-4.354,15.6-4.354,15.6s5.158-6.717,8.761-8.072c2.661-1.011,8.414,1.651,8.414,1.651s-9.965,5.636-12.326,10.483    c-2.326,4.744-0.975,13.655-0.975,13.655s3.1-6.006,6.47-8.22c2.849-1.85,10.105-1.308,10.105-1.308s-8.923,7.204-10.727,12.35    c-1.663,4.708,0.552,14.964,0.552,14.964s3.486-7.807,6.809-10.188c2.397-1.716,5.665-2.608,8.587-2.37    c2.585,0.229,5.632,10.59,17.238,20.213L305.056,243.969z" id="path284" />
  </g>
  <g id="g286">
    <path class="st16" d="M221.153,247.364c0,0-10.094,5.9-16.561,3.109c-2.793-1.199-5.414-3.771-6.124-6.71    c-0.686-2.839,0.588-6.096,2.278-8.496c1.053-1.542,9.063-6.413,9.063-6.413s-2.155-7.248-4.753-11.459    c-3.797-6.17-22.315-12.561-22.315-12.561c7.545-2.352,16.339-2.646,25.206-0.539l15.041,18.34L221.153,247.364    L221.153,247.364z" id="path288" />
    <path class="st14" d="M300.74,261.588c3.071-14.118,15.519-20.848,18.103-21.076c2.923-0.238,6.19,0.654,8.588,2.37    c3.321,2.382,6.807,10.188,6.807,10.188s2.217-10.256,0.553-14.964c-1.804-5.146-10.727-12.35-10.727-12.35    s7.258-0.542,10.106,1.308c3.369,2.214,6.469,8.22,6.469,8.22s1.352-8.911-0.975-13.655    c-2.361-4.848-12.326-10.483-12.326-10.483s5.753-2.662,8.414-1.651c3.603,1.355,8.761,8.072,8.761,8.072    s-0.613-10.24-4.354-15.6c-6.106-8.746-16.493-3.469-16.493-3.469s10.825-12.17-12.315-47.33    c-4.907-7.455-8.513-9.261-11.443-17.699c-2.095-6.037-6.426-14.922-7.871-21.124c-0.945-3.94-1.457-8.22-0.479-12.134    c2.157-8.787,10.58-22.984,10.58-22.984s-10.522,7.398-15.459,12.357c-3.547,3.587-7.521,8.546-7.521,8.546    s0.025-6.967,1.647-12.547c2.327-8.065,6.307-16.347,6.307-16.347s-12.571,7.338-19.202,16.902    c-5.233,7.574-8.439,17.895-7.542,26.662c0,0,1.679,12.085,5.161,18.228c4.39,7.771,12.746,15.414,12.746,15.414    s-7.478,0.086-13.813,3.169c-4.153,2.008-7.7,6.097-8.965,10.525c-1.247,4.341,2.011,13.376,2.011,13.376    s2.052-8.078,4.924-10.834c1.754-1.666,4.303-2.811,6.715-2.735c3.867,0.144,8.096,2.017,10.43,5.085    c0,0,4.683,14.386,14.483,19.573c6.929,3.668,17.579,7.782,16.427,29.686c-1.221,23.21-17.271,26.603-20.597,42.624    c-0.847,4.076-2.965,7.226-6.811,8.816c-4.801,2.008-10.95,2.35-15.604,0c-5.78-2.914-6.295-5.583-8.817-11.532    c-4.851-11.386-4.312-27.153-8.819-38.661c-3.771-9.598-12.664-15.938-15.629-25.782c-3.036-10.186,0.123-21.375-1.347-31.902    c-0.931-6.514-4.531-16.552-5.438-23.065c-0.712-5.166,0-11.531,0-11.531l-45.71-2.4l-24.644,21.791    c0,0-9.406,2.571-14.206,2.841c-11.71,0.687-25.232-2.815-36.94-3.306c-12.617-0.514-36.034-1.396-36.034-1.396l-4.507-10.063    c-1.716-3.844-1.813-8.471-5.587-10.283c-2.963-1.396-7.348-2.129-9.822,0c-2.376,2.057-1.396,9.329-1.396,9.329    s-7.521-1.592-10.729,0c-3.479,1.737-5.561,4.063-5.61,7.933c-0.049,4.578,2.474,9.573,6.54,11.68    c1.789,0.93,6.076,0.93,6.076,0.93s-3.724,1.837-4.68,4.676c-1.225,3.625-0.024,8.57,2.793,11.189    c3.356,3.111,6.859,2.841,11.22,1.396c3.65-1.225,7.936-6.537,7.936-6.537s6.713-0.76,9.334,0.93    c2.105,1.372,3.087,4.113,3.724,6.538c0.489,1.812,0.734,3.868,0,5.606c-1.936,4.676-9.775,11.826-9.775,11.826    s7.595,0.516,11.098-0.686c7.324-2.498,17.197-11.802,17.197-11.802s-0.589,4.407-2.499,6.904    c-2.401,3.159-8.501,8.276-8.501,8.276s11.586-1.225,17.049-3.845c4.899-2.349,11.808-10.896,11.808-10.896    s-0.147,4.139-1.175,6.269c-1.226,2.546-3.871,8.325-3.871,8.325s10.46-2.302,15.114-5.02c3.527-2.057,7.863-8.692,7.863-8.692    s0.171,4.53-0.54,6.904c-0.66,2.155-3.723,6.685-3.723,6.685s9.995-1.859,14.281-4.211c4.36-2.375,10.559-10.554,10.559-10.554    s5.879-1.468,9.675,0.687c7.472,4.235,10.827,14.273,19.573,18.902c14.207,7.516,33.119,11.826,39.168,28.352    c2.083,5.68,2.23,9.501-0.686,14.839c-3.552,6.537-18.47,14.421-22.268,21.595c0,0-5.976,8.178-7.446,16.209    c-0.931,5.115-0.171,10.773,2.034,15.498c2.816,6.072,8.377,10.553,13.497,14.862c6.124,5.142,20.258,12.829,20.258,12.829    l2.4,4.824c0,0-8.94,6.145-12.297,10.479c-4.115,5.289-10.777,16.992-10.777,16.992s-4.165-4.334-8.745-6.022    c-3.553-1.298-8.599-2.62-11.342,0c-2.622,2.497-2.793,5.483-1.47,8.862c1.175,3.036,5.413,5.412,5.413,5.412    s-3.527,3.28-4.434,5.41c-1.103,2.597-1.078,6.049,0.49,8.373c2.106,3.111,5.633,2.693,9.356,2.965    c2.646,0.195,7.889-0.98,7.889-0.98s-1.201,3.085-0.979,4.921c0.317,2.841,1.004,6.366,3.453,7.884    c3.332,2.081,8.574,1.764,11.808-0.488c5.486-3.844,7.642-18.095,7.642-18.095l0,0c0,0,3.26-0.784,4.557,0    c3.332,2.007,8.696,7.052,8.696,7.052s1.323-6.193-0.146-11.117c-0.882-2.912-5.831-6.977-5.831-6.977s6.395-1.689,9.309,0.416    c2.867,2.081,6.468,9.28,6.468,9.28s1.372-7.909,0.416-12.855c-0.71-3.771-7.03-9.132-7.03-9.132s5.193-1.054,7.447,0    c3.92,1.836,8.305,9.965,8.305,9.965s3.281-10.676,0.832-16.576c-1.151-2.742-7.055-5.41-7.055-5.41s8.157-2.131,11.195,0    c3.723,2.645,5.389,9.133,5.389,9.133s3.846-7.934,2.498-13.688c-0.833-3.549-6.638-8.691-6.638-8.691s4.458-3.723,5.805-6.221    c1.128-2.129,2.621-4.848,1.665-7.051c-1.003-2.277-4.041-3.33-6.49-3.697c-2.988-0.467-8.794,1.959-8.794,1.959l-3.626-3.158    c-6.369-5.582-9.848-14.594-10.803-23.628c-1.029-9.354,6.541-26.907,6.541-26.907s3.527,11.457,8.965,17.799    c3.797,4.432,9.285,7.86,14.992,9.084c7.299,1.566,11.023,1.959,17.71-1.37C292.706,273.122,299.308,268.169,300.74,261.588z" id="path290" />
    <path class="st2" d="M172.038,177.143c0,0,2.424-7.298,1.322-10.725c-1.396-4.457-7.324-6.219-9.406-10.407    c-0.809-1.64-1.005-5.386-1.005-5.386s-4.458,3.134-7.054,3.355c-3.92,0.365-7.472-2.841-11.416-3.013    c-3.405-0.172-10.067,1.689-10.067,1.689s-21.851-4.015-30.571-5.044c-13.352-1.567-37.602,0-37.602,0l-6.395-17.457    c0,0-0.023-2.865-1.665-4.04c-1.2-0.833-3.355-1.028-4.359,0c-2.181,2.276,0,9.745,0,9.745s-8.329-3.036-12.444-1.004    c-1.642,0.808-3.308,2.521-3.356,4.357c-0.024,1.936,1.788,3.574,3.356,4.701c4.188,2.988,14.796,4.701,14.796,4.701    s-9.04,3.208-10.754,7.051c-0.736,1.642-1.25,4.064,0,5.363c1.69,1.787,5.021,1.077,7.374,0.342    c3.502-1.102,8.743-6.707,8.743-6.707s10.853,0.17,14.771,3.354c2.695,2.18,3.626,6.023,4.36,9.402    c0.515,2.302,0.123,4.701,0,7.051c-0.049,1.225-0.317,3.697-0.317,3.697l19.131-15.449c2.425,6.047,0.196,12.07-2.694,18.118    l18.494-16.11c4.139,5.361,1.935,10.748,0,16.11l16.779-14.765c3.994,5.264,2.965,9.696,1.691,14.104    c0,0,4.604-2.229,6.711-3.698c4.018-2.815,11.073-9.744,11.073-9.744s6.907,1.786,10.091,3.354    C165.375,171.952,172.038,177.143,172.038,177.143" id="path292" />
    <path class="st6" d="M139.114,156.625c-21.629-6.831-42.035-8.766-63.223-7.149    C100.337,156.037,120.767,157.824,139.114,156.625" id="path294" />
    <path class="st2" d="M234.844,323.729c0,0-2.865-8.275-5.559-11.604c-8.133-10.064-24.546-14.104-30.254-25.709    c-2.083-4.237-1.837-7.59-0.515-12.096c2.106-7.125,7.692-12.709,12.102-18.658c5.119-6.904,14.061-11.482,16.657-19.661    c2.277-7.245,0.979-15.718-2.033-22.695c-2.303-5.362-6.908-9.622-11.587-13.099c-8.476-6.27-20.944-6.049-28.759-13.123    c-1.738-1.568-3.526-6.05-3.526-6.05s22.046-5.41,29.763-12.584c2.155-2.007,3.527-6.072,3.527-6.072l11.61,4.554    c0,0-0.905,16.135,1.495,23.701c1.715,5.361,4.091,9.818,7.078,14.617c3.063,4.947,8.305,8.938,9.579,14.618    c1.347,5.949,1.077,12.241-0.515,18.142c-2.303,8.594-10.901,17.996-12.591,26.713c-1.347,6.782-1.544,13.955,0,20.689    c1.959,8.717,14.109,22.182,14.109,22.182l6.05,3.013c0,0,7.203-3.013,8.574-0.489c1.887,3.475-7.055,9.573-7.055,9.573    l6.051,6.561l-21.68,5.021l9.064,8.079l-17.638,0.489l9.577,13.125h-18.175l9.089,9.572l-8.574,0.514    c0,0-2.72,12.168-7.056,16.136c-1.567,1.421-4.336,3.258-6.05,2.009c-1.642-1.176,0-4.04,0-6.049v-8.08    c0,0-7.35,1.813-11.098,2.033c-2.522,0.146-6.271,1.64-7.569-0.516c-1.716-2.84,4.042-9.083,4.042-9.083    s-5.414-4.799-6.564-8.056c-0.343-0.955-0.71-2.301,0-3.012c1.543-1.564,4.458-0.635,6.564,0    c4.998,1.469,13.105,8.57,13.105,8.57l10.582-18.657L234.844,323.729L234.844,323.729z" id="path296" />
    <g id="g298">
      <path class="st2" d="M257.552,169.793c0,0,1.497-9.572,4.651-12.865c3.069-3.182,5.212-3.181,9.631-3.369     c3.716-0.164,7.88,0.836,10.688,3.314c4.171,3.748,6.016,9.314,9.432,13.74c4.263,5.533,16.321,13.127,16.321,13.127     l2.568-12.598l-0.426,1.23l-0.652-18.742l-4.737-11.634l-6.242-10.579l-6.407-16.672l-0.913-8.938l2.79-11.485l8.286-17.015     l-14.012,10.39l-9.468,10l2.266-13.25l5.01-14.591l-13.771,10.072l-11.404,19.231l-1.17,16.732l7.333,18.744l8.98,10.279     l-15.389,6.906l-6.026,9.037L257.552,169.793L257.552,169.793z" id="path300" />
      <path class="st6" d="M295.036,84.128c0,0-7.447,6.397-9.394,10.731c-2.87,6.372-3.481,13.893-2.572,20.838     c0.577,4.199,3.003,7.938,4.821,11.764c2.254,4.691,5.799,8.785,7.555,13.676c2.006,5.652,4.183,5.914,5.847,11.688     c1.04,3.595,1.068,11.197,1.068,11.197c2.783-3.038,5.138-7.063,4.355-18.853l-4.517-5.427l-4.78-11.089l-6.407-16.673     l-0.352-10.424l5.703-11.411l4.777-12.326L295.036,84.128L295.036,84.128z" id="path302" />
    </g>
    <path class="st17" d="M300.74,261.588c3.071-14.118,15.519-20.848,18.103-21.076c2.923-0.238,6.19,0.654,8.588,2.37    c3.321,2.382,6.807,10.188,6.807,10.188s2.217-10.256,0.553-14.964c-1.804-5.146-10.727-12.35-10.727-12.35    s7.258-0.542,10.106,1.308c3.369,2.214,6.469,8.22,6.469,8.22s1.352-8.911-0.975-13.655    c-2.361-4.848-12.326-10.483-12.326-10.483s5.753-2.662,8.414-1.651c3.603,1.355,8.761,8.072,8.761,8.072    s-0.613-10.24-4.354-15.6c-6.106-8.746-16.493-3.469-16.493-3.469s10.825-12.17-12.315-47.33    c-4.907-7.455-8.513-9.261-11.443-17.699c-2.095-6.037-6.426-14.922-7.871-21.124c-0.945-3.94-1.457-8.22-0.479-12.134    c2.157-8.787,10.58-22.984,10.58-22.984s-10.522,7.398-15.459,12.357c-3.547,3.587-7.521,8.546-7.521,8.546    s0.025-6.967,1.647-12.547c2.327-8.065,6.307-16.347,6.307-16.347s-12.571,7.338-19.202,16.902    c-5.233,7.574-8.439,17.895-7.542,26.662c0,0,1.679,12.085,5.161,18.228c4.39,7.771,12.746,15.414,12.746,15.414    s-7.478,0.086-13.813,3.169c-4.153,2.008-7.7,6.097-8.965,10.525c-1.247,4.341,2.011,13.376,2.011,13.376    s2.052-8.078,4.924-10.834c1.754-1.666,4.303-2.811,6.715-2.735c3.867,0.144,8.096,2.017,10.43,5.085    c0,0,4.683,14.386,14.483,19.573c6.929,3.668,17.579,7.782,16.427,29.686c-1.221,23.21-17.271,26.603-20.597,42.624    c-0.847,4.076-2.965,7.226-6.811,8.816c-4.801,2.008-10.95,2.35-15.604,0c-5.78-2.914-6.295-5.583-8.817-11.532    c-4.851-11.386-4.312-27.153-8.819-38.661c-3.771-9.598-12.664-15.938-15.629-25.782c-3.036-10.186,0.123-21.375-1.347-31.902    c-0.931-6.514-4.531-16.552-5.438-23.065c-0.712-5.166,0-11.531,0-11.531l-45.71-2.4l-24.644,21.791    c0,0-9.406,2.571-14.206,2.841c-11.71,0.687-25.232-2.815-36.94-3.306c-12.617-0.514-36.034-1.396-36.034-1.396l-4.507-10.063    c-1.716-3.844-1.813-8.471-5.587-10.283c-2.963-1.396-7.348-2.129-9.822,0c-2.376,2.057-1.396,9.329-1.396,9.329    s-7.521-1.592-10.729,0c-3.479,1.737-5.561,4.063-5.61,7.933c-0.049,4.578,2.474,9.573,6.54,11.68    c1.789,0.93,6.076,0.93,6.076,0.93s-3.724,1.837-4.68,4.676c-1.225,3.625-0.024,8.57,2.793,11.189    c3.356,3.111,6.859,2.841,11.22,1.396c3.65-1.225,7.936-6.537,7.936-6.537s6.713-0.76,9.334,0.93    c2.105,1.372,3.087,4.113,3.724,6.538c0.489,1.812,0.734,3.868,0,5.606c-1.936,4.676-9.775,11.826-9.775,11.826    s7.595,0.516,11.098-0.686c7.324-2.498,17.197-11.802,17.197-11.802s-0.589,4.407-2.499,6.904    c-2.401,3.159-8.501,8.276-8.501,8.276s11.586-1.225,17.049-3.845c4.899-2.349,11.808-10.896,11.808-10.896    s-0.147,4.139-1.175,6.269c-1.226,2.546-3.871,8.325-3.871,8.325s10.46-2.302,15.114-5.02c3.527-2.057,7.863-8.692,7.863-8.692    s0.171,4.53-0.54,6.904c-0.66,2.155-3.723,6.685-3.723,6.685s9.995-1.859,14.281-4.211c4.36-2.375,10.559-10.554,10.559-10.554    s5.879-1.468,9.675,0.687c7.472,4.235,10.827,14.273,19.573,18.902c14.207,7.516,33.119,11.826,39.168,28.352    c2.083,5.68,2.23,9.501-0.686,14.839c-3.552,6.537-18.47,14.421-22.268,21.595c0,0-5.976,8.178-7.446,16.209    c-0.931,5.115-0.171,10.773,2.034,15.498c2.816,6.072,8.377,10.553,13.497,14.862c6.124,5.142,20.258,12.829,20.258,12.829    l2.4,4.824c0,0-8.94,6.145-12.297,10.479c-4.115,5.289-10.777,16.992-10.777,16.992s-4.165-4.334-8.745-6.022    c-3.553-1.298-8.599-2.62-11.342,0c-2.622,2.497-2.793,5.483-1.47,8.862c1.175,3.036,5.413,5.412,5.413,5.412    s-3.527,3.28-4.434,5.41c-1.103,2.597-1.078,6.049,0.49,8.373c2.106,3.111,5.633,2.693,9.356,2.965    c2.646,0.195,7.889-0.98,7.889-0.98s-1.201,3.085-0.979,4.921c0.317,2.841,1.004,6.366,3.453,7.884    c3.332,2.081,8.574,1.764,11.808-0.488c5.486-3.844,7.642-18.095,7.642-18.095l0,0c0,0,3.26-0.784,4.557,0    c3.332,2.007,8.696,7.052,8.696,7.052s1.323-6.193-0.146-11.117c-0.882-2.912-5.831-6.977-5.831-6.977s6.395-1.689,9.309,0.416    c2.867,2.081,6.468,9.28,6.468,9.28s1.372-7.909,0.416-12.855c-0.71-3.771-7.03-9.132-7.03-9.132s5.193-1.054,7.447,0    c3.92,1.836,8.305,9.965,8.305,9.965s3.281-10.676,0.832-16.576c-1.151-2.742-7.055-5.41-7.055-5.41s8.157-2.131,11.195,0    c3.723,2.645,5.389,9.133,5.389,9.133s3.846-7.934,2.498-13.688c-0.833-3.549-6.638-8.691-6.638-8.691s4.458-3.723,5.805-6.221    c1.128-2.129,2.621-4.848,1.665-7.051c-1.003-2.277-4.041-3.33-6.49-3.697c-2.988-0.467-8.794,1.959-8.794,1.959l-3.626-3.158    c-6.369-5.582-9.848-14.594-10.803-23.628c-1.029-9.354,6.541-26.907,6.541-26.907s3.527,11.457,8.965,17.799    c3.797,4.432,9.285,7.86,14.992,9.084c7.299,1.566,11.023,1.959,17.71-1.37C292.706,273.122,299.308,268.169,300.74,261.588z" id="path304" />
    <g id="g306">
      <path class="st1" d="M56.171,117.89c2.303,2.742,2.278,5.803,0.098,8.374c-1.078,1.272-2.841,1.811-5.364,1.077     c-2.01-5.681-3.504-7.493-9.211-9.77C51.076,114.094,53.5,117.841,56.171,117.89L56.171,117.89z" id="path308" />
      <path class="st1" d="M34.125,130.597c3.307,1.322,4.728,4.016,4.042,7.321c-0.343,1.615-1.617,2.938-4.189,3.501     c-4.482-4.04-6.638-4.921-12.762-4.212C27.805,129.667,31.749,131.821,34.125,130.597L34.125,130.597z" id="path310" />
      <path class="st1" d="M41.351,158.901c3.503-0.562,6.124,1.029,7.201,4.212c0.564,1.591,0.123,3.38-1.812,5.165     c-5.903-1.174-8.207-0.832-13.106,2.891C35.448,161.325,39.93,161.178,41.351,158.901L41.351,158.901z" id="path312" />
    </g>
    <path class="st6" d="M188.13,183.385c0,0,3.259,3.086,5.193,4.162c6.101,3.354,14.209,2.57,19.769,6.76l12.494,9.352    l-17.172-28.083c0,0-4.631,3.549-7.276,4.676C197.023,182.014,188.13,183.385,188.13,183.385" id="path314" />
    <path class="st6" d="M222.989,251.012c0,0-13.864,9.744-17.687,19.243c-2.154,5.314-2.204,10.823,0,16.112    c5.537,13.295,26.53,20.297,26.53,20.297s-15.016-8.938-18.74-20.813c-1.396-4.479-0.809-9.449,0-14.053    C214.612,263.424,222.989,251.012,222.989,251.012" id="path316" />
    <g id="g318">
      <path class="st1" d="M183.77,342.68c2.892,2.083,3.627,5.045,2.156,8.081c-0.71,1.493-2.278,2.472-4.898,2.399     c-3.381-5.02-5.268-6.391-11.392-7.15C177.843,340.282,181.151,343.317,183.77,342.68L183.77,342.68z" id="path320" />
      <path class="st1" d="M182.007,364.864c3.503-0.563,6.123,1.028,7.201,4.211c0.539,1.593,0.124,3.38-1.812,5.166     c-5.929-1.199-8.207-0.855-13.131,2.89C176.103,367.289,180.585,367.116,182.007,364.864L182.007,364.864z" id="path322" />
      <path class="st1" d="M203.246,377.988c3.478-0.783,6.172,0.637,7.472,3.745c0.637,1.567,0.317,3.354-1.495,5.264     c-5.977-0.807-8.255-0.316-12.909,3.699C197.512,380.78,201.972,380.338,203.246,377.988L203.246,377.988z" id="path324" />
    </g>
  </g>
  <g id="g326">
    <g id="g328">
      <path class="st1" d="M216.963,73.524c0,0-16.535-3.55-23.246-5.093c-7.84-1.811-19.182,1.813-26.849-0.612     c-4.508-1.444-5.61-2.473-7.814-6.66c-1.371-2.571-2.033-6.978-2.033-6.978s-3.724,4.676-3.136,8.765     c0.515,3.551,3.038,7.076,6.223,8.766c8.818,4.701,24.201,1.591,33.927,3.844c6.81,1.567,15.04,11.165,15.04,11.165     L216.963,73.524L216.963,73.524z" id="path330" />
      <path class="st12" d="M172.699,82.241c1.249-7.737,2.914-8.496,4.532-11.042l0.073,10.871L172.699,82.241L172.699,82.241z" id="path332" />
      <path class="st12" d="M172.699,59.274c1.249,7.737,2.914,8.496,4.532,11.042l0.073-10.871L172.699,59.274L172.699,59.274z" id="path334" />
    </g>
    <path class="st2" d="M145.9,145.092l7.962-3.477c2.252-0.979,1.444-4.824,2.327-7.003c0.979-2.474,5.388-5.901,5.388-5.901    l-10.46-0.342c0,0,7.595-3.624,8.108-8.766c0.123-1.322-0.342-5.436-0.342-6.758c0.024-4.505,4.017-8.3,7.765-10.798    c2.376-1.591,8.794-2.228,10.143-4.726l2.375-4.407c0,0-3.258,2.277-6.369,2.668c-3.037,0.392-7.765-1.003-7.765-1.003    l6.735-6.415c1.079-1.004-0.71-5.338-0.317-6.758c0.71-2.571,6.075-3.722,6.075-3.722s11.267,2.106,16.241-0.808    c4.727-2.791,7.054-8.202,5.511-13.001l-1.053-3.232c-1.324-4.064-16.144,1.372-20.356,1.935    c-3.725,0.49-7.324-1.2-9.261-4.382c-3.624-5.925-0.61-11.875,0-17.8l22.513-1.028c8.354-10.969,27.288-10.137,44.534-4.872    c1.886-1.102,6.907-0.563,8.916-1.298c2.253-0.833,1.617-2.913,6.052-4.138c0,0,2.522,2.252,1.763,6.439    c-0.319,1.762-4.729,5.509-4.532,6.929c0.098,0.931,2.793-1.665,5.732-1.396c3.699,0.318,7.79,3.452,7.667,4.309    c-0.416,2.669-2.742,7.395-5.193,9.843c-1.886,1.836-3.771,1.518-5.364,2.84c-1.861,1.567-7.938,1.984-7.938,1.984    s7.57,4.627,9.652,8.324c3.87,6.855-0.662,14.568,3.086,21.473c1.323,2.448,4.361,3.942,4.361,3.942s-3.43,2.962-6.565,2.203    c-2.866-0.71-6.149-1.763-6.149-1.763s5.782,6.832,6.149,12.708c0.416,6.806-7.274,12.071-7.888,18.852    c-0.441,4.775,3.063,14.03,3.063,14.03s-4.409-1.396-6.564-3.085c-1.813-1.395-5.268-5.681-5.268-5.681l1.738,9.647    c0.857,4.628-8.4,7.613-9.209,13.147c-0.49,3.551,2.646,7.444,2.646,7.444s-8.451-1.91-11.832-4.383    c-2.694-1.984-6.149-7.885-6.149-7.885s-3.085,8.081-5.707,10.945c-2.915,3.207-9.137,4.773-14.158,7.125    c-8.524,3.99-16.094,7.785-16.094,7.785s1.518-5.632,0.881-8.766c-1.004-4.871-7.765-10.087-10.093-14.47    c-2.351-4.432,0-10.528,0-10.528s-5.56,5.338-9.626,6.146C154.547,148.127,145.9,145.092,145.9,145.092L145.9,145.092    L145.9,145.092z" id="path336" />
    <g id="g338">
      <path class="st12" d="M195.725,43.702c0.074,3.281,3.919,6.733,8.77,6.611c4.874-0.147,7.889-2.889,7.789-6.17     c-0.098-3.306-3.209-4.995-8.082-4.873C199.326,39.417,195.627,40.421,195.725,43.702" id="path340" />
      <path class="st10" d="M200.355,44.241c0.073,1.812,1.593,3.257,3.405,3.208c1.836-0.049,3.282-1.567,3.233-3.379     c-0.049-1.836-1.568-3.281-3.405-3.232C201.75,40.887,200.306,42.405,200.355,44.241" id="path342" />
      <path class="st3" d="M204.202,40.03c-2.402,0.073-4.41,0.44-5.782,1.028c-1.348,0.612-1.911,1.273-1.886,2.62     c0.073,2.693,3.43,5.999,7.936,5.876c2.279-0.073,4.068-0.735,5.242-1.713c1.201-1.004,1.813-2.302,1.765-3.697     c-0.024-1.396-0.637-2.375-1.838-3.085C208.415,40.348,206.552,39.957,204.202,40.03 M204.153,38.462     c2.546-0.073,4.727,0.367,6.318,1.298c1.593,0.93,2.523,2.449,2.572,4.333c0.074,1.91-0.809,3.649-2.302,4.897     c-1.52,1.249-3.65,2.057-6.247,2.13c-5.242,0.147-9.431-3.525-9.529-7.394c-0.049-1.958,1.127-3.354,2.842-4.113     C199.497,38.854,201.677,38.536,204.153,38.462" id="path344" />
    </g>
    <path class="st14" d="M242.756,60.009c0,0,7.57,4.627,9.652,8.324c3.87,6.855-0.662,14.568,3.086,21.473    c1.323,2.448,4.361,3.942,4.361,3.942s-3.43,2.962-6.565,2.203c-2.866-0.71-6.149-1.763-6.149-1.763s5.782,6.832,6.149,12.708    c0.416,6.806-7.274,12.071-7.888,18.852c-0.441,4.775,3.063,14.03,3.063,14.03s-4.409-1.396-6.564-3.085    c-1.813-1.395-5.268-5.681-5.268-5.681l1.738,9.623c0.857,4.627-8.4,7.638-9.209,13.172c-0.49,3.551,2.646,7.444,2.646,7.444    s-8.451-1.91-11.832-4.383c-2.694-1.984-6.149-7.885-6.149-7.885s-3.085,8.081-5.707,10.945    c-2.915,3.207-9.137,4.773-14.158,7.125c-8.524,3.99-16.094,7.785-16.094,7.785s1.518-5.632,0.881-8.766    c-1.004-4.871-7.765-10.087-10.093-14.47c-2.327-4.432,0-10.528,0-10.528s-5.56,5.313-9.626,6.146    c-4.482,0.905-13.13-2.13-13.13-2.13l7.962-3.477c2.252-0.979,1.444-4.824,2.327-7.003c0.979-2.474,5.388-5.901,5.388-5.901    l-10.46-0.342c0,0,7.595-3.624,8.108-8.766c0.123-1.322-0.342-5.436-0.342-6.758c0.024-4.505,4.017-8.325,7.765-10.798    c2.376-1.591,8.794-2.228,10.143-4.726l2.375-4.407c0,0,1.42,2.914,1.298,5.436c-0.122,2.498-0.563,5.411-2.375,7.1    c-2.278,2.155-12.25,3.917-12.25,7.125c0,4.162,0.027,5.559-1.174,9.451l9.479-3.158c0,0-7.568,10.406-9.87,15.4    c-0.663,1.444-0.785,4.726-0.785,4.726s5.267-5.313,8.5-7.149c2.353-1.347,17.957-17.311,17.957-17.311    s-14.847,25.831-13.449,31.193c1.273,4.799,6.368,7.908,7.911,12.61c0.539,1.64,0.393,5.141,0.393,5.141    s12.688-4.994,16.976-9.476c5.758-6.023,9.089-35.527,9.089-35.527s5.511,24.338,9.088,28.819    c1.029,1.321,3.552,3.55,3.552,3.55s4.679-7.125,5.903-11.435c2.352-8.276-6.712-44.219-6.712-44.219l16.583,28.818    c0,0-0.22-7.37,1.201-10.651c1.274-3.011,2.694-4.26,3.159-7.492c1.005-7.296-11.463-29.993-11.463-29.993l17.783,13.001    c0,0-0.955-11.165-2.376-16.552C246.456,68.064,242.756,60.009,242.756,60.009L242.756,60.009L242.756,60.009z" id="path346" />
    <path class="st14" d="M171.915,83.171c0,0,3.724,3.158,6.026,3.501c3.43,0.514,6.688-1.959,10.141-2.351    c5.218-0.588,10.657,1.225,15.751,0c4.605-1.102,9.7-2.717,12.665-6.415c4.042-5.02,4.874-18.682,4.874-18.682l1.937,2.13    l0.783,9.549l-2.132,10.308l-7.594,6.807l-8.965,2.938l-11.293-0.979h-7.201l-6.419,3.305l-7.618,2.914l-7.004-2.13    l6.049-5.852V83.171L171.915,83.171z" id="path348" />
    <path class="st3" d="M218.972,56.434c0,0,0.856,1.689,1.763,3.82c0.906,2.155,1.788,4.774,1.96,6.292    c0.515,4.334,0.466,9.01-1.372,12.561c-2.351,4.554-6.564,6.88-11.783,8.741c-3.281,1.175-6.979,1.003-10.899,0.685    c-3.92-0.318-8.059-0.833-12.175,0c-1.887,0.367-3.943,1.42-5.708,2.35c-1.738,0.931-3.135,1.763-3.135,1.763l1.665,2.668    c0,0,1.298-0.808,2.939-1.688c1.642-0.882,3.699-1.837,4.826-2.058c3.479-0.686,7.398-0.22,11.391,0.098    c3.993,0.318,8.133,0.563,12.175-0.881c5.487-1.958,10.606-4.652,13.448-10.21c2.302-4.456,2.326-9.72,1.764-14.323    c-0.27-2.252-1.96-7.076-4.091-8.276L218.972,56.434L218.972,56.434z" id="path350" />
    <path class="st14" d="M168.241,40.25l-1.054,8.08c0,0,6.688-0.563,9.284-1.64c3.943-1.616,6.074-7.321,6.074-7.321    L168.241,40.25L168.241,40.25z" id="path352" />
    <path class="st6" d="M196.484,35.133l7.153-2.375l6.81-1.518l14.379,1.493l14.895,2.229l11.904-4.946    c-5.069-0.171-1.298-0.294-1.249,1.885c0.049,1.787-3.307,6.733-8.402,7.933c-5.658,1.347-19.353-2.424-31.698-2.546    c-8.083-0.099-15.579,2.521-19.939,2.693L196.484,35.133L196.484,35.133z" id="path354" />
    <path class="st17" d="M242.756,60.009c0,0,7.57,4.627,9.652,8.324c3.87,6.855-0.662,14.568,3.086,21.473    c1.323,2.448,4.361,3.942,4.361,3.942s-3.43,2.962-6.565,2.203c-2.866-0.71-6.149-1.763-6.149-1.763s5.782,6.832,6.149,12.708    c0.416,6.806-7.274,12.071-7.888,18.852c-0.441,4.775,3.063,14.03,3.063,14.03s-4.409-1.396-6.564-3.085    c-1.813-1.395-5.268-5.681-5.268-5.681l1.738,9.623c0.857,4.627-8.4,7.638-9.209,13.172c-0.49,3.551,2.646,7.444,2.646,7.444    s-8.451-1.91-11.832-4.383c-2.694-1.984-6.149-7.885-6.149-7.885s-3.085,8.081-5.707,10.945    c-2.915,3.207-9.137,4.773-14.158,7.125c-8.524,3.99-16.094,7.785-16.094,7.785s1.518-5.632,0.881-8.766    c-1.004-4.871-7.765-10.087-10.093-14.47c-2.327-4.432,0-10.528,0-10.528s-5.56,5.313-9.626,6.146    c-4.482,0.905-13.13-2.13-13.13-2.13l7.962-3.477c2.252-0.979,1.444-4.824,2.327-7.003c0.979-2.474,5.388-5.901,5.388-5.901    l-10.46-0.342c0,0,7.595-3.624,8.108-8.766c0.123-1.322-0.342-5.436-0.342-6.758c0.024-4.505,4.017-8.325,7.765-10.798    c2.376-1.591,8.794-2.228,10.143-4.726l2.742-4.04c0,0-3.454,2.277-6.565,2.668c-3.037,0.392-7.765-1.003-7.765-1.003    l6.761-6.415c1.053-1.004-0.735-5.337-0.343-6.757c0.71-2.547,6.075-3.722,6.075-3.722s11.954,1.738,16.902-1.176    c4.728-2.791,6.516-7.37,4.948-12.144l-1.029-3.256c-1.322-4.04-15.678-0.417-19.915,0.147    c-3.723,0.49-8.035-1.176-9.995-4.383c-3.624-5.925-0.61-10.724,0-16.674c14.403-2.057,12.813-0.514,22.782-1.004    c19.572-19,40.443-0.147,52.151-6.562l7.276-3.599c2.155,5.362-0.246,8.496-2.744,12.928    c10.828-1.102,11.244,1.419,13.179,2.742c0,0-1.567,6.365-4.482,9.94C253.364,59.201,242.756,60.009,242.756,60.009    L242.756,60.009L242.756,60.009z" id="path356" />
    <path class="st3" d="M237.565,54.377c4.873-8.741,10.631-9.598,19.743-8.251C254.222,52.615,249.91,59.886,237.565,54.377" id="path358" />
    <path class="st6" d="M206.284,103.566c0,0-18.006,19.319-18.079,30.312c0,3.575,3.698,6.342,4.091,9.866    c0.466,4.016-2.033,11.924-2.033,11.924s7.913-8.029,8.182-12.584c0.221-3.991-2.988-7.614-3.087-11.582    C195.137,121.514,206.284,103.566,206.284,103.566" id="path360" />
    <path class="st6" d="M178.333,119.579c0,0,6.957-3.427,8.182-5.777c1.201-2.326,0.906-6.685,2.376-8.863    c3.062-4.554,10.215-7.493,10.215-7.493s-9.602,0.49-13.276,5.46c-1.422,1.91-1.176,5.827-1.69,8.154    C183.477,113.875,178.333,119.579,178.333,119.579" id="path362" />
    <path class="st6" d="M223.675,139.044c0,0-4.948-5.95-5.146-8.594c-0.146-2.62,1.862-6.488,1.422-9.06    c-0.955-5.387-6.32-10.969-6.32-10.969s8.598,4.309,9.945,10.332c0.515,2.326-1.299,5.828-1.739,8.178    C221.274,131.772,223.675,139.044,223.675,139.044" id="path364" />
    <path class="st6" d="M239.107,113.238c0,0-5.805-5.093-6.393-7.688c-0.563-2.571,0.833-6.684-0.025-9.182    c-1.764-5.166-7.937-9.867-7.937-9.867s9.186,2.938,11.44,8.692c0.881,2.228-0.368,5.95-0.466,8.349    C235.605,106.432,239.107,113.238,239.107,113.238" id="path366" />
  </g>
  <g id="g368">
    <path class="st11" d="M245.667,12.639c0,0-7.537,6.271-9.538,9.615c-2.437,4.07-3.962,12.204-3.962,12.204    c-8.86-5.588-32.72-1.205-34.751-0.801c0,0-0.104-8.172-1.827-12.338c-1.415-3.424-7.834-10.016-7.834-10.016    s1.854-1.034,3.022-1.408c0.828-0.263,2.189-0.336,2.897,0.069c1.575,0.903,2.556,3.994,2.556,3.994s1.852-1.034,3.021-1.405    c0.827-0.263,2.191-0.338,2.897,0.066c1.575,0.904,2.058,3,2.058,3s-1.709,1.976-2.528,2.399    c-0.821,0.422-2.979,0.916-2.979,0.916s3.789,3.028,5.646,3.451c0.832,0.189,2.037,0.216,2.899,0.067    c1.921-0.335,4.262-1.673,5.352-3.198c0.462-0.645,0.793-2.44,0.793-2.44s-1.838,1.925-3.066,1.898    c-2.458-0.057-4.87-4.05-4.87-4.05s3.574-3.132,5.468-2.825c1.198,0.197,1.694,0.534,1.694,0.534s-0.774-1.343-0.321-2.96    c0.569-2.046,5.017-4.311,5.017-4.311s4.033,2.459,4.248,4.524c0.172,1.633-0.832,2.931-0.832,2.931s0.554-0.311,1.779-0.45    c1.94-0.219,4.956,3.065,4.956,3.065s-3.097,3.864-5.554,3.808c-1.228-0.029-2.726-2.032-2.726-2.032s0.009,1.81,0.366,2.466    c0.873,1.615,3.212,3.019,5.067,3.44c0.834,0.189,2.038,0.217,2.897,0.065c1.924-0.333,5.936-3.182,5.936-3.182    s-2.067-0.596-2.811-1.049c-0.781-0.479-2.104-2.509-2.104-2.509s0.846-2.063,2.572-2.891c0.771-0.37,2.116-0.234,2.895,0.065    c1.101,0.426,2.77,1.541,2.77,1.541s1.51-3.032,3.238-3.861c0.771-0.37,2.115-0.233,2.895,0.067    C244,11.522,245.667,12.639,245.667,12.639" id="path370" />
    <path class="st7" d="M197.241,31.111c0,0,2.752-1.503,4.04-1.948c1.479-0.509,7.411-1.354,7.411-1.354    s-3.678-0.339-4.334-0.374c-1.49-0.079-3.436,0.736-4.929,0.847c-0.632,0.047-2.099-0.05-2.099-0.05L197.241,31.111z" id="path372" />
    <path class="st7" d="M197.197,27.325c0,0,1.587-1.117,2.877-1.562c1.477-0.51,4.304-1.013,4.304-1.013    s-3.301-0.892-4.391-1.008c-0.859-0.092-3.474,0.277-3.474,0.277L197.197,27.325z" id="path374" />
    <path class="st7" d="M221.135,27.717c-1.287-0.139-2.928-0.524-4.171-0.127c-0.264,0.083-0.759,0.31-0.694,0.532    c0.154,0.526,0.63,0.366,1.434,0.425c1.141,0.083,2.263,0.113,3.168,0.242c0.06,0.007,1.917,0.175,2.095,0.2    c1.533,0.197,2.823,0.497,4.093,0.835c1.31,0.351,2.755,0.796,3.816,1.515c0.658,0.444,1.783,1.825,1.783,1.825l1.158-5.87    c0,0,1.192-3.405,2.033-4.754c1.035-1.663,4.325-5.11,4.325-5.11l4.79-4.823c0,0-2.111-0.404-2.908-0.07    c-1.559,0.651-1.953,2.831-4.043,4.507c-0.394,0.317-1.063,0.852-2.275,0.973c-1.144,0.112-2.84-0.193-3.02,0.074    c-0.299,0.443,0.844,0.818,1.919,0.973c0.78,0.112,1.62-0.008,1.386,0.235c-0.942,0.966-2.627,2.917-3.779,3.708    c-1.054,0.729-2.582,1.697-3.89,1.967c-1.238,0.257-3.132-0.453-4.377-0.582c-1.552-0.164-3.361-0.317-4.918-0.456    c-1.295-0.117-3.05-0.181-4.359-0.1c-0.247,0.014-0.669-0.055-0.817,0.118c-0.271,0.313-0.112,0.499,0.222,0.739    c0.871,0.621,3.012,0.439,4.171,0.489c1.604,0.072,3.492-0.189,4.773,0.586c0.398,0.24,0.564,0.888,0.932,1.161    c0.762,0.568,2.53,0.712,4.051,1.083c1.516,0.37,2.783,0.964,2.695,1.06c-0.261,0.29-0.331,0.18-0.761,0.095    c-0.823-0.16-2.149-0.619-2.929-0.758c-0.955-0.17-2.162-0.398-3.336-0.465" id="path376" />
    <path class="st7" d="M212.088,10.515c0.073,0.63-0.013,1.185,0.52,1.614c0.245,0.194,0.826,0.424,1.387,0.583    c0.388,0.112,0.769,0.191,1.006,0.195c0.725,0.017,1.749-0.043,2.396-0.346c0.358-0.167,0.765-0.542,0.927-0.86    c0.22-0.427,0.377-1.124,0.133-1.521c-0.217-0.356-0.983-0.664-0.983-0.664s-0.136,0.571-0.359,0.874    c-0.209,0.282-0.609,0.555-0.994,0.538c-0.51-0.02-1.072-0.024-1.39-0.351c-0.144-0.15-0.275-0.615-0.309-0.81    c-0.113-0.719-0.263-2.412-0.263-2.412s-1.249,0.702-1.521,1.167C212.319,9.071,212.016,9.92,212.088,10.515" id="path378" />
    <path class="st7" d="M196.686,23.314c0,0-0.042-1.988-0.229-2.814c-0.255-1.132-0.988-2.543-1.387-3.641    c-0.332-0.918-0.795-2.376-1.43-3.162c-0.879-1.086-2.269-2.134-3.749-2.572c-0.636-0.187-2.268-0.052-2.268-0.052    s4.172,4.466,5.679,6.546C194.477,19.247,196.686,23.314,196.686,23.314" id="path380" />
    <path class="st15" d="M245.667,12.639c0,0-7.537,6.271-9.538,9.615c-2.437,4.07-3.962,12.204-3.962,12.204    c-6.078-3.458-30.668-3.389-34.751-0.801c0,0-0.104-8.172-1.827-12.338c-1.415-3.424-7.834-10.016-7.834-10.016    s1.854-1.034,3.022-1.408c0.828-0.263,2.189-0.336,2.897,0.069c1.575,0.903,2.556,3.994,2.556,3.994s1.852-1.034,3.021-1.405    c0.827-0.263,2.191-0.338,2.897,0.066c1.575,0.904,2.058,3,2.058,3s-1.709,1.976-2.528,2.399    c-0.821,0.422-2.979,0.916-2.979,0.916s3.789,3.028,5.646,3.451c0.832,0.189,2.037,0.216,2.899,0.067    c1.921-0.335,4.262-1.673,5.352-3.198c0.462-0.645,0.793-2.44,0.793-2.44s-1.838,1.925-3.066,1.898    c-2.458-0.057-4.87-4.05-4.87-4.05s3.574-3.132,5.468-2.825c1.198,0.197,1.694,0.534,1.694,0.534s-0.774-1.343-0.321-2.96    c0.569-2.046,5.017-4.311,5.017-4.311s4.033,2.459,4.248,4.524c0.172,1.633-0.832,2.931-0.832,2.931s0.554-0.311,1.779-0.45    c1.94-0.219,4.956,3.065,4.956,3.065s-3.097,3.864-5.554,3.808c-1.228-0.029-2.726-2.032-2.726-2.032s0.009,1.81,0.366,2.466    c0.873,1.615,3.212,3.019,5.067,3.44c0.834,0.189,2.038,0.217,2.897,0.065c1.924-0.333,5.936-3.182,5.936-3.182    s-2.067-0.596-2.811-1.049c-0.781-0.479-2.104-2.509-2.104-2.509s0.846-2.063,2.572-2.891c0.771-0.37,2.116-0.234,2.895,0.065    c1.101,0.426,2.77,1.541,2.77,1.541s1.51-3.032,3.238-3.861c0.771-0.37,2.115-0.233,2.895,0.067    C244,11.522,245.667,12.639,245.667,12.639z" id="path382" />
  </g>
</svg>
