<?xml version="1.0" encoding="UTF-8" standalone="no"?>
<svg
   xmlns:dc="http://purl.org/dc/elements/1.1/"
   xmlns:cc="http://creativecommons.org/ns#"
   xmlns:rdf="http://www.w3.org/1999/02/22-rdf-syntax-ns#"
   xmlns:svg="http://www.w3.org/2000/svg"
   xmlns="http://www.w3.org/2000/svg"
   xmlns:xlink="http://www.w3.org/1999/xlink"
   id="svg3240"
   height="478.40625"
   width="409.62933"
   version="1.1">
  <defs
     id="defs3242">
    <clipPath
       id="clipPath11046"
       clipPathUnits="userSpaceOnUse">
      <path
         style="display:inline;opacity:1;vector-effect:none;fill:#ce0f25;fill-opacity:1;stroke:#800000;stroke-width:1;stroke-linecap:butt;stroke-linejoin:miter;stroke-miterlimit:4;stroke-dasharray:none;stroke-dashoffset:0;stroke-opacity:1;marker:none"
         d="m 94.29863,26.316406 c -1.0759,67.807892 -1.0124,135.625894 0,203.431644 0.0865,5.79475 0.20279,11.43659 0.34179,17.00781 H 297.33965 V 26.316406 Z"
         id="use11048" />
    </clipPath>
    <clipPath
       id="clipPath11139"
       clipPathUnits="userSpaceOnUse">
      <path
         style="display:inline;opacity:1;vector-effect:none;fill:#ce0f25;fill-opacity:1;stroke:#800000;stroke-width:1;stroke-linecap:butt;stroke-linejoin:miter;stroke-miterlimit:4;stroke-dasharray:none;stroke-dashoffset:0;stroke-opacity:1;marker:none"
         d="m 91.33965,28.75586 v 255.88086 c 75.5514,-34.0452 134.28407,-68.6982 169.53906,-116.7168 26.67099,-36.32684 31.73007,-81.92623 33.1582,-139.16406 z"
         id="use11141" />
    </clipPath>
  </defs>
  <metadata
     id="metadata3245">
    <rdf:RDF>
      <cc:Work
         rdf:about="">
        <dc:format>image/svg+xml</dc:format>
        <dc:type
           rdf:resource="http://purl.org/dc/dcmitype/StillImage" />
        <dc:title></dc:title>
      </cc:Work>
    </rdf:RDF>
  </metadata>
  <g
     id="layer1"
     transform="translate(-92.529088,-25.3125)">
    <path
       style="fill:#1353b4;fill-opacity:1;stroke:none;display:inline"
       id="path7014-6-7-28-3-7-9"
       d="m 94.297836,26.317185 c -1.0759,67.807892 -1.0124,135.625105 0,203.430855 0.9754,65.3291 4.2342,116.3096 33.501204,156.1723 35.255,48.0186 93.98839,82.671 169.53989,116.7162 75.5514,-34.0452 134.28481,-68.6976 169.5398,-116.7162 29.267,-39.8627 32.52581,-90.8432 33.50121,-156.1723 1.01239,-67.80575 1.0759,-135.622963 0,-203.430855 l -406.082104,0 z" />
    <path
       transform="translate(92.529088,25.3125)"
       id="path5486"
       d="M 2.1113281 221.44336 C 2.3606474 231.43579 2.7325161 241.05205 3.2988281 250.34766 L 204.80859 471.39648 L 204.80859 429.97266 L 14.710938 221.44336 L 2.1113281 221.44336 z M 52.404297 221.44336 L 204.80859 388.625 L 204.80859 347.24023 L 90.130859 221.44336 L 52.404297 221.44336 z M 127.85547 221.44336 L 204.80859 305.85547 L 204.80859 221.44336 L 127.85547 221.44336 z "
       style="opacity:1;vector-effect:none;fill:#fee46e;fill-opacity:1;stroke:none;stroke-width:0.99999988;stroke-linecap:butt;stroke-linejoin:miter;stroke-miterlimit:4;stroke-dasharray:none;stroke-dashoffset:0;stroke-opacity:1;marker:none;marker-start:none;marker-mid:none;marker-end:none;paint-order:normal" />
    <path
       id="path5129"
       d="M 308.55117,26.316406 499.67194,235.96803 h 0.4198 c 0.1322,-5.29858 0.2428,-10.66432 0.32507,-16.17549 0.19104,-12.79508 0.33652,-25.59029 0.45509,-38.38613 L 359.49058,26.316406 Z m 101.87696,0 90.72798,99.523454 c 0.0224,-33.175042 -0.21295,-66.350605 -0.7393,-99.523454 z M 307.31218,80.833444 v 55.880476 l 90.48093,99.25411 h 50.78524 c 0.0322,-0.0214 0.0663,-0.0418 0.0985,-0.0632 z"
       style="opacity:1;vector-effect:none;fill:#fee46e;fill-opacity:1;stroke:none;stroke-width:1;stroke-linecap:butt;stroke-linejoin:miter;stroke-miterlimit:4;stroke-dasharray:none;stroke-dashoffset:0;stroke-opacity:1;marker:none;marker-start:none;marker-mid:none;marker-end:none;paint-order:normal" />
    <use
       clip-path="url(#clipPath11139)"
       height="100%"
       width="100%"
       transform="matrix(0.8,0,0,0.8,244.53766,243.33926)"
       id="use11000"
       xlink:href="#g12449"
       y="0"
       x="0"
       style="stroke-width:1.25" />
    <path
       style="display:inline;fill:none;stroke:#554400;stroke-width:2;stroke-miterlimit:4;stroke-dasharray:none"
       id="path12506"
       d="m 500.37994,26.317185 c 1.0759,67.807892 1.0124,135.625105 0,203.430855 -0.9754,65.3291 -4.2342,116.3096 -33.50122,156.1723 -35.255,48.0186 -93.98839,82.671 -169.53989,116.7162 -75.5514,-34.0452 -134.28481,-68.6976 -169.5398,-116.7162 -29.266988,-39.8627 -32.525798,-90.8432 -33.501198,-156.1723 -1.01239,-67.80575 -1.0759,-135.622963 0,-203.430855 H 297.33887 Z" />
    <g
       clip-path="url(#clipPath11046)"
       id="g11044"
       transform="matrix(0.8,0,0,0.8,39.085499,27.307227)"
       style="stroke-width:1.25">
      <g
         clip-path="none"
         transform="matrix(0.79227882,0,0,0.79234632,-410.56657,-163.57838)"
         id="g12449"
         style="stroke-width:1.57766008">
        <g
           id="g10679"
           style="stroke-width:1.57766008">
          <use
             x="0"
             y="0"
             xlink:href="#g10872"
             id="use10874"
             transform="matrix(-1,0,0,1,1393.6277,0)"
             width="100%"
             height="100%"
             style="stroke-width:1.57766008" />
          <g
             id="g10872"
             style="stroke-width:1.57766008">
            <path
               style="display:inline;opacity:1;vector-effect:none;fill:#fee46e;fill-opacity:1;stroke:none;stroke-width:1.08217466;stroke-linecap:butt;stroke-linejoin:miter;stroke-miterlimit:4;stroke-dasharray:none;stroke-dashoffset:0;stroke-opacity:1"
               id="path11823"
               d="m 708.22577,380.43648 c -0.50306,-4.72948 -0.23523,-13.64991 2.25306,-17.70322 0.84083,-1.36963 2.90064,-2.96465 4.50629,-2.89688 1.58235,0.0668 3.75978,0.53449 4.50629,1.93126 0.68431,1.28027 1.12855,4.02941 0.96563,5.4719 -0.22629,2.00357 -2.57505,6.11566 -2.57505,6.11566 0,0 8.41681,-1.68916 11.26574,-3.86253 2.81868,-2.15036 5.86095,-6.22669 6.75936,-9.6563 0.30822,-1.1766 1.51153,-4.98186 -0.008,-9.54633 -0.88199,-2.64951 -3.53504,-6.19509 -5.58811,-7.96218 -5.36122,-4.61445 -15.77203,-3.27298 -17.90099,-2.12595 -2.81562,1.51697 -6.2471,4.74304 -7.40316,7.72503 -0.89743,2.31475 -2.76286,9.14715 -3.21877,11.58756 -0.93039,4.98042 -1.20058,6.85939 -1.60942,11.90943 -0.28063,3.46626 -1.05423,6.57857 -0.32182,9.97818 0.39455,1.83158 0.88735,6.03512 1.95762,8.80307 1.07605,2.7828 2.73228,4.12844 4.15801,5.3595 2.91255,2.51486 12.23136,3.86252 12.23136,3.86252 0,0 -5.12004,-6.4588 -6.43754,-9.33441 -1.56456,-3.41469 -3.14331,-5.92134 -3.54058,-9.65631 z" />
            <path
               d="m 716.88215,398.89779 -2.45511,-0.039 -7.86325,-2.47132 -9.43589,-8.31255 2.5318,-14.86998 c 0,0 2.72785,8.96662 4.49534,12.55595 1.02575,2.08306 2.62088,4.79471 4.18532,6.51049 2.18743,2.39906 8.54179,6.62646 8.54179,6.62646 z"
               id="path6917-9-7-7-1-2-7-0"
               style="fill:#e4c900;fill-opacity:1;fill-rule:evenodd;stroke:none;stroke-width:2.15210557" />
            <path
               d="m 718.14164,373.13556 c 0,0 4.78694,-2.0191 6.21307,-3.64215 1.52076,-1.73079 2.54029,-4.81226 2.99941,-7.07004 0.3458,-1.70058 -0.49799,-5.3094 -1.28547,-6.8558 -1.19008,-2.33707 -2.64777,-3.68808 -5.14186,-4.49912 -1.71143,-0.55654 -4.31212,-0.62752 -5.99881,0 -1.75108,0.65148 -4.20153,2.17323 -5.35609,3.64214 -1.74081,2.2148 -2.76671,4.76018 -3.42792,7.49854 -0.40731,1.6869 -1.32158,6.83476 -1.28546,8.56975 0.0322,1.54356 0.21425,6.42732 0.21425,6.42732 l 3.21366,5.35607 0.0801,-0.2439 -0.24005,-8.88209 v -3.72086 l 1.6804,-5.76137 2.76064,-3.72086 3.24076,-0.48012 3.12072,1.56037 1.32031,3.36079 -0.24005,4.08094 -1.86753,4.38039 z"
               id="path6919-8-8-2-1-2-1-21"
               style="display:inline;fill:#e4c900;fill-opacity:1;fill-rule:evenodd;stroke:none;stroke-width:2.15210557" />
            <path
               d="m 708.22577,380.43648 c -0.50306,-4.72948 -0.23523,-13.64991 2.25306,-17.70322 0.84083,-1.36963 2.90064,-2.96465 4.50629,-2.89688 1.58235,0.0668 3.75978,0.53449 4.50629,1.93126 0.68431,1.28027 1.12855,4.02941 0.96563,5.4719 -0.22629,2.00357 -2.57505,6.11566 -2.57505,6.11566 0,0 8.41681,-1.68916 11.26574,-3.86253 2.81868,-2.15036 5.86095,-6.22669 6.75936,-9.6563 0.30822,-1.1766 1.51153,-4.98186 -0.008,-9.54633 -0.88199,-2.64951 -3.53504,-6.19509 -5.58811,-7.96218 -5.36122,-4.61445 -15.77203,-3.27298 -17.90099,-2.12595 -2.81562,1.51697 -6.2471,4.74304 -7.40316,7.72503 -0.89743,2.31475 -2.76286,9.14715 -3.21877,11.58756 -0.93039,4.98042 -1.20058,6.85939 -1.60942,11.90943 -0.28063,3.46626 -1.05423,6.57857 -0.32182,9.97818 0.39455,1.83158 0.88735,6.03512 1.95762,8.80307 1.07605,2.7828 2.73228,4.12844 4.15801,5.3595 2.91255,2.51486 12.23136,3.86252 12.23136,3.86252 0,0 -5.12004,-6.4588 -6.43754,-9.33441 -1.56456,-3.41469 -3.14331,-5.92134 -3.54058,-9.65631 z"
               id="path6927-4-1-2-0-0-7-6"
               style="display:inline;fill:none;stroke:#806600;stroke-width:1.57766008;stroke-linecap:butt;stroke-linejoin:miter;stroke-miterlimit:4;stroke-dasharray:none;stroke-opacity:1" />
          </g>
          <path
             style="fill:#fff2ac;fill-opacity:1;fill-rule:evenodd;stroke:none;stroke-width:2.15210557"
             id="path6929-8-5-60-8-0-23-5"
             d="m 662.60291,360.89324 c 0,0 0.4166,-3.29884 0.78487,-4.9054 0.45294,-1.97597 1.44987,-4.71181 2.94325,-6.08272 1.57847,-1.44903 3.96981,-2.58713 6.08271,-2.94325 1.8584,-0.31325 4.45176,-0.26538 6.27894,0.19621 1.4038,0.35463 3.08106,1.40382 4.31676,2.15838 0.93452,0.57064 2.94327,2.15839 2.94327,2.15839 0,0 -3.65108,-5.79007 -6.08272,-7.26002 -2.37141,-1.43356 -6.25588,-2.03448 -9.02597,-1.96217 -2.01282,0.0525 -4.20998,1.04332 -5.8865,2.1584 -1.99036,1.32379 -4.12722,4.01875 -4.90542,6.27892 -0.55575,1.61409 -0.48739,4.05426 0,5.69029 0.52208,1.75249 2.55081,4.51297 2.55081,4.51297 z" />
          <path
             style="fill:#fff2ac;fill-opacity:1;fill-rule:evenodd;stroke:none;stroke-width:2.15210557"
             id="path6931-5-3-3-5-8-98-1"
             d="m 713.61926,346.76564 c 0,0 4.98545,-0.82256 7.06381,-0.39242 2.5779,0.53351 5.96569,2.08461 7.84867,3.92432 1.6198,1.58258 3.53191,6.67137 3.53191,6.67137 0,0 0.1584,-5.34042 -0.58866,-7.45624 -0.45119,-1.27786 -1.5183,-2.85038 -2.55082,-3.72812 -1.58505,-1.34741 -4.19878,-2.91389 -6.27893,-2.94323 -1.09231,-0.0154 -3.59295,-0.0709 -5.0741,0.60704 -2.52218,1.15444 -3.95188,3.31728 -3.95188,3.31728 z" />
          <g
             style="stroke-width:1.23478961;stroke-miterlimit:4;stroke-dasharray:none"
             id="g6935-8-5-9-3-1-8-9"
             transform="matrix(0.87640408,0,0,0.87640408,249.78903,-332.88234)">
            <path
               style="display:inline;fill:#fee46e;fill-opacity:1;fill-rule:evenodd;stroke:none;stroke-width:1.23478961"
               id="path6937-3-4-49-7-7-07-9"
               d="m 510,854 c 0,0 8.58079,-7.03775 10,-15 1.27665,-7.16228 -4.4103,-15.5515 -4.84132,-18.92499 -1.72367,-13.49216 1.92936,-31.46657 2.25863,-32.93573 1.30797,-5.83607 2.95399,-8.33308 3.83033,-10.24414 0.63083,-1.37567 2.43333,-4.1112 4.23574,-6.76319 1.03432,-1.52175 3.33777,-4.35506 4.51118,-7.23688 1.24372,-3.0544 1.32896,-6.16333 1.34698,-7.82303 0.0307,-2.8265 -0.50296,-5.23079 -1.25324,-7.53217 -0.71305,-2.18762 -3.03665,-5.76776 -6.40372,-7.82555 -3.63004,-2.21837 -6.56481,-4.00185 -7.68157,-4.70812 C 512.31404,732.67317 510.04353,725 510,725 c -0.0434,0 -2.31409,7.67317 -6.00305,10.0062 -1.11676,0.70627 -3.91757,2.48975 -7.54761,4.70812 -3.36709,2.05779 -5.69067,5.63793 -6.40372,7.82555 -0.75028,2.30138 -1.28395,4.70567 -1.25324,7.53217 0.018,1.6597 0.10326,4.76863 1.34698,7.82303 1.1734,2.88182 3.47686,5.71513 4.51118,7.23688 1.80241,2.65199 3.60491,5.38752 4.23574,6.76319 0.87634,1.91106 2.52236,4.40807 3.83033,10.24414 0.32927,1.46916 3.9823,19.44357 2.25863,32.93573 C 504.54422,823.4485 498.72335,831.83772 500,839 c 1.41921,7.96225 10,15 10,15 z" />
            <path
               style="fill:none;stroke:#d4aa00;stroke-width:1.80015147;stroke-linecap:butt;stroke-linejoin:miter;stroke-miterlimit:4;stroke-dasharray:none;stroke-opacity:1"
               id="path6939-0-3-6-9-6-5-7"
               d="M 510,854 509.9892,726.04466" />
          </g>
          <path
             style="fill:#e4c900;fill-opacity:1;fill-rule:evenodd;stroke:none;stroke-width:2.15210557"
             id="path6941-6-6-5-6-7-2-9"
             d="m 696.98345,415.33858 6.13144,-6.83891 2.35825,-4.48067 -0.47165,-6.13144 -1.65077,-6.36727 -2.59408,-5.65979 v -9.19716 l 0.9433,-9.19718 1.17912,-10.14045 2.59408,-8.01804 4.24485,-5.89562 3.53736,-6.13144 1.41495,-3.30155 0.70747,-5.89562 -0.94328,-5.65979 -2.98579,-4.78457 -5.73973,-3.94094 c 0,0 3.40061,3.82307 5.63133,7.41857 1.1977,1.93049 1.18283,4.29889 1.20758,4.84431 0.10585,2.33227 -0.0716,3.41339 -0.70747,5.65979 -0.58822,2.07819 -1.8349,4.35664 -3.06572,6.13144 -1.37905,1.98855 -3.845,4.21555 -4.95233,6.36727 -1.58758,3.08498 -2.65883,7.6743 -3.30155,11.08377 -0.78905,4.18583 -0.89758,9.89924 -1.17911,14.14947 -0.28558,4.31137 -1.04923,10.07803 -0.70748,14.3853 0.2173,2.73874 1.40216,6.57883 1.88659,8.96136 0.33508,1.64793 1.20097,3.75599 1.41496,5.42397 0.20704,1.61395 0.22142,3.8119 0,5.42397 -0.24994,1.81961 -0.94951,4.19804 -1.65077,5.89561 -0.77397,1.87357 -3.30155,5.89561 -3.30155,5.89561 z" />
          <path
             style="fill:#e4c900;fill-opacity:1;fill-rule:evenodd;stroke:none;stroke-width:2.15210557"
             id="path6943-2-5-1-3-1-58-0"
             d="m 688.72959,404.9623 c 0,0 0.14378,-3.66007 0.47166,-5.18814 0.45527,-2.12195 1.59479,-4.80741 2.35823,-6.83891 0.72559,-1.9308 2.16599,-4.34957 2.59407,-6.36727 0.94016,-4.43143 0.73562,-10.57044 0.47165,-15.0928 -0.1959,-3.35608 -1.17803,-7.75536 -1.65077,-11.08375 -0.37144,-2.6152 -1.06614,-6.68636 -1.8866,-9.19716 -0.87514,-2.67813 -2.3083,-6.09719 -3.77319,-8.50392 -1.24469,-2.04491 -2.93058,-4.05707 -4.48068,-5.88139 -1.19894,-1.41106 -4.48067,-4.24485 -4.48067,-4.24485 l 0.45603,0.17191 0.54125,2.52587 2.16505,3.6084 2.16504,3.96924 3.6084,5.59303 2.34547,5.95387 1.26293,6.31469 1.08252,8.66017 0.54127,8.66017 v 8.11891 l -1.98462,4.14966 -2.34547,6.31469 -0.72168,5.23219 z" />
          <path
             style="display:inline;fill:none;stroke:#806600;stroke-width:1.57766008;stroke-linecap:butt;stroke-linejoin:miter;stroke-miterlimit:4;stroke-dasharray:none;stroke-opacity:1"
             id="path6945-2-9-3-1-4-7-6"
             d="m 696.75511,415.56676 c 0,0 7.52024,-6.16792 8.76404,-13.14606 1.11886,-6.27706 -3.86521,-13.62941 -4.24295,-16.58594 -1.51064,-11.82459 1.69089,-27.57743 1.97947,-28.86502 1.14632,-5.11475 2.58889,-7.30314 3.35691,-8.978 0.55288,-1.20564 2.13259,-3.60307 3.71223,-5.92728 0.90648,-1.33367 2.92523,-3.8168 3.95362,-6.34244 1.09,-2.67688 1.16469,-5.40156 1.18049,-6.85613 0.0269,-2.47716 -0.44079,-4.58429 -1.09834,-6.60124 -0.62492,-1.91723 -2.66133,-5.05488 -5.61225,-6.85833 -3.18138,-1.94419 -5.75343,-3.50724 -6.73216,-4.12622 -3.23302,-2.04467 -5.22292,-8.76947 -5.26106,-8.76947 -0.0381,0 -2.02808,6.7248 -5.26111,8.76947 -0.97872,0.61898 -3.43336,2.18203 -6.61474,4.12622 -2.95093,1.80345 -4.98733,4.9411 -5.61224,6.85833 -0.65756,2.01695 -1.12527,4.12408 -1.09835,6.60124 0.0158,1.45457 0.0904,4.17925 1.18049,6.85613 1.02838,2.52564 3.04714,5.00877 3.95362,6.34244 1.57963,2.32421 3.15936,4.72164 3.71222,5.92728 0.76803,1.67486 2.21061,3.86325 3.35693,8.978 0.28856,1.28759 3.49009,17.04043 1.97946,28.86502 -0.37774,2.95653 -5.47918,10.30888 -4.36032,16.58594 1.2438,6.97814 8.76404,13.14606 8.76404,13.14606 z" />
          <path
             style="fill:#fff2ac;fill-opacity:1;fill-rule:evenodd;stroke:none;stroke-width:2.15210557"
             id="path6947-5-5-2-5-8-44-5"
             d="m 692.58587,343.91687 0.64458,-29.00567 c 0,0 -3.60962,2.70719 -5.15658,3.86742 -1.16023,0.87017 -3.14403,1.64358 -3.86742,2.90057 -1.65097,2.86884 -2.37578,6.02883 -0.96685,9.02398 0.83333,1.77152 3.82718,4.04168 5.15656,5.47887 1.79199,1.93728 4.18971,7.73483 4.18971,7.73483 z" />
          <path
             style="fill:#fff2ac;fill-opacity:1;fill-rule:evenodd;stroke:none;stroke-width:2.15210557"
             id="path6949-2-4-6-8-1-17-17"
             d="m 699.99844,339.40487 v -20.94853 c 0,0 1.14967,2.20844 1.9337,2.90055 0.64832,0.57233 1.93611,0.70998 2.57829,1.28916 0.93612,0.84429 2.01046,2.30865 2.256,3.54513 0.32508,1.63709 -0.16108,4.01719 -0.96687,5.47885 -0.69391,1.25873 -2.67721,2.07715 -3.54512,3.22285 -0.91385,1.20631 -2.256,4.51199 -2.256,4.51199 z" />
          <path
             style="fill:#fff2ac;fill-opacity:1;fill-rule:evenodd;stroke:none;stroke-width:2.15210557"
             id="path6951-2-9-9-0-8-84-9"
             d="m 694.72732,406.44023 c -0.26937,-2.7926 -0.20774,-9.34628 -0.20774,-9.34628 0,0 -2.38349,3.5251 -2.78212,5.11969 -0.21106,0.84418 -0.42215,2.66978 -0.20387,3.51212 0.49939,1.92725 3.75288,5.88268 3.75288,5.88268 0,0 -0.43529,-3.88422 -0.55915,-5.16821 z" />
          <g
             id="g10712"
             style="stroke-width:1.57766008">
            <path
               d="m 713.64983,377.6345 -3.61753,-5.01155 h -26.42323 l -3.6313,5.01155 3.6313,4.98893 h 26.42323 z"
               id="path6959-5-5-39-4-1-4-59"
               style="display:inline;fill:#fee46e;fill-opacity:1;fill-rule:evenodd;stroke:none;stroke-width:1.08217466;stroke-miterlimit:4;stroke-dasharray:none" />
            <path
               style="fill:#fff2ac;fill-opacity:1;fill-rule:evenodd;stroke:none;stroke-width:1.08217466;stroke-miterlimit:4;stroke-dasharray:none"
               id="path6967-0-8-1-0-1-7-8"
               d="m 681.95702,375.56075 29.96951,0.162 -2.21396,-3.13195 -26.18957,-0.054 z" />
            <path
               style="display:inline;fill:#e4c900;fill-opacity:1;fill-rule:evenodd;stroke:none;stroke-width:1.08217466;stroke-miterlimit:4;stroke-dasharray:none"
               id="path6969-1-8-2-5-0-30-7"
               d="m 711.80208,379.7778 -29.96951,-0.162 2.21396,3.13195 26.18958,0.054 z" />
            <path
               style="display:inline;fill:none;stroke:#806600;stroke-width:1.57766008;stroke-linecap:butt;stroke-linejoin:miter;stroke-miterlimit:4;stroke-dasharray:none;stroke-opacity:1"
               id="path6971-8-3-6-5-4-0-4"
               d="m 713.64984,377.6345 -3.61754,-5.01155 h -26.42323 l -3.63129,5.01155 3.63129,4.98893 h 26.42323 z" />
          </g>
        </g>
        <use
           x="0"
           y="0"
           xlink:href="#g10679"
           id="use10876"
           transform="translate(133.68302)"
           width="100%"
           height="100%"
           style="stroke-width:1.57766008" />
        <use
           height="100%"
           width="100%"
           transform="translate(200.52453,-62.749172)"
           id="use10878"
           xlink:href="#g10679"
           y="0"
           x="0"
           style="stroke-width:1.57766008" />
        <use
           x="0"
           y="0"
           xlink:href="#g10679"
           id="use10880"
           transform="translate(66.841589,-62.749172)"
           width="100%"
           height="100%"
           style="stroke-width:1.57766008" />
        <use
           height="100%"
           width="100%"
           transform="translate(-66.841451,-62.749172)"
           id="use10882"
           xlink:href="#g10679"
           y="0"
           x="0"
           style="stroke-width:1.57766008" />
        <use
           height="100%"
           width="100%"
           transform="translate(133.68302,-128.22656)"
           id="use10930"
           xlink:href="#g10679"
           y="0"
           x="0"
           style="stroke-width:1.57766008" />
        <use
           x="0"
           y="0"
           xlink:href="#g10679"
           id="use10978"
           transform="translate(133.68302,128.22656)"
           width="100%"
           height="100%"
           style="stroke-width:1.57766008" />
        <use
           x="0"
           y="0"
           xlink:href="#g10679"
           id="use10980"
           transform="translate(200.52453,65.477386)"
           width="100%"
           height="100%"
           style="stroke-width:1.57766008" />
        <use
           height="100%"
           width="100%"
           transform="translate(66.841589,65.477386)"
           id="use10982"
           xlink:href="#g10679"
           y="0"
           x="0"
           style="stroke-width:1.57766008" />
        <use
           height="100%"
           width="100%"
           transform="translate(200.52453,193.70395)"
           id="use10984"
           xlink:href="#g10679"
           y="0"
           x="0"
           style="stroke-width:1.57766008" />
        <use
           x="0"
           y="0"
           xlink:href="#g10679"
           id="use10986"
           transform="translate(66.841589,193.70395)"
           width="100%"
           height="100%"
           style="stroke-width:1.57766008" />
        <use
           x="0"
           y="0"
           xlink:href="#g10679"
           id="use10988"
           transform="translate(-66.841451,65.477386)"
           width="100%"
           height="100%"
           style="stroke-width:1.57766008" />
        <use
           height="100%"
           width="100%"
           transform="translate(-66.841451,193.70395)"
           id="use10990"
           xlink:href="#g10679"
           y="0"
           x="0"
           style="stroke-width:1.57766008" />
        <use
           x="0"
           y="0"
           xlink:href="#g10679"
           id="use10992"
           transform="translate(0,-128.22656)"
           width="100%"
           height="100%"
           style="stroke-width:1.57766008" />
        <use
           height="100%"
           width="100%"
           transform="translate(0,128.22656)"
           id="use10994"
           xlink:href="#g10679"
           y="0"
           x="0"
           style="stroke-width:1.57766008" />
      </g>
    </g>
    <path
       style="color:#000000;font-style:normal;font-variant:normal;font-weight:normal;font-stretch:normal;font-size:medium;line-height:normal;font-family:sans-serif;font-variant-ligatures:normal;font-variant-position:normal;font-variant-caps:normal;font-variant-numeric:normal;font-variant-alternates:normal;font-feature-settings:normal;text-indent:0;text-align:start;text-decoration:none;text-decoration-line:none;text-decoration-style:solid;text-decoration-color:#000000;letter-spacing:normal;word-spacing:normal;text-transform:none;writing-mode:lr-tb;direction:ltr;text-orientation:mixed;dominant-baseline:auto;baseline-shift:baseline;text-anchor:start;white-space:normal;shape-padding:0;clip-rule:nonzero;display:inline;overflow:visible;visibility:visible;opacity:1;isolation:auto;mix-blend-mode:normal;color-interpolation:sRGB;color-interpolation-filters:linearRGB;solid-color:#000000;solid-opacity:1;vector-effect:none;fill:#ce0f25;fill-opacity:1;fill-rule:nonzero;stroke:#800000;stroke-width:1;stroke-linecap:butt;stroke-linejoin:miter;stroke-miterlimit:4;stroke-dasharray:none;stroke-dashoffset:0;stroke-opacity:1;marker:none;color-rendering:auto;image-rendering:auto;shape-rendering:auto;text-rendering:auto;enable-background:accumulate;font-variant-east_asian:normal"
       d="m 94.298619,26.31641 c -1.0759,67.807892 -1.0124,135.62589 0,203.43164 0.0865,5.79475 0.202797,11.43659 0.341797,17.00781 H 297.33964 V 26.31641 Z m 24.806641,25 H 272.33964 V 221.75586 H 119.23612 C 118.44766,164.92881 118.43351,108.1132 119.10526,51.31641 Z"
       id="path4731" />
    <path
       style="color:#000000;font-style:normal;font-variant:normal;font-weight:normal;font-stretch:normal;font-size:medium;line-height:normal;font-family:sans-serif;font-variant-ligatures:normal;font-variant-position:normal;font-variant-caps:normal;font-variant-numeric:normal;font-variant-alternates:normal;font-feature-settings:normal;text-indent:0;text-align:start;text-decoration:none;text-decoration-line:none;text-decoration-style:solid;text-decoration-color:#000000;letter-spacing:normal;word-spacing:normal;text-transform:none;writing-mode:lr-tb;direction:ltr;text-orientation:mixed;dominant-baseline:auto;baseline-shift:baseline;text-anchor:start;white-space:normal;shape-padding:0;clip-rule:nonzero;display:inline;overflow:visible;visibility:visible;opacity:1;isolation:auto;mix-blend-mode:normal;color-interpolation:sRGB;color-interpolation-filters:linearRGB;solid-color:#000000;solid-opacity:1;vector-effect:none;fill:#ce0f25;fill-opacity:1;fill-rule:nonzero;stroke:#800000;stroke-width:1;stroke-linecap:butt;stroke-linejoin:miter;stroke-miterlimit:4;stroke-dasharray:none;stroke-dashoffset:0;stroke-opacity:1;marker:none;color-rendering:auto;image-rendering:auto;shape-rendering:auto;text-rendering:auto;enable-background:accumulate;font-variant-east_asian:normal"
       d="m 297.33964,246.75586 v 255.88086 c 75.5514,-34.0452 134.28408,-68.6982 169.53906,-116.7168 26.671,-36.32684 31.73007,-81.92623 33.1582,-139.16406 z m 25,25 h 151.62109 c -2.48774,42.72827 -9.05664,74.61044 -27.23437,99.36914 -25.67059,34.96431 -68.10936,63.91488 -124.38672,91.93945 z"
       id="path4733" />
    <path
       style="color:#000000;font-style:normal;font-variant:normal;font-weight:normal;font-stretch:normal;font-size:medium;line-height:normal;font-family:sans-serif;font-variant-ligatures:normal;font-variant-position:normal;font-variant-caps:normal;font-variant-numeric:normal;font-variant-alternates:normal;font-feature-settings:normal;text-indent:0;text-align:start;text-decoration:none;text-decoration-line:none;text-decoration-style:solid;text-decoration-color:#000000;letter-spacing:normal;word-spacing:normal;text-transform:none;writing-mode:lr-tb;direction:ltr;text-orientation:mixed;dominant-baseline:auto;baseline-shift:baseline;text-anchor:start;white-space:normal;shape-padding:0;clip-rule:nonzero;display:inline;overflow:visible;visibility:visible;opacity:1;isolation:auto;mix-blend-mode:normal;color-interpolation:sRGB;color-interpolation-filters:linearRGB;solid-color:#000000;solid-opacity:1;vector-effect:none;fill:#ffffff;fill-opacity:1;fill-rule:nonzero;stroke:#cccccc;stroke-width:1;stroke-linecap:butt;stroke-linejoin:miter;stroke-miterlimit:4;stroke-dasharray:none;stroke-dashoffset:0;stroke-opacity:1;marker:none;color-rendering:auto;image-rendering:auto;shape-rendering:auto;text-rendering:auto;enable-background:accumulate;font-variant-east_asian:normal"
       d="m 118.62311,169.10938 c -0.009,-14.20344 0.0275,-50.94505 0.10833,-65.14649 H 93.70235 c -0.12952,16.95289 -0.19081,48.19338 -0.18684,65.14649 z m 0.48215,-117.79297 h 47.01953 v -25 H 94.29862 Z M 94.64042,246.75586 h 71.48437 v -25 h -46.88867 z m 130.87695,0 h 71.82227 l -25,-25 h -46.82227 z m 71.82227,-77.64648 v -65.14649 h -25 v 65.14649 z m 0,-142.79297 h -71.82227 v 25 h 46.82227 z"
       id="path4731-3" />
    <path
       id="path4875"
       d="m 322.33964,271.75586 h 46.55305 v -25 h -71.55305 z m 177.69726,-25 h -72.09114 v 25 h 46.01497 z M 322.33964,408.31901 v -74.53158 h -25 v 74.53158 z"
       style="color:#000000;font-style:normal;font-variant:normal;font-weight:normal;font-stretch:normal;font-size:medium;line-height:normal;font-family:sans-serif;font-variant-ligatures:normal;font-variant-position:normal;font-variant-caps:normal;font-variant-numeric:normal;font-variant-alternates:normal;font-feature-settings:normal;text-indent:0;text-align:start;text-decoration:none;text-decoration-line:none;text-decoration-style:solid;text-decoration-color:#000000;letter-spacing:normal;word-spacing:normal;text-transform:none;writing-mode:lr-tb;direction:ltr;text-orientation:mixed;dominant-baseline:auto;baseline-shift:baseline;text-anchor:start;white-space:normal;shape-padding:0;clip-rule:nonzero;display:inline;overflow:visible;visibility:visible;opacity:1;isolation:auto;mix-blend-mode:normal;color-interpolation:sRGB;color-interpolation-filters:linearRGB;solid-color:#000000;solid-opacity:1;vector-effect:none;fill:#ffffff;fill-opacity:1;fill-rule:nonzero;stroke:#cccccc;stroke-width:1;stroke-linecap:butt;stroke-linejoin:miter;stroke-miterlimit:4;stroke-dasharray:none;stroke-dashoffset:0;stroke-opacity:1;marker:none;color-rendering:auto;image-rendering:auto;shape-rendering:auto;text-rendering:auto;enable-background:accumulate;font-variant-east_asian:normal" />
    <path
       id="path4877"
       transform="translate(92.529088,25.3125)"
       d="M 373.1582 304.88477 C 368.95049 320.43525 362.91021 333.94516 354.19727 345.8125 C 349.08128 352.78067 343.28808 359.50637 336.86328 366.03711 L 354.28711 384.05664 C 361.62937 376.58388 368.33913 368.79391 374.34961 360.60742 C 385.2221 345.79871 392.50057 329.44731 397.4082 311.39648 L 373.1582 304.88477 z M 279.80273 410.19727 C 264.63857 419.59155 247.94736 428.72032 229.81055 437.75195 L 204.81055 477.32422 C 236.87441 462.87551 265.89434 448.31279 291.39062 432.66992 L 279.80273 410.19727 z "
       style="color:#000000;font-style:normal;font-variant:normal;font-weight:normal;font-stretch:normal;font-size:medium;line-height:normal;font-family:sans-serif;font-variant-ligatures:normal;font-variant-position:normal;font-variant-caps:normal;font-variant-numeric:normal;font-variant-alternates:normal;font-feature-settings:normal;text-indent:0;text-align:start;text-decoration:none;text-decoration-line:none;text-decoration-style:solid;text-decoration-color:#000000;letter-spacing:normal;word-spacing:normal;text-transform:none;writing-mode:lr-tb;direction:ltr;text-orientation:mixed;dominant-baseline:auto;baseline-shift:baseline;text-anchor:start;white-space:normal;shape-padding:0;clip-rule:nonzero;display:inline;overflow:visible;visibility:visible;opacity:1;isolation:auto;mix-blend-mode:normal;color-interpolation:sRGB;color-interpolation-filters:linearRGB;solid-color:#000000;solid-opacity:1;vector-effect:none;fill:#ffffff;fill-opacity:1;fill-rule:nonzero;stroke:#800000;stroke-width:1;stroke-linecap:butt;stroke-linejoin:miter;stroke-miterlimit:4;stroke-dasharray:none;stroke-dashoffset:0;stroke-opacity:1;marker:none;color-rendering:auto;image-rendering:auto;shape-rendering:auto;text-rendering:auto;enable-background:accumulate" />
    <path
       id="path4897"
       d="m 500.37915,26.31641 c 1.0759,67.807892 1.0124,135.62589 0,203.43164 -0.0865,5.79475 -0.20279,11.43659 -0.34179,17.00781 H 297.33813 V 26.31641 Z m -24.80664,25 H 322.33813 v 170.43945 h 153.10352 c 0.78846,-56.82705 0.80261,-113.64266 0.13086,-170.43945 z"
       style="color:#000000;font-style:normal;font-variant:normal;font-weight:normal;font-stretch:normal;font-size:medium;line-height:normal;font-family:sans-serif;font-variant-ligatures:normal;font-variant-position:normal;font-variant-caps:normal;font-variant-numeric:normal;font-variant-alternates:normal;font-feature-settings:normal;text-indent:0;text-align:start;text-decoration:none;text-decoration-line:none;text-decoration-style:solid;text-decoration-color:#000000;letter-spacing:normal;word-spacing:normal;text-transform:none;writing-mode:lr-tb;direction:ltr;text-orientation:mixed;dominant-baseline:auto;baseline-shift:baseline;text-anchor:start;white-space:normal;shape-padding:0;clip-rule:nonzero;display:inline;overflow:visible;visibility:visible;opacity:1;isolation:auto;mix-blend-mode:normal;color-interpolation:sRGB;color-interpolation-filters:linearRGB;solid-color:#000000;solid-opacity:1;vector-effect:none;fill:#ce0f25;fill-opacity:1;fill-rule:nonzero;stroke:#800000;stroke-width:1;stroke-linecap:butt;stroke-linejoin:miter;stroke-miterlimit:4;stroke-dasharray:none;stroke-dashoffset:0;stroke-opacity:1;marker:none;color-rendering:auto;image-rendering:auto;shape-rendering:auto;text-rendering:auto;enable-background:accumulate" />
    <path
       id="path4899"
       d="m 297.33813,246.75586 v 255.88086 c -75.5514,-34.0452 -134.28408,-68.6982 -169.53906,-116.7168 -26.671,-36.32684 -31.730068,-81.92623 -33.158198,-139.16406 z m -25,25 H 120.71704 c 2.48774,42.72827 9.05664,74.61044 27.23437,99.36914 25.67059,34.96431 68.10936,63.91488 124.38672,91.93945 z"
       style="color:#000000;font-style:normal;font-variant:normal;font-weight:normal;font-stretch:normal;font-size:medium;line-height:normal;font-family:sans-serif;font-variant-ligatures:normal;font-variant-position:normal;font-variant-caps:normal;font-variant-numeric:normal;font-variant-alternates:normal;font-feature-settings:normal;text-indent:0;text-align:start;text-decoration:none;text-decoration-line:none;text-decoration-style:solid;text-decoration-color:#000000;letter-spacing:normal;word-spacing:normal;text-transform:none;writing-mode:lr-tb;direction:ltr;text-orientation:mixed;dominant-baseline:auto;baseline-shift:baseline;text-anchor:start;white-space:normal;shape-padding:0;clip-rule:nonzero;display:inline;overflow:visible;visibility:visible;opacity:1;isolation:auto;mix-blend-mode:normal;color-interpolation:sRGB;color-interpolation-filters:linearRGB;solid-color:#000000;solid-opacity:1;vector-effect:none;fill:#ce0f25;fill-opacity:1;fill-rule:nonzero;stroke:#800000;stroke-width:1;stroke-linecap:butt;stroke-linejoin:miter;stroke-miterlimit:4;stroke-dasharray:none;stroke-dashoffset:0;stroke-opacity:1;marker:none;color-rendering:auto;image-rendering:auto;shape-rendering:auto;text-rendering:auto;enable-background:accumulate" />
    <path
       style="color:#000000;font-style:normal;font-variant:normal;font-weight:normal;font-stretch:normal;font-size:medium;line-height:normal;font-family:sans-serif;font-variant-ligatures:normal;font-variant-position:normal;font-variant-caps:normal;font-variant-numeric:normal;font-variant-alternates:normal;font-feature-settings:normal;text-indent:0;text-align:start;text-decoration:none;text-decoration-line:none;text-decoration-style:solid;text-decoration-color:#000000;letter-spacing:normal;word-spacing:normal;text-transform:none;writing-mode:lr-tb;direction:ltr;text-orientation:mixed;dominant-baseline:auto;baseline-shift:baseline;text-anchor:start;white-space:normal;shape-padding:0;clip-rule:nonzero;display:inline;overflow:visible;visibility:visible;opacity:1;isolation:auto;mix-blend-mode:normal;color-interpolation:sRGB;color-interpolation-filters:linearRGB;solid-color:#000000;solid-opacity:1;vector-effect:none;fill:none;fill-opacity:1;fill-rule:nonzero;stroke:#554400;stroke-width:2;stroke-linecap:butt;stroke-linejoin:miter;stroke-miterlimit:4;stroke-dasharray:none;stroke-dashoffset:0;stroke-opacity:1;marker:none;color-rendering:auto;image-rendering:auto;shape-rendering:auto;text-rendering:auto;enable-background:accumulate"
       d="M 297.33813,502.63672 V 26.31641 M 500.03736,246.75586 H 94.640872"
       id="path5491" />
    <path
       d="m 94.297836,26.317185 c 0,0 -1.0124,135.625105 0,203.430855 0.9754,65.3291 4.2342,116.3096 33.501224,156.1723 35.255,48.0186 93.98839,82.671 169.53989,116.7162 75.5514,-34.0452 134.28481,-68.6976 169.5398,-116.7162 29.26698,-39.8627 32.52579,-90.8432 33.50119,-156.1723 1.01239,-67.80575 0,-203.430855 0,-203.430855 z"
       id="path4743"
       style="display:inline;fill:none;stroke:#554400;stroke-width:2;stroke-miterlimit:4;stroke-dasharray:none" />
  </g>
  <path
     style="display:inline;opacity:1;vector-effect:none;fill:#fee46e;fill-opacity:1;stroke:#554400;stroke-width:2;stroke-linecap:butt;stroke-linejoin:miter;stroke-miterlimit:4;stroke-dasharray:none;stroke-dashoffset:0;stroke-opacity:1"
     id="path6004"
     d="m 140.18207,149.27424 c 0,0 -0.32224,43.23603 0,64.85188 0.31047,20.82631 1.34774,37.07843 10.6634,49.78629 11.22163,15.30789 29.9164,26.35475 53.96435,37.20805 24.04793,-10.8533 42.74271,-21.90016 53.96433,-37.20805 9.31565,-12.70786 10.35293,-28.95998 10.66339,-49.78629 0.32225,-21.61585 0,-64.85188 0,-64.85188 z" />
  <g
     id="g5035">
    <g
       id="g4949">
      <path
         style="fill:#212121;fill-opacity:1;stroke:#000000;stroke-width:1;stroke-linecap:butt;stroke-linejoin:miter;stroke-miterlimit:4;stroke-dasharray:none;stroke-opacity:1;font-variant-east_asian:normal;opacity:1;vector-effect:none;stroke-dashoffset:0"
         d="m 167.61944,247.11066 2.58664,6.10678 c 0,0 4.1515,-0.50494 6.19606,-1.13034 2.79522,-0.85583 7.13973,-3.45727 7.13973,-3.45727 1.9609,-1.0722 -2.41274,-4.22352 -3.94411,-5.91051 -1.1811,-1.30125 -1.98535,-2.98547 -1.98535,-2.98547 -1.16661,-1.90984 2.93543,-4.84355 5.90172,-6.81628 3.80005,-2.52731 8.20028,-4.92801 12.18099,-5.65714 6.781,-1.24198 22.87529,-3.18629 22.87529,-3.18629 l 1.62831,6.00847 -3.71836,8.79584 -5.5609,3.89378 c 1.06095,1.23334 -8.06245,0.51923 -15.07374,0.28617 -2.2459,-0.0746 0.42081,6.65626 0.42081,6.65626 0,0 1.74706,1.32978 2.4134,2.37592 0.66634,1.04616 1.03744,2.25009 0.49079,3.34249 -0.54668,1.0924 -2.14597,1.61134 -3.47196,1.87809 -1.32599,0.26684 -3.16842,-0.557 -3.16842,-0.557 0.58019,0.98773 1.09527,1.99464 0.97209,3.06043 -0.21808,1.88667 -4.06284,4.16956 -4.06284,4.16956 0,0 0.74685,-1.85592 0.48677,-2.74954 -0.31081,-1.06787 -1.45832,-2.35094 -1.45832,-2.35094 0,0 -0.14109,1.54546 -0.44195,2.29662 -0.83285,2.07945 -5.29338,4.12788 -5.29338,4.12788 0,0 0.98028,-2.13086 0.9674,-3.26664 -0.0127,-1.11897 -1.20833,-2.16461 -1.20833,-2.16461 0,0 -0.39044,1.77952 -1.24944,2.86193 -1.03263,1.30122 -4.16235,2.73377 -4.16235,2.73377 0,0 0.66649,-1.75121 0.72071,-2.67238 0.0519,-0.88159 -0.38484,-2.62097 -0.38484,-2.62097 0,0 -1.7909,2.89696 -2.8804,3.8836 -1.32122,1.1965 -4.14961,2.06248 -4.14961,2.06248 0,0 1.68856,-2.99538 1.13391,-4.40679 -0.53404,-1.35909 -4.21416,-2.16764 -4.21416,-2.16764 0,0 -3.93237,1.88339 -6.45361,2.29082 -1.24965,0.20187 -2.90033,0.37411 -3.75574,-0.56168 -1.17004,-1.27927 -1.31906,-2.40279 -0.70222,-4.02451 0.3086,-0.81141 2.37432,-2.0237 2.37432,-2.0237 0,0 -1.5628,-0.89884 -1.99977,-1.49012 -0.78781,-1.06608 -0.76274,-2.34854 -0.18627,-3.54276 0.6067,-1.25684 1.80813,-1.69512 3.2011,-1.69947 1.02849,-0.003 2.74641,1.26844 2.74641,1.26844 0,0 0.45403,-3.34054 1.75882,-3.94125 1.25917,-0.57972 3.33082,1.28396 3.33082,1.28396 z"
         id="path42187-6-7-1-7" />
      <path
         style="fill:#2d2d2d;fill-opacity:1;stroke:none;stroke-width:0.70001358;stroke-miterlimit:4;stroke-dasharray:none;font-variant-east_asian:normal;opacity:1;vector-effect:none;stroke-linecap:butt;stroke-linejoin:miter;stroke-dashoffset:0;stroke-opacity:1"
         d="m 210.22816,239.81989 -1.53322,-3.92809 c -0.50567,-1.29551 2.15262,-2.26828 2.01422,-3.65244 -0.14831,-1.48385 -0.95367,-2.97857 -2.28063,-3.65302 -1.72907,-0.87887 -9.25812,0.7678 -11.17666,1.04707 -2.92782,0.43191 -5.69866,1.73957 -8.30602,3.14261 -2.81734,1.516 -7.78257,5.62176 -7.78257,5.62176 0,0 0.36819,1.77975 0.83361,2.53877 1.62241,2.64584 4.96207,3.73951 4.88085,6.84412 -0.0496,1.8992 -1.3147,2.65698 -2.53731,3.56982 -2.61319,1.951 -5.24735,2.6643 -8.43907,3.32202 -2.3737,0.48915 -6.48904,0.31808 -6.48904,0.31808 0,0 -1.47311,-4.52378 -2.99282,-6.26916 -0.3346,-0.38433 -0.81154,-1.05124 -1.27526,-0.84115 -1.2218,0.55342 -0.56099,3.99219 -0.56099,3.99219 0,0 -2.66112,-1.3094 -4.09864,-1.35011 -0.98977,-0.0281 -1.77198,-0.22778 -2.19611,0.66901 -0.23594,0.49886 -0.37768,1.21335 0.007,1.60867 0.89351,0.91885 4.15161,2.49212 4.15161,2.49212 0,0 -3.42049,1.28658 -4.08166,2.67188 -0.34905,0.73117 -0.76905,1.43696 -0.16822,1.97953 0.53401,0.48223 1.6248,0.37914 2.32834,0.23144 2.46176,-0.51674 7.08372,-2.5397 7.08372,-2.5397 l 5.67404,1.92261 0.36356,2.476 4.10453,-4.85995 1.80039,4.44874 1.90842,-4.19096 3.91391,3.21714 1.98764,-4.43263 3.65629,3.02516 -0.69408,-4.727 c 0,0 3.03375,0.69972 4.57744,0.70457 0.56744,0.002 1.34572,0.20796 1.68428,-0.24847 0.38372,-0.51728 -9.5e-4,-1.33279 -0.28093,-1.91327 -0.46107,-0.9566 -2.17664,-2.32347 -2.17664,-2.32347 0,0 -2.01344,-4.08443 -1.71139,-6.18661 0.1825,-1.27007 0.46216,-2.89121 1.72028,-3.12844 3.22443,-0.608 16.5262,1.23388 16.09141,-1.59884 h -5e-5 z"
         id="path42189-8-3-9-3" />
      <path
         style="fill:#4d4d4d;fill-opacity:1;stroke:none;stroke-width:0.70001358;stroke-miterlimit:4;stroke-dasharray:none;font-variant-east_asian:normal;opacity:1;vector-effect:none;stroke-linecap:butt;stroke-linejoin:miter;stroke-dashoffset:0;stroke-opacity:1"
         d="m 198.69501,230.86061 c 0,0 -4.85018,0.94523 -7.03862,1.98628 -3.34685,1.59214 -8.73993,6.50353 -8.73993,6.50353 l 4.44251,6.09944 -1.82846,-6.01106 c 0,0 4.04021,-2.25333 5.87437,-3.47363 2.74608,-1.82706 7.29013,-5.10456 7.29013,-5.10456 z"
         id="path42191-5-7-5-4" />
      <path
         style="fill:#e94545;fill-opacity:1;stroke:#800000;stroke-width:1.00000012;stroke-linecap:butt;stroke-linejoin:miter;stroke-miterlimit:4;stroke-dasharray:none;stroke-opacity:1"
         d="M 162.44922 244.17773 C 161.86364 244.18402 161.15188 244.28584 160.26953 244.54102 C 162.3007 245.53816 162.79126 246.23677 163.37305 248.37891 C 164.27819 248.7218 164.93145 248.56732 165.36328 248.12891 C 166.23207 247.24692 166.32459 246.12738 165.5625 245.0625 C 164.83186 244.99265 164.20595 244.15888 162.44922 244.17773 z M 156.75195 249.1582 C 155.95698 249.73024 154.41084 249.15842 152.42188 252.25391 C 154.60625 251.66611 155.43347 251.86947 157.27734 253.09961 C 158.18415 252.76123 158.57568 252.21452 158.61328 251.59961 C 158.68902 250.36249 158.02476 249.458 156.75195 249.1582 z M 157.44727 258.43945 C 157.16687 258.42102 156.86555 258.45219 156.54883 258.5332 C 156.10783 259.40885 154.4743 259.61866 154.13867 263.28516 C 155.80436 261.75164 156.63158 261.54892 158.83398 261.78516 C 159.48191 261.06486 159.57647 260.39665 159.32617 259.83398 C 158.94852 258.98497 158.28846 258.49476 157.44727 258.43945 z "
         id="path4318-6-3-4-6-98-1-7-3-5-9-0-9-7" />
    </g>
    <g
       id="g4983">
      <path
         style="fill:#212121;fill-opacity:1;stroke:#000000;stroke-width:1;stroke-linecap:butt;stroke-linejoin:miter;stroke-miterlimit:4;stroke-dasharray:none;stroke-opacity:1;font-variant-east_asian:normal;opacity:1;vector-effect:none;stroke-dashoffset:0"
         d="m 221.58711,236.47504 c 0,0 -3.70851,2.1683 -6.07816,1.14787 -1.02045,-0.43944 -1.98221,-1.38589 -2.24545,-2.46739 -0.255,-1.0477 0.21782,-2.24079 0.83267,-3.12579 0.39363,-0.56656 3.32769,-2.36139 3.32769,-2.36139 0,0 -0.79153,-2.67077 -1.73867,-4.21442 -1.39423,-2.2723 -8.18724,-4.62055 -8.18724,-4.62055 2.76433,-0.86906 5.98588,-0.97611 9.24549,-0.20192 l 5.51462,6.74582 z"
         id="path5636-6-8-0-3-2-6" />
      <path
         style="fill:#212121;fill-opacity:1;stroke:none;stroke-width:0.70001358;stroke-miterlimit:4;stroke-dasharray:none;font-variant-east_asian:normal;opacity:1;vector-effect:none;stroke-linecap:butt;stroke-linejoin:miter;stroke-dashoffset:0;stroke-opacity:1"
         d="m 221.9953,280.82037 c 0,0 1.19685,-0.29017 1.67377,0 1.22166,0.74339 3.19539,2.59268 3.19539,2.59268 0,0 0.48374,-2.27663 -0.0572,-4.08918 -0.32007,-1.07261 -2.13954,-2.56403 -2.13954,-2.56403 0,0 2.34392,-0.62171 3.41398,0.15243 1.05414,0.76269 2.37742,3.41257 2.37742,3.41257 0,0 0.50046,-2.91059 0.15217,-4.72787 -0.26604,-1.38811 -2.58674,-3.35538 -2.58674,-3.35538 0,0 1.91213,-0.38817 2.7389,0 1.43496,0.6737 3.04324,3.66035 3.04324,3.66035 0,0 1.20781,-3.92291 0.30432,-6.10051 -0.41681,-1.00456 -2.58675,-1.98276 -2.58675,-1.98276 0,0 2.98976,-0.79182 4.10837,0 1.36279,0.96469 1.97809,3.35538 1.97809,3.35538 0,0 1.41036,-2.9173 0.91296,-5.03296 -0.30713,-1.3064 -2.43458,-3.20285 -2.43458,-3.20285 0,0 1.63956,-1.36787 2.13026,-2.28771 0.41765,-0.78293 0.96201,-1.77858 0.60865,-2.5927 -0.3644,-0.83954 -1.47629,-1.22562 -2.37949,-1.36244 -1.09039,-0.16514 -3.22933,0.72039 -3.22933,0.72039 l -1.32569,-1.16217 c -2.3346,-2.04668 -3.61001,-5.36566 -3.96731,-8.68938 -0.36995,-3.44148 2.40719,-9.895 2.40719,-9.895 0,0 1.29179,4.2133 3.28511,6.54586 1.39458,1.63192 3.40407,2.89002 5.50009,3.34117 2.68149,0.57711 4.04451,0.72305 6.50013,-0.50119 2.21623,-1.10486 4.60783,-2.92885 5.16676,-5.34577 2.19806,-9.50476 -0.64598,-24.89252 -0.5,-23.72203 0,0 1.53511,-1.97028 2.00003,-3.34104 0.5552,-1.63702 1.00001,-5.67999 1.00001,-5.67999 0.36496,-1.3718 1.54033,-2.59453 2.83339,-3.17406 0.81148,-0.36366 1.84094,-0.32981 2.66671,0 1.35077,0.53943 3.16673,3.00698 3.16673,3.00698 0,0 -0.14444,-3.53693 -1.16669,-4.8446 -1.04216,-1.3331 -2.81385,-2.23018 -4.50008,-2.33881 -2.58484,-0.16606 -5.13166,0.83573 -5.13166,0.83573 0,0 2.80993,-3.04637 4.12505,-6.05705 1.0407,-2.38249 1.2041,-6.86364 1.2041,-6.86364 0,-3.24734 -1.55659,-6.90387 -3.74794,-9.47437 -2.77771,-3.25832 -7.64193,-5.47036 -7.64193,-5.47036 0,0 1.76723,2.88402 2.91574,5.74908 0.79467,1.98232 1.07032,4.53167 1.07032,4.53167 0,0 -1.63607,-1.67053 -3.06856,-2.84935 -1.9862,-1.63412 -5.87996,-1.73466 -5.87996,-1.73466 0,0 3.3795,2.67103 4.50034,5.80131 0.50186,1.40151 0.47012,2.9819 0.27802,4.45851 -0.30314,2.33014 -1.55168,5.7418 -2.09031,8.02872 -0.75276,3.19614 -1.70741,5.13314 -1.52385,8.41202 0.18555,3.31424 2.49658,9.63869 2.49658,9.63869 0,0 -3.81423,0.50524 -5.2107,1.43942 -1.99294,1.33296 -2.31784,5.49218 -2.31784,5.49218 0,0 2.19195,-2.21041 3.56306,-2.53479 1.02197,-0.24187 2.98855,0.99843 2.98855,0.99843 0,0 -3.89024,1.58848 -4.98091,3.24514 -1.06744,1.62129 -0.99618,4.93519 -0.99618,4.93519 0,0 1.41014,-2.041 2.7395,-2.6886 1.11994,-0.54556 3.73568,0 3.73568,0 0,0 -3.58201,2.20499 -4.48282,3.99397 -0.8263,1.64094 -0.49809,5.49172 -0.49809,5.49172 0,0 1.63056,-2.69104 2.95005,-3.39883 0.95151,-0.51043 2.18285,-0.68966 3.2376,-0.46074 0.98033,0.21286 1.73684,0.51793 2.27989,1.36326 0.98879,1.53914 0.79424,3.56998 0,5.49184 -0.58406,1.41329 -1.08042,2.65961 -2.49045,3.24502 -1.76401,0.7323 -4.02329,0.86184 -5.72804,0 -2.11994,-1.07181 -2.31117,-2.05245 -3.2376,-4.24369 -1.77321,-4.19411 -1.57923,-9.98733 -3.23758,-14.22847 -1.3779,-3.52375 -4.64484,-5.8599 -5.72806,-9.48557 -1.11928,-3.74644 0.0432,-7.85931 -0.49809,-11.73229 -0.33531,-2.39958 -1.65707,-6.08755 -1.99237,-8.48725 -0.26482,-1.89528 0,-4.24357 0,-4.24357 l -16.77332,-0.87617 -9.03902,8.01462 c 0,0 -3.44514,0.94134 -5.21484,1.04534 -4.29453,0.251 -9.25002,-1.04269 -13.54832,-1.21707 -4.63162,-0.18789 -13.22114,-0.51493 -13.22114,-0.51493 l -1.65014,-3.70645 c -0.62856,-1.41191 -0.66305,-3.11097 -2.05521,-3.77671 -1.08205,-0.51736 -2.68819,-0.78419 -3.59664,0 -0.87484,0.75518 -0.5138,3.43326 -0.5138,3.43326 0,0 -2.76473,-0.58853 -3.93916,0 -1.27655,0.63975 -2.03585,1.48784 -2.05522,2.91823 -0.0229,1.68289 0.90631,3.51866 2.39776,4.29176 0.65923,0.34333 2.22649,0.34333 2.22649,0.34333 0,0 -1.36196,0.67522 -1.71269,1.71663 -0.45168,1.34118 -0.007,3.15674 1.0276,4.11993 1.23122,1.14564 2.51655,1.0473 4.11044,0.51504 1.34099,-0.4478 2.91156,-2.40329 2.91156,-2.40329 0,0 2.46282,-0.28278 3.42537,0.34333 0.77217,0.50234 1.13387,1.51151 1.37014,2.40329 0.17583,0.66366 0.26216,1.42553 0,2.05995 -0.71063,1.71952 -3.5885,4.35001 -3.5885,4.35001 0,0 2.78078,0.18859 4.06616,-0.25042 2.69173,-0.91927 6.31156,-4.34376 6.31156,-4.34376 0,0 -0.21569,1.62164 -0.91618,2.54427 -0.88345,1.16368 -3.117,3.04176 -3.117,3.04176 0,0 4.25249,-0.45092 6.25664,-1.41561 1.79179,-0.86253 4.32892,-4.01025 4.32892,-4.01025 0,0 -0.0583,1.52873 -0.43303,2.31119 -0.44701,0.93348 -1.42194,3.06452 -1.42194,3.06452 0,0 3.8437,-0.85203 5.54566,-1.84977 1.29796,-0.76084 2.88918,-3.19707 2.88918,-3.19707 0,0 0.0637,1.66521 -0.20039,2.53954 -0.23806,0.78812 -1.36703,2.45702 -1.36703,2.45702 0,0 3.67132,-0.68492 5.24027,-1.54353 1.60261,-0.87697 3.87325,-3.88232 3.87325,-3.88232 0,0 2.15727,-0.53949 3.54749,0.24927 2.74396,1.55681 3.97695,5.25189 7.1837,6.95215 5.21081,2.76287 12.14715,4.35104 14.36738,10.42809 0.76529,2.09472 0.81657,3.49705 -0.24771,5.46225 -1.30052,2.40144 -6.77511,5.30498 -8.17454,7.94528 0,0 -2.19123,3.00801 -2.72487,5.95882 -0.34159,1.88893 -0.0618,3.96877 0.74316,5.71071 1.0318,2.23284 3.07463,3.87933 4.95425,5.46226 2.24496,1.89056 7.43142,4.71748 7.43142,4.71748 l 0.87495,1.77938 c 0,0 -3.27961,2.2563 -4.5077,3.85078 -1.50475,1.95377 -3.9562,6.25317 -3.9562,6.25317 0,0 -1.52324,-1.59636 -3.20847,-2.21448 -1.30131,-0.47726 -3.1552,-0.95949 -4.15702,0 -0.95926,0.91881 -1.022,2.02102 -0.54223,3.26085 0.43134,1.11469 1.98814,1.99271 1.98814,1.99271 0,0 -1.29209,1.20286 -1.62665,1.99283 -0.40293,0.95151 -0.39619,2.2229 0.18073,3.07965 0.76859,1.14138 2.06368,0.98942 3.43405,1.08696 0.96901,0.0693 2.89184,-0.36229 2.89184,-0.36229 0,0 -0.43961,1.14104 -0.36147,1.81163 0.12206,1.04743 0.37282,2.33985 1.26518,2.89857 1.22737,0.76847 3.15289,0.65164 4.33774,-0.18119 2.01173,-1.4141 2.79753,-6.6546 2.79753,-6.6546 h 5e-5 z"
         id="path41368-3-9-6-6" />
      <path
         style="fill:#2d2d2d;fill-opacity:1;stroke:none;stroke-width:0.70001358;stroke-miterlimit:4;stroke-dasharray:none;font-variant-east_asian:normal;opacity:1;vector-effect:none;stroke-linecap:butt;stroke-linejoin:miter;stroke-dashoffset:0;stroke-opacity:1"
         d="M 245.39844 174.78516 L 247.77148 179.93945 L 249.08984 184.69531 L 245.26758 181.39258 L 239.99414 180.33594 L 243.42188 184.03516 L 244.87109 188.13086 L 244.87109 191.43555 L 243.1582 197.77734 L 241.44336 204.65039 L 241.44336 209.27539 L 243.81641 215.75 L 243.50391 215.39258 L 246.11719 219.32227 C 246.11719 219.32227 249.16945 215.06375 249.84961 212.58789 C 250.39487 210.60305 250.25164 208.44981 251.15625 206.60156 C 251.75967 205.36865 253.03854 204.44616 254.32812 203.98242 C 255.85059 203.43491 256.58493 203.13531 258.0625 203.79492 C 259.59164 204.47753 261.42188 207.53711 261.42188 207.53711 L 261.08789 204.12109 L 257.79102 201.875 L 251.85938 201.875 L 254.75977 197.77734 L 256.73633 190.64258 L 255.68164 184.56445 L 250.80469 177.95703 L 245.39844 174.78516 z M 160.96875 191.61523 C 160.66914 191.60573 160.37677 191.68248 160.19141 191.875 C 159.3924 192.70506 160.19141 195.45703 160.19141 195.45703 C 160.19141 195.45703 157.14349 194.34035 155.63281 195.08594 C 155.0285 195.38419 154.41234 196.01631 154.40039 196.69141 C 154.38779 197.39956 155.05727 198.00899 155.63281 198.41992 C 157.1676 199.51565 161.05469 200.14844 161.05469 200.14844 C 161.05469 200.14844 157.74132 201.33191 157.11133 202.74219 C 156.84279 203.34333 156.65733 204.24253 157.11133 204.71875 C 157.73621 205.3742 158.95957 205.11417 159.82227 204.8418 C 161.10722 204.43607 163.02539 202.37109 163.02539 202.37109 C 163.02539 202.37109 167.00607 202.43955 168.44727 203.60742 C 169.43329 204.40629 169.77544 205.82358 170.04883 207.06445 C 170.23481 207.90861 170.08793 208.79463 170.04883 209.6582 C 170.02833 210.11246 169.92578 211.01758 169.92578 211.01758 L 176.94922 205.33594 C 177.83905 207.55883 177.01718 209.78101 175.96289 212.00391 L 182.74023 206.07617 C 184.26007 208.05213 183.45638 210.02797 182.74023 212.00391 L 188.90039 206.57031 C 190.36483 208.50962 189.98349 210.14137 189.51562 211.75781 C 189.51562 211.75781 191.21312 210.9381 191.98047 210.39844 C 193.4574 209.35956 196.04688 206.81836 196.04688 206.81836 C 196.04688 206.81836 198.57762 207.47643 199.74219 208.05273 C 201.12112 208.73509 203.5625 210.64648 203.5625 210.64648 C 203.5625 210.64648 204.45257 207.96149 204.05469 206.69531 C 203.5393 205.05506 201.36708 204.4061 200.60547 202.86523 C 200.30869 202.26478 200.23633 200.89062 200.23633 200.89062 C 200.23633 200.89062 198.59959 202.03625 197.64844 202.125 C 196.21017 202.25917 194.90188 201.0814 193.45898 201.01367 C 192.21124 200.95477 189.76367 201.63086 189.76367 201.63086 C 189.76367 201.63086 181.75061 200.15638 178.55078 199.7793 C 173.6518 199.20209 164.75195 199.7793 164.75195 199.7793 L 162.41016 193.35742 C 162.41016 193.35742 162.39937 192.30373 161.79492 191.875 C 161.57699 191.72049 161.26836 191.62474 160.96875 191.61523 z M 219.20312 205.21484 C 219.20312 205.21484 218.69627 206.7053 217.9082 207.44141 C 215.08215 210.08114 206.99023 212.07812 206.99023 212.07812 C 206.99023 212.07813 207.64964 213.72654 208.28516 214.30273 C 211.15103 216.9012 215.72799 216.8204 218.83398 219.125 C 220.55495 220.40193 222.2433 221.97594 223.08984 223.94727 C 224.19158 226.51292 224.67171 229.6322 223.83008 232.29492 C 222.87836 235.30593 219.60164 236.99371 217.72266 239.5293 C 216.10059 241.71823 214.05512 243.77597 213.2832 246.39062 C 212.79311 248.05063 212.70447 249.28845 213.4668 250.8418 C 215.56343 255.11392 221.58279 256.60125 224.57031 260.30273 C 225.55942 261.52824 226.60547 264.56836 226.60547 264.56836 L 219.94336 269.94727 L 216.05859 276.80859 C 216.05859 276.80859 213.08248 274.20458 211.24609 273.65625 C 210.47759 273.42676 209.40882 273.08794 208.8418 273.65625 C 208.58011 273.91857 208.71797 274.41997 208.8418 274.76953 C 209.26726 275.97066 211.24609 277.73633 211.24609 277.73633 C 211.24609 277.73633 209.1378 280.03348 209.76562 281.07617 C 210.24475 281.87192 211.61716 281.31382 212.54297 281.26172 C 213.92003 281.18348 216.61328 280.51953 216.61328 280.51953 L 216.61328 283.48633 C 216.61328 284.22823 216.01279 285.27909 216.61328 285.71289 C 217.24623 286.17016 218.25783 285.49811 218.83398 284.9707 C 220.42493 283.51443 221.42383 279.03516 221.42383 279.03516 L 224.57031 278.84961 L 221.24023 275.32617 L 227.90039 275.32617 L 224.38477 270.50391 L 230.86133 270.31836 L 227.53125 267.34961 L 235.48828 265.49609 L 233.26758 263.08398 C 233.26758 263.08398 236.55186 260.84302 235.85742 259.56055 C 235.35635 258.63515 232.71289 259.74609 232.71289 259.74609 L 230.49219 258.63281 C 230.49219 258.63281 226.03799 253.67968 225.31055 250.4707 C 224.7502 247.99889 224.82358 245.35461 225.31055 242.86719 C 225.93915 239.65637 229.08953 236.19684 229.9375 233.03711 C 230.51984 230.86713 230.61254 228.55188 230.12109 226.35938 C 229.65232 224.26799 227.73255 222.80215 226.60547 220.98047 C 225.51266 219.21427 224.64335 217.58237 224.01562 215.60156 C 223.13481 212.82213 223.46094 206.88477 223.46094 206.88477 L 219.20312 205.21484 z "
         id="path41979-4-0-15-0" />
      <path
         style="fill:#4d4d4d;fill-opacity:1;stroke:none;stroke-width:0.70001358;stroke-miterlimit:4;stroke-dasharray:none;font-variant-east_asian:normal;opacity:1;vector-effect:none;stroke-linecap:butt;stroke-linejoin:miter;stroke-dashoffset:0;stroke-opacity:1"
         d="M 242.76172 180.33594 L 240.52148 180.4668 L 242.49805 182.58203 L 245.00391 186.54688 L 245.26758 190.37891 L 243.55273 196.7207 L 241.3125 203.32812 L 241.3125 205.9707 C 242.67482 210.08934 244.03611 211.14091 245.39844 211.78516 C 245.39844 211.78516 244.35826 209.19223 244.21289 207.82031 C 243.98008 205.62318 244.21444 203.36054 244.74023 201.21484 C 245.19582 199.35572 246.33639 197.72998 246.98047 195.92773 C 247.50569 194.45804 248.25073 192.99583 248.29883 191.43555 C 248.37822 188.86157 247.86849 186.13367 246.58594 183.90234 C 245.71672 182.39001 242.76172 180.33594 242.76172 180.33594 z M 174.08008 200.27148 C 172.16113 200.24846 170.23516 200.31504 168.29297 200.46289 C 177.26542 202.87848 184.75562 203.53796 191.49219 203.09766 C 185.54041 201.21236 179.83691 200.34056 174.08008 200.27148 z M 216.91406 210.06836 C 216.91406 210.06836 215.21629 211.37432 214.24219 211.79102 C 212.73743 212.4348 209.46875 212.93945 209.46875 212.93945 C 209.46875 212.93945 210.66262 214.07561 211.37695 214.46875 C 213.61722 215.70176 216.58814 215.41997 218.63281 216.95703 L 223.21484 220.40234 L 216.91406 210.06836 z M 222.25977 237.81445 C 222.25977 237.81445 217.17702 241.40326 215.76953 244.89453 C 214.9795 246.85419 214.95957 248.87471 215.76953 250.82617 C 217.8007 255.71987 225.50586 258.28906 225.50586 258.28906 C 225.50586 258.28906 219.99993 255.00788 218.63281 250.63477 C 218.11906 248.99129 218.33028 247.164 218.63281 245.46875 C 219.18232 242.38944 222.25977 237.81445 222.25977 237.81445 z "
         id="path4316-0-8-5-4-3-4-7-7-2" />
      <path
         style="fill:#e94545;fill-opacity:1;stroke:#800000;stroke-width:1.00000012;stroke-linecap:butt;stroke-linejoin:miter;stroke-miterlimit:4;stroke-dasharray:none;stroke-opacity:1"
         d="M 158.68164 188.19531 C 157.96819 188.13898 157.03712 188.24696 155.74609 188.72852 C 157.8464 189.56956 158.3859 190.22815 159.12695 192.32031 C 160.05528 192.59389 160.6961 192.38966 161.09375 191.91992 C 161.8938 190.97487 161.90242 189.85202 161.0625 188.84766 C 160.45099 188.83555 159.87072 188.2892 158.68164 188.19531 z M 152.9668 193.52148 C 152.09721 193.97139 150.64987 193.1809 148.23242 195.95312 C 150.4789 195.69037 151.26855 196.01191 152.91406 197.49805 C 153.86036 197.29562 154.32658 196.80989 154.45312 196.20703 C 154.70776 194.99415 154.1825 194.00385 152.9668 193.52148 z M 156.08789 203.89258 C 155.93737 203.89422 155.78051 203.90762 155.61914 203.93359 C 155.10087 204.76563 153.45634 204.82627 152.79102 208.44727 C 154.58834 207.07114 155.42953 206.94586 157.60156 207.38086 C 158.31192 206.72228 158.46607 206.06548 158.26758 205.48242 C 157.91826 204.456 157.14154 203.88105 156.08789 203.89258 z "
         id="path4318-6-3-4-6-98-1-7-5-1-2-6" />
      <path
         style="fill:#e94545;fill-opacity:1;stroke:#800000;stroke-width:1.00000012;stroke-linecap:butt;stroke-linejoin:miter;stroke-miterlimit:4;stroke-dasharray:none;stroke-opacity:1"
         d="M 206.05078 271.45117 C 205.25183 271.46409 204.19546 271.71182 202.68945 272.76562 C 204.93298 273.05248 205.62104 273.55514 206.86133 275.39453 C 207.82845 275.42629 208.39845 275.06828 208.66602 274.51367 C 209.20441 273.39786 208.93133 272.30831 207.86719 271.54688 C 207.39115 271.66035 206.84973 271.43825 206.05078 271.45117 z M 207.69141 279.66211 C 207.54088 279.66361 207.38405 279.6773 207.22266 279.70312 C 206.70361 280.53467 205.05739 280.59446 204.38867 284.21484 C 206.18728 282.8404 207.02955 282.71524 209.20117 283.15234 C 209.91222 282.49443 210.06706 281.83716 209.86914 281.25391 C 209.52077 280.22715 208.74506 279.6516 207.69141 279.66211 z M 215.48242 284.46094 C 215.33229 284.4719 215.17704 284.49533 215.01758 284.53125 C 214.55161 285.3938 212.91156 285.55762 212.4707 289.21289 C 214.17977 287.72808 215.01235 287.54795 217.20703 287.84766 C 217.87539 287.14635 217.98989 286.48371 217.75586 285.91406 C 217.34393 284.91123 216.53335 284.38421 215.48242 284.46094 z "
         id="path4318-6-3-4-6-98-1-7-0-64-6-2-1" />
      <use
         x="0"
         y="0"
         xlink:href="#path41368-3-9-6-6"
         id="use5124"
         style="font-variant-east_asian:normal;opacity:1;vector-effect:none;fill:none;fill-opacity:1;stroke:#000000;stroke-width:1;stroke-linecap:butt;stroke-linejoin:miter;stroke-miterlimit:4;stroke-dasharray:none;stroke-dashoffset:0;stroke-opacity:1" />
    </g>
    <g
       id="g4935">
      <path
         id="path13429-8-0-9-5-5-1-9-9"
         d="m 197.3606,198.65082 c 0,0 -3.14569,-0.15964 -4.39823,-1.01321 -1.36214,-0.9283 -2.80149,-4.06707 -2.80149,-4.06707 0,0 -3.474,0.46446 -5.06533,0.0222 -1.66266,-0.46215 -4.02889,-2.63094 -4.02889,-2.63094 1.59518,-0.18779 2.7871,-0.39834 4.34169,-1.68702 0,0 -3.06881,-0.30618 -4.81109,-1.11064 -1.51685,-0.70039 -3.98239,-2.91311 -3.98239,-2.91311 1.42309,-0.32238 2.95766,-0.21006 4.08935,-1.66846 0,0 -3.00748,-0.0977 -4.36511,-0.69547 -1.35527,-0.59673 -3.49623,-2.76389 -3.49623,-2.76389 1.65402,-0.0858 3.22893,-0.35197 4.30456,-1.75628 0,0 -3.04691,-0.0165 -4.33245,-0.62096 -1.7749,-0.83467 -4.47814,-3.4801 -4.47814,-3.4801 1.71538,-0.0677 3.42183,-0.15579 4.72795,-1.15636 l -0.94472,-2.16405 c -1.14034,-2.61257 -3.58507,-1.81129 -5.19799,-2.58627 -1.58408,-0.76114 -2.45869,-2.69077 -2.53593,-3.75481 -0.1362,-1.87696 0.77065,-4.69688 4.65534,-3.93582 -1.90573,-3.28037 0.12889,-5.49314 2.19546,-6.32614 1.98518,-0.80065 3.72921,-0.48534 5.04044,3.07235 0,0 1.8189,-1.50748 2.79879,-1.7009 1.36395,-0.26919 2.89375,0.28557 3.36512,1.68853 0.19381,0.57684 0.25567,1.76879 -0.0843,2.46442 -0.53773,1.10024 -1.70693,1.82013 -2.10129,3.44601 -0.44652,1.84081 1.10722,5.15126 1.10722,5.15126 0,0 7.41932,6.74369 10.82735,10.40955 1.81336,1.95052 5.10078,6.14477 5.10078,6.14477 l 0.18472,-0.1077 7.41156,0.31328 0.54006,13.59723 -8.06676,-0.17035 z"
         style="fill:#212121;fill-opacity:1;stroke:#000000;stroke-width:1;stroke-linecap:butt;stroke-linejoin:miter;stroke-miterlimit:4;stroke-dasharray:none;stroke-opacity:1;font-variant-east_asian:normal;opacity:1;vector-effect:none;stroke-dashoffset:0" />
      <path
         id="path5784-15-1-2-8-0-2"
         d="m 191.06734,191.63373 c 0,0 1.73727,4.06256 2.90703,4.72148 1.12,0.63091 2.05492,-0.41682 2.05492,-0.41682 l -0.68668,-1.67886 -2.37547,-0.8168 c 0.51164,-2.36943 5.02972,-1.23894 3.99682,-5.99699 0,0 -7.50504,-8.22711 -9.16191,-9.91006 -2.17852,-2.21281 -8.00544,-7.19149 -8.00544,-7.19149 0,0 -1.31182,-3.59171 -1.46638,-6.02672 -0.0684,-1.07809 0.14748,-2.20881 0.61301,-3.14683 0.47789,-0.96294 1.85746,-1.26186 2.12602,-2.32141 0.0846,-0.33384 -0.0204,-0.74906 -0.22473,-1.02477 -0.24404,-0.32931 -0.66428,-0.56021 -1.04765,-0.55192 -1.44864,0.0312 -3.76278,2.25222 -3.76278,2.25222 0,0 -1.409,-2.85706 -2.65824,-3.53891 -0.52832,-0.28836 -1.21143,-0.29404 -1.75366,-0.0741 -0.51123,0.20733 -1.0168,0.65315 -1.18049,1.2192 -0.51984,1.79757 1.00214,5.62637 1.00214,5.62637 0,0 -3.36675,-1.07381 -4.67646,-0.19767 -0.49872,0.33363 -0.76098,1.10246 -0.71739,1.74641 0.0476,0.70365 0.51291,1.38806 1.03628,1.82053 1.42619,1.17853 5.13158,1.61291 5.13158,1.61291 l 4.26882,6.52591 -4.57204,1.20274 c 1.72755,1.09924 3.08497,1.5049 7.82054,1.72658 -0.98413,2.15863 -2.40525,2.85277 -3.65953,3.7795 l 7.9386,1.60466 c -0.71058,2.12964 -2.79025,2.2415 -3.77075,3.14025 1.99691,1.53619 5.16769,2.17322 8.396,2.76617 -0.45225,1.75134 -2.52007,2.10942 -4.11919,2.87171 1.15793,0.57069 3.20148,0.29019 6.54703,0.27674 z"
         style="fill:#2d2d2d;fill-opacity:1;stroke:none;stroke-width:0.70001358;stroke-miterlimit:4;stroke-dasharray:none;font-variant-east_asian:normal;opacity:1;vector-effect:none;stroke-linecap:butt;stroke-linejoin:miter;stroke-dashoffset:0;stroke-opacity:1" />
      <path
         style="fill:#4d4d4d;fill-opacity:1;stroke:none;stroke-width:0.70001358;stroke-miterlimit:4;stroke-dasharray:none;font-variant-east_asian:normal;opacity:1;vector-effect:none;stroke-linecap:butt;stroke-linejoin:miter;stroke-dashoffset:0;stroke-opacity:1"
         d="m 191.67082,185.7316 c -3.42458,-8.02632 -9.44884,-12.55379 -15.89042,-17.03396 4.9851,7.85792 10.62795,12.7956 15.89042,17.03396 z"
         id="path4316-0-8-5-4-4-6-2-6" />
      <path
         style="fill:#e94545;fill-opacity:1;stroke:#800000;stroke-width:1.00000012;stroke-linecap:butt;stroke-linejoin:miter;stroke-miterlimit:4;stroke-dasharray:none;stroke-opacity:1"
         d="M 177.13086 152.97266 C 178.53014 154.93883 178.68452 155.81984 178.3418 158.0332 C 179.006 158.81925 179.64714 159.02928 180.20508 158.86914 C 181.32764 158.54707 181.85774 157.60168 181.60938 156.25 C 180.78401 155.6493 180.66495 153.94178 177.13086 152.97266 z M 167.67773 153.62109 C 167.31595 153.64577 166.91758 153.69814 166.47461 153.78516 C 168.48151 154.96904 168.95548 155.71262 169.49219 157.9082 C 170.3886 158.33426 171.04439 158.24051 171.48438 157.8418 C 172.36969 157.0397 172.4849 155.9279 171.74609 154.79297 C 170.89694 154.63309 170.21023 153.44835 167.67773 153.62109 z M 164.25195 162.13477 C 163.45448 162.18509 162.41032 162.48228 160.95508 163.60547 C 163.20953 163.78696 163.9214 164.25782 165.24609 166.03711 C 166.21362 166.02356 166.76444 165.63882 167.00586 165.07227 C 167.49165 163.93247 167.16877 162.85726 166.07031 162.14648 C 165.60008 162.28212 165.04943 162.08444 164.25195 162.13477 z "
         id="path4318-6-3-4-5-9-8-0-2-9" />
    </g>
    <g
       id="g4835">
      <path
         style="fill:#e94545;fill-opacity:1;stroke:#800000;stroke-width:1;stroke-linecap:butt;stroke-linejoin:miter;stroke-miterlimit:4;stroke-dasharray:none;stroke-opacity:1"
         d="m 220.04971,172.52225 c 0,0 -6.07043,-1.3053 -8.52535,-1.87489 -2.87489,-0.66713 -7.0433,0.67082 -9.85472,-0.22788 -1.65399,-0.52869 -2.06073,-0.90298 -2.86895,-2.44304 -0.49951,-0.95175 -0.74639,-2.57178 -0.74639,-2.57178 0,0 -1.36374,1.72542 -1.14876,3.2263 0.18687,1.30455 1.11953,2.60668 2.28001,3.22631 3.23644,1.72795 8.88254,0.57979 12.45429,1.41217 2.49386,0.58103 5.51746,4.11004 5.51746,4.11004 z"
         id="path41257-7-4-8-9" />
      <path
         id="path5213-8-7-1-6-8-8-9-93"
         d="m 203.81098,175.72694 c 0.45908,-2.84195 1.07148,-3.12382 1.65737,-4.06094 l 0.0263,3.99988 -1.68372,0.061 z"
         style="fill:#ffffff;stroke:none;stroke-width:1;stroke-miterlimit:4;stroke-dasharray:none" />
      <path
         id="path5213-8-7-1-9-1-1-3"
         d="m 203.81098,167.28302 c 0.45908,2.84195 1.07148,3.12383 1.65737,4.06094 l 0.0263,-3.99988 -1.68372,-0.061 z"
         style="fill:#ffffff;stroke:none;stroke-width:1;stroke-miterlimit:4;stroke-dasharray:none" />
      <path
         style="fill:#2d2d2d;fill-opacity:1;stroke:none;stroke-width:0.70001358;stroke-miterlimit:4;stroke-dasharray:none;font-variant-east_asian:normal;opacity:1;vector-effect:none;stroke-linecap:butt;stroke-linejoin:miter;stroke-dashoffset:0;stroke-opacity:1"
         d="m 193.98084,198.85159 2.92186,-1.27936 c 0.82674,-0.36205 0.52982,-1.77869 0.84713,-2.57663 0.36219,-0.91072 1.9829,-2.16824 1.9829,-2.16824 l -3.84248,-0.12423 c 0,0 2.78612,-1.33424 2.97482,-3.23023 0.0479,-0.48061 -0.1274,-2.00183 -0.12394,-2.48475 0.0104,-1.65493 1.47714,-3.05747 2.85088,-3.97559 0.87034,-0.58173 3.2226,-0.81631 3.71854,-1.7394 l 0.86767,-1.61506 c 0,0 -1.19314,0.83538 -2.33465,0.98295 -1.11321,0.14387 -2.85088,-0.3728 -2.85088,-0.3728 l 2.47903,-2.36041 c 0.38946,-0.37083 -0.26749,-1.96613 -0.12395,-2.48487 0.26057,-0.94181 2.23112,-1.36661 2.23112,-1.36661 0,0 4.13902,0.77425 5.95665,-0.30092 1.73459,-1.02651 2.59343,-3.01956 2.02331,-4.78127 l -0.38579,-1.19211 c -0.48324,-1.49325 -5.9176,0.50396 -7.46995,0.71231 -1.3615,0.1827 -2.67941,-0.43693 -3.39581,-1.61159 -1.33114,-2.1828 -0.22185,-4.3656 0,-6.5484 l 8.25681,-0.38008 c 3.06865,-4.0344 10.01193,-3.72852 16.3387,-1.79405 0.69462,-0.40572 2.53415,-0.20696 3.27223,-0.47574 0.82622,-0.30087 0.59195,-1.06743 2.21705,-1.52159 0,0 0.93487,0.82613 0.65036,2.37185 -0.1189,0.6461 -1.73098,2.02183 -1.66475,2.54901 0.0432,0.34472 1.02638,-0.61327 2.10224,-0.51678 1.35684,0.1218 2.86119,1.27266 2.81397,1.58305 -0.15022,0.98722 -0.99903,2.72847 -1.90579,3.62325 -0.68649,0.67729 -1.38441,0.55711 -1.96227,1.04315 -0.68851,0.57907 -2.91027,0.7338 -2.91027,0.7338 0,0 2.7735,1.70254 3.53892,3.06348 1.41555,2.51688 -0.24413,5.35849 1.12603,7.90045 0.48691,0.90333 1.6086,1.45108 1.6086,1.45108 0,0 -1.26286,1.09053 -2.4129,0.80625 -1.05414,-0.26058 -2.25204,-0.64505 -2.25204,-0.64505 0,0 2.1195,2.5133 2.25204,4.67576 0.15326,2.50059 -2.66949,4.43806 -2.89548,6.9331 -0.15881,1.75327 1.12602,5.15938 1.12602,5.15938 0,0 -1.61578,-0.51112 -2.41291,-1.12855 -0.66274,-0.51331 -1.93033,-2.09602 -1.93033,-2.09602 l 0.64345,3.5471 c 0.30889,1.70277 -3.08739,2.80428 -3.37807,4.83708 -0.18712,1.30848 0.96517,2.74084 0.96517,2.74084 0,0 -3.09779,-0.69786 -4.34324,-1.61228 -0.98638,-0.72421 -2.25204,-2.90216 -2.25204,-2.90216 0,0 -1.13025,2.97646 -2.09118,4.03082 -1.07662,1.18125 -3.35668,1.75466 -5.19491,2.61789 -3.13428,1.47188 -5.90445,2.86402 -5.90445,2.86402 0,0 0.55776,-2.07002 0.32172,-3.22469 -0.36561,-1.78862 -2.84812,-3.70691 -3.69979,-5.32069 -0.86155,-1.63274 0,-3.86963 0,-3.86963 0,0 -2.04477,1.9555 -3.53892,2.25734 -1.63942,0.33119 -4.81043,-0.78361 -4.81043,-0.78361 z"
         id="path40887-4-7-3-6" />
      <path
         style="fill:#ffffff;fill-opacity:1;stroke:none;stroke-width:1.14589262;stroke-miterlimit:4;stroke-dasharray:none"
         d="m 212.25388,161.55063 c 0.033,1.20982 1.43729,2.47757 3.22545,2.42854 1.78818,-0.049 2.88723,-1.06062 2.85422,-2.27044 -0.033,-1.20981 -1.17674,-1.83516 -2.96492,-1.78614 -1.78816,0.049 -3.14776,0.41823 -3.11475,1.62804 z"
         id="path4045-9-52-54-4-4-6-88" />
      <ellipse
         style="fill:#2b2200;fill-opacity:1;stroke:none;stroke-width:1.11111104;stroke-miterlimit:4;stroke-dasharray:none"
         id="path4827-0-2-2-3-6-6-7"
         transform="matrix(-0.99962443,0.02740442,0.02727786,0.99962789,0,0)"
         cx="-210.68324"
         cy="167.55013"
         rx="1.2146178"
         ry="1.2174301" />
      <path
         style="color:#000000;font-style:normal;font-variant:normal;font-weight:normal;font-stretch:normal;font-size:medium;line-height:normal;font-family:'Bitstream Vera Sans';-inkscape-font-specification:'Bitstream Vera Sans';text-indent:0;text-align:start;text-decoration:none;text-decoration-line:none;letter-spacing:normal;word-spacing:normal;text-transform:none;writing-mode:lr-tb;direction:ltr;text-anchor:start;display:inline;overflow:visible;visibility:visible;fill:#000000;fill-opacity:1;fill-rule:nonzero;stroke:none;stroke-width:1;stroke-miterlimit:4;stroke-dasharray:none;marker:none;enable-background:accumulate;font-variant-east_asian:normal;opacity:1;vector-effect:none;stroke-linecap:butt;stroke-linejoin:miter;stroke-dashoffset:0;stroke-opacity:1"
         d="m 215.35045,159.62086 c 0.92926,-0.0255 1.73755,0.13658 2.31976,0.47829 0.5822,0.34172 0.92575,0.90507 0.94471,1.59976 0.019,0.6947 -0.29876,1.33412 -0.85211,1.79353 -0.55336,0.45941 -1.33865,0.75921 -2.28528,0.78517 -1.92806,0.0528 -3.45932,-1.29377 -3.49829,-2.72191 -0.0195,-0.71407 0.41631,-1.23124 1.04007,-1.50967 0.62376,-0.27844 1.41928,-0.40017 2.33114,-0.42517 z m 0.0158,0.57758 c -0.87631,0.024 -1.62121,0.16227 -2.11604,0.38314 -0.49483,0.22088 -0.70822,0.46257 -0.69469,0.95832 0.0271,0.99151 1.258,2.20531 2.90628,2.16013 0.84153,-0.0231 1.4941,-0.2698 1.92906,-0.6309 0.43496,-0.3611 0.6619,-0.8393 0.64784,-1.35442 -0.014,-0.51512 -0.23484,-0.87623 -0.67979,-1.13739 -0.44495,-0.26115 -1.13375,-0.40243 -1.99266,-0.37888 z"
         id="path4045-8-5-7-1-1-8-7-6" />
      <path
         style="fill:#212121;fill-opacity:1;stroke:none;stroke-width:0.70001358;stroke-miterlimit:4;stroke-dasharray:none;font-variant-east_asian:normal;opacity:1;vector-effect:none;stroke-linecap:butt;stroke-linejoin:miter;stroke-dashoffset:0;stroke-opacity:1"
         d="M 221.66602 167.25977 C 221.66602 167.25977 221.36047 172.29044 219.87891 174.13477 C 218.79022 175.49005 216.92459 176.09313 215.23633 176.49805 C 213.36039 176.94804 211.36573 176.27929 209.44922 176.49805 C 208.18653 176.64215 206.99104 177.54728 205.73438 177.35742 C 204.89027 177.22984 203.51953 176.06836 203.51953 176.06836 L 203.51953 177.92969 L 201.30469 180.07812 L 203.87695 180.86523 L 205.96094 180.06055 L 205.31055 181.27344 C 204.81461 182.19653 202.46214 182.43 201.5918 183.01172 C 200.21806 183.92984 198.75063 185.33336 198.74023 186.98828 C 198.73677 187.4712 198.91313 188.99205 198.86523 189.47266 C 198.67653 191.36864 195.89062 192.70312 195.89062 192.70312 L 199.73242 192.82812 C 199.73242 192.82813 198.11219 194.08536 197.75 194.99609 C 197.43269 195.79402 197.72908 197.21023 196.90234 197.57227 L 193.98047 198.85156 C 193.98047 198.85156 197.1516 199.96596 198.79102 199.63477 C 200.28517 199.33293 202.33008 197.37695 202.33008 197.37695 C 202.33008 197.37695 201.46853 199.61532 202.33008 201.24805 C 203.18175 202.86184 205.66369 204.77974 206.0293 206.56836 C 206.26534 207.72303 205.70898 209.79297 205.70898 209.79297 C 205.70898 209.79297 208.479 208.40157 211.61328 206.92969 C 213.45151 206.06647 215.73197 205.4918 216.80859 204.31055 C 217.76952 203.25619 218.89844 200.2793 218.89844 200.2793 C 218.89844 200.2793 220.16401 202.45743 221.15039 203.18164 C 222.39584 204.09607 225.49414 204.79492 225.49414 204.79492 C 225.49414 204.79492 224.34218 203.36317 224.5293 202.05469 C 224.81998 200.02189 228.21514 198.91956 227.90625 197.2168 L 227.26367 193.66992 C 227.26367 193.66992 228.53062 195.25231 229.19336 195.76562 C 229.99049 196.38305 231.60742 196.89453 231.60742 196.89453 C 231.60742 196.89453 230.32166 193.48764 230.48047 191.73438 C 230.70646 189.23933 233.53021 187.30137 233.37695 184.80078 C 233.24441 182.63832 231.125 180.125 231.125 180.125 C 231.125 180.125 232.32281 180.5109 233.37695 180.77148 C 234.52699 181.05576 235.78906 179.96484 235.78906 179.96484 C 235.78906 179.96484 234.6666 179.41699 234.17969 178.51367 C 232.80953 175.97171 234.47024 173.13016 233.05469 170.61328 C 232.28927 169.25234 229.51562 167.54883 229.51562 167.54883 C 229.51562 167.54883 230.87003 170.50945 231.28125 172.07617 C 231.80244 174.06189 232.15039 178.17383 232.15039 178.17383 L 225.63086 173.38281 C 225.63086 173.38281 230.20393 181.73615 229.83203 184.41797 C 229.66691 185.60866 229.1467 186.07102 228.67383 187.17578 C 228.15677 188.38402 228.23828 191.0957 228.23828 191.0957 L 222.1543 180.49805 C 222.1543 180.49805 225.48008 193.71437 224.61719 196.75781 C 224.16571 198.35017 222.44531 200.96875 222.44531 200.96875 C 222.44531 200.96875 221.52264 200.14462 221.14062 199.66211 C 219.83306 198.0105 217.80859 189.0625 217.80859 189.0625 C 217.80859 189.0625 216.59209 199.91629 214.47852 202.13086 C 212.90946 203.77492 208.25 205.61523 208.25 205.61523 C 208.25 205.61523 208.30017 204.326 208.10352 203.72656 C 207.53437 201.99167 205.66753 200.84901 205.20703 199.08203 C 204.69391 197.11314 210.13281 187.61133 210.13281 187.61133 C 210.13281 187.61133 204.41221 193.48439 203.54688 193.98047 C 202.36717 194.6568 200.42773 196.61328 200.42773 196.61328 C 200.42773 196.61328 200.47033 195.40552 200.7168 194.87109 C 201.56506 193.03181 204.33789 189.20898 204.33789 189.20898 L 200.86133 190.37109 C 201.3049 188.93836 201.29788 188.42096 201.29688 186.88477 C 201.29566 185.70922 204.94901 185.05739 205.78711 184.27148 C 206.45612 183.64414 206.61185 182.57539 206.65625 181.6582 C 206.69167 180.92557 206.42345 180.25121 206.28711 179.93555 L 206.66211 179.79102 L 209.02148 178.57422 L 211.66406 178.57422 L 215.80664 178.93164 L 219.09375 177.85742 L 221.87891 175.35156 L 222.66602 171.55664 L 222.38086 168.04883 L 221.66602 167.25977 z "
         id="path40887-7-4-3-4-6-1" />
      <path
         style="color:#000000;font-style:normal;font-variant:normal;font-weight:normal;font-stretch:normal;font-size:medium;line-height:normal;font-family:'Bitstream Vera Sans';-inkscape-font-specification:'Bitstream Vera Sans';text-indent:0;text-align:start;text-decoration:none;text-decoration-line:none;letter-spacing:normal;word-spacing:normal;text-transform:none;writing-mode:lr-tb;direction:ltr;text-anchor:start;display:inline;overflow:visible;visibility:visible;fill:#000000;fill-opacity:1;stroke:none;stroke-width:1;stroke-miterlimit:4;stroke-dasharray:none;marker:none;enable-background:accumulate;font-variant-east_asian:normal;opacity:1;vector-effect:none;stroke-linecap:butt;stroke-linejoin:miter;stroke-dashoffset:0;stroke-opacity:1"
         d="m 220.78246,166.23392 c 0,0 0.31529,0.62101 0.64852,1.40843 0.33323,0.78742 0.65417,1.7535 0.72058,2.31119 0.18948,1.59114 0.16598,3.3184 -0.50441,4.62237 -0.86204,1.67666 -2.41018,2.52971 -4.32345,3.21394 -1.20468,0.43092 -2.56094,0.36921 -3.99919,0.25285 -1.43824,-0.11637 -2.94984,-0.30335 -4.46757,0 -0.68923,0.13774 -1.44723,0.52071 -2.08966,0.86669 -0.64243,0.34599 -1.15292,0.65002 -1.15292,0.65002 l 0.61249,0.97498 c 0,0 0.47767,-0.28902 1.08086,-0.61385 0.60318,-0.32484 1.35326,-0.67603 1.76541,-0.75831 1.27966,-0.25584 2.7154,-0.0824 4.17933,0.0361 1.46393,0.11845 2.9857,0.20489 4.46757,-0.32495 2.01459,-0.72052 3.88763,-1.71675 4.93594,-3.75568 0.84395,-1.64164 0.85084,-3.57344 0.64852,-5.27251 -0.0984,-0.82579 -0.72087,-2.60456 -1.50337,-3.04191 z"
         id="path40948-4-8-2-4" />
      <path
         style="fill:#212121;fill-opacity:1;stroke:none;stroke-width:0.70001358;stroke-miterlimit:4;stroke-dasharray:none;font-variant-east_asian:normal;opacity:1;vector-effect:none;stroke-linecap:butt;stroke-linejoin:miter;stroke-dashoffset:0;stroke-opacity:1"
         d="m 202.17341,160.28145 -0.38653,2.97023 c 0,0 2.45016,-0.20628 3.40461,-0.59872 1.44868,-0.59559 2.22911,-2.69438 2.22911,-2.69438 z"
         id="path41163-0-5-4-3" />
      <path
         style="fill:#4d4d4d;fill-opacity:1;stroke:none;stroke-width:0.70001358;stroke-miterlimit:4;stroke-dasharray:none;font-variant-east_asian:normal;opacity:1;vector-effect:none;stroke-linecap:butt;stroke-linejoin:miter;stroke-dashoffset:0;stroke-opacity:1"
         d="M 231.9082 156.48633 C 231.63535 156.48504 231.92141 156.54832 232.13086 156.7832 L 232.76758 156.51758 C 232.30189 156.50093 232.03996 156.48695 231.9082 156.48633 z M 232.13086 156.7832 L 228.39453 158.33984 L 222.92969 157.51367 L 217.6582 156.96875 L 215.1582 157.52344 L 212.5332 158.39453 L 210.2832 160.18164 C 211.8767 160.11443 214.63064 159.15775 217.5918 159.18945 C 222.12654 159.23802 227.1466 160.61987 229.22266 160.12695 C 231.09494 159.6824 232.32359 157.86198 232.30859 157.21094 C 232.30431 157.02512 232.22482 156.88857 232.13086 156.7832 z M 222.91016 177.29688 C 222.91016 177.29688 225.16834 179.02216 225.82227 180.92969 C 226.13524 181.84137 225.61814 183.36198 225.82812 184.30273 C 226.04124 185.25749 228.17578 187.13672 228.17578 187.13672 C 228.17578 187.13672 226.89104 184.62434 226.93164 183.56055 C 226.96512 182.68432 227.42185 181.31016 227.10156 180.49414 C 226.27173 178.37999 222.91016 177.29688 222.91016 177.29688 z M 213.50195 181.32227 C 213.50195 181.32227 209.97355 181.49871 208.62695 183.32617 C 208.10718 184.03154 208.19548 185.47884 208.00195 186.33398 C 207.76698 187.37216 205.87695 189.46484 205.87695 189.46484 C 205.87695 189.46484 208.42497 188.20309 208.87695 187.33594 C 209.32228 186.48149 209.21499 184.87791 209.75195 184.07812 C 210.87538 182.40471 213.50195 181.32227 213.50195 181.32227 z M 216.12695 183.57812 C 216.12695 183.57812 209.52452 190.68557 209.50195 194.72656 C 209.49495 196.03712 210.85675 197.05691 211.00195 198.35938 C 211.16624 199.83299 210.25195 202.74414 210.25195 202.74414 C 210.25195 202.74414 213.15568 199.7873 213.25195 198.10938 C 213.33585 196.64547 212.16249 195.31548 212.12695 193.84961 C 212.03795 190.17887 216.12695 183.57812 216.12695 183.57812 z M 218.82617 186.0918 C 218.82617 186.0918 220.79045 188.14693 221.14258 190.13281 C 221.3109 191.08195 220.56641 192.50483 220.62891 193.4668 C 220.69233 194.44309 222.51172 196.63086 222.51172 196.63086 C 222.51172 196.63086 221.62992 193.94904 221.83398 192.9043 C 222.00209 192.04377 222.6653 190.75816 222.47461 189.90234 C 221.98053 187.6851 218.82617 186.0918 218.82617 186.0918 z "
         id="path41167-6-1-8-7" />
      <path
         style="fill:#000000;fill-opacity:1;stroke:none;stroke-width:1;stroke-miterlimit:4;stroke-dasharray:none;font-variant-east_asian:normal;opacity:1;vector-effect:none;stroke-linecap:butt;stroke-linejoin:miter;stroke-dashoffset:0;stroke-opacity:1"
         d="m 227.60209,165.48212 c 1.79178,-3.22049 3.90036,-3.53259 7.25047,-3.04085 -1.13158,2.3895 -2.71493,5.06687 -7.25047,3.04085 z"
         id="path41165-9-2-1-8" />
      <use
         x="0"
         y="0"
         xlink:href="#path40887-4-7-3-6"
         id="use5140"
         style="font-variant-east_asian:normal;opacity:1;vector-effect:none;fill:none;fill-opacity:1;stroke:#000000;stroke-width:1;stroke-linecap:butt;stroke-linejoin:miter;stroke-miterlimit:4;stroke-dasharray:none;stroke-dashoffset:0;stroke-opacity:1" />
    </g>
  </g>
</svg>
