<?xml version="1.0" encoding="utf-8"?>
<!-- Generator: Adobe Illustrator 16.0.0, SVG Export Plug-In . SVG Version: 6.00 Build 0)  -->
<!DOCTYPE svg PUBLIC "-//W3C//DTD SVG 1.1//EN" "http://www.w3.org/Graphics/SVG/1.1/DTD/svg11.dtd">
<svg version="1.1"
	 id="svg2" xmlns:dc="http://purl.org/dc/elements/1.1/" xmlns:cc="http://creativecommons.org/ns#" xmlns:rdf="http://www.w3.org/1999/02/22-rdf-syntax-ns#" xmlns:svg="http://www.w3.org/2000/svg" xmlns:sodipodi="http://sodipodi.sourceforge.net/DTD/sodipodi-0.dtd" xmlns:inkscape="http://www.inkscape.org/namespaces/inkscape" inkscape:output_extension="org.inkscape.output.svg.inkscape" inkscape:version="0.46" sodipodi:docname="Blason_d√©partement_fr_Seine-Maritime.svg" sodipodi:version="0.32"
	 xmlns="http://www.w3.org/2000/svg" xmlns:xlink="http://www.w3.org/1999/xlink" x="0px" y="0px" width="600px" height="660px"
	 viewBox="0 0 600 660" enable-background="new 0 0 600 660" xml:space="preserve">
<sodipodi:namedview  inkscape:cy="133.41499" inkscape:cx="554.88614" inkscape:zoom="0.5" showguides="true" showgrid="false" pagecolor="#ffffff" bordercolor="#666666" guidetolerance="10.0" objecttolerance="10.0" gridtolerance="10.0" borderopacity="1.0" id="base" inkscape:current-layer="svg2" inkscape:window-y="0" inkscape:window-x="0" inkscape:guide-bbox="true" inkscape:window-width="1904" inkscape:window-height="1044" inkscape:pageopacity="0.0" inkscape:pageshadow="2">
	</sodipodi:namedview>
<g id="layer3" inkscape:groupmode="layer" sodipodi:insensitive="true" inkscape:label="Fond √©cu">
	<path id="path7362" sodipodi:nodetypes="cccccc" inkscape:export-ydpi="144" inkscape:export-xdpi="144" fill="#FFFFFF" d="
		M300.273,657.768c0,0-298.5-112.319-298.5-397.771s0-258.552,0-258.552h597.001v258.552
		C598.773,545.447,300.273,657.768,300.273,657.768z"/>
	<path id="path2855_1_" fill="#ED1C24" d="M2.468,2.532v83.094c3.488,3.502,7.969,8,7.969,8l24.625,24.719l24.625,24.719
		l24.594,24.719l24.625,24.688l24.625,24.719l24.625,24.719l24.625,24.719l24.594,24.719L232,316.065l24.625,24.719l24.625,24.719
		l24.626,24.719l24.625,24.72l24.595,24.719l24.625,24.688l24.624,24.72l24.625,24.719l24.625,24.719c0,0,6.779,6.785,13.438,13.469
		c25.201-23.494,49.77-51.153,70.75-83.312c-7.267-7.293-15.812-15.875-15.812-15.875l-24.625-24.719l-24.625-24.688l-24.625-24.719
		L423.5,353.938l-24.625-24.719L374.25,304.5l-24.625-24.719L325,255.063l-24.594-24.719l-24.625-24.719l-24.625-24.719
		l-24.625-24.719L201.905,131.5l-24.625-24.719l-24.594-24.719l-24.625-24.719l-24.625-24.719L78.812,7.907
		c0,0-3.525-3.549-5.344-5.375H2.468z M103.437,32.625l14.406-14.344c-1.1,2.71-0.545,5.946,1.656,8.156
		c2.552,2.562,6.839,2.777,9.75,0.906l3.875,3.844c-1.883,2.904-1.614,7.313,0.938,9.875c2.449,2.458,6.193,2.874,9.062,1.25
		c0,0-0.602,0.602-0.656,0.656c-1.1,2.71-0.545,5.977,1.656,8.188c2.552,2.562,6.839,2.777,9.75,0.906l3.875,3.844
		c-1.883,2.904-1.614,7.312,0.938,9.875c2.449,2.458,6.193,2.874,9.062,1.25c0,0-0.602,0.602-0.656,0.656
		c-1.1,2.71-0.576,5.946,1.625,8.156c2.552,2.562,6.87,2.777,9.781,0.906l3.875,3.875c-1.883,2.904-1.614,7.312,0.938,9.875
		c2.449,2.459,6.193,2.873,9.062,1.25c0,0-0.602,0.602-0.656,0.656c-1.1,2.711-0.576,5.945,1.625,8.156
		c2.552,2.562,6.87,2.777,9.781,0.906l3.875,3.844c-1.883,2.904-1.614,7.344,0.938,9.906c2.449,2.459,6.193,2.873,9.062,1.25
		c0,0-0.631,0.6-0.688,0.656c-1.1,2.711-0.545,5.945,1.656,8.156c2.552,2.562,6.87,2.777,9.781,0.906l3.875,3.844
		c-1.883,2.904-1.614,7.344,0.938,9.906c2.449,2.459,6.193,2.873,9.062,1.25c0,0-0.63,0.6-0.688,0.656l-14.406,14.344
		c0,0,13.151-13.062,14.406-14.312c-1.084,2.705-0.538,5.922,1.656,8.125c2.552,2.562,6.839,2.777,9.75,0.906l3.906,3.844
		c-1.883,2.904-1.646,7.344,0.906,9.906c2.449,2.459,6.193,2.873,9.062,1.25c0,0-0.602,0.602-0.656,0.656
		c-1.1,2.711-0.545,5.945,1.656,8.156c2.552,2.562,6.839,2.777,9.75,0.906l3.875,3.844c-1.883,2.904-1.614,7.312,0.938,9.875
		c2.45,2.459,6.194,2.904,9.063,1.281c0,0-0.602,0.602-0.656,0.656c-1.1,2.711-0.545,5.945,1.656,8.156
		c2.551,2.562,6.838,2.777,9.75,0.906l3.875,3.844c-1.883,2.904-1.614,7.312,0.938,9.875c2.449,2.459,6.193,2.904,9.062,1.281
		c0,0-0.602,0.602-0.655,0.656c-1.101,2.711-0.576,5.945,1.625,8.156c2.551,2.562,6.869,2.777,9.78,0.906l3.875,3.844
		c-1.883,2.904-1.614,7.312,0.938,9.875c2.449,2.459,6.193,2.904,9.062,1.281c0,0-0.602,0.602-0.655,0.656
		c-1.101,2.711-0.576,5.945,1.625,8.156c2.551,2.562,6.869,2.777,9.78,0.906l3.875,3.844c-1.883,2.904-1.614,7.312,0.938,9.875
		c2.449,2.459,6.193,2.873,9.062,1.25c0,0-0.627,0.628-0.688,0.688c-1.1,2.711-0.545,5.945,1.656,8.156
		c2.551,2.562,6.869,2.777,9.781,0.906l3.875,3.844c-1.883,2.904-1.615,7.312,0.938,9.875c2.449,2.459,6.162,2.873,9.031,1.25
		L374.25,304.5l14.406-14.344c-1.1,2.711-0.545,5.945,1.656,8.156c2.551,2.562,6.838,2.777,9.75,0.906l3.875,3.844
		c-1.884,2.904-1.615,7.313,0.938,9.875c2.449,2.457,6.193,2.875,9.062,1.25c0,0-0.603,0.602-0.656,0.655
		c-1.101,2.711-0.547,5.947,1.656,8.156c2.551,2.562,6.838,2.777,9.75,0.906l3.875,3.875c-1.884,2.903-1.615,7.313,0.938,9.875
		c2.449,2.459,6.193,2.875,9.062,1.25c0,0-0.603,0.602-0.656,0.655c-1.101,2.712-0.578,5.947,1.625,8.156
		c2.551,2.562,6.869,2.777,9.781,0.906l3.875,3.875c-1.884,2.904-1.615,7.314,0.938,9.875c2.449,2.459,6.193,2.875,9.062,1.25
		c0,0-0.603,0.602-0.656,0.656c-1.101,2.711-0.578,5.946,1.625,8.156c2.551,2.562,6.869,2.776,9.781,0.905l3.875,3.845
		c-1.884,2.903-1.615,7.346,0.938,9.905c2.449,2.459,6.193,2.875,9.062,1.25c0,0-0.603,0.603-0.656,0.656
		c-1.101,2.711-0.578,5.947,1.625,8.156c2.551,2.562,6.869,2.776,9.781,0.905l3.875,3.845c-1.884,2.903-1.615,7.346,0.938,9.905
		c2.449,2.46,6.193,2.875,9.062,1.25c0,0-0.632,0.601-0.688,0.656l-14.406,14.344c0,0,13.15-13.062,14.406-14.312
		c-1.084,2.705-0.539,5.922,1.656,8.125c2.551,2.562,6.869,2.777,9.78,0.906l3.875,3.844c-1.883,2.904-1.614,7.346,0.938,9.906
		c2.449,2.459,6.162,2.875,9.031,1.25c0,0-0.603,0.602-0.656,0.655c-1.1,2.712-0.547,5.947,1.656,8.156
		c2.551,2.562,6.838,2.777,9.75,0.906c0,0,0.918,0.926,1.844,1.844c0.023-0.039,0.039-0.084,0.062-0.125c-2.018-2.002-4.03-4-4.03-4
		l1-1.031c0,0,1.905,1.89,3.78,3.75c0.013-0.02,0.021-0.04,0.031-0.062c-0.276-0.27-0.608-0.574-0.719-0.688
		c2.082-2.006,3.721-4.284,4.562-6.719c0.92-2.574,2.041-4.512,3.375-5.906c25.264-48.778,41.78-106.352,41.78-173.5
		c0-285.452,0-258.531,0-258.531H123.874c0.297,0.228,0.566,0.493,0.844,0.781c1.617,1.68,1.665,4.704,0.281,5.875
		c-2.291,1.958-5.307,1.944-9.344-0.094c0.176-0.156,2.131-0.604,2.562-1.406c0.477-0.885,0.604-2.43-2.156-2.969
		c-2.76-0.539-3.878,0.979-5.188,1.812c-0.258-0.274-1.375-1.346-1.594-1.562c0.577-0.596,2.023-1.584,3.844-2.438h-2.281
		c-0.729,0.569-1.424,1.188-2.062,1.844c-0.32-0.283-1.402-1.342-1.906-1.844h-0.125c2.41,2.395,5.062,5.031,5.062,5.031l-1,1.031
		c0,0-3.709-3.693-6.094-6.062h-8.844c2.576,1.757,6.191,1.739,8.75,0.094l3.906,3.844c-1.883,2.904-1.646,7.313,0.906,9.875
		c2.449,2.458,6.193,2.874,9.062,1.25L103.437,32.625z M305.875,390.219c0,0-13.153,13.062-14.407,14.312
		c1.084-2.705,0.537-5.922-1.656-8.125c-2.553-2.562-6.871-2.777-9.782-0.906l-3.875-3.844c1.883-2.904,1.614-7.312-0.938-9.875
		c-2.449-2.459-6.193-2.904-9.062-1.281c0,0,0.63-0.598,0.688-0.656l14.406-14.344c0,0-13.151,13.062-14.406,14.312
		c1.084-2.705,0.538-5.923-1.656-8.125c-2.552-2.562-6.839-2.777-9.75-0.906l-3.906-3.844c1.883-2.904,1.646-7.312-0.906-9.875
		c-2.449-2.46-6.193-2.904-9.062-1.281c0,0,0.602-0.603,0.656-0.656c1.1-2.709,0.545-5.945-1.656-8.156
		c-2.552-2.561-6.839-2.776-9.75-0.906l-3.875-3.844c1.883-2.903,1.614-7.312-0.938-9.875c-2.449-2.459-6.193-2.873-9.062-1.25
		L232,316.062l-14.406,14.345c1.1-2.709,0.545-5.945-1.656-8.156c-2.552-2.561-6.839-2.777-9.75-0.906l-3.875-3.844
		c1.883-2.904,1.614-7.313-0.938-9.875c-2.449-2.459-6.193-2.873-9.062-1.25l15.062-15.031l-14.406,14.344
		c1.1-2.711,0.576-5.945-1.625-8.156c-2.552-2.562-6.87-2.777-9.781-0.906l-3.875-3.844c1.883-2.904,1.614-7.312-0.938-9.875
		c-2.449-2.459-6.193-2.873-9.062-1.25c0,0,0.602-0.602,0.656-0.656c1.1-2.711,0.576-5.945-1.625-8.156
		c-2.552-2.562-6.87-2.777-9.781-0.906l-3.875-3.875c1.883-2.904,1.614-7.312-0.938-9.875c-2.449-2.459-6.193-2.873-9.062-1.25
		c0,0,0.631-0.6,0.688-0.656c1.1-2.711,0.545-5.945-1.656-8.156c-2.552-2.562-6.87-2.777-9.781-0.906l-3.875-3.875
		c1.883-2.904,1.614-7.312-0.938-9.875c-2.449-2.459-6.162-2.873-9.031-1.25c0,0,0.602-0.602,0.656-0.656
		c1.1-2.711,0.545-5.945-1.656-8.156c-2.552-2.562-6.839-2.777-9.75-0.906l-3.875-3.844c1.883-2.904,1.614-7.344-0.938-9.906
		c-2.449-2.459-6.193-2.873-9.062-1.25c0,0,0.602-0.602,0.656-0.656c1.1-2.711,0.545-5.945-1.656-8.156
		c-2.552-2.562-6.839-2.777-9.75-0.906l-3.875-3.844c1.883-2.904,1.614-7.344-0.938-9.906c-2.449-2.459-6.193-2.873-9.062-1.25
		c0,0,0.602-0.602,0.656-0.656c1.1-2.711,0.576-5.945-1.625-8.156c-2.552-2.562-6.87-2.777-9.781-0.906l-3.875-3.844
		c1.883-2.904,1.614-7.344-0.938-9.906c-2.449-2.459-6.193-2.873-9.062-1.25c0,0,0.602-0.602,0.656-0.656
		c1.1-2.711,0.576-5.945-1.625-8.156c-2.552-2.562-6.87-2.777-9.781-0.906l-3.875-3.844c1.883-2.904,1.614-7.312-0.938-9.875
		c-2.449-2.459-6.193-2.904-9.062-1.281c0,0,0.602-0.602,0.656-0.656c1.1-2.711,0.576-5.945-1.625-8.156
		c-2.552-2.562-6.87-2.777-9.781-0.906l-3.875-3.844c1.883-2.904,1.614-7.312-0.938-9.875c-0.584-0.586-1.236-1.052-1.938-1.406
		v9.781c0.293-0.292,0.594-0.625,0.594-0.625l8.312,8.25l-1.031,1.031c0,0-7.137-7.11-7.875-7.844v1.031
		c0.179-0.134,0.35-0.291,0.531-0.406c0.258,0.273,1.344,1.314,1.562,1.531c-0.372,0.384-1.14,0.955-2.094,1.531v1.344
		c0.934-0.68,1.826-1.432,2.625-2.25c0.362,0.32,1.823,1.718,2.156,2.062c-2.083,2.006-3.721,4.285-4.562,6.719
		c-0.069,0.193-0.147,0.376-0.219,0.562v129.844c0,285.451,298.501,397.781,298.501,397.781s63.295-23.834,131.594-77.406
		c0.248-4.278,2.359-8.18,8.688-10.062c2.469-0.865,5.004-2.58,7-4.625c0.178,0.158,0.613,0.598,1.062,1.031
		c0.021-0.019,0.039-0.043,0.062-0.062c-2.094-2.078-4.188-4.156-4.188-4.156l1.031-1c0,0,2.127,2.109,4.25,4.22
		c0.033-0.027,0.062-0.064,0.094-0.095c-1.024-1.016-2.062-2.03-2.062-2.03c1.883-2.904,1.613-7.312-0.938-9.875
		c-2.448-2.459-6.192-2.873-9.062-1.25c0,0,0.602-0.603,0.656-0.656c1.1-2.709,0.575-5.978-1.625-8.188
		c-2.554-2.561-6.871-2.776-9.781-0.905l-3.875-3.845c1.883-2.903,1.613-7.312-0.938-9.875c-2.448-2.459-6.192-2.873-9.062-1.25
		c0,0,0.629-0.6,0.688-0.655c1.101-2.709,0.545-5.945-1.655-8.156c-2.554-2.562-6.841-2.777-9.75-0.906l-3.906-3.875
		c1.883-2.903,1.645-7.312-0.906-9.875c-2.448-2.459-6.192-2.873-9.062-1.25c0,0,0.602-0.602,0.656-0.656
		c1.1-2.709,0.545-5.944-1.656-8.155c-2.553-2.562-6.84-2.777-9.75-0.906l-3.875-3.844c1.883-2.904,1.613-7.345-0.938-9.906
		c-2.448-2.459-6.192-2.873-9.062-1.25c0,0,0.602-0.602,0.656-0.656c1.1-2.709,0.545-5.945-1.656-8.156
		c-2.553-2.561-6.84-2.776-9.75-0.905l-3.875-3.845c1.883-2.903,1.613-7.344-0.938-9.905c-2.448-2.459-6.192-2.873-9.062-1.25
		c0,0,0.602-0.603,0.656-0.656c1.1-2.709,0.575-5.945-1.625-8.156c-2.554-2.561-6.871-2.776-9.781-0.906l-3.875-3.844
		c1.883-2.903,1.613-7.344-0.938-9.906c-2.448-2.459-6.192-2.872-9.062-1.25c0,0,0.602-0.602,0.656-0.655
		c1.1-2.709,0.575-5.945-1.625-8.156c-2.554-2.562-6.871-2.777-9.781-0.906l-3.875-3.844c1.883-2.904,1.613-7.312-0.938-9.875
		c-2.449-2.459-6.193-2.904-9.062-1.281c0,0,0.629-0.598,0.688-0.656L305.875,390.219z M129.187,9.844
		c1.115,0.043,2.312,0.444,3.156,1.25c5.277,5.026,0.045,13.683-1.688,15.344c-0.217-0.218-1.287-1.337-1.562-1.594
		c0.839-1.303,2.352-2.378,1.812-5.125c-0.539-2.746-2.111-2.63-3-2.156c-0.834,0.444-1.262,2.513-1.406,2.562
		c-2.044-4.02-2.031-7.034-0.062-9.312C127.025,10.125,128.071,9.801,129.187,9.844z M146.593,11.375
		c0.74-0.026,1.527,0.001,2.344,0.062l0.031,0.031l0.031,0.031c0.572,5.328-0.861,10.668-8.594,12.969
		c-2.471,0.866-5.005,2.581-7,4.625c-0.362-0.321-1.854-1.749-2.188-2.094c2.083-2.006,3.721-4.285,4.562-6.719
		C138.04,13.962,141.415,11.555,146.593,11.375z M128.124,24.032l8.312,8.25l-1.031,1l-8.281-8.25L128.124,24.032z M143.874,25.719
		c1.967,0.023,3.893,0.67,5.469,2.312c1.617,1.68,1.665,4.704,0.281,5.875c-2.291,1.958-5.307,1.944-9.344-0.094
		c0.176-0.156,2.131-0.604,2.562-1.406c0.477-0.885,0.572-2.43-2.188-2.969c-2.76-0.539-3.847,0.979-5.156,1.812
		c-0.258-0.274-1.375-1.346-1.594-1.562C135.054,28.503,139.546,25.668,143.874,25.719z M153.812,34.563
		c1.115,0.043,2.281,0.444,3.125,1.25c5.277,5.026,0.076,13.683-1.656,15.344c-0.217-0.218-1.318-1.337-1.594-1.594
		c0.839-1.303,2.352-2.378,1.812-5.125c-0.539-2.746-2.08-2.63-2.969-2.156c-0.889,0.474-1.321,2.816-1.438,2.562
		c-2.044-4.02-2-7.034-0.031-9.312C151.65,34.844,152.696,34.52,153.812,34.563z M172.343,36.063
		c0.384,0.003,0.779,0.032,1.188,0.062l0.062,0.062l0.031,0.031c0.572,5.328-0.861,10.668-8.594,12.969
		c-2.471,0.866-5.005,2.581-7,4.625c-0.362-0.321-1.854-1.749-2.188-2.094c2.083-2.006,3.721-4.285,4.562-6.719
		c2.26-6.32,5.635-8.727,10.812-8.906C171.587,36.082,171.959,36.06,172.343,36.063z M152.749,48.75l8.312,8.25l-1.031,1
		l-8.312-8.25L152.749,48.75z M168.499,50.438c1.967,0.023,3.893,0.639,5.469,2.281c1.617,1.68,1.665,4.735,0.281,5.906
		c-2.291,1.958-5.307,1.944-9.344-0.094c-0.255-0.116,2.086-0.521,2.562-1.406c0.476-0.885,0.572-2.43-2.188-2.969
		c-2.76-0.539-3.878,0.947-5.188,1.781c-0.258-0.274-1.344-1.315-1.562-1.531C159.679,53.222,164.171,50.387,168.499,50.438z
		 M178.437,59.282c1.115,0.043,2.281,0.444,3.125,1.25c5.277,5.026,0.076,13.683-1.656,15.344c-0.217-0.218-1.318-1.337-1.594-1.594
		c0.839-1.303,2.352-2.379,1.812-5.125c-0.54-2.746-2.08-2.63-2.969-2.156c-0.889,0.474-1.321,2.816-1.438,2.562
		c-2.044-4.02-2-7.034-0.031-9.312C176.275,59.562,177.321,59.238,178.437,59.282z M195.905,60.782c0.348-0.011,0.698-0.009,1.062,0
		c0.389,0.009,0.779,0.032,1.188,0.062l0.062,0.062l0.031,0.031c0.572,5.328-0.893,10.668-8.625,12.969
		c-2.471,0.866-4.974,2.581-6.969,4.625c-0.362-0.321-1.854-1.749-2.188-2.094c2.083-2.006,3.721-4.285,4.562-6.719
		C187.3,63.372,190.688,60.943,195.905,60.782z M177.374,73.469l8.312,8.25l-1.031,1l-8.312-8.25L177.374,73.469z M193.093,75.157
		c1.967,0.023,3.924,0.639,5.5,2.281c1.617,1.68,1.634,4.735,0.25,5.906c-2.291,1.958-5.307,1.944-9.344-0.094
		c-0.255-0.116,2.117-0.521,2.594-1.406c0.477-0.885,0.572-2.43-2.188-2.969c-2.759-0.539-3.878,0.947-5.188,1.781
		c-0.258-0.274-1.344-1.315-1.562-1.531C184.304,77.941,188.765,75.105,193.093,75.157z M203.062,84
		c1.115,0.043,2.281,0.444,3.125,1.25c5.277,5.025,0.045,13.652-1.688,15.312c-0.217-0.218-1.287-1.306-1.562-1.562
		c0.839-1.303,2.352-2.379,1.812-5.125s-2.111-2.63-3-2.156c-0.889,0.474-1.29,2.816-1.406,2.562c-2.044-4.021-2-7.034-0.031-9.312
		C200.9,84.281,201.946,83.957,203.062,84z M220.53,85.5c0.348-0.011,0.698-0.009,1.062,0c0.389,0.009,0.779,0.032,1.188,0.062
		l0.031,0.062l0.062,0.031c0.572,5.328-0.893,10.668-8.625,12.969c-2.471,0.865-5.005,2.581-7,4.625
		c-0.362-0.32-1.823-1.749-2.156-2.094c2.083-2.006,3.721-4.285,4.562-6.719C211.925,88.09,215.313,85.662,220.53,85.5z
		 M201.999,98.188l8.312,8.25l-1.031,1l-8.312-8.25L201.999,98.188z M217.718,99.875c1.967,0.023,3.924,0.639,5.5,2.281
		c1.617,1.68,1.634,4.735,0.25,5.906c-2.291,1.958-5.307,1.943-9.344-0.094c-0.255-0.115,2.086-0.521,2.562-1.406
		c0.476-0.885,0.604-2.43-2.156-2.969c-2.759-0.539-3.878,0.947-5.188,1.781c-0.258-0.273-1.344-1.314-1.562-1.531
		C208.929,102.66,213.39,99.825,217.718,99.875z M227.687,108.719c1.115,0.043,2.281,0.444,3.125,1.25
		c5.277,5.025,0.045,13.652-1.688,15.312c-0.217-0.218-1.287-1.306-1.562-1.562c0.839-1.303,2.352-2.379,1.812-5.125
		c-0.54-2.746-2.111-2.661-3-2.188c-0.889,0.473-1.29,2.816-1.406,2.562c-2.044-4.02-2.031-7.003-0.062-9.281
		C225.494,109,226.571,108.676,227.687,108.719z M245.062,110.219c0.74-0.025,1.527,0.002,2.344,0.062l0.031,0.062l0.062,0.031
		c0.572,5.328-0.893,10.668-8.625,12.969c-2.471,0.865-5.005,2.581-7,4.625c-0.362-0.32-1.823-1.749-2.156-2.094
		c2.083-2.006,3.721-4.285,4.562-6.719C236.54,112.836,239.884,110.399,245.062,110.219z M226.593,122.875l8.312,8.281l-1,1
		l-8.312-8.25L226.593,122.875z M7.843,124.532c0.217,0.218,1.287,1.306,1.562,1.562c-0.839,1.303-2.352,2.41-1.812,5.156
		c0.54,2.746,2.111,2.63,3,2.156c0.889-0.474,1.29-2.816,1.406-2.562c2.044,4.021,2.031,7.034,0.062,9.312
		c-1.178,1.376-4.219,1.299-5.906-0.312C0.878,134.819,6.11,126.192,7.843,124.532z M242.343,124.594
		c1.967,0.023,3.924,0.639,5.5,2.281c1.617,1.68,1.634,4.735,0.25,5.906c-2.291,1.958-5.307,1.943-9.344-0.094
		c-0.255-0.115,2.086-0.521,2.562-1.406c0.476-0.885,0.604-2.43-2.156-2.969c-2.759-0.539-3.878,0.947-5.188,1.781
		c-0.258-0.273-1.375-1.314-1.594-1.531C233.522,127.378,238.015,124.543,242.343,124.594z M252.28,133.438
		c1.115,0.043,2.312,0.444,3.156,1.25c5.277,5.025,0.045,13.652-1.688,15.312c-0.217-0.218-1.287-1.306-1.562-1.562
		c0.839-1.303,2.352-2.379,1.812-5.125s-2.111-2.661-3-2.188s-1.29,2.816-1.406,2.562c-2.044-4.02-2.031-7.003-0.062-9.281
		C250.119,133.719,251.165,133.395,252.28,133.438z M269.687,134.938c0.74-0.025,1.527,0.002,2.344,0.062l0.031,0.062l0.031,0.031
		c0.572,5.328-0.861,10.668-8.594,12.969c-2.471,0.865-5.005,2.581-7,4.625c-0.362-0.32-1.823-1.749-2.156-2.094
		c2.083-2.006,3.689-4.285,4.531-6.719C261.134,137.555,264.509,135.118,269.687,134.938z M17.499,140.313
		c1.546,0.012,3.324,0.513,5.344,1.531c0.255,0.115-2.086,0.521-2.562,1.406c-0.476,0.885-0.604,2.43,2.156,2.969
		c2.76,0.539,3.878-0.947,5.188-1.781c0.258,0.273,1.344,1.314,1.562,1.531c-1.67,1.723-10.392,6.943-15.438,1.688
		c-1.617-1.68-1.634-4.735-0.25-5.906C14.645,140.772,15.953,140.301,17.499,140.313z M27.687,142.375l8.312,8.25l-1.031,1.031
		l-8.312-8.25L27.687,142.375z M29.718,146.563c0.362,0.32,1.823,1.749,2.156,2.094c-2.083,2.006-3.721,4.285-4.562,6.719
		c-2.582,7.223-6.598,9.364-13.125,8.875l-0.031-0.031l-0.062-0.062c-0.572-5.328,0.893-10.668,8.625-12.969
		C25.188,150.323,27.723,148.607,29.718,146.563z M251.218,147.594l8.312,8.25l-1,1.031l-8.312-8.25L251.218,147.594z
		 M32.437,149.25c0.217,0.218,1.318,1.306,1.594,1.562c-0.839,1.303-2.352,2.41-1.812,5.156c0.54,2.746,2.08,2.63,2.969,2.156
		s1.321-2.816,1.438-2.562c2.044,4.02,2,7.003,0.031,9.281c-1.178,1.376-4.188,1.33-5.875-0.281
		C25.503,159.538,30.704,150.911,32.437,149.25z M266.968,149.313c1.967,0.023,3.893,0.639,5.469,2.281
		c1.617,1.68,1.665,4.735,0.281,5.906c-2.291,1.958-5.307,1.943-9.344-0.094c-0.255-0.115,2.086-0.521,2.562-1.406
		s0.604-2.43-2.156-2.969c-2.76-0.539-3.878,0.947-5.188,1.781c-0.258-0.273-1.375-1.314-1.594-1.531
		C258.147,152.097,262.64,149.262,266.968,149.313z M276.905,158.125c1.115,0.043,2.312,0.476,3.156,1.281
		c5.278,5.025,0.045,13.652-1.688,15.312c-0.217-0.218-1.287-1.306-1.562-1.562c0.839-1.303,2.352-2.41,1.812-5.156
		s-2.111-2.63-3-2.156c-0.806,0.43-1.25,2.387-1.406,2.562c-2.044-4.021-2.031-7.003-0.062-9.281
		C274.744,158.438,275.79,158.083,276.905,158.125z M294.312,159.657c0.74-0.025,1.496,0.002,2.312,0.062l0.062,0.031l0.031,0.062
		c0.572,5.328-0.861,10.668-8.594,12.969c-2.471,0.865-5.006,2.581-7,4.625c-0.362-0.32-1.854-1.749-2.188-2.094
		c2.083-2.006,3.721-4.285,4.563-6.719C285.759,162.274,289.134,159.836,294.312,159.657z M42.124,165.032
		c1.546,0.012,3.324,0.513,5.344,1.531c0.255,0.115-2.117,0.521-2.594,1.406c-0.477,0.885-0.572,2.43,2.188,2.969
		c2.76,0.539,3.878-0.947,5.188-1.781c0.258,0.273,1.344,1.314,1.562,1.531c-1.67,1.723-10.392,6.943-15.438,1.688
		c-1.617-1.68-1.665-4.735-0.281-5.906C39.238,165.491,40.578,165.02,42.124,165.032z M52.312,167.094l8.312,8.25l-1.031,1.031
		l-8.312-8.25L52.312,167.094z M54.312,171.282c0.362,0.32,1.854,1.749,2.188,2.094c-2.083,2.006-3.721,4.285-4.562,6.719
		c-2.582,7.223-6.598,9.364-13.125,8.875l-0.062-0.062l-0.031-0.031c-0.572-5.328,0.861-10.668,8.594-12.969
		C49.782,175.042,52.316,173.326,54.312,171.282z M275.843,172.313l8.313,8.25l-1.031,1.031l-8.313-8.25L275.843,172.313z
		 M57.062,173.969c0.217,0.218,1.318,1.306,1.594,1.562c-0.839,1.303-2.352,2.379-1.812,5.125c0.54,2.746,2.08,2.661,2.969,2.188
		c0.889-0.473,1.321-2.816,1.438-2.562c2.044,4.02,2,7.003,0.031,9.281c-1.178,1.376-4.188,1.33-5.875-0.281
		C50.128,184.256,55.329,175.629,57.062,173.969z M291.593,174.032c1.967,0.023,3.893,0.639,5.469,2.281
		c1.617,1.68,1.664,4.735,0.281,5.906c-2.291,1.958-5.307,1.943-9.344-0.094c-0.256-0.115,2.086-0.521,2.562-1.406
		c0.476-0.885,0.572-2.43-2.188-2.969s-3.879,0.947-5.188,1.781c-0.258-0.273-1.344-1.314-1.563-1.531
		C282.773,176.816,287.265,173.981,291.593,174.032z M301.531,182.844c1.115,0.043,2.281,0.476,3.125,1.281
		c5.277,5.025,0.076,13.652-1.656,15.312c-0.217-0.218-1.318-1.306-1.594-1.562c0.838-1.303,2.352-2.41,1.812-5.156
		c-0.54-2.746-2.079-2.63-2.969-2.156c-0.889,0.474-1.322,2.816-1.438,2.562c-2.045-4.02-2-7.034-0.031-9.312
		C299.369,183.125,300.416,182.801,301.531,182.844z M318.938,184.375c0.74-0.025,1.496,0.002,2.312,0.062l0.062,0.031l0.03,0.062
		c0.572,5.328-0.86,10.668-8.594,12.969c-2.472,0.865-5.006,2.581-7,4.625c-0.362-0.32-1.854-1.749-2.188-2.094
		c2.082-2.006,3.722-4.285,4.562-6.719C310.385,186.993,313.76,184.555,318.938,184.375z M66.749,189.75
		c1.546,0.012,3.293,0.513,5.312,1.531c0.255,0.115-2.086,0.521-2.562,1.406s-0.572,2.43,2.188,2.969
		c2.76,0.539,3.878-0.947,5.188-1.781c0.258,0.273,1.344,1.314,1.562,1.531c-1.67,1.723-10.392,6.943-15.438,1.688
		c-1.617-1.68-1.665-4.735-0.281-5.906C63.863,190.209,65.203,189.739,66.749,189.75z M76.937,191.813l8.312,8.25l-1.031,1.031
		l-8.312-8.281L76.937,191.813z M78.937,196c0.362,0.32,1.854,1.749,2.188,2.094c-2.083,2.006-3.721,4.285-4.562,6.719
		c-2.582,7.223-6.598,9.364-13.125,8.875l-0.062-0.062l-0.031-0.031c-0.572-5.328,0.861-10.668,8.594-12.969
		C74.407,199.76,76.941,198.044,78.937,196z M300.468,197.032l8.313,8.25l-1.031,1.031l-8.313-8.25L300.468,197.032z
		 M81.687,198.688c0.217,0.218,1.287,1.306,1.562,1.562c-0.839,1.303-2.352,2.379-1.812,5.125s2.111,2.661,3,2.188
		c0.806-0.43,1.25-2.387,1.406-2.562c2.044,4.02,2.031,7.003,0.062,9.281c-1.178,1.376-4.219,1.33-5.906-0.281
		C74.722,208.975,79.954,200.348,81.687,198.688z M316.219,198.75c1.967,0.023,3.893,0.639,5.469,2.281
		c1.617,1.68,1.664,4.704,0.281,5.875c-2.291,1.958-5.338,1.975-9.375-0.062c-0.256-0.115,2.117-0.521,2.594-1.406
		c0.478-0.885,0.572-2.461-2.188-3s-3.879,0.979-5.188,1.812c-0.258-0.273-1.345-1.314-1.562-1.531
		C307.398,201.535,311.891,198.7,316.219,198.75z M326.156,207.563c1.115,0.043,2.281,0.476,3.125,1.281
		c5.277,5.025,0.076,13.652-1.656,15.312c-0.217-0.218-1.318-1.337-1.594-1.594c0.838-1.303,2.352-2.379,1.812-5.125
		s-2.079-2.63-2.969-2.156c-0.89,0.474-1.321,2.816-1.438,2.562c-2.045-4.02-2-7.034-0.03-9.312
		C323.994,207.844,325.041,207.52,326.156,207.563z M343.531,209.094c0.74-0.025,1.527,0.002,2.344,0.062l0.062,0.031l0.03,0.062
		c0.572,5.328-0.893,10.668-8.625,12.969c-2.471,0.865-5.006,2.55-7,4.594c-0.362-0.32-1.823-1.718-2.155-2.062
		c2.082-2.006,3.721-4.285,4.562-6.719C335.01,211.711,338.354,209.274,343.531,209.094z M91.374,214.469
		c1.546,0.012,3.293,0.513,5.312,1.531c0.255,0.115-2.086,0.521-2.562,1.406c-0.476,0.885-0.572,2.43,2.188,2.969
		c2.76,0.539,3.847-0.947,5.156-1.781c0.258,0.273,1.375,1.314,1.594,1.531c-1.67,1.723-10.392,6.943-15.438,1.688
		c-1.617-1.68-1.665-4.735-0.281-5.906C88.488,214.928,89.828,214.458,91.374,214.469z M101.53,216.532l8.312,8.25l-1,1l-8.312-8.25
		L101.53,216.532z M103.562,220.719c0.362,0.32,1.854,1.749,2.188,2.094c-2.083,2.006-3.721,4.285-4.562,6.719
		c-2.582,7.223-6.629,9.364-13.156,8.875l-0.031-0.062l-0.031-0.031c-0.572-5.328,0.861-10.668,8.594-12.969
		C99.032,224.479,101.566,222.763,103.562,220.719z M325.094,221.75l8.312,8.25l-1.031,1.031l-8.312-8.25L325.094,221.75z
		 M106.312,223.407c0.217,0.218,1.287,1.306,1.562,1.562c-0.839,1.303-2.352,2.379-1.812,5.125c0.54,2.746,2.111,2.63,3,2.156
		s1.29-2.816,1.406-2.562c2.044,4.02,2.031,7.034,0.062,9.312c-1.178,1.376-4.219,1.33-5.906-0.281
		C99.347,233.694,104.579,225.067,106.312,223.407z M340.812,223.469c1.967,0.023,3.924,0.639,5.5,2.281
		c1.617,1.68,1.633,4.704,0.25,5.875c-2.291,1.958-5.308,1.975-9.345-0.062c-0.256-0.115,2.087-0.521,2.562-1.406
		c0.476-0.885,0.604-2.461-2.156-3c-2.76-0.539-3.879,0.979-5.188,1.812c-0.258-0.273-1.344-1.314-1.562-1.531
		C332.023,226.253,336.484,223.418,340.812,223.469z M350.781,232.282c1.115,0.043,2.281,0.476,3.125,1.281
		c5.277,5.025,0.045,13.652-1.688,15.312c-0.217-0.218-1.286-1.337-1.562-1.594c0.838-1.303,2.352-2.379,1.812-5.125
		c-0.54-2.746-2.11-2.63-3-2.156c-0.889,0.474-1.29,2.816-1.405,2.562c-2.045-4.02-2.031-7.034-0.062-9.312
		C348.588,232.563,349.666,232.239,350.781,232.282z M368.156,233.813c0.74-0.025,1.527,0.002,2.344,0.062l0.031,0.031l0.062,0.062
		c0.572,5.328-0.893,10.637-8.625,12.938c-2.471,0.865-5.006,2.581-7,4.625c-0.362-0.32-1.823-1.749-2.155-2.094
		c2.082-2.006,3.721-4.254,4.562-6.688C359.635,236.43,362.979,233.993,368.156,233.813z M115.999,239.188
		c1.546,0.012,3.293,0.513,5.312,1.531c0.255,0.115-2.086,0.521-2.562,1.406s-0.604,2.43,2.156,2.969
		c2.76,0.539,3.878-0.947,5.188-1.781c0.258,0.273,1.375,1.314,1.594,1.531c-1.67,1.723-10.392,6.943-15.438,1.688
		c-1.617-1.68-1.665-4.735-0.281-5.906C113.113,239.647,114.453,239.176,115.999,239.188z M126.155,241.25l8.312,8.25l-1,1
		l-8.312-8.25L126.155,241.25z M128.187,245.438c0.362,0.32,1.823,1.749,2.156,2.094c-2.083,2.006-3.721,4.285-4.562,6.719
		c-2.582,7.223-6.598,9.365-13.125,8.875l-0.031-0.062l-0.062-0.031c-0.572-5.328,0.893-10.668,8.625-12.969
		C123.657,249.198,126.191,247.482,128.187,245.438z M349.719,246.469l8.281,8.25l-1,1.031l-8.312-8.281L349.719,246.469z
		 M130.937,248.094c0.217,0.218,1.287,1.337,1.562,1.594c-0.839,1.303-2.352,2.379-1.812,5.125s2.111,2.63,3,2.156
		c0.889-0.474,1.29-2.816,1.406-2.562c2.044,4.02,2.031,7.034,0.062,9.312c-1.178,1.376-4.219,1.33-5.906-0.281
		C123.972,258.413,129.204,249.754,130.937,248.094z M365.438,248.188c1.967,0.023,3.924,0.639,5.5,2.281
		c1.617,1.68,1.633,4.704,0.25,5.875c-2.291,1.958-5.307,1.975-9.344-0.062c-0.256-0.115,2.086-0.521,2.562-1.406
		c0.476-0.885,0.604-2.461-2.156-3s-3.879,0.979-5.188,1.812c-0.258-0.273-1.345-1.314-1.562-1.531
		C356.648,250.972,361.109,248.137,365.438,248.188z M375.375,257c1.115,0.043,2.312,0.476,3.156,1.281
		c5.277,5.025,0.045,13.652-1.688,15.312c-0.217-0.218-1.286-1.337-1.562-1.594c0.838-1.303,2.352-2.379,1.812-5.125
		s-2.11-2.63-3-2.156c-0.889,0.474-1.29,2.816-1.405,2.562c-2.045-4.02-2.031-7.034-0.062-9.312
		C373.213,257.282,374.26,256.958,375.375,257z M392.781,258.532c0.74-0.025,1.527,0.002,2.344,0.062l0.031,0.031l0.062,0.031
		c0.572,5.328-0.893,10.668-8.625,12.969c-2.471,0.865-5.006,2.581-7,4.625c-0.362-0.32-1.823-1.749-2.155-2.094
		c2.082-2.006,3.721-4.285,4.562-6.719C384.26,261.118,387.604,258.711,392.781,258.532z M140.593,263.875
		c1.546,0.012,3.324,0.544,5.344,1.562c0.255,0.115-2.086,0.521-2.562,1.406c-0.476,0.885-0.604,2.43,2.156,2.969
		c2.759,0.539,3.878-0.947,5.188-1.781c0.258,0.273,1.344,1.314,1.562,1.531c-1.67,1.723-10.392,6.943-15.438,1.688
		c-1.617-1.68-1.634-4.735-0.25-5.906C137.738,264.366,139.047,263.864,140.593,263.875z M150.78,265.969l8.312,8.25l-1.031,1
		l-8.281-8.25L150.78,265.969z M152.812,270.157c0.362,0.32,1.823,1.749,2.156,2.094c-2.083,2.006-3.721,4.285-4.562,6.719
		c-2.582,7.223-6.598,9.364-13.125,8.875l-0.031-0.062l-0.062-0.031c-0.572-5.328,0.893-10.668,8.625-12.969
		C148.282,273.917,150.816,272.201,152.812,270.157z M374.312,271.188l8.312,8.25l-1,1l-8.312-8.25L374.312,271.188z
		 M155.562,272.813c0.217,0.218,1.287,1.337,1.562,1.594c-0.839,1.303-2.352,2.379-1.812,5.125c0.54,2.746,2.111,2.63,3,2.156
		s1.29-2.816,1.406-2.562c2.044,4.02,2.031,7.034,0.062,9.312c-1.178,1.376-4.219,1.33-5.906-0.281
		C148.597,283.131,153.829,274.473,155.562,272.813z M390.062,272.875c1.967,0.023,3.893,0.67,5.469,2.312
		c1.617,1.68,1.664,4.704,0.281,5.875c-2.291,1.958-5.308,1.943-9.345-0.094c0.177-0.156,2.132-0.604,2.562-1.406
		c0.477-0.885,0.604-2.43-2.156-2.969c-2.76-0.539-3.879,0.979-5.188,1.812c-0.258-0.273-1.375-1.346-1.594-1.562
		C381.242,275.66,385.734,272.825,390.062,272.875z M400,281.719c1.115,0.043,2.312,0.444,3.156,1.25
		c5.276,5.025,0.045,13.684-1.688,15.344c-0.219-0.218-1.287-1.337-1.562-1.594c0.838-1.303,2.352-2.379,1.812-5.125
		c-0.54-2.746-2.11-2.63-3-2.156c-0.889,0.474-1.291,2.816-1.405,2.562c-2.045-4.02-2.031-7.034-0.062-9.312
		C397.838,282,398.885,281.676,400,281.719z M417.406,283.25c0.737-0.025,1.526,0.002,2.344,0.062l0.031,0.031l0.031,0.031
		c0.571,5.328-0.861,10.668-8.595,12.969c-2.471,0.865-5.006,2.581-7,4.625c-0.362-0.32-1.854-1.749-2.188-2.094
		c2.082-2.006,3.721-4.285,4.562-6.719C408.854,285.836,412.229,283.43,417.406,283.25z M165.218,288.594
		c1.546,0.012,3.324,0.544,5.344,1.562c-0.049,0.144-2.115,0.577-2.562,1.406c-0.477,0.885-0.604,2.43,2.156,2.969
		c2.759,0.539,3.878-0.947,5.188-1.781c0.258,0.273,1.344,1.314,1.562,1.531c-1.67,1.723-10.392,6.912-15.438,1.656
		c-1.617-1.68-1.634-4.704-0.25-5.875C162.363,289.084,163.672,288.583,165.218,288.594z M175.405,290.688l8.312,8.25l-1.031,1
		l-8.312-8.25L175.405,290.688z M177.437,294.875c0.362,0.32,1.823,1.749,2.156,2.094c-2.083,2.006-3.721,4.285-4.562,6.719
		c-2.582,7.223-6.598,9.333-13.125,8.844l-0.062-0.031l-0.031-0.031c-0.572-5.328,0.893-10.668,8.625-12.969
		C172.907,298.635,175.441,296.919,177.437,294.875z M398.938,295.907l8.312,8.25l-1,1l-8.312-8.25L398.938,295.907z
		 M180.155,297.532c0.217,0.218,1.318,1.337,1.594,1.594c-0.839,1.303-2.352,2.379-1.812,5.125s2.08,2.63,2.969,2.156
		c0.889-0.474,1.321-2.816,1.438-2.562c2.044,4.021,2,7.034,0.031,9.312c-1.178,1.377-4.188,1.33-5.875-0.281
		C173.222,307.85,178.423,299.192,180.155,297.532z M414.688,297.594c1.968,0.023,3.892,0.67,5.47,2.312
		c1.617,1.68,1.664,4.704,0.28,5.875c-2.29,1.958-5.307,1.942-9.344-0.094c0.176-0.156,2.131-0.604,2.562-1.406
		c0.477-0.885,0.569-2.43-2.188-2.969c-2.76-0.539-3.848,0.947-5.155,1.781c-0.259-0.273-1.375-1.314-1.595-1.531
		C405.867,300.378,410.359,297.543,414.688,297.594z M424.625,306.438c1.115,0.045,2.312,0.444,3.156,1.25
		c5.276,5.025,0.045,13.684-1.688,15.344c-0.219-0.217-1.287-1.336-1.562-1.595c0.838-1.303,2.352-2.379,1.812-5.125
		c-0.54-2.745-2.11-2.629-3-2.155c-0.834,0.444-1.262,2.514-1.405,2.562c-2.046-4.02-2.033-7.034-0.062-9.312
		C422.463,306.718,423.51,306.394,424.625,306.438z M443.156,307.938c0.383,0.004,0.778,0.032,1.188,0.062l0.062,0.062l0.031,0.03
		c0.571,5.328-0.861,10.669-8.595,12.968c-2.471,0.865-5.006,2.582-7,4.625c-0.362-0.319-1.854-1.747-2.188-2.094
		c2.082-2.006,3.721-4.285,4.562-6.719c2.26-6.319,5.635-8.726,10.812-8.906C442.4,307.957,442.771,307.935,443.156,307.938z
		 M189.843,313.312c1.546,0.012,3.324,0.545,5.344,1.562c-0.049,0.145-2.146,0.578-2.594,1.406c-0.477,0.885-0.572,2.43,2.188,2.969
		c2.759,0.539,3.878-0.979,5.188-1.812c0.258,0.272,1.344,1.346,1.562,1.562c-1.67,1.723-10.392,6.912-15.438,1.656
		c-1.617-1.681-1.665-4.703-0.281-5.875C186.957,313.803,188.297,313.301,189.843,313.312z M200.03,315.406l8.312,8.25l-1.031,1
		l-8.312-8.25L200.03,315.406z M202.03,319.594c0.362,0.322,1.854,1.75,2.188,2.094c-2.083,2.007-3.721,4.285-4.562,6.72
		c-2.582,7.223-6.598,9.334-13.125,8.844l-0.062-0.031l-0.031-0.03c-0.572-5.328,0.861-10.669,8.594-12.97
		C197.501,323.354,200.035,321.639,202.03,319.594z M423.562,320.625l8.312,8.25l-1.031,1l-8.312-8.25L423.562,320.625z
		 M204.78,322.25c0.217,0.219,1.318,1.338,1.594,1.594c-0.839,1.304-2.352,2.379-1.812,5.125s2.08,2.631,2.969,2.156
		c0.889-0.473,1.321-2.816,1.438-2.562c2.044,4.021,2,7.035,0.031,9.312c-1.178,1.377-4.188,1.299-5.875-0.312
		C197.847,332.537,203.048,323.912,204.78,322.25z M439.312,322.312c1.967,0.022,3.891,0.639,5.469,2.28
		c1.617,1.681,1.664,4.736,0.281,5.906c-2.291,1.959-5.308,1.943-9.345-0.094c-0.256-0.115,2.086-0.521,2.562-1.406
		c0.476-0.885,0.569-2.43-2.188-2.969c-2.76-0.539-3.879,0.946-5.188,1.78c-0.258-0.272-1.344-1.313-1.562-1.53
		C430.492,325.098,434.984,322.262,439.312,322.312z M449.25,331.156c1.115,0.045,2.281,0.444,3.125,1.25
		c5.277,5.024,0.076,13.684-1.656,15.344c-0.219-0.217-1.317-1.336-1.594-1.594c0.838-1.304,2.352-2.379,1.812-5.125
		c-0.54-2.746-2.08-2.629-2.97-2.156c-0.889,0.475-1.321,2.816-1.438,2.562c-2.045-4.021-2.002-7.033-0.031-9.312
		C447.088,331.438,448.135,331.113,449.25,331.156z M466.719,332.656c0.349-0.01,0.697-0.008,1.062,0
		c0.389,0.01,0.778,0.033,1.188,0.062l0.062,0.062l0.031,0.03c0.571,5.328-0.861,10.669-8.595,12.97
		c-2.471,0.864-5.006,2.582-7,4.625c-0.362-0.32-1.854-1.748-2.188-2.095c2.082-2.006,3.721-4.284,4.562-6.719
		C458.113,335.246,461.5,332.818,466.719,332.656z M214.468,338.031c1.546,0.012,3.293,0.514,5.312,1.531
		c0.255,0.116-2.086,0.521-2.562,1.405c-0.476,0.886-0.572,2.461,2.188,3c2.759,0.539,3.878-0.979,5.188-1.812
		c0.258,0.272,1.344,1.313,1.562,1.531c-1.67,1.723-10.392,6.942-15.438,1.688c-1.617-1.68-1.665-4.703-0.281-5.875
		C211.582,338.521,212.922,338.02,214.468,338.031z M224.655,340.094l8.312,8.281l-1.031,1l-8.312-8.25L224.655,340.094z
		 M226.655,344.312c0.362,0.321,1.854,1.75,2.188,2.094c-2.083,2.006-3.721,4.254-4.562,6.688
		c-2.582,7.224-6.598,9.365-13.125,8.875l-0.062-0.031l-0.031-0.062c-0.572-5.328,0.861-10.637,8.594-12.938
		C222.126,348.072,224.66,346.357,226.655,344.312z M448.188,345.344l8.312,8.25l-1.031,1l-8.312-8.25L448.188,345.344z
		 M229.405,346.969c0.217,0.219,1.287,1.338,1.562,1.594c-0.839,1.304-2.352,2.38-1.812,5.125c0.54,2.746,2.111,2.632,3,2.156
		c0.812-0.432,1.252-2.41,1.406-2.562c2.044,4.021,2.031,7.035,0.062,9.312c-1.178,1.377-4.219,1.299-5.906-0.312
		C222.44,357.256,227.673,348.631,229.405,346.969z M463.938,347.031c1.968,0.022,3.892,0.639,5.47,2.281
		c1.617,1.68,1.664,4.735,0.28,5.905c-2.291,1.959-5.338,1.943-9.375-0.094c-0.256-0.115,2.117-0.521,2.595-1.406
		c0.477-0.885,0.569-2.43-2.188-2.969c-2.76-0.539-3.879,0.947-5.188,1.781c-0.258-0.273-1.344-1.314-1.562-1.531
		C455.117,349.816,459.609,346.98,463.938,347.031z M473.875,355.875c1.115,0.045,2.281,0.445,3.125,1.25
		c5.277,5.025,0.076,13.652-1.656,15.312c-0.219-0.218-1.317-1.306-1.594-1.562c0.838-1.303,2.352-2.379,1.812-5.125
		c-0.54-2.746-2.111-2.629-3-2.156c-0.89,0.476-1.291,2.816-1.406,2.562c-2.045-4.021-2.002-7.033-0.031-9.312
		C471.713,356.156,472.76,355.832,473.875,355.875z M491.25,357.375c0.738-0.025,1.527,0.002,2.344,0.062l0.031,0.062l0.062,0.031
		c0.571,5.328-0.894,10.668-8.625,12.969c-2.472,0.865-5.007,2.582-7,4.625c-0.363-0.32-1.824-1.748-2.156-2.094
		c2.082-2.006,3.721-4.285,4.562-6.72C482.729,359.994,486.072,357.555,491.25,357.375z M239.093,362.75
		c1.546,0.012,3.293,0.514,5.312,1.531c0.255,0.117-2.086,0.521-2.562,1.406c-0.476,0.885-0.604,2.461,2.156,3
		c2.759,0.538,3.878-0.979,5.188-1.812c0.258,0.273,1.375,1.314,1.594,1.531c-1.67,1.723-10.392,6.942-15.438,1.688
		c-1.617-1.68-1.665-4.703-0.281-5.875C236.207,363.24,237.547,362.738,239.093,362.75z M249.249,364.812l8.312,8.25l-1,1.03
		l-8.312-8.25L249.249,364.812z M251.28,369.031c0.362,0.321,1.823,1.75,2.156,2.094c-2.083,2.006-3.689,4.254-4.531,6.688
		c-2.582,7.224-6.629,9.365-13.156,8.875l-0.031-0.03l-0.031-0.062c-0.572-5.328,0.861-10.668,8.594-12.969
		C246.751,372.76,249.285,371.076,251.28,369.031z M472.812,370.062l8.312,8.25l-1.031,1l-8.312-8.25L472.812,370.062z
		 M254.03,371.688c0.217,0.22,1.287,1.339,1.562,1.595c-0.839,1.303-2.352,2.379-1.812,5.125c0.54,2.746,2.111,2.631,3,2.155
		c0.889-0.473,1.29-2.815,1.406-2.562c2.044,4.021,2.031,7.035,0.062,9.312c-1.178,1.378-4.219,1.3-5.906-0.312
		C247.065,381.975,252.298,373.35,254.03,371.688z M488.531,371.75c1.967,0.023,3.922,0.639,5.5,2.281
		c1.617,1.68,1.633,4.735,0.25,5.906c-2.291,1.959-5.308,1.942-9.344-0.095c-0.257-0.114,2.086-0.521,2.562-1.405
		c0.476-0.886,0.602-2.431-2.156-2.97c-2.76-0.539-3.879,0.947-5.188,1.781c-0.258-0.273-1.345-1.314-1.562-1.531
		C479.742,374.535,484.203,371.699,488.531,371.75z M498.5,380.594c1.115,0.045,2.281,0.445,3.125,1.25
		c5.277,5.025,0.045,13.652-1.688,15.312c-0.22-0.217-1.287-1.306-1.562-1.562c0.838-1.303,2.352-2.379,1.812-5.125
		c-0.54-2.746-2.111-2.66-3-2.188c-0.89,0.475-1.291,2.815-1.406,2.562c-2.045-4.02-2.033-7.002-0.062-9.28
		C496.307,380.875,497.385,380.551,498.5,380.594z M515.875,382.094c0.738-0.024,1.527,0.002,2.344,0.062l0.031,0.062l0.062,0.031
		c0.571,5.328-0.894,10.668-8.625,12.969c-2.472,0.865-5.007,2.582-7,4.625c-0.363-0.319-1.824-1.748-2.156-2.094
		c2.082-2.006,3.721-4.285,4.562-6.719C507.354,384.713,510.697,382.273,515.875,382.094z M263.687,387.469
		c1.546,0.013,3.324,0.515,5.344,1.531c0.255,0.117-2.086,0.521-2.562,1.406c-0.476,0.885-0.604,2.461,2.156,3
		c2.759,0.539,3.878-0.979,5.188-1.812c0.258,0.273,1.344,1.314,1.562,1.531c-1.67,1.723-10.392,6.943-15.438,1.688
		c-1.617-1.68-1.634-4.702-0.25-5.875C260.832,387.959,262.141,387.457,263.687,387.469z M273.874,389.531l8.312,8.25l-1,1.031
		l-8.312-8.25L273.874,389.531z M275.905,393.719c0.362,0.322,1.823,1.75,2.156,2.094c-2.083,2.007-3.721,4.285-4.562,6.72
		c-2.582,7.223-6.598,9.364-13.125,8.875l-0.031-0.031l-0.062-0.062c-0.572-5.328,0.893-10.669,8.625-12.97
		C271.376,397.479,273.91,395.764,275.905,393.719z M497.438,394.75l8.281,8.281l-1,1l-8.312-8.25L497.438,394.75z M278.655,396.406
		c0.217,0.219,1.287,1.307,1.562,1.562c-0.839,1.304-2.352,2.41-1.812,5.156c0.54,2.746,2.111,2.631,3,2.156
		c0.889-0.474,1.29-2.816,1.407-2.562c2.043,4.021,2.031,7.035,0.062,9.312c-1.178,1.377-4.219,1.299-5.907-0.312
		C271.69,406.693,276.923,398.068,278.655,396.406z M513.156,396.469c1.967,0.023,3.922,0.64,5.5,2.281
		c1.617,1.68,1.633,4.736,0.25,5.906c-2.291,1.959-5.308,1.942-9.344-0.094c-0.257-0.115,2.086-0.521,2.562-1.406
		s0.602-2.431-2.156-2.969c-2.76-0.539-3.879,0.946-5.188,1.78c-0.258-0.272-1.345-1.313-1.562-1.53
		C504.367,399.254,508.828,396.418,513.156,396.469z M523.094,405.281c1.115,0.045,2.312,0.477,3.156,1.281
		c5.277,5.024,0.045,13.651-1.688,15.312c-0.22-0.217-1.287-1.305-1.562-1.562c0.838-1.304,2.352-2.38,1.812-5.125
		c-0.54-2.746-2.111-2.66-3-2.188c-0.89,0.475-1.291,2.816-1.406,2.562c-2.045-4.02-2.033-7.002-0.062-9.28
		C520.932,405.594,521.979,405.238,523.094,405.281z M540.5,406.812c0.738-0.025,1.527,0.002,2.344,0.062l0.031,0.062l0.062,0.031
		c0.571,5.328-0.894,10.668-8.625,12.969c-2.472,0.865-5.007,2.582-7,4.625c-0.363-0.319-1.824-1.747-2.156-2.094
		c2.082-2.006,3.721-4.285,4.562-6.719C531.979,409.432,535.322,406.992,540.5,406.812z M288.312,412.188
		c1.545,0.013,3.324,0.515,5.344,1.531c0.254,0.117-2.086,0.521-2.562,1.406c-0.476,0.885-0.604,2.43,2.156,2.969
		s3.877-0.946,5.188-1.781c0.258,0.273,1.344,1.314,1.562,1.531c-1.67,1.724-10.393,6.943-15.438,1.688
		c-1.617-1.681-1.635-4.734-0.25-5.906C285.457,412.646,286.765,412.176,288.312,412.188z M298.5,414.25l8.312,8.25l-1.03,1.031
		l-8.313-8.25L298.5,414.25z M300.531,418.438c0.361,0.322,1.822,1.75,2.156,2.095c-2.084,2.006-3.722,4.285-4.563,6.719
		c-2.582,7.223-6.598,9.365-13.125,8.875l-0.031-0.031l-0.062-0.062c-0.572-5.328,0.893-10.668,8.625-12.969
		C296.001,422.197,298.535,420.482,300.531,418.438z M522.031,419.469l8.312,8.25l-1,1.031l-8.312-8.25L522.031,419.469z
		 M303.281,421.125c0.217,0.219,1.287,1.307,1.562,1.562c-0.84,1.303-2.352,2.409-1.812,5.155c0.539,2.746,2.111,2.631,3,2.156
		c0.889-0.473,1.289-2.816,1.406-2.562c2.043,4.021,2,7.004,0.03,9.28c-1.178,1.377-4.188,1.33-5.875-0.28
		C296.316,431.412,301.549,422.787,303.281,421.125z M537.781,421.188c1.967,0.023,3.891,0.64,5.469,2.281
		c1.617,1.681,1.664,4.736,0.281,5.906c-2.291,1.959-5.308,1.943-9.344-0.094c-0.257-0.115,2.086-0.521,2.562-1.406
		s0.602-2.43-2.156-2.969c-2.76-0.539-3.879,0.946-5.188,1.781c-0.258-0.273-1.375-1.314-1.595-1.531
		C528.961,423.973,533.453,421.137,537.781,421.188z M547.719,430c1.115,0.045,2.312,0.477,3.156,1.281
		c5.277,5.024,0.045,13.651-1.688,15.312c-0.22-0.217-1.287-1.305-1.562-1.562c0.838-1.304,2.352-2.41,1.812-5.156
		c-0.54-2.746-2.111-2.629-3-2.156c-0.808,0.431-1.25,2.388-1.406,2.562c-2.045-4.021-2.033-7.002-0.062-9.281
		C545.557,430.312,546.604,429.957,547.719,430z M312.938,436.906c1.545,0.012,3.324,0.514,5.345,1.531
		c0.254,0.116-2.117,0.521-2.595,1.405c-0.477,0.886-0.571,2.431,2.188,2.97c2.758,0.538,3.877-0.947,5.188-1.781
		c0.258,0.272,1.344,1.313,1.562,1.531c-1.67,1.723-10.394,6.942-15.438,1.688c-1.617-1.68-1.635-4.734-0.25-5.906
		C310.082,437.365,311.391,436.895,312.938,436.906z M323.125,438.969l8.312,8.25l-1.031,1.031l-8.312-8.25L323.125,438.969z
		 M325.125,443.156c0.361,0.321,1.854,1.75,2.188,2.094c-2.084,2.006-3.721,4.285-4.562,6.719
		c-2.582,7.224-6.599,9.365-13.125,8.875l-0.062-0.062l-0.031-0.031c-0.572-5.328,0.893-10.668,8.625-12.969
		C320.627,446.916,323.129,445.201,325.125,443.156z M327.875,445.844c0.217,0.219,1.318,1.308,1.594,1.562
		c-0.84,1.303-2.352,2.379-1.812,5.125s2.079,2.662,2.969,2.188c0.89-0.473,1.319-2.815,1.438-2.562c2.043,4.021,2,7.004,0.03,9.28
		c-1.178,1.378-4.188,1.33-5.875-0.28C320.941,456.131,326.143,447.506,327.875,445.844z M337.562,461.625
		c1.545,0.012,3.293,0.514,5.312,1.531c0.254,0.117-2.086,0.521-2.562,1.406c-0.477,0.885-0.572,2.43,2.188,2.969
		s3.877-0.947,5.188-1.781c0.258,0.273,1.345,1.314,1.562,1.531c-1.67,1.723-10.393,6.942-15.438,1.688
		c-1.617-1.68-1.666-4.733-0.281-5.906C334.676,462.084,336.016,461.613,337.562,461.625z M347.75,463.688l8.312,8.25l-1.031,1.031
		l-8.312-8.281L347.75,463.688z M349.75,467.875c0.361,0.322,1.854,1.75,2.188,2.094c-2.084,2.006-3.721,4.285-4.562,6.719
		c-2.582,7.224-6.599,9.365-13.125,8.875l-0.062-0.062l-0.031-0.031c-0.572-5.328,0.861-10.668,8.594-12.969
		C345.221,471.635,347.754,469.92,349.75,467.875z M352.5,470.562c0.217,0.219,1.318,1.307,1.594,1.562
		c-0.84,1.303-2.352,2.379-1.812,5.125s2.079,2.662,2.969,2.188s1.319-2.816,1.438-2.562c2.043,4.021,2,7.004,0.03,9.281
		c-1.178,1.377-4.188,1.33-5.875-0.281C345.566,480.85,350.768,472.225,352.5,470.562z M362.188,486.344
		c1.545,0.013,3.293,0.515,5.312,1.531c0.254,0.117-2.086,0.521-2.562,1.406c-0.476,0.885-0.571,2.43,2.188,2.969
		s3.847-0.947,5.156-1.781c0.258,0.273,1.375,1.314,1.594,1.531c-1.67,1.723-10.394,6.943-15.438,1.688
		c-1.617-1.68-1.666-4.733-0.28-5.905C359.301,486.803,360.641,486.332,362.188,486.344z M372.375,488.406l8.281,8.25l-1,1
		l-8.312-8.25L372.375,488.406z M374.375,492.594c0.361,0.322,1.854,1.75,2.188,2.094c-2.084,2.007-3.721,4.285-4.562,6.72
		c-2.582,7.223-6.629,9.364-13.156,8.875l-0.03-0.062l-0.031-0.03c-0.572-5.328,0.861-10.669,8.594-12.97
		C369.846,496.354,372.379,494.639,374.375,492.594z M377.125,495.281c0.217,0.219,1.287,1.307,1.562,1.562
		c-0.84,1.304-2.353,2.379-1.812,5.125s2.111,2.631,3,2.156c0.834-0.443,1.262-2.512,1.406-2.562
		c2.043,4.021,2.031,7.034,0.062,9.312c-1.178,1.377-4.219,1.33-5.905-0.281C370.16,505.568,375.393,496.943,377.125,495.281z
		 M386.812,511.031c1.545,0.012,3.293,0.545,5.312,1.562c0.254,0.117-2.086,0.521-2.562,1.406c-0.477,0.885-0.604,2.43,2.155,2.969
		c2.761,0.539,3.878-0.946,5.188-1.78c0.258,0.272,1.375,1.313,1.594,1.53c-1.67,1.724-10.393,6.943-15.438,1.688
		c-1.617-1.681-1.666-4.734-0.281-5.906C383.926,511.521,385.266,511.02,386.812,511.031z M396.969,513.125l8.312,8.25l-1,1
		l-8.312-8.25L396.969,513.125z M399,517.312c0.361,0.321,1.822,1.75,2.156,2.094c-2.084,2.006-3.689,4.285-4.531,6.719
		c-2.582,7.223-6.629,9.365-13.156,8.875l-0.031-0.062l-0.062-0.03c-0.571-5.328,0.894-10.668,8.625-12.97
		C394.471,521.072,397.004,519.357,399,517.312z M401.75,519.969c0.217,0.219,1.287,1.338,1.562,1.594
		c-0.841,1.304-2.353,2.38-1.812,5.125c0.54,2.746,2.111,2.632,3,2.156c0.889-0.473,1.289-2.815,1.406-2.562
		c2.043,4.021,2.031,7.035,0.062,9.312c-1.178,1.377-4.221,1.33-5.905-0.281C394.785,530.287,400.018,521.631,401.75,519.969z
		 M411.406,535.75c1.545,0.012,3.324,0.545,5.344,1.562c0.254,0.116-2.086,0.521-2.562,1.405c-0.476,0.886-0.604,2.431,2.156,2.97
		c2.758,0.538,3.877-0.947,5.188-1.781c0.258,0.272,1.344,1.313,1.562,1.531c-1.67,1.723-10.393,6.942-15.438,1.688
		c-1.617-1.68-1.635-4.734-0.25-5.906C408.551,536.24,409.859,535.738,411.406,535.75z M421.594,537.844l8.312,8.25l-1,1
		l-8.312-8.25L421.594,537.844z M423.625,542.031c0.361,0.322,1.822,1.75,2.156,2.094c-2.084,2.006-3.722,4.285-4.562,6.719
		c-2.582,7.224-6.598,9.365-13.125,8.875l-0.031-0.062L408,559.625c-0.572-5.328,0.893-10.668,8.625-12.969
		C419.094,545.791,421.629,544.076,423.625,542.031z M426.375,544.688c0.217,0.22,1.287,1.339,1.562,1.595
		c-0.841,1.303-2.353,2.379-1.812,5.125s2.111,2.631,3,2.155c0.889-0.473,1.289-2.815,1.406-2.562
		c2.043,4.021,2.031,7.035,0.062,9.312c-1.178,1.378-4.221,1.33-5.905-0.28C419.41,555.006,424.643,546.35,426.375,544.688z
		 M436.031,560.469c1.545,0.013,3.324,0.545,5.344,1.562c-0.051,0.145-2.115,0.578-2.562,1.406c-0.477,0.885-0.604,2.43,2.156,2.969
		c2.758,0.539,3.877-0.979,5.188-1.812c0.258,0.273,1.344,1.347,1.562,1.562c-1.67,1.723-10.393,6.912-15.438,1.656
		c-1.617-1.681-1.635-4.703-0.25-5.875C433.176,560.959,434.484,560.457,436.031,560.469z"/>
	<g id="g4672">
		<g id="g5810">
			<path id="path4675" sodipodi:nodetypes="cccccc" fill="#FFFFFF" d="M1.951,73.648l472.246,469.904
				c26.533-26.155,35.957-37.574,57.901-68.533L62.967,1.736L1.499,2.188L1.951,73.648z"/>
			<rect id="rect4923" x="-0.001" fill="none" width="600.001" height="660"/>
		</g>
	</g>
	<g id="g6967" transform="matrix(-0.26039,-4.3917818,-4.3832491,0.259884,95.795055,767.81102)">
		<path id="rect6969" fill="#FCEF3C" d="M151.001-91.982l-13.922-12.442c-0.748-0.669-1.724-0.782-2.179-0.253l-1.239,1.44
			c-0.456,0.529-0.218,1.5,0.53,2.168l13.923,12.442c0.748,0.669,1.724,0.781,2.179,0.252l1.24-1.44
			C151.986-90.342,151.749-91.313,151.001-91.982z"/>
		<path id="path6971" sodipodi:nodetypes="cssccssccccc" fill="#FCEF3C" d="M143.564-103.432c-0.972-1.654-1.044-2.928-0.267-3.953
			c0.464-0.618,1.759-0.685,2.517-0.047c2.371,1.992,0.368,5.82-0.325,6.576c-0.098-0.086-0.574-0.52-0.698-0.622
			c0.323-0.578,0.939-1.092,0.639-2.246c-0.3-1.154-0.966-1.061-1.331-0.834C143.733-104.331,143.62-103.327,143.564-103.432
			L143.564-103.432L143.564-103.432L143.564-103.432L143.564-103.432L143.564-103.432z"/>
		<path id="path6973" sodipodi:nodetypes="cssccssccccc" fill="#FCEF3C" d="M149.774-97.972c1.768,0.755,3.044,0.666,3.966-0.231
			c0.557-0.537,0.462-1.826-0.269-2.496c-2.279-2.097-5.837,0.365-6.502,1.145c0.098,0.086,0.589,0.503,0.706,0.613
			c0.535-0.391,0.969-1.065,2.155-0.913c1.186,0.152,1.177,0.823,0.997,1.212C150.647-98.252,149.662-98.015,149.774-97.972
			L149.774-97.972L149.774-97.972L149.774-97.972L149.774-97.972L149.774-97.972z"/>
		<path id="path6975" sodipodi:nodetypes="cccccccc" fill="#FCEF3C" d="M152.867-107.75c-2.785-0.026-4.435,0.987-5.345,4.134
			c-0.294,1.059-0.928,2.084-1.761,2.996c0.15,0.137,0.807,0.703,0.969,0.83c0.794-0.926,1.827-1.727,2.854-2.164
			c3.225-1.195,3.706-3.506,3.325-5.758l-0.021-0.018L152.867-107.75L152.867-107.75z"/>
		<polygon id="rect6977" fill="#FCEF3C" points="148.104,-98.523 144.361,-101.814 143.952,-101.352 147.695,-98.061 		"/>
		<g id="g6979">
			<path id="path6981" sodipodi:nodetypes="cssccssccccc" fill="#FCEF3C" d="M140.191-105.835c1.459-0.059,2.329-0.673,2.714-1.87
				c0.234-0.718-0.209-1.841-0.916-2.14c-2.209-0.938-3.986,2.774-4.225,3.756c0.094,0.036,0.56,0.208,0.673,0.258
				c0.261-0.577,0.369-1.368,1.244-1.727c0.876-0.359,1.065,0.25,1.052,0.677C140.722-106.453,140.1-105.826,140.191-105.835
				L140.191-105.835L140.191-105.835L140.191-105.835L140.191-105.835L140.191-105.835z"/>
			<path id="path6983" sodipodi:nodetypes="cccccccc" fill="#FCEF3C" d="M139.51-115.957c-1.96,1.143-2.587,8.239-2.905,9.411
				c0.145,0.061,0.77,0.297,0.921,0.343c0.287-1.168,0.778-2.324,1.37-3.148c1.913-2.429,1.577-4.717,0.653-6.59l-0.02-0.008
				L139.51-115.957L139.51-115.957L139.51-115.957z"/>
		</g>
		<g id="g6985" transform="matrix(-0.184211,-0.982887,-0.982887,0.184211,74.35308,62.86575)">
			<path id="path6987" sodipodi:nodetypes="cssccssccccc" fill="#FCEF3C" d="M140.191-105.835c1.459-0.059,2.329-0.673,2.714-1.869
				c0.235-0.718-0.208-1.842-0.916-2.141c-2.209-0.938-3.986,2.774-4.225,3.756c0.094,0.036,0.56,0.208,0.673,0.257
				c0.261-0.577,0.369-1.367,1.244-1.726c0.876-0.359,1.065,0.25,1.053,0.677C140.722-106.454,140.101-105.826,140.191-105.835
				L140.191-105.835L140.191-105.835L140.191-105.835L140.191-105.835L140.191-105.835z"/>
			<path id="path6989" sodipodi:nodetypes="cccccccc" fill="#FCEF3C" d="M139.51-115.957c-1.96,1.143-2.587,8.239-2.905,9.411
				c0.145,0.061,0.771,0.297,0.921,0.344c0.287-1.168,0.778-2.324,1.371-3.149c1.913-2.429,1.576-4.717,0.653-6.59l-0.02-0.008
				L139.51-115.957L139.51-115.957L139.51-115.957z"/>
		</g>
		<path id="path6991" sodipodi:nodetypes="cccccccccc" fill="#FCEF3C" d="M144.072-101.305l3.546,3.078
			c0.806,2.367,3.143,4.498,5.561,5.366c0,0.315,0.645,1.263,0.806,1.578l-1.27,0.159l-16.308-14.448l0.09-1.099
			c0.322,0.316,1.451,0.474,2.015,0.789C139.317-103.751,141.735-101.62,144.072-101.305L144.072-101.305L144.072-101.305z"/>
	</g>
	<g id="g7109" transform="matrix(-0.26039,-4.3917818,-4.3832491,0.259884,-69.382412,758.81602)">
		<path id="rect7111" fill="#FCEF3C" d="M151.001-91.981l-13.923-12.442c-0.748-0.669-1.724-0.782-2.179-0.253l-1.24,1.44
			c-0.455,0.529-0.218,1.5,0.53,2.168l13.923,12.442c0.748,0.669,1.724,0.782,2.179,0.253l1.24-1.44
			C151.986-90.342,151.749-91.313,151.001-91.981z"/>
		<path id="path7113" sodipodi:nodetypes="cssccssccccc" fill="#FCEF3C" d="M143.564-103.432c-0.972-1.654-1.044-2.928-0.267-3.953
			c0.465-0.618,1.759-0.685,2.517-0.047c2.371,1.992,0.368,5.82-0.325,6.576c-0.098-0.087-0.574-0.52-0.698-0.622
			c0.322-0.578,0.939-1.092,0.639-2.246c-0.3-1.154-0.966-1.061-1.332-0.834C143.733-104.331,143.62-103.327,143.564-103.432
			L143.564-103.432L143.564-103.432L143.564-103.432L143.564-103.432L143.564-103.432z"/>
		<path id="path7115" sodipodi:nodetypes="cssccssccccc" fill="#FCEF3C" d="M149.774-97.972c1.768,0.754,3.044,0.666,3.966-0.231
			c0.557-0.537,0.461-1.826-0.269-2.496c-2.279-2.096-5.837,0.365-6.502,1.146c0.098,0.086,0.589,0.503,0.706,0.613
			c0.535-0.392,0.969-1.065,2.154-0.913c1.186,0.152,1.177,0.823,0.997,1.212C150.647-98.252,149.662-98.015,149.774-97.972
			L149.774-97.972L149.774-97.972L149.774-97.972L149.774-97.972L149.774-97.972z"/>
		<path id="path7117" sodipodi:nodetypes="cccccccc" fill="#FCEF3C" d="M152.867-107.751c-2.785-0.026-4.435,0.988-5.345,4.134
			c-0.294,1.059-0.929,2.084-1.761,2.996c0.15,0.138,0.807,0.704,0.969,0.83c0.794-0.925,1.827-1.727,2.854-2.164
			c3.225-1.195,3.706-3.506,3.325-5.758l-0.021-0.019L152.867-107.751L152.867-107.751z"/>
		<polygon id="rect7119" fill="#FCEF3C" points="148.104,-98.523 144.361,-101.814 143.952,-101.352 147.695,-98.061 		"/>
		<g id="g7121">
			<path id="path7123" sodipodi:nodetypes="cssccssccccc" fill="#FCEF3C" d="M140.191-105.835c1.459-0.059,2.329-0.673,2.714-1.87
				c0.234-0.718-0.209-1.841-0.916-2.14c-2.209-0.938-3.986,2.774-4.225,3.756c0.094,0.036,0.56,0.207,0.673,0.257
				c0.261-0.577,0.369-1.367,1.244-1.726c0.876-0.359,1.065,0.25,1.052,0.677C140.722-106.453,140.101-105.826,140.191-105.835
				L140.191-105.835L140.191-105.835L140.191-105.835L140.191-105.835L140.191-105.835z"/>
			<path id="path7125" sodipodi:nodetypes="cccccccc" fill="#FCEF3C" d="M139.51-115.956c-1.96,1.143-2.587,8.239-2.905,9.411
				c0.145,0.061,0.771,0.297,0.921,0.344c0.287-1.168,0.778-2.324,1.371-3.148c1.913-2.429,1.576-4.717,0.653-6.59l-0.02-0.008
				L139.51-115.956L139.51-115.956L139.51-115.956z"/>
		</g>
		<g id="g7127" transform="matrix(-0.184211,-0.982887,-0.982887,0.184211,74.35308,62.86575)">
			<path id="path7129" sodipodi:nodetypes="cssccssccccc" fill="#FCEF3C" d="M140.191-105.835c1.46-0.059,2.329-0.673,2.714-1.869
				c0.234-0.718-0.209-1.841-0.916-2.14c-2.209-0.938-3.986,2.774-4.225,3.756c0.094,0.036,0.559,0.208,0.673,0.257
				c0.26-0.577,0.368-1.367,1.245-1.726c0.875-0.359,1.065,0.25,1.052,0.677C140.722-106.453,140.1-105.826,140.191-105.835
				L140.191-105.835L140.191-105.835L140.191-105.835L140.191-105.835L140.191-105.835z"/>
			<path id="path7131" sodipodi:nodetypes="cccccccc" fill="#FCEF3C" d="M139.51-115.957c-1.96,1.143-2.587,8.239-2.905,9.411
				c0.145,0.061,0.771,0.297,0.921,0.344c0.287-1.168,0.778-2.324,1.37-3.149c1.913-2.429,1.577-4.717,0.653-6.59l-0.02-0.008
				L139.51-115.957L139.51-115.957L139.51-115.957z"/>
		</g>
		<path id="path7133" sodipodi:nodetypes="cccccccccc" fill="#FCEF3C" d="M144.072-101.305l3.546,3.078
			c0.806,2.367,3.143,4.498,5.561,5.366c0,0.315,0.645,1.262,0.806,1.578l-1.27,0.159l-16.308-14.449l0.09-1.098
			c0.322,0.316,1.45,0.473,2.015,0.789C139.317-103.751,141.735-101.62,144.072-101.305L144.072-101.305L144.072-101.305z"/>
	</g>
	<g id="g7135" transform="matrix(-0.26039,-4.3917818,-4.3832491,0.259884,107.88762,928.85053)">
		<path id="rect7137" fill="#FCEF3C" d="M151.001-91.982l-13.923-12.442c-0.748-0.669-1.723-0.781-2.179-0.252l-1.24,1.44
			c-0.455,0.529-0.218,1.499,0.53,2.168l13.923,12.442c0.748,0.669,1.724,0.782,2.179,0.253l1.24-1.44
			C151.986-90.343,151.749-91.313,151.001-91.982z"/>
		<path id="path7139" sodipodi:nodetypes="cssccssccccc" fill="#FCEF3C" d="M143.564-103.432c-0.972-1.654-1.044-2.928-0.267-3.953
			c0.465-0.618,1.759-0.685,2.517-0.047c2.371,1.992,0.368,5.82-0.325,6.576c-0.098-0.087-0.575-0.52-0.698-0.622
			c0.323-0.578,0.939-1.092,0.639-2.246c-0.3-1.154-0.966-1.061-1.331-0.834C143.733-104.331,143.62-103.327,143.564-103.432
			L143.564-103.432L143.564-103.432L143.564-103.432L143.564-103.432L143.564-103.432z"/>
		<path id="path7141" sodipodi:nodetypes="cssccssccccc" fill="#FCEF3C" d="M149.774-97.973c1.768,0.755,3.044,0.667,3.966-0.231
			c0.557-0.537,0.461-1.826-0.269-2.496c-2.279-2.096-5.837,0.365-6.502,1.146c0.098,0.086,0.589,0.503,0.706,0.613
			c0.535-0.392,0.969-1.065,2.154-0.913c1.186,0.152,1.177,0.823,0.997,1.212C150.647-98.252,149.662-98.015,149.774-97.973
			L149.774-97.973L149.774-97.973L149.774-97.973L149.774-97.973L149.774-97.973z"/>
		<path id="path7143" sodipodi:nodetypes="cccccccc" fill="#FCEF3C" d="M152.867-107.751c-2.785-0.026-4.435,0.988-5.345,4.134
			c-0.294,1.059-0.928,2.083-1.761,2.996c0.15,0.137,0.807,0.704,0.969,0.83c0.795-0.925,1.827-1.727,2.854-2.164
			c3.225-1.195,3.706-3.506,3.325-5.758l-0.021-0.018L152.867-107.751L152.867-107.751z"/>
		<polygon id="rect7145" fill="#FCEF3C" points="148.104,-98.523 144.36,-101.814 143.952,-101.352 147.696,-98.061 		"/>
		<g id="g7147">
			<path id="path7149" sodipodi:nodetypes="cssccssccccc" fill="#FCEF3C" d="M140.191-105.835c1.459-0.059,2.329-0.673,2.714-1.869
				c0.234-0.718-0.209-1.842-0.916-2.141c-2.209-0.938-3.986,2.774-4.225,3.756c0.094,0.036,0.56,0.207,0.673,0.257
				c0.261-0.577,0.369-1.367,1.245-1.726c0.876-0.359,1.065,0.25,1.052,0.677C140.722-106.453,140.1-105.827,140.191-105.835
				L140.191-105.835L140.191-105.835L140.191-105.835L140.191-105.835L140.191-105.835z"/>
			<path id="path7151" sodipodi:nodetypes="cccccccc" fill="#FCEF3C" d="M139.51-115.957c-1.96,1.143-2.587,8.239-2.905,9.411
				c0.145,0.061,0.771,0.297,0.921,0.344c0.288-1.168,0.778-2.324,1.371-3.149c1.913-2.429,1.576-4.717,0.653-6.59l-0.02-0.008
				L139.51-115.957L139.51-115.957L139.51-115.957z"/>
		</g>
		<g id="g7153" transform="matrix(-0.184211,-0.982887,-0.982887,0.184211,74.35308,62.86575)">
			<path id="path7155" sodipodi:nodetypes="cssccssccccc" fill="#FCEF3C" d="M140.191-105.835c1.46-0.059,2.329-0.673,2.714-1.87
				c0.234-0.718-0.208-1.841-0.916-2.14c-2.209-0.938-3.986,2.774-4.225,3.756c0.094,0.036,0.559,0.208,0.673,0.257
				c0.26-0.577,0.368-1.367,1.244-1.726c0.876-0.359,1.065,0.25,1.052,0.677C140.722-106.453,140.1-105.826,140.191-105.835
				L140.191-105.835L140.191-105.835L140.191-105.835L140.191-105.835L140.191-105.835z"/>
			<path id="path7157" sodipodi:nodetypes="cccccccc" fill="#FCEF3C" d="M139.51-115.956c-1.96,1.143-2.586,8.239-2.905,9.411
				c0.145,0.061,0.771,0.297,0.921,0.344c0.287-1.168,0.778-2.324,1.371-3.149c1.913-2.429,1.576-4.717,0.653-6.59l-0.02-0.008
				L139.51-115.956L139.51-115.956L139.51-115.956z"/>
		</g>
		<path id="path7159" sodipodi:nodetypes="cccccccccc" fill="#FCEF3C" d="M144.072-101.305l3.546,3.078
			c0.806,2.368,3.143,4.498,5.561,5.367c0,0.315,0.645,1.262,0.806,1.578l-1.27,0.159l-16.309-14.449l0.091-1.098
			c0.322,0.315,1.451,0.473,2.015,0.789C139.317-103.751,141.735-101.62,144.072-101.305L144.072-101.305L144.072-101.305z"/>
	</g>
	<g id="g7204" transform="matrix(0.26039,4.3917818,4.3832491,-0.259884,548.45024,-181.31098)">
		<path id="rect7206" fill="#FCEF3C" d="M151.001-91.982l-13.922-12.442c-0.748-0.669-1.724-0.781-2.179-0.252l-1.24,1.44
			c-0.455,0.529-0.218,1.499,0.53,2.168l13.922,12.442c0.748,0.669,1.724,0.782,2.179,0.253l1.24-1.44
			C151.987-90.343,151.749-91.314,151.001-91.982z"/>
		<path id="path7208" sodipodi:nodetypes="cssccssccccc" fill="#FCEF3C" d="M143.564-103.432c-0.972-1.654-1.044-2.928-0.267-3.953
			c0.465-0.619,1.759-0.685,2.517-0.047c2.371,1.992,0.368,5.82-0.325,6.575c-0.098-0.086-0.574-0.52-0.698-0.621
			c0.322-0.578,0.939-1.092,0.639-2.246c-0.3-1.154-0.966-1.061-1.332-0.835C143.733-104.331,143.62-103.327,143.564-103.432
			L143.564-103.432L143.564-103.432L143.564-103.432L143.564-103.432L143.564-103.432z"/>
		<path id="path7210" sodipodi:nodetypes="cssccssccccc" fill="#FCEF3C" d="M149.774-97.973c1.768,0.755,3.044,0.667,3.966-0.231
			c0.557-0.537,0.462-1.826-0.269-2.496c-2.279-2.096-5.837,0.365-6.502,1.146c0.098,0.086,0.589,0.503,0.706,0.612
			c0.535-0.392,0.969-1.065,2.154-0.913c1.186,0.152,1.177,0.823,0.997,1.213C150.647-98.253,149.663-98.015,149.774-97.973
			L149.774-97.973L149.774-97.973L149.774-97.973L149.774-97.973L149.774-97.973z"/>
		<path id="path7212" sodipodi:nodetypes="cccccccc" fill="#FCEF3C" d="M152.867-107.751c-2.785-0.026-4.435,0.987-5.345,4.134
			c-0.294,1.059-0.928,2.084-1.761,2.996c0.15,0.137,0.807,0.704,0.969,0.83c0.794-0.926,1.827-1.727,2.854-2.164
			c3.225-1.195,3.706-3.506,3.325-5.758l-0.021-0.018L152.867-107.751L152.867-107.751z"/>
		<polygon id="rect7214" fill="#FCEF3C" points="148.104,-98.523 144.361,-101.814 143.952,-101.352 147.696,-98.061 		"/>
		<g id="g7216">
			<path id="path7218" sodipodi:nodetypes="cssccssccccc" fill="#FCEF3C" d="M140.191-105.835c1.459-0.059,2.329-0.673,2.714-1.869
				c0.234-0.718-0.209-1.842-0.916-2.141c-2.209-0.938-3.986,2.774-4.225,3.756c0.094,0.037,0.56,0.208,0.673,0.257
				c0.261-0.577,0.369-1.367,1.244-1.726c0.876-0.359,1.065,0.25,1.052,0.677C140.722-106.454,140.1-105.827,140.191-105.835
				L140.191-105.835L140.191-105.835L140.191-105.835L140.191-105.835L140.191-105.835z"/>
			<path id="path7220" sodipodi:nodetypes="cccccccc" fill="#FCEF3C" d="M139.51-115.957c-1.96,1.143-2.587,8.239-2.905,9.411
				c0.145,0.061,0.771,0.297,0.921,0.344c0.287-1.168,0.778-2.324,1.371-3.149c1.913-2.429,1.576-4.717,0.653-6.59l-0.02-0.008
				L139.51-115.957L139.51-115.957L139.51-115.957z"/>
		</g>
		<g id="g7222" transform="matrix(-0.184211,-0.982887,-0.982887,0.184211,74.35308,62.86575)">
			<path id="path7224" sodipodi:nodetypes="cssccssccccc" fill="#FCEF3C" d="M140.191-105.835c1.459-0.059,2.329-0.673,2.714-1.869
				c0.234-0.718-0.208-1.841-0.916-2.14c-2.209-0.938-3.986,2.774-4.225,3.756c0.094,0.036,0.56,0.207,0.673,0.257
				c0.261-0.578,0.369-1.367,1.244-1.726c0.876-0.359,1.065,0.25,1.053,0.677C140.722-106.454,140.101-105.827,140.191-105.835
				L140.191-105.835L140.191-105.835L140.191-105.835L140.191-105.835L140.191-105.835z"/>
			<path id="path7226" sodipodi:nodetypes="cccccccc" fill="#FCEF3C" d="M139.51-115.957c-1.96,1.143-2.587,8.239-2.905,9.411
				c0.146,0.061,0.771,0.297,0.921,0.343c0.287-1.168,0.778-2.324,1.371-3.148c1.913-2.429,1.577-4.717,0.653-6.59l-0.02-0.008
				L139.51-115.957L139.51-115.957L139.51-115.957z"/>
		</g>
		<path id="path7228" sodipodi:nodetypes="cccccccccc" fill="#FCEF3C" d="M144.072-101.305l3.546,3.078
			c0.806,2.367,3.143,4.498,5.56,5.366c0,0.316,0.645,1.263,0.806,1.578l-1.27,0.159l-16.308-14.448l0.09-1.098
			c0.322,0.315,1.451,0.473,2.015,0.789C139.317-103.751,141.735-101.621,144.072-101.305L144.072-101.305L144.072-101.305z"/>
	</g>
	<g id="g7230" transform="matrix(0.26039,4.3917818,4.3832491,-0.259884,697.34781,-146.99169)">
		<path id="rect7232" fill="#FCEF3C" d="M151.001-91.982l-13.923-12.442c-0.748-0.669-1.723-0.782-2.179-0.253l-1.24,1.44
			c-0.455,0.529-0.218,1.5,0.53,2.168l13.923,12.442c0.748,0.669,1.724,0.782,2.179,0.253l1.24-1.44
			C151.987-90.343,151.749-91.314,151.001-91.982z"/>
		<path id="path7234" sodipodi:nodetypes="cssccssccccc" fill="#FCEF3C" d="M143.564-103.432c-0.972-1.654-1.044-2.928-0.267-3.953
			c0.464-0.619,1.759-0.685,2.517-0.047c2.371,1.992,0.368,5.82-0.325,6.576c-0.098-0.087-0.575-0.52-0.698-0.622
			c0.323-0.578,0.939-1.092,0.639-2.246c-0.3-1.154-0.966-1.061-1.332-0.835C143.733-104.331,143.62-103.327,143.564-103.432
			L143.564-103.432L143.564-103.432L143.564-103.432L143.564-103.432L143.564-103.432z"/>
		<path id="path7236" sodipodi:nodetypes="cssccssccccc" fill="#FCEF3C" d="M149.774-97.972c1.768,0.755,3.044,0.666,3.967-0.231
			c0.557-0.537,0.461-1.826-0.269-2.496c-2.279-2.096-5.837,0.365-6.502,1.146c0.098,0.086,0.589,0.503,0.706,0.613
			c0.535-0.392,0.969-1.066,2.154-0.913c1.186,0.152,1.177,0.823,0.997,1.213C150.647-98.252,149.662-98.015,149.774-97.972
			L149.774-97.972L149.774-97.972L149.774-97.972L149.774-97.972L149.774-97.972z"/>
		<path id="path7238" sodipodi:nodetypes="cccccccc" fill="#FCEF3C" d="M152.867-107.751c-2.785-0.026-4.435,0.987-5.345,4.134
			c-0.295,1.059-0.928,2.084-1.761,2.996c0.15,0.138,0.807,0.704,0.969,0.83c0.795-0.925,1.827-1.727,2.854-2.164
			c3.225-1.195,3.706-3.506,3.325-5.758l-0.021-0.019L152.867-107.751L152.867-107.751z"/>
		<polygon id="rect7240" fill="#FCEF3C" points="148.104,-98.523 144.361,-101.814 143.952,-101.352 147.696,-98.061 		"/>
		<g id="g7242">
			<path id="path7244" sodipodi:nodetypes="cssccssccccc" fill="#FCEF3C" d="M140.191-105.835c1.459-0.059,2.329-0.673,2.714-1.87
				c0.235-0.718-0.209-1.841-0.916-2.14c-2.208-0.938-3.986,2.774-4.225,3.756c0.094,0.037,0.559,0.208,0.673,0.257
				c0.261-0.577,0.369-1.367,1.244-1.726c0.876-0.359,1.065,0.25,1.053,0.677C140.722-106.454,140.101-105.827,140.191-105.835
				L140.191-105.835L140.191-105.835L140.191-105.835L140.191-105.835L140.191-105.835z"/>
			<path id="path7246" sodipodi:nodetypes="cccccccc" fill="#FCEF3C" d="M139.511-115.957c-1.96,1.143-2.587,8.239-2.905,9.411
				c0.145,0.061,0.771,0.297,0.921,0.344c0.288-1.168,0.778-2.324,1.371-3.149c1.913-2.429,1.576-4.717,0.653-6.59l-0.02-0.008
				L139.511-115.957L139.511-115.957L139.511-115.957z"/>
		</g>
		<g id="g7248" transform="matrix(-0.184211,-0.982887,-0.982887,0.184211,74.35308,62.86575)">
			<path id="path7250" sodipodi:nodetypes="cssccssccccc" fill="#FCEF3C" d="M140.191-105.835c1.46-0.059,2.329-0.673,2.714-1.869
				c0.234-0.718-0.209-1.842-0.916-2.141c-2.209-0.938-3.986,2.773-4.225,3.756c0.094,0.036,0.559,0.208,0.673,0.257
				c0.261-0.577,0.369-1.367,1.245-1.726c0.875-0.359,1.065,0.25,1.052,0.677C140.722-106.453,140.101-105.827,140.191-105.835
				L140.191-105.835L140.191-105.835L140.191-105.835L140.191-105.835L140.191-105.835z"/>
			<path id="path7252" sodipodi:nodetypes="cccccccc" fill="#FCEF3C" d="M139.51-115.957c-1.96,1.142-2.587,8.239-2.905,9.411
				c0.145,0.061,0.771,0.297,0.921,0.344c0.287-1.168,0.778-2.324,1.37-3.149c1.913-2.429,1.576-4.717,0.653-6.59l-0.02-0.008
				L139.51-115.957L139.51-115.957L139.51-115.957z"/>
		</g>
		<path id="path7254" sodipodi:nodetypes="cccccccccc" fill="#FCEF3C" d="M144.072-101.305l3.546,3.078
			c0.806,2.367,3.143,4.498,5.561,5.366c0,0.315,0.645,1.262,0.806,1.578l-1.27,0.159l-16.309-14.448l0.091-1.099
			c0.322,0.316,1.451,0.474,2.015,0.789C139.318-103.751,141.735-101.621,144.072-101.305L144.072-101.305L144.072-101.305z"/>
	</g>
	<g id="g7256" transform="matrix(0.26039,4.3917818,4.3832491,-0.259884,512.84226,-331.49723)">
		<path id="rect7258" fill="#FCEF3C" d="M151.001-91.982l-13.923-12.442c-0.748-0.669-1.724-0.782-2.179-0.253l-1.24,1.44
			c-0.455,0.529-0.218,1.5,0.53,2.168l13.923,12.442c0.748,0.669,1.724,0.781,2.179,0.252l1.24-1.44
			C151.986-90.343,151.749-91.313,151.001-91.982z"/>
		<path id="path7260" sodipodi:nodetypes="cssccssccccc" fill="#FCEF3C" d="M143.564-103.432c-0.972-1.654-1.044-2.928-0.267-3.953
			c0.465-0.619,1.759-0.685,2.517-0.047c2.371,1.992,0.368,5.82-0.325,6.575c-0.098-0.086-0.575-0.52-0.698-0.621
			c0.323-0.578,0.939-1.092,0.639-2.246c-0.3-1.154-0.966-1.061-1.331-0.835C143.733-104.331,143.62-103.327,143.564-103.432
			L143.564-103.432L143.564-103.432L143.564-103.432L143.564-103.432L143.564-103.432z"/>
		<path id="path7262" sodipodi:nodetypes="cssccssccccc" fill="#FCEF3C" d="M149.774-97.973c1.768,0.755,3.044,0.666,3.967-0.231
			c0.557-0.537,0.461-1.826-0.269-2.496c-2.279-2.096-5.837,0.365-6.502,1.145c0.098,0.086,0.589,0.503,0.706,0.612
			c0.535-0.392,0.969-1.065,2.154-0.913c1.186,0.152,1.177,0.823,0.997,1.212C150.647-98.253,149.662-98.015,149.774-97.973
			L149.774-97.973L149.774-97.973L149.774-97.973L149.774-97.973L149.774-97.973z"/>
		<path id="path7264" sodipodi:nodetypes="cccccccc" fill="#FCEF3C" d="M152.867-107.751c-2.785-0.026-4.435,0.987-5.345,4.134
			c-0.294,1.06-0.928,2.084-1.761,2.996c0.15,0.137,0.807,0.704,0.969,0.83c0.795-0.926,1.827-1.727,2.854-2.164
			c3.225-1.196,3.706-3.506,3.325-5.758l-0.021-0.018L152.867-107.751L152.867-107.751z"/>
		<polygon id="rect7266" fill="#FCEF3C" points="148.104,-98.523 144.361,-101.814 143.952,-101.352 147.696,-98.061 		"/>
		<g id="g7268">
			<path id="path7270" sodipodi:nodetypes="cssccssccccc" fill="#FCEF3C" d="M140.191-105.835c1.459-0.059,2.328-0.673,2.713-1.869
				c0.235-0.718-0.209-1.841-0.916-2.14c-2.209-0.938-3.986,2.774-4.225,3.756c0.094,0.037,0.56,0.208,0.673,0.258
				c0.261-0.577,0.369-1.368,1.245-1.727c0.876-0.359,1.065,0.25,1.052,0.677C140.722-106.454,140.101-105.827,140.191-105.835
				L140.191-105.835L140.191-105.835L140.191-105.835L140.191-105.835L140.191-105.835z"/>
			<path id="path7272" sodipodi:nodetypes="cccccccc" fill="#FCEF3C" d="M139.51-115.957c-1.96,1.143-2.587,8.239-2.905,9.411
				c0.145,0.061,0.771,0.297,0.921,0.344c0.288-1.168,0.778-2.324,1.371-3.149c1.913-2.429,1.577-4.717,0.653-6.59l-0.02-0.008
				L139.51-115.957L139.51-115.957L139.51-115.957z"/>
		</g>
		<g id="g7274" transform="matrix(-0.184211,-0.982887,-0.982887,0.184211,74.35308,62.86575)">
			<path id="path7276" sodipodi:nodetypes="cssccssccccc" fill="#FCEF3C" d="M140.191-105.835c1.459-0.059,2.329-0.673,2.713-1.87
				c0.235-0.718-0.208-1.841-0.916-2.14c-2.209-0.938-3.986,2.774-4.225,3.756c0.094,0.036,0.56,0.207,0.673,0.257
				c0.261-0.577,0.369-1.367,1.245-1.726c0.876-0.359,1.065,0.25,1.053,0.677C140.722-106.454,140.101-105.827,140.191-105.835
				L140.191-105.835L140.191-105.835L140.191-105.835L140.191-105.835L140.191-105.835z"/>
			<path id="path7278" sodipodi:nodetypes="cccccccc" fill="#FCEF3C" d="M139.511-115.957c-1.96,1.142-2.587,8.239-2.905,9.411
				c0.146,0.061,0.771,0.297,0.921,0.344c0.287-1.168,0.778-2.324,1.371-3.149c1.913-2.429,1.576-4.717,0.653-6.59l-0.02-0.008
				L139.511-115.957L139.511-115.957L139.511-115.957z"/>
		</g>
		<path id="path7280" sodipodi:nodetypes="cccccccccc" fill="#FCEF3C" d="M144.072-101.305l3.546,3.078
			c0.806,2.367,3.143,4.498,5.56,5.366c0,0.316,0.645,1.263,0.806,1.578l-1.27,0.159l-16.309-14.448l0.091-1.099
			c0.322,0.316,1.45,0.474,2.015,0.789C139.317-103.751,141.735-101.621,144.072-101.305L144.072-101.305L144.072-101.305z"/>
	</g>
</g>
<g id="layer4" inkscape:groupmode="layer" inkscape:label="Meubles">
</g>
<path id="path2855" fill="none" stroke="#640000" stroke-width="2" d="M300,657.405c0,0,297.505-111.946,297.505-396.446
	s0-257.69,0-257.69H2.495v257.69C2.495,545.459,300,657.405,300,657.405z"/>
</svg>
